<?xml version="1.0" encoding="utf-8"?>
<!-- Generator: Adobe Illustrator 18.0.0, SVG Export Plug-In . SVG Version: 6.00 Build 0)  -->
<!DOCTYPE svg PUBLIC "-//W3C//DTD SVG 1.1//EN" "http://www.w3.org/Graphics/SVG/1.1/DTD/svg11.dtd">
<svg version="1.1" id="Ebene_1" xmlns="http://www.w3.org/2000/svg" xmlns:xlink="http://www.w3.org/1999/xlink" x="0px" y="0px"
	 viewBox="0 0 20 20" enable-background="new 0 0 20 20" xml:space="preserve">
<g>
	<path fill="#03CCAB" d="M11.2,11.4c0,0.2,0,0.4-0.1,0.6c-0.1,0.4-0.3,0.8-0.7,1.1c-0.5,0.5-1.1,0.8-1.8,0.8c-0.1,0-0.2,0-0.2,0
		c0,0-0.1,0-0.1,0c-0.1,0-0.3,0-0.4-0.1c-0.2-0.1-0.4-0.2-0.6-0.3c-0.1-0.1-0.2-0.1-0.3-0.2c-0.1-0.1-0.1-0.1-0.2-0.2
		c-0.5-0.5-0.8-1.1-0.8-1.8c0-0.7,0.3-1.3,0.8-1.8C6.9,9.4,6.9,9.4,7,9.3c0,0,0,0,0.1,0c0,0,0.1-0.1,0.1-0.1c0,0,0,0,0.1,0
		c0.1,0,0.1-0.1,0.2-0.1c0,0,0,0,0.1,0c0.1,0,0.1,0,0.2-0.1c0,0,0,0,0.1,0c0.1,0,0.1,0,0.2-0.1c0,0,0,0,0.1,0c0.1,0,0.1,0,0.2-0.1
		c0,0,0,0,0.1,0c0.1,0,0.1,0,0.2,0c0,0,0,0,0.1,0c0,0,0.1,0,0.1,0l3.6-3.6l0-0.3C11.1,4.3,9.9,4,8.7,4c-4,0-7.3,3.3-7.3,7.3
		c0,4,3.3,7.3,7.3,7.3c4,0,7.3-3.3,7.3-7.3c0-1.2-0.3-2.4-0.9-3.4l-0.3,0L11.2,11.4z"/>
	<path fill="#03CCAB" d="M18.9,3.2C18.9,3.2,18.9,3.2,18.9,3.2c-0.1-0.1-0.1-0.1-0.1-0.1c0,0,0,0,0,0c0,0-0.1-0.1-0.2-0.1
		c-0.1,0-0.1,0-0.2,0l-1.2-0.1l-0.1-1.2c0-0.1,0-0.1-0.1-0.2c0,0,0,0,0-0.1c0,0,0,0,0-0.1c0,0-0.1-0.1-0.1-0.1c0,0,0,0-0.1,0
		c0,0-0.1,0-0.1,0c0,0-0.1,0-0.1,0c0,0,0,0,0,0c0,0,0,0-0.1,0c0,0,0,0-0.1,0c0,0,0,0,0,0c0,0,0,0-0.1,0c0,0,0,0,0,0c0,0,0,0-0.1,0
		c0,0,0,0,0,0c0,0,0,0-0.1,0c0,0,0,0,0,0c0,0,0,0-0.1,0c0,0,0,0,0,0c0,0,0,0-0.1,0l-2.4,2.4c-0.1,0.1-0.2,0.3-0.2,0.5l0.2,1.5l0,0v0
		l-0.2,0.2L9,10.2c0,0-0.1,0-0.1,0c0,0,0,0,0,0c0,0,0,0-0.1,0c0,0,0,0,0,0c0,0,0,0-0.1,0c0,0,0,0,0,0c0,0-0.1,0-0.1,0c0,0,0,0,0,0
		c0,0-0.1,0-0.1,0c0,0,0,0,0,0c0,0-0.1,0-0.1,0c0,0,0,0,0,0c0,0-0.1,0-0.1,0c0,0,0,0,0,0c0,0-0.1,0-0.1,0c0,0,0,0,0,0
		c0,0-0.1,0-0.1,0c0,0,0,0,0,0c0,0-0.1,0-0.1,0.1c0,0,0,0,0,0c0,0,0,0-0.1,0c0,0,0,0,0,0c0,0-0.1,0-0.1,0.1c-0.5,0.5-0.5,1.2,0,1.7
		c0,0,0.1,0.1,0.1,0.1c0,0,0.1,0.1,0.1,0.1c0,0,0,0,0.1,0c0,0,0.1,0,0.1,0.1c0,0,0,0,0.1,0c0.1,0,0.1,0,0.2,0c0,0,0,0,0,0
		c0,0,0.1,0,0.1,0c0,0,0,0,0,0c0,0,0.1,0,0.1,0c0,0,0,0,0,0c0,0,0,0,0.1,0c0,0,0,0,0,0c0,0,0,0,0.1,0c0,0,0,0,0,0c0,0,0,0,0.1,0
		c0,0,0,0,0,0c0,0,0,0,0.1,0c0,0,0,0,0,0c0,0,0,0,0.1,0c0,0,0,0,0,0c0,0,0.1-0.1,0.1-0.1c0.1-0.1,0.1-0.2,0.2-0.2
		c0-0.1,0.1-0.2,0.1-0.3c0.1-0.2,0.1-0.5,0-0.7l4.4-4.4l0.2-0.2l1.5,0.2c0,0,0,0,0.1,0c0,0,0,0,0.1,0c0,0,0,0,0,0c0,0,0,0,0,0
		c0,0,0,0,0,0c0,0,0,0,0,0c0,0,0,0,0,0c0,0,0,0,0,0c0,0,0,0,0,0c0,0,0,0,0,0c0,0,0,0,0,0c0,0,0,0,0,0c0,0,0,0,0,0c0,0,0,0,0,0
		c0,0,0,0,0,0l2.4-2.4c0,0,0,0,0,0c0,0,0.1-0.1,0.1-0.1c0,0,0-0.1,0.1-0.2c0-0.1,0-0.1,0-0.2C19,3.4,18.9,3.3,18.9,3.2
		C18.9,3.3,18.9,3.2,18.9,3.2z"/>
</g>
</svg>
