<?xml version="1.0" encoding="utf-8"?>
<!-- Generator: Adobe Illustrator 18.0.0, SVG Export Plug-In . SVG Version: 6.00 Build 0)  -->
<!DOCTYPE svg PUBLIC "-//W3C//DTD SVG 1.1//EN" "http://www.w3.org/Graphics/SVG/1.1/DTD/svg11.dtd">
<svg version="1.1" id="Ebene_1" xmlns="http://www.w3.org/2000/svg" xmlns:xlink="http://www.w3.org/1999/xlink" x="0px" y="0px"
	 viewBox="0 0 20 20" enable-background="new 0 0 20 20" xml:space="preserve">
<g>
	<path fill="#03CCAB" d="M10.7,11.5c0,0.1,0,0.1,0,0.2c0,1.5-1.2,2.7-2.7,2.7c-1.5,0-2.7-1.2-2.7-2.7s1.2-2.7,2.7-2.7
		c0.1,0,0.1,0,0.2,0l3.6-3.6c-1.1-0.7-2.4-1.1-3.8-1.1c-4.1,0-7.4,3.3-7.4,7.4c0,4.1,3.3,7.4,7.4,7.4s7.4-3.3,7.4-7.4
		c0-1.4-0.4-2.7-1.1-3.8L10.7,11.5z"/>
	<path fill="#03CCAB" d="M19.1,3.3c-0.1-0.3-0.3-0.5-0.6-0.5l-1.2-0.2l-0.2-1.2c0-0.3-0.2-0.5-0.5-0.6c-0.3-0.1-0.6,0-0.8,0.2l-2,2
		c-0.2,0.2-0.3,0.4-0.2,0.7l0.3,1.5l-5.4,5.4c-0.1,0-0.3-0.1-0.4-0.1c-0.8,0-1.4,0.6-1.4,1.4s0.6,1.4,1.4,1.4s1.4-0.6,1.4-1.4
		c0-0.2,0-0.3-0.1-0.4L14.7,6l1.6,0.3c0,0,0.1,0,0.1,0c0.2,0,0.4-0.1,0.5-0.2l2-2C19.2,3.8,19.2,3.6,19.1,3.3z"/>
</g>
</svg>
