<?xml version="1.0" encoding="utf-8"?>
<!-- Generator: Adobe Illustrator 18.0.0, SVG Export Plug-In . SVG Version: 6.00 Build 0)  -->
<!DOCTYPE svg PUBLIC "-//W3C//DTD SVG 1.1//EN" "http://www.w3.org/Graphics/SVG/1.1/DTD/svg11.dtd">
<svg version="1.1" id="Ebene_1" xmlns="http://www.w3.org/2000/svg" xmlns:xlink="http://www.w3.org/1999/xlink" x="0px" y="0px"
	 viewBox="0 0 20 20" enable-background="new 0 0 20 20" xml:space="preserve">
<path fill="#03CCAB" d="M19.8,14.9L13.1,3.1c-0.2-0.4-0.6-0.6-1.1-0.6S11.2,2.8,11,3.1L7.2,9.6L6.3,8C6,7.6,5.6,7.3,5.2,7.3
	C4.8,7.3,4.4,7.6,4.1,8l-4,6.9c-0.2,0.4-0.2,0.8,0,1.2c0.2,0.4,0.6,0.6,1.1,0.6h4.1h3.9h9.6c0.4,0,0.8-0.2,1.1-0.6
	C20.1,15.7,20.1,15.3,19.8,14.9z"/>
</svg>
