<?xml version="1.0" encoding="utf-8"?>
<!-- Generator: Adobe Illustrator 18.0.0, SVG Export Plug-In . SVG Version: 6.00 Build 0)  -->
<!DOCTYPE svg PUBLIC "-//W3C//DTD SVG 1.1//EN" "http://www.w3.org/Graphics/SVG/1.1/DTD/svg11.dtd">
<svg version="1.1" id="Ebene_1" xmlns="http://www.w3.org/2000/svg" xmlns:xlink="http://www.w3.org/1999/xlink" x="0px" y="0px"
	 viewBox="0 0 20 20" enable-background="new 0 0 20 20" xml:space="preserve">
<path id="XMLID_2_" fill="#03CCAB" d="M16.3,1.9C12.5-0.8,8.7,4.5,4.9,2.7V2.3c0-0.5-0.4-0.9-0.9-0.9S3.1,1.8,3.1,2.3v15.3
	c0,0.5,0.4,0.9,0.9,0.9s0.9-0.4,0.9-0.9v-6.5c3.6,1.8,7.2-3,10.8-1.1c0.2,0.1,0.4,0.1,0.5,0c0.2-0.1,0.3-0.3,0.3-0.5
	c0-2.4,0-4.8,0-7.1C16.5,2.2,16.4,2,16.3,1.9z"/>
</svg>
