<?xml version="1.0" encoding="utf-8"?>
<!-- Generator: Adobe Illustrator 18.0.0, SVG Export Plug-In . SVG Version: 6.00 Build 0)  -->
<!DOCTYPE svg PUBLIC "-//W3C//DTD SVG 1.1//EN" "http://www.w3.org/Graphics/SVG/1.1/DTD/svg11.dtd">
<svg version="1.1" id="Ebene_1" xmlns="http://www.w3.org/2000/svg" xmlns:xlink="http://www.w3.org/1999/xlink" x="0px" y="0px"
	 viewBox="0 0 20 20" enable-background="new 0 0 20 20" xml:space="preserve">
<path fill="#03CCAB" d="M19.1,7.6C19,7.2,18.7,7,18.3,6.9L13,6.5l-2.1-4.9C10.8,1.2,10.4,1,10,1S9.3,1.2,9.1,1.6L7,6.5L1.8,6.9
	C1.4,7,1.1,7.2,0.9,7.6c-0.1,0.4,0,0.8,0.3,1l4,3.5L4,17.3c-0.1,0.4,0.1,0.8,0.4,1c0.2,0.1,0.4,0.2,0.6,0.2c0.2,0,0.3,0,0.5-0.1
	l4.5-2.7l4.5,2.7c0.3,0.2,0.8,0.2,1.1,0c0.3-0.2,0.5-0.6,0.4-1l-1.2-5.2l4-3.5C19.1,8.4,19.2,8,19.1,7.6z"/>
</svg>
