<?xml version="1.0" encoding="utf-8"?>
<!-- Generator: Adobe Illustrator 18.0.0, SVG Export Plug-In . SVG Version: 6.00 Build 0)  -->
<!DOCTYPE svg PUBLIC "-//W3C//DTD SVG 1.1//EN" "http://www.w3.org/Graphics/SVG/1.1/DTD/svg11.dtd">
<svg version="1.1" id="Ebene_1" xmlns="http://www.w3.org/2000/svg" xmlns:xlink="http://www.w3.org/1999/xlink" x="0px" y="0px"
	 viewBox="0 0 20 20" enable-background="new 0 0 20 20" xml:space="preserve">
<path fill="#03CCAB" d="M18.1,2.9c-1-1.1-2.4-1.7-3.9-1.7c-1.1,0-2.1,0.4-3,1.1C10.8,2.6,10.3,3,10,3.5C9.6,3,9.2,2.6,8.8,2.3
	c-0.9-0.7-1.9-1.1-3-1.1c-1.5,0-2.9,0.6-3.9,1.7C0.8,4,0.3,5.4,0.3,7c0,1.6,0.6,3.1,1.9,4.7c1.2,1.4,2.9,2.9,4.8,4.5
	c0.7,0.6,1.4,1.2,2.2,1.9c0.2,0.2,0.5,0.3,0.7,0.3c0.3,0,0.5-0.1,0.7-0.3c0.8-0.7,1.5-1.3,2.2-1.9c2-1.7,3.6-3.1,4.8-4.5
	c1.3-1.6,1.9-3.1,1.9-4.7C19.7,5.4,19.1,4,18.1,2.9z"/>
</svg>
