<?xml version="1.0" encoding="UTF-8" standalone="no"?>
<!-- Created with Inkscape (http://www.inkscape.org/) -->

<svg
   xmlns:dc="http://purl.org/dc/elements/1.1/"
   xmlns:cc="http://creativecommons.org/ns#"
   xmlns:rdf="http://www.w3.org/1999/02/22-rdf-syntax-ns#"
   xmlns:svg="http://www.w3.org/2000/svg"
   xmlns="http://www.w3.org/2000/svg"
   version="1.1"
   width="100%"
   height="100%"
   viewBox="0 0 491.325 491.325"
   id="Capa_1"
   xml:space="preserve"><metadata
     id="metadata3097"><rdf:RDF><cc:Work
         rdf:about=""><dc:format>image/svg+xml</dc:format><dc:type
           rdf:resource="http://purl.org/dc/dcmitype/StillImage" /><dc:title></dc:title></cc:Work></rdf:RDF></metadata><defs
     id="defs3095" /><path
     d="m 345.62466,175.51216 c -56.90029,-41.0151 -113.79109,38.75172 -170.69085,11.01021 l 0,-5.9013 c 0,-7.32908 -5.94608,-13.27516 -13.27463,-13.27516 -7.32854,0 -13.27357,5.94608 -13.27357,13.27516 l 0,228.49837 c 0,7.32802 5.94503,13.2741 13.27357,13.2741 7.32855,0 13.27463,-5.94608 13.27463,-13.2741 l 0,-96.80161 c 54.08214,26.35853 108.16533,-44.39486 162.25695,-16.23818 2.49677,1.30502 5.49668,1.21861 7.90651,-0.25131 2.41194,-1.45992 3.88134,-4.06996 3.88134,-6.89653 0,-35.62168 0,-71.24548 0,-106.87718 -5.2e-4,-2.58316 -1.25497,-5.0304 -3.35395,-6.54247 z"
     id="XMLID_305_" /><g
     id="g3063" /><g
     id="g3065" /><g
     id="g3067" /><g
     id="g3069" /><g
     id="g3071" /><g
     id="g3073" /><g
     id="g3075" /><g
     id="g3077" /><g
     id="g3079" /><g
     id="g3081" /><g
     id="g3083" /><g
     id="g3085" /><g
     id="g3087" /><g
     id="g3089" /><g
     id="g3091" /><path
     d="m 248.63554,51.602111 0,34.80685"
     id="path3162"
     style="fill:none;stroke:#000000;stroke-width:20.16222382;stroke-linecap:round;stroke-linejoin:miter;stroke-miterlimit:4;stroke-opacity:1;stroke-dasharray:none" /><path
     d="m 437.56537,244.58168 -34.80684,0"
     id="path3162-3"
     style="fill:none;stroke:#000000;stroke-width:20.16199875;stroke-linecap:round;stroke-linejoin:miter;stroke-miterlimit:4;stroke-opacity:1;stroke-dasharray:none" /><path
     d="m 89.41701,241.09003 -34.80684,0"
     id="path3162-3-6"
     style="fill:none;stroke:#000000;stroke-width:20.16199875;stroke-linecap:round;stroke-linejoin:miter;stroke-miterlimit:4;stroke-opacity:1;stroke-dasharray:none" /><path
     d="M 385.07658,111.08454 360.46442,135.6967"
     id="path3162-3-6-7"
     style="fill:none;stroke:#000000;stroke-width:20.16199875;stroke-linecap:round;stroke-linejoin:miter;stroke-miterlimit:4;stroke-opacity:1;stroke-dasharray:none" /><path
     d="M 135.85832,136.20504 111.24616,111.59288"
     id="path3162-3-6-7-5"
     style="fill:none;stroke:#000000;stroke-width:20.16199875;stroke-linecap:round;stroke-linejoin:miter;stroke-miterlimit:4;stroke-opacity:1;stroke-dasharray:none" /></svg>