<?xml version="1.0" encoding="utf-8"?>
<!-- Generator: Adobe Illustrator 18.0.0, SVG Export Plug-In . SVG Version: 6.00 Build 0)  -->
<!DOCTYPE svg PUBLIC "-//W3C//DTD SVG 1.1//EN" "http://www.w3.org/Graphics/SVG/1.1/DTD/svg11.dtd">
<svg version="1.1" id="Ebene_1" xmlns="http://www.w3.org/2000/svg" xmlns:xlink="http://www.w3.org/1999/xlink" x="0px" y="0px"
	 viewBox="0 0 300 300" enable-background="new 0 0 300 300" xml:space="preserve">
<g>
	<path fill="#03CCA8" d="M79,55.9l-1-1.5l-0.2-22.3l-9.1,5.8L66.2,34l16.1-10.1l1,1.6l0.2,22.3l10.1-6.4l2.4,3.9L79,55.9z"/>
	<path fill="#03CCA8" d="M116.7,33.3c0.3,0.1,0.5,0.1,0.8,0c0.2-0.1,0.5-0.2,0.7-0.4c0.2-0.2,0.4-0.4,0.6-0.5l1.1,3.1
		c-0.7,0.8-1.6,1.4-2.8,1.8c-2.3,0.8-4,0.5-5-1.1c-0.8,2.2-2.3,3.7-4.4,4.5c-1.8,0.7-3.5,0.7-5,0.2c-1.5-0.5-2.6-1.7-3.3-3.6
		l-4.5-12.4l5.1-1.8l4.1,11.3c0.3,0.9,0.9,1.6,1.6,2c0.7,0.4,1.5,0.5,2.3,0.2c0.9-0.3,1.6-1,2-1.9c0.4-0.9,0.4-1.9,0.1-2.8l-4-10.9
		l5.1-1.8l5,13.6C116.2,33,116.4,33.2,116.7,33.3z"/>
	<path fill="#03CCA8" d="M136,14.8c1,0.4,1.8,1.1,2.4,2c1.1-2.1,2.8-3.3,5.2-3.6c1.8-0.2,3.3,0.2,4.6,1.2c1.3,0.9,2,2.4,2.2,4.3
		l1.3,13.1l-5.4,0.5l-1.2-12.1c-0.1-1-0.4-1.8-0.9-2.3c-0.5-0.5-1.1-0.7-1.9-0.6c-0.9,0.1-1.5,0.5-2.1,1.3c-0.5,0.7-0.7,1.6-0.6,2.7
		l1.2,11.7l-5.4,0.5l-1.2-12.1c-0.1-1-0.4-1.8-0.9-2.3c-0.5-0.5-1.2-0.7-1.9-0.7c-0.9,0.1-1.5,0.5-2,1.2c-0.5,0.7-0.7,1.6-0.6,2.7
		l1.2,11.7l-5.4,0.5l-1.9-18.8l4-0.4c0.2,0.6,0.5,1.5,0.9,2.7c0.6-1.1,1.3-2,2.2-2.6c0.9-0.6,1.9-1,3-1.1
		C133.9,14.2,135,14.4,136,14.8z"/>
	<path fill="#03CCA8" d="M174.6,35.1l-5.5-1.3l6-24.7L187,12c1.3,0.3,2.5,0.9,3.5,1.9c1,0.9,1.7,2,2.1,3.3c0.4,1.3,0.4,2.6,0.1,4
		l-0.1,0.2c-0.3,1.4-1,2.6-1.9,3.6c-0.9,1-2.1,1.7-3.4,2.1c-1.3,0.4-2.6,0.4-4,0.1l-6.4-1.5L174.6,35.1z M178,21.2l5.1,1.2
		c0.9,0.2,1.7,0.1,2.5-0.4c0.7-0.5,1.2-1.1,1.4-1.9L187,20c0.2-0.8,0.1-1.6-0.4-2.4c-0.4-0.8-1.1-1.2-2.1-1.5l-5.1-1.2L178,21.2z"/>
	<path fill="#03CCA8" d="M210.2,44.2c-1.3,0.9-2.8,1.4-4.4,1.5c-1.6,0.1-3.2-0.3-4.7-1.1l-0.5-0.3c-1.6-0.8-2.8-1.8-3.8-3.1
		c-0.9-1.3-1.5-2.7-1.6-4.3c-0.1-1.6,0.2-3.3,1.1-5l0.5-1c0.8-1.7,1.9-3,3.2-3.9c1.3-0.9,2.8-1.4,4.4-1.5c1.6-0.1,3.2,0.3,4.7,1.1
		l0.5,0.3c1.6,0.8,2.8,1.8,3.8,3.1c0.9,1.3,1.5,2.7,1.6,4.3c0.1,1.6-0.2,3.3-1.1,5l-0.5,1C212.6,42,211.5,43.3,210.2,44.2z
		 M209.8,32.5c-0.3-1-1-1.8-2.1-2.3c-1.1-0.5-2.1-0.6-3.2-0.2c-1,0.4-1.9,1.3-2.5,2.6l-1.3,2.7c-0.7,1.4-0.8,2.6-0.5,3.6
		c0.3,1,1,1.8,2.1,2.3c1.1,0.5,2.1,0.6,3.2,0.2c1-0.4,1.9-1.3,2.5-2.6l1.3-2.7C210,34.7,210.2,33.5,209.8,32.5z"/>
	<path fill="#03CCA8" d="M230.5,48c0.5-0.6,0.7-1.3,0.7-2c0-0.7-0.4-1.3-1.1-1.9c-0.7-0.5-1.4-0.6-2.2-0.4c-0.8,0.3-1.5,0.8-2.1,1.6
		l-7,9.4l-4.3-3.2l11.3-15.2l3.2,2.4l-1.1,2.6c0.2-0.2,0.7-0.3,1.3-0.5c0.6-0.2,1.4-0.2,2.2,0c0.9,0.1,1.7,0.5,2.6,1.1
		c1.4,1,2.1,2.2,2.2,3.6c0.1,1.4-0.4,2.8-1.4,4.2c-0.2,0.3-0.5,0.6-0.7,0.9c-0.2,0.3-0.4,0.5-0.5,0.6l-3.6-2.7L230.5,48z"/>
	<path fill="#03CCA8" d="M236.1,70.3c-0.7-0.5-1.2-0.9-1.6-1.4c-1.3-1.4-2.1-2.7-2.1-3.9c-0.1-1.3,0.5-2.6,1.9-3.9l7.3-7.2l-1.5-1.5
		l2.6-2.6l1.6,1.6l5.6-2.9l2.3,2.4l-4.3,4.2l3.1,3.1l-2.6,2.6l-3.1-3.1l-6.7,6.6c-0.7,0.7-1,1.3-1,1.8c0,0.5,0.3,1,0.7,1.5
		c0.2,0.2,0.5,0.4,0.9,0.7c0.4,0.3,0.7,0.5,1,0.6l-2.5,2.4C237.4,71.2,236.8,70.8,236.1,70.3z"/>
	<path fill="#03CCA8" d="M265.4,69.6c-0.2-0.4-0.4-0.7-0.6-1c-0.4-0.5-0.8-0.8-1.3-0.9c-0.5-0.1-1.1,0-1.8,0.6l-1.7,1.3l2.6,3.5
		l-3,2.2l-2.6-3.5L245,80.9l-3.2-4.3l12.2-9.1l-1.3-1.8l3-2.2l1.3,1.8l2-1.5c3-2.2,5.6-1.8,7.9,1.2c0.4,0.5,0.7,1.1,1.1,1.8
		c0.4,0.7,0.6,1.4,0.7,1.9l-2.6,2C265.8,70.4,265.6,70,265.4,69.6z"/>
	<path fill="#03CCA8" d="M261.8,102c-1.6-0.1-3.1-0.6-4.4-1.5c-1.3-0.9-2.4-2.1-3.2-3.7l-0.3-0.5c-0.8-1.6-1.2-3.1-1.2-4.7
		s0.5-3.1,1.3-4.4c0.9-1.4,2.2-2.5,3.9-3.3l1-0.5c1.7-0.9,3.3-1.3,5-1.2s3.1,0.6,4.4,1.5c1.3,0.9,2.4,2.1,3.2,3.7l0.3,0.5
		c0.8,1.6,1.2,3.1,1.2,4.7s-0.5,3.1-1.3,4.4c-0.9,1.4-2.2,2.5-3.9,3.3l-1,0.5C265.1,101.6,263.4,102,261.8,102z M268.6,92.4
		c0.4-1,0.3-2.1-0.3-3.2s-1.4-1.8-2.4-2.1c-1-0.3-2.2-0.1-3.6,0.6l-2.7,1.4c-1.3,0.7-2.2,1.5-2.5,2.6c-0.4,1-0.3,2.1,0.3,3.2
		s1.4,1.8,2.4,2.1c1,0.3,2.2,0.1,3.6-0.6l2.7-1.4C267.4,94.3,268.3,93.4,268.6,92.4z"/>
	<path fill="#03CCA8" d="M260.7,110.8l25.3-8.3l1.7,5.1l-25.3,8.3L260.7,110.8z"/>
	<path fill="#03CCA8" d="M264.4,123.1l18.5-3.9l1.1,5.3l-18.5,3.9L264.4,123.1z M290.4,117.5l1.1,5.4l-4.2,0.9l-1.1-5.4L290.4,117.5
		z"/>
	<path fill="#03CCA8" d="M271.6,152.1c-1.4-0.7-2.6-1.8-3.4-3.1c-0.8-1.4-1.3-2.9-1.3-4.7l0-0.6c-0.1-1.7,0.2-3.3,0.9-4.8
		c0.7-1.4,1.7-2.6,3-3.5c1.4-0.9,3-1.4,4.9-1.5l1.1-0.1c1.9-0.1,3.6,0.2,5,1c1.4,0.7,2.6,1.8,3.4,3.1c0.8,1.4,1.3,2.9,1.3,4.7l0,0.6
		c0.1,1.7-0.2,3.3-0.9,4.8c-0.7,1.4-1.7,2.6-3,3.5c-1.4,0.9-3,1.4-4.9,1.4l-1.1,0.1C274.8,153.2,273.1,152.8,271.6,152.1z
		 M281.8,146.2c0.8-0.8,1.1-1.8,1-3c-0.1-1.2-0.5-2.2-1.3-2.9c-0.8-0.7-2-1-3.5-1l-3,0.2c-1.5,0.1-2.6,0.5-3.4,1.3
		c-0.8,0.8-1.1,1.8-1,3c0.1,1.2,0.5,2.2,1.3,2.9c0.8,0.7,2,1,3.5,1l3-0.2C279.9,147.4,281,147,281.8,146.2z"/>
	<path fill="#03CCA8" d="M274.6,172.4l2.1,0.5l-4.6,17.9l-2.1-0.5L274.6,172.4z"/>
	<path fill="#03CCA8" d="M251,221.7l7.2-11.3l-3.9-5.6l1.1-1.7l15.7,22.5l-1,1.6l-27-4.8l1.2-1.8L251,221.7z M259.3,212l-6.4,10
		l15.4,2.9l0.1-0.1L259.3,212z"/>
	<path fill="#03CCA8" d="M238.6,227.1l19.8,17.8l-1.3,1.4l-19.8-17.8L238.6,227.1z"/>
	<path fill="#03CCA8" d="M230,236l17.9,19.8l-1.4,1.3l-17.9-19.8L230,236z"/>
	<path fill="#03CCA8" d="M211.6,253.7c-0.1-1.3,0.2-2.5,0.8-3.6c0.6-1.1,1.5-2,2.6-2.8c1.3-0.9,2.6-1.3,4.1-1.3
		c1.4,0,2.8,0.4,4.1,1.2c1.3,0.8,2.6,2.1,3.7,3.7l0.3,0.5c1.1,1.7,1.8,3.3,2,4.8c0.2,1.6,0.1,3-0.5,4.3c-0.6,1.3-1.5,2.4-2.8,3.2
		c-1.2,0.8-2.4,1.2-3.7,1.3c-1.3,0.1-2.5-0.1-3.7-0.7c-1.2-0.6-2.2-1.6-3.1-2.9l-1.3-2l11.2-7.4l-0.2-0.2c-1.4-2.1-2.9-3.3-4.5-3.8
		c-1.7-0.5-3.2-0.2-4.7,0.8c-1.3,0.9-2.1,2-2.5,3.4c-0.3,1.4,0,2.8,1,4.4l-1.5,1C212.2,256.2,211.7,255,211.6,253.7z M227.5,258.5
		c0.3-1.5-0.1-3.3-1.2-5.1l-9.6,6.4l0.4,0.6c1.1,1.6,2.3,2.5,3.8,2.8c1.4,0.3,2.8,0,4.2-0.9C226.4,261.3,227.2,260.1,227.5,258.5z"
		/>
	<path fill="#03CCA8" d="M173.3,283.3c-1.4-0.9-2.4-2.4-3-4.7l-3-11.8l1.8-0.5l2.9,11.3c1,3.9,3,5.4,5.9,4.6
		c1.4-0.4,2.5-1.2,3.1-2.5c0.6-1.3,0.7-2.8,0.3-4.5l-2.9-11.3l1.8-0.5l2.9,11.3c1,3.8,3,5.4,5.9,4.6c1.4-0.4,2.5-1.2,3.1-2.5
		c0.6-1.3,0.7-2.8,0.3-4.5l-2.9-11.3l1.8-0.5l4.6,18.3l-1.2,0.3l-1.1-2.6c-0.3,1.1-0.8,2-1.6,2.8c-0.8,0.8-1.7,1.3-2.8,1.6
		c-1.2,0.3-2.4,0.3-3.5,0s-2-0.9-2.8-1.8c-0.3,1-0.9,2-1.7,2.8c-0.8,0.8-1.9,1.4-3.2,1.8C176.3,284.4,174.7,284.2,173.3,283.3z"/>
	<path fill="#03CCA8" d="M145.3,270.5c0.6-1.1,1.5-2,2.6-2.6c1.1-0.6,2.3-0.9,3.7-0.9c1.6,0,2.9,0.3,4.1,1.1
		c1.2,0.7,2.2,1.8,2.8,3.2c0.7,1.4,1,3.1,1.1,5.1l0,0.6c0,2-0.3,3.7-0.9,5.2c-0.6,1.4-1.5,2.5-2.7,3.3c-1.2,0.8-2.6,1.2-4.1,1.2
		c-1.4,0-2.7-0.3-3.8-0.8c-1.1-0.6-2-1.4-2.7-2.6c-0.7-1.1-1-2.5-1-4.1l0-2.4l13.4-0.2l0-0.3c0-2.5-0.6-4.3-1.8-5.6
		c-1.1-1.3-2.6-1.9-4.4-1.9c-1.6,0-2.9,0.5-3.9,1.5c-1,1-1.5,2.4-1.5,4.2l-1.8,0C144.4,273,144.7,271.7,145.3,270.5z M156.1,283.2
		c1.1-1.2,1.7-2.8,1.8-5l-11.5,0.2l0,0.7c0,1.9,0.6,3.4,1.6,4.4c1.1,1,2.4,1.5,4,1.5C153.6,285,155,284.4,156.1,283.2z"/>
	<path fill="#03CCA8" d="M132.1,293l-2.2-0.3l0.3-2l2.2,0.3L132.1,293z M135.6,266.6l-2.6,18.7l-1.9-0.3l2.6-18.7L135.6,266.6z"/>
	<path fill="#03CCA8" d="M108.1,272.2c-0.6,1.9-0.6,3.5,0,4.7s1.7,2.1,3.4,2.5c1,0.3,2.1,0.3,3.1,0.1s1.9-0.7,2.6-1.5
		c0.7-0.7,1.3-1.6,1.6-2.7l3.3-11.1l1.8,0.5l-5.4,18.1l-1.2-0.4l0.4-2.8c-0.9,0.8-2,1.3-3.2,1.5c-1.2,0.2-2.5,0.2-3.7-0.2
		c-2-0.6-3.4-1.6-4.3-3.2c-0.9-1.5-1-3.4-0.3-5.6l3.5-11.7l1.8,0.5L108.1,272.2z"/>
	<path fill="#03CCA8" d="M88.3,253.7c1.1-0.7,2.3-1,3.5-1c1.3,0,2.5,0.3,3.7,1c1.4,0.7,2.4,1.7,3.1,2.9c0.7,1.2,1,2.6,0.9,4.2
		c-0.1,1.6-0.6,3.2-1.5,5l-0.3,0.5c-0.9,1.8-2,3.1-3.3,4.1c-1.2,1-2.6,1.5-4,1.6c-1.4,0.1-2.8-0.2-4.2-0.9c-1.2-0.7-2.2-1.5-2.9-2.6
		c-0.7-1.1-1.1-2.2-1.1-3.6c0-1.3,0.3-2.7,1.1-4.1l1.1-2.1l11.8,6.3l0.1-0.3c1.2-2.2,1.5-4.1,1.2-5.8c-0.4-1.7-1.4-2.9-2.9-3.8
		c-1.4-0.7-2.8-0.9-4.2-0.6s-2.5,1.4-3.4,3l-1.6-0.9C86.3,255.3,87.2,254.3,88.3,253.7z M91.6,269.9c1.5-0.5,2.8-1.7,3.9-3.5
		l-10.2-5.4l-0.3,0.6c-0.9,1.7-1.1,3.2-0.7,4.6c0.4,1.4,1.4,2.5,2.8,3.2C88.6,270.3,90.1,270.4,91.6,269.9z"/>
	<path fill="#03CCA8" d="M54.5,256.5l-7.3-7.4c-0.9-0.9-1.5-1.9-1.8-3.1c-0.3-1.2-0.3-2.4,0-3.6c0.3-1.2,0.9-2.2,1.8-3.1
		c0.9-0.9,1.9-1.5,3.1-1.8c1.2-0.3,2.4-0.3,3.6,0c1.2,0.3,2.2,0.9,3.1,1.8l5.9,6l8.2-8.1l1.4,1.4L54.5,256.5z M53.6,239.4
		c-0.9-0.3-1.8-0.3-2.7,0c-0.9,0.2-1.7,0.7-2.3,1.3c-0.7,0.7-1.1,1.4-1.3,2.3c-0.2,0.9-0.2,1.8,0,2.7c0.2,0.9,0.7,1.7,1.4,2.3
		l5.7,5.8l7.3-7.3l-5.7-5.8C55.3,240.1,54.5,239.6,53.6,239.4z"/>
	<path fill="#03CCA8" d="M38.9,218.1c-1,0.7-1.8,1.6-2.2,2.8c-0.4,1.2-0.2,2.4,0.7,3.8c0.6,0.9,1.4,1.5,2.3,1.8
		c0.9,0.3,1.8,0.3,2.7,0c0.9-0.2,1.7-0.6,2.3-1l10-6.7l1.1,1.6l-15.7,10.5l-0.7-1l2.1-1.9c-0.1,0.1-0.5,0.1-1.1,0.1
		c-0.7,0-1.4-0.2-2.2-0.6c-0.8-0.4-1.6-1.1-2.3-2.1c-1.1-1.6-1.4-3.2-1-4.7c0.4-1.5,1.3-2.8,2.8-3.8c0.2-0.1,0.4-0.2,0.5-0.3
		c0.1-0.1,0.2-0.1,0.3-0.1l1,1.4L38.9,218.1z"/>
	<path fill="#03CCA8" d="M43.3,201.1c-0.2,1.4-0.8,2.7-1.9,3.9c-1,1.2-2.5,2.2-4.3,3l-0.5,0.2c-1.8,0.8-3.5,1.2-5.1,1.1
		c-1.6-0.1-3-0.5-4.1-1.3c-1.2-0.8-2.1-1.9-2.7-3.4c-0.6-1.4-0.8-2.8-0.6-4.3c0.2-1.4,0.8-2.7,1.9-3.9s2.5-2.2,4.3-3l0.5-0.2
		c1.8-0.8,3.5-1.2,5.1-1.1c1.6,0.1,3,0.5,4.1,1.3c1.2,0.8,2.1,1.9,2.7,3.4C43.3,198.3,43.5,199.7,43.3,201.1z M37.6,194.3
		c-1.6-0.5-3.6-0.3-5.9,0.7l-0.9,0.4c-2.3,1-3.8,2.2-4.5,3.8c-0.8,1.6-0.8,3.2-0.1,4.8c0.7,1.7,1.9,2.7,3.5,3.3s3.6,0.3,5.9-0.7
		l0.9-0.4c2.3-1,3.8-2.2,4.5-3.8s0.8-3.2,0.1-4.8C40.4,195.9,39.2,194.8,37.6,194.3z"/>
	<path fill="#03CCA8" d="M11,188.2l-0.6-2.1l1.9-0.5l0.5,2.1L11,188.2z M18,184.2l21-5.5c1.3-0.3,2.4-0.3,3.2,0.2
		c0.8,0.5,1.4,1.3,1.7,2.4c0.1,0.4,0.2,0.9,0.2,1.3c0,0.5,0,0.9-0.2,1.2l-1.6,0.4c0.1-0.3,0.1-0.8,0.1-1.2c0-0.5,0-0.9-0.1-1.1
		c-0.2-0.6-0.5-1.1-0.9-1.4c-0.4-0.3-1.1-0.3-2.1-0.1l-20.9,5.4L18,184.2z"/>
	<path fill="#03CCA8" d="M29.6,157.2c1.2,0.5,2.1,1.3,2.8,2.4c0.7,1,1.1,2.2,1.3,3.6c0.2,1.5-0.1,3-0.7,4.2c-0.6,1.3-1.6,2.3-3,3.1
		c-1.4,0.8-3,1.3-5,1.5l-0.6,0.1c-2,0.2-3.7,0.1-5.2-0.4c-1.5-0.5-2.7-1.3-3.6-2.4c-0.9-1.1-1.4-2.4-1.6-4c-0.2-1.4,0-2.7,0.5-3.9
		c0.5-1.2,1.3-2.2,2.3-2.9c1.1-0.8,2.4-1.2,4-1.4l2.4-0.3l1.4,13.3l0.3,0c2.5-0.3,4.3-1,5.4-2.3c1.2-1.3,1.7-2.8,1.5-4.5
		c-0.2-1.6-0.8-2.8-1.9-3.8c-1.1-0.9-2.5-1.3-4.4-1.1l-0.2-1.8C27.1,156.4,28.4,156.6,29.6,157.2z M18,169c1.2,1,2.9,1.4,5.1,1.3
		l-1.2-11.4l-0.7,0.1c-1.9,0.2-3.3,0.9-4.2,2c-0.9,1.2-1.3,2.5-1.1,4.1C16,166.7,16.7,168,18,169z"/>
	<path fill="#03CCA8" d="M24.3,141l3.6,4.1l4.7,0.4l-0.1,1.9l-26.6-2.1l0.1-1.9l19.7,1.6l-11.1-11.7l0.2-2.3l8.3,8.6l10.6-7.8
		l-0.2,2.4L24.3,141z"/>
	<path fill="#03CCA8" d="M36.6,120.1c0,0.5-0.1,0.9-0.2,1.4c-0.3,1.1-0.8,1.9-1.7,2.4c-0.8,0.5-1.9,0.6-3.2,0.3L18.5,121l-0.5,2
		l-1.7-0.4l0.5-2l-5.7-2.1l0.3-1.2l5.9,1.4l1-4.3l1.7,0.4l-1,4.3l13,3.1c1,0.2,1.6,0.2,2.1-0.1c0.4-0.3,0.7-0.8,0.8-1.4
		c0.1-0.3,0.1-0.6,0.1-1.1c0-0.5,0-0.9-0.1-1.2l1.6,0.4C36.6,119.2,36.6,119.6,36.6,120.1z"/>
	<path fill="#03CCA8" d="M41.2,97.8c0.8,1,1.2,2.2,1.3,3.4c0.1,1.2-0.1,2.5-0.6,3.8c-0.6,1.4-1.5,2.6-2.6,3.4
		c-1.2,0.8-2.5,1.2-4.1,1.3s-3.3-0.3-5.1-1.1l-0.5-0.2c-1.8-0.8-3.3-1.7-4.4-2.9c-1.1-1.2-1.7-2.4-1.9-3.8c-0.2-1.4,0-2.8,0.6-4.2
		c0.5-1.3,1.3-2.3,2.3-3.1s2.1-1.3,3.4-1.4c1.3-0.1,2.7,0.1,4.2,0.7l2.2,0.9l-5.2,12.3L31,107c2.3,1,4.2,1.2,5.9,0.6
		c1.6-0.5,2.8-1.6,3.5-3.2c0.6-1.5,0.7-2.9,0.2-4.2c-0.5-1.3-1.6-2.4-3.3-3.1l0.7-1.7C39.4,96,40.5,96.8,41.2,97.8z M25.3,102.6
		c0.6,1.4,1.9,2.6,3.8,3.6l4.5-10.6L33,95.3c-1.8-0.7-3.3-0.8-4.7-0.3c-1.3,0.6-2.3,1.6-3,3.1C24.7,99.6,24.7,101.1,25.3,102.6z"/>
	<path fill="#03CCA8" d="M47.5,75.7l-1.6-1.4l11.9-14.1l1.6,1.4L47.5,75.7z"/>
</g>
</svg>
