<?xml version="1.0" encoding="utf-8"?>
<!-- Generator: Adobe Illustrator 18.0.0, SVG Export Plug-In . SVG Version: 6.00 Build 0)  -->
<!DOCTYPE svg PUBLIC "-//W3C//DTD SVG 1.1//EN" "http://www.w3.org/Graphics/SVG/1.1/DTD/svg11.dtd">
<svg version="1.1" id="Ebene_1" xmlns="http://www.w3.org/2000/svg" xmlns:xlink="http://www.w3.org/1999/xlink" x="0px" y="0px"
	 viewBox="0 0 300 300" enable-background="new 0 0 300 300" xml:space="preserve">
<g>
	<path fill="#03CCA8" d="M79.5,55.5c-0.2,0.1-0.5,0.2-0.8,0.1c-0.3-0.1-0.5-0.2-0.6-0.4l-2.8-4.5c-0.2-0.3-0.3-0.6-0.3-0.8
		c0-0.2,0-0.4,0.1-0.6l3.2-14.6l-8.1,5c-0.2,0.1-0.5,0.2-0.8,0.1c-0.3-0.1-0.5-0.2-0.6-0.4l-2.9-4.7c-0.1-0.2-0.2-0.5-0.1-0.8
		c0.1-0.3,0.2-0.5,0.4-0.6l17.3-10.6c0.2-0.1,0.5-0.2,0.8-0.1c0.3,0.1,0.5,0.2,0.6,0.4l2.8,4.5c0.1,0.2,0.2,0.4,0.2,0.7
		c0,0.2,0,0.4,0,0.6l-2.7,14.4l8.3-5.1c0.2-0.1,0.5-0.2,0.8-0.1c0.3,0.1,0.5,0.2,0.6,0.4l2.9,4.8c0.1,0.2,0.2,0.5,0.1,0.8
		c-0.1,0.3-0.2,0.5-0.4,0.6L79.5,55.5z"/>
	<path fill="#03CCA8" d="M109.2,40.2c-1.2,0.4-2.4,0.5-3.6,0.3c-1.2-0.2-2.4-0.8-3.4-1.7c-1-1-1.9-2.4-2.5-4.2l-3.2-9.7
		c-0.1-0.3-0.1-0.5,0.1-0.8c0.1-0.2,0.3-0.4,0.6-0.5l6.7-2.2c0.3-0.1,0.5-0.1,0.8,0.1c0.2,0.1,0.4,0.3,0.5,0.6l3.2,9.4
		c0.4,1.3,1.2,1.7,2.4,1.3c0.6-0.2,0.9-0.5,1.1-0.9c0.2-0.4,0.2-1,0-1.6l-3.2-9.4c-0.1-0.3-0.1-0.5,0.1-0.8c0.1-0.2,0.3-0.4,0.6-0.5
		l6.7-2.2c0.3-0.1,0.5-0.1,0.8,0.1c0.2,0.1,0.4,0.3,0.5,0.6l5.5,16.3c0.1,0.3,0.1,0.5-0.1,0.8c-0.1,0.2-0.3,0.4-0.6,0.5l-6.1,2.1
		c-0.3,0.1-0.5,0.1-0.8-0.1c-0.2-0.1-0.4-0.3-0.5-0.6l-0.4-1.2c-0.3,1.1-0.9,2-1.8,2.7S110.4,39.8,109.2,40.2z"/>
	<path fill="#03CCA8" d="M128.4,33.6c-0.3,0-0.5-0.1-0.7-0.3c-0.2-0.2-0.3-0.4-0.3-0.7l-1-17.2c0-0.3,0.1-0.5,0.3-0.7
		c0.2-0.2,0.4-0.3,0.7-0.3l6.1-0.4c0.3,0,0.5,0.1,0.7,0.3c0.2,0.2,0.3,0.4,0.3,0.7l0.1,1.2c0.4-0.6,1-1.2,1.9-1.8
		c0.9-0.6,1.9-1,3.1-1.1c2.9-0.3,4.9,0.6,6,2.7c0.5-0.9,1.3-1.7,2.3-2.3c1-0.6,2.1-1,3.2-1.1c1.3-0.1,2.4,0.1,3.5,0.7
		c1.1,0.5,1.9,1.3,2.6,2.5c0.7,1.2,1.1,2.7,1.2,4.7l0.6,10.3c0,0.3-0.1,0.5-0.3,0.7c-0.2,0.2-0.4,0.3-0.7,0.3l-6.5,0.4
		c-0.3,0-0.5-0.1-0.7-0.3c-0.2-0.2-0.3-0.4-0.3-0.7l-0.6-10.2c0-0.4-0.1-0.7-0.2-1c-0.1-0.3-0.3-0.5-0.5-0.6
		c-0.2-0.1-0.5-0.2-0.8-0.2c-0.3,0-0.6,0.1-0.8,0.2c-0.2,0.1-0.4,0.4-0.5,0.6c-0.1,0.3-0.1,0.6-0.1,1l0.6,10.2
		c0,0.3-0.1,0.5-0.3,0.7c-0.2,0.2-0.4,0.3-0.7,0.3L140,33c-0.3,0-0.5-0.1-0.7-0.3c-0.2-0.2-0.3-0.4-0.3-0.7l-0.6-10.2
		c0-0.4-0.1-0.7-0.2-1c-0.1-0.3-0.3-0.5-0.5-0.6c-0.2-0.1-0.5-0.2-0.8-0.2c-0.3,0-0.5,0.1-0.8,0.3c-0.2,0.2-0.4,0.4-0.5,0.6
		c-0.1,0.3-0.2,0.6-0.1,1l0.6,10.2c0,0.3-0.1,0.5-0.3,0.7c-0.2,0.2-0.4,0.3-0.7,0.3L128.4,33.6z"/>
	<path fill="#03CCA8" d="M173.9,34.6c-0.3-0.1-0.5-0.2-0.6-0.5c-0.1-0.2-0.2-0.5-0.1-0.8l6.8-22.9c0.1-0.3,0.2-0.5,0.5-0.6
		c0.2-0.1,0.5-0.2,0.8-0.1l10.7,3.2c2.2,0.6,3.9,1.5,5.3,2.6c1.4,1.1,2.4,2.4,2.9,4c0.5,1.6,0.5,3.3-0.1,5.3c-0.6,2-1.5,3.4-2.8,4.4
		c-1.3,1-2.8,1.5-4.5,1.6c-1.8,0.1-3.7-0.2-5.9-0.8l-2.5-0.7l-2,6.8c-0.1,0.3-0.2,0.5-0.5,0.6c-0.2,0.1-0.5,0.2-0.8,0.1L173.9,34.6z
		 M186.2,22.7l2.5,0.7c0.4,0.1,0.8,0.1,1.2-0.1c0.4-0.2,0.8-0.6,1-1.3c0.1-0.4,0.2-0.9,0.1-1.4c-0.1-0.5-0.5-0.9-1.1-1.1l-2.5-0.7
		L186.2,22.7z"/>
	<path fill="#03CCA8" d="M207.4,48c-2-1.1-3.5-2.3-4.5-3.6c-1.1-1.3-1.6-2.7-1.7-4.2c-0.1-1.5,0.2-3,1-4.7c0.3-0.5,0.5-1,0.8-1.5
		c0.3-0.5,0.6-1,0.9-1.5c1-1.5,2.2-2.6,3.6-3.2c1.4-0.6,2.9-0.8,4.5-0.6c1.7,0.2,3.4,0.9,5.3,1.9c1.9,1.1,3.3,2.2,4.4,3.5
		c1.1,1.3,1.7,2.7,1.8,4.2c0.2,1.5-0.1,3.1-0.9,4.7c-0.2,0.5-0.5,1-0.8,1.5c-0.3,0.5-0.6,1-0.9,1.5c-1,1.5-2.2,2.6-3.5,3.3
		c-1.3,0.7-2.8,0.9-4.5,0.7S209.4,49.1,207.4,48z M210.3,42.8c0.6,0.4,1.1,0.4,1.5,0.1c0.3-0.3,0.8-0.8,1.2-1.5
		c0.2-0.3,0.5-0.8,0.8-1.3s0.6-1,0.7-1.4c0.4-0.7,0.6-1.3,0.6-1.8c0.1-0.5-0.2-0.9-0.8-1.2c-0.6-0.3-1.1-0.4-1.5-0.1
		s-0.8,0.8-1.2,1.5c-0.2,0.3-0.5,0.8-0.8,1.3c-0.3,0.6-0.6,1-0.7,1.4c-0.4,0.8-0.6,1.4-0.6,1.8C209.4,42.1,209.7,42.5,210.3,42.8z"
		/>
	<path fill="#03CCA8" d="M221.2,56.4c-0.2-0.2-0.3-0.4-0.3-0.7c0-0.3,0.1-0.5,0.2-0.7l11.2-13.1c0.2-0.2,0.4-0.3,0.7-0.3
		c0.3,0,0.5,0.1,0.7,0.2l4.9,4.2c0.2,0.2,0.3,0.4,0.3,0.7c0,0.3-0.1,0.5-0.2,0.7l-0.8,1c1,0,2.1,0.1,3.1,0.5c1,0.3,1.9,0.8,2.8,1.6
		l1.3,1.2c0.2,0.2,0.3,0.4,0.3,0.7c0,0.3-0.1,0.5-0.2,0.7l-3.8,4.4c-0.2,0.2-0.4,0.3-0.7,0.3c-0.3,0-0.5-0.1-0.7-0.2l-3.6-3.1
		c-0.6-0.5-1.1-0.7-1.6-0.7s-1,0.3-1.5,0.9l-5.4,6.3c-0.2,0.2-0.4,0.3-0.7,0.3c-0.3,0-0.5-0.1-0.7-0.2L221.2,56.4z"/>
	<path fill="#03CCA8" d="M243.6,79c-1.1-1.4-1.9-2.8-2.4-4.1c-0.5-1.4-0.6-2.8-0.2-4.1s1.4-2.7,2.9-3.9l3.7-3l-1.8-2.3
		c-0.2-0.2-0.2-0.5-0.2-0.7c0-0.3,0.1-0.5,0.4-0.7l3.5-2.8c0.2-0.2,0.5-0.2,0.7-0.2c0.3,0,0.5,0.1,0.7,0.4l1.8,2.3l4.7-3.8
		c0.2-0.2,0.5-0.2,0.7-0.2c0.3,0,0.5,0.1,0.7,0.4l4.1,5c0.2,0.2,0.2,0.5,0.2,0.7c0,0.3-0.1,0.5-0.4,0.7l-4.7,3.8l2.9,3.6
		c0.2,0.2,0.2,0.5,0.2,0.7c0,0.3-0.1,0.5-0.4,0.7l-3.5,2.8c-0.2,0.2-0.5,0.2-0.7,0.2c-0.3,0-0.5-0.1-0.7-0.4l-2.9-3.6l-3.2,2.6
		c-0.4,0.4-0.7,0.7-0.8,1.2c-0.1,0.4,0,0.8,0.4,1.2l2.1,2.6c0.2,0.2,0.2,0.5,0.2,0.7c0,0.3-0.1,0.5-0.4,0.7l-3.8,3.1
		c-0.2,0.2-0.5,0.2-0.7,0.2c-0.3,0-0.5-0.1-0.7-0.4L243.6,79z"/>
	<path fill="#03CCA8" d="M250.9,89.7c-0.1-0.2-0.2-0.5-0.1-0.8c0.1-0.3,0.2-0.5,0.5-0.6l10.3-5.7l-1.2-2.2c-0.1-0.2-0.2-0.5-0.1-0.8
		c0.1-0.3,0.2-0.5,0.5-0.6l3.9-2.2c0.2-0.1,0.5-0.2,0.8-0.1c0.3,0.1,0.5,0.2,0.6,0.5l1.2,2.2l0.5-0.3c1.8-1,3.3-1.4,4.7-1.1
		c1.4,0.2,2.6,0.9,3.6,2c1.1,1.1,2,2.4,2.9,3.9l1.7,3c0.1,0.2,0.2,0.5,0.1,0.8c-0.1,0.3-0.2,0.5-0.5,0.6l-3.9,2.2
		c-0.2,0.1-0.5,0.2-0.8,0.1c-0.3-0.1-0.5-0.2-0.6-0.5l-1.5-2.6c-0.3-0.5-0.5-0.8-0.9-0.9c-0.3-0.1-0.6-0.1-1,0.1l-0.4,0.2l2,3.7
		c0.1,0.2,0.2,0.5,0.1,0.8c-0.1,0.3-0.2,0.5-0.5,0.6l-3.9,2.2c-0.2,0.1-0.5,0.2-0.8,0.1c-0.3-0.1-0.5-0.2-0.6-0.5l-2-3.7l-10.3,5.7
		c-0.2,0.1-0.5,0.2-0.8,0.1c-0.3-0.1-0.5-0.2-0.6-0.5L250.9,89.7z"/>
	<path fill="#03CCA8" d="M261.4,114c-0.7-2.2-1-4.1-0.9-5.7c0.1-1.7,0.6-3.1,1.5-4.3c0.9-1.2,2.2-2.1,3.9-2.8
		c0.5-0.2,1.1-0.4,1.7-0.6c0.6-0.2,1.1-0.4,1.6-0.5c1.8-0.4,3.4-0.4,4.8,0c1.4,0.5,2.7,1.3,3.8,2.6c1.1,1.3,1.9,3,2.6,5
		c0.7,2,0.9,3.9,0.8,5.6c-0.1,1.7-0.6,3.1-1.5,4.3c-0.9,1.2-2.2,2.2-3.9,2.8c-0.5,0.2-1,0.4-1.6,0.6c-0.6,0.2-1.1,0.3-1.7,0.5
		c-1.8,0.4-3.3,0.5-4.8,0c-1.4-0.4-2.7-1.3-3.7-2.5C263,117.9,262.1,116.1,261.4,114z M267,112.2c0.2,0.7,0.5,1,1,1.1
		c0.4,0,1.1-0.1,1.9-0.3c0.4-0.1,0.9-0.2,1.5-0.4s1.1-0.4,1.5-0.5c0.8-0.3,1.3-0.6,1.7-0.9c0.4-0.3,0.4-0.8,0.2-1.5
		c-0.2-0.7-0.6-1-1-1.1c-0.5,0-1.1,0-1.9,0.2c-0.4,0.1-0.9,0.2-1.5,0.4c-0.6,0.2-1.1,0.4-1.5,0.5c-0.8,0.3-1.4,0.6-1.7,0.9
		S266.8,111.5,267,112.2z"/>
	<path fill="#03CCA8" d="M265.7,129.7c0-0.3,0-0.5,0.2-0.7c0.2-0.2,0.4-0.4,0.7-0.4l24-3.5c0.3,0,0.5,0,0.7,0.2
		c0.2,0.2,0.4,0.4,0.4,0.7l1,6.6c0,0.3,0,0.5-0.2,0.7c-0.2,0.2-0.4,0.4-0.7,0.4l-24,3.5c-0.3,0-0.5,0-0.7-0.2
		c-0.2-0.2-0.4-0.4-0.4-0.7L265.7,129.7z"/>
	<path fill="#03CCA8" d="M267.3,143.8c0-0.3,0.1-0.5,0.3-0.7c0.2-0.2,0.4-0.3,0.7-0.3l17.2-0.4c0.3,0,0.5,0.1,0.7,0.3
		c0.2,0.2,0.3,0.4,0.3,0.7l0.2,6.6c0,0.3-0.1,0.5-0.3,0.7c-0.2,0.2-0.4,0.3-0.7,0.3l-17.2,0.4c-0.3,0-0.5-0.1-0.7-0.3
		c-0.2-0.2-0.3-0.4-0.3-0.7L267.3,143.8z M288.6,143.4c0-0.3,0.1-0.5,0.3-0.7s0.4-0.3,0.7-0.3l4.5-0.1c0.3,0,0.5,0.1,0.7,0.3
		c0.2,0.2,0.3,0.4,0.3,0.7l0.2,6.3c0,0.3-0.1,0.5-0.3,0.7c-0.2,0.2-0.4,0.3-0.7,0.3l-4.5,0.1c-0.3,0-0.5-0.1-0.7-0.3
		c-0.2-0.2-0.3-0.4-0.3-0.7L288.6,143.4z"/>
	<path fill="#03CCA8" d="M265.9,166.6c0.3-2.2,0.9-4.1,1.7-5.5c0.8-1.5,1.9-2.5,3.3-3.1c1.3-0.6,2.9-0.9,4.7-0.8
		c0.6,0.1,1.1,0.1,1.7,0.2s1.2,0.2,1.7,0.3c1.8,0.4,3.2,1.1,4.3,2.1c1.1,1.1,1.8,2.4,2.2,4c0.4,1.6,0.4,3.5,0.1,5.6
		c-0.3,2.1-0.9,3.9-1.7,5.4c-0.8,1.5-1.9,2.5-3.2,3.2s-2.9,1-4.7,0.9c-0.5,0-1.1-0.1-1.7-0.2c-0.6-0.1-1.2-0.2-1.7-0.3
		c-1.8-0.4-3.2-1.1-4.3-2.1c-1.1-1-1.9-2.3-2.2-3.9C265.6,170.8,265.6,168.9,265.9,166.6z M271.7,167.5c-0.1,0.7,0,1.2,0.4,1.4
		c0.4,0.2,1,0.4,1.8,0.6c0.4,0.1,0.9,0.2,1.5,0.3s1.2,0.2,1.5,0.2c0.8,0.1,1.4,0,1.9-0.1c0.5-0.1,0.7-0.5,0.8-1.2
		c0.1-0.7-0.1-1.1-0.5-1.4c-0.4-0.2-1-0.4-1.8-0.6c-0.4-0.1-0.9-0.2-1.5-0.3c-0.7-0.1-1.2-0.2-1.5-0.2c-0.9-0.1-1.5,0-1.9,0.1
		S271.8,166.8,271.7,167.5z"/>
	<path fill="#03CCA8" d="M267.6,197.1c0.1-0.2,0.3-0.4,0.5-0.5c0.2-0.1,0.4-0.1,0.7,0l2.2,1c0.2,0.1,0.4,0.3,0.5,0.5s0.1,0.5,0,0.7
		l-6.3,13.3c-0.1,0.2-0.3,0.4-0.5,0.5c-0.2,0.1-0.5,0.1-0.7,0l-2.2-1c-0.2-0.1-0.4-0.3-0.5-0.5c-0.1-0.2-0.1-0.5,0-0.7L267.6,197.1z
		"/>
	<path fill="#03CCA8" d="M243.9,221.2c0.1-0.1,0.3-0.2,0.5-0.2s0.4,0.1,0.5,0.2c0.1,0.1,0.2,0.2,0.3,0.3l11.5,23.1
		c0.1,0.2,0.2,0.5,0.1,0.7s-0.1,0.4-0.3,0.6l-0.8,0.9c-0.2,0.2-0.4,0.3-0.6,0.4s-0.4,0-0.7-0.1l-24.1-9.2c-0.1-0.1-0.3-0.1-0.4-0.2
		c-0.1-0.1-0.2-0.3-0.2-0.5s0.1-0.4,0.2-0.5l0.5-0.5c0.2-0.2,0.3-0.3,0.5-0.3c0.2,0,0.3,0,0.4,0l5.9,2.3l8.8-9.7l-2.8-5.7
		c-0.1-0.1-0.1-0.2-0.1-0.4c0-0.2,0.1-0.4,0.2-0.6L243.9,221.2z M247.2,230.6l-7.6,8.4l14.6,5.6L247.2,230.6z"/>
	<path fill="#03CCA8" d="M224,241.2c0.2-0.2,0.4-0.2,0.6-0.2s0.4,0.1,0.5,0.3l15.5,19.2c0.2,0.2,0.2,0.4,0.2,0.6
		c0,0.2-0.1,0.4-0.3,0.5L240,262c-0.2,0.2-0.4,0.2-0.6,0.2c-0.2,0-0.4-0.1-0.5-0.3l-15.5-19.2c-0.2-0.2-0.2-0.4-0.2-0.6
		c0-0.2,0.1-0.4,0.3-0.5L224,241.2z"/>
	<path fill="#03CCA8" d="M215.5,247.5c0.2-0.1,0.4-0.2,0.6-0.1c0.2,0,0.4,0.2,0.5,0.4l13.7,20.5c0.1,0.2,0.2,0.4,0.1,0.6
		c0,0.2-0.2,0.4-0.4,0.5l-0.5,0.3c-0.2,0.1-0.4,0.2-0.6,0.1c-0.2,0-0.4-0.2-0.5-0.4L214.7,249c-0.1-0.2-0.2-0.4-0.1-0.6
		c0-0.2,0.2-0.4,0.4-0.5L215.5,247.5z"/>
	<path fill="#03CCA8" d="M200.9,255.5c2.2-1,4.2-1.2,6.2-0.4c1.9,0.8,3.6,2.3,4.8,4.5c0.2,0.3,0.4,0.8,0.7,1.3
		c0.3,0.6,0.5,1,0.6,1.3c0.6,1.6,0.9,3.1,0.9,4.5s-0.4,2.7-1.2,3.9s-1.8,2.1-3.3,2.8c-1.6,0.8-3,1-4.5,0.9c-1.4-0.2-2.7-0.7-3.9-1.7
		s-2.2-2.4-3.1-4.2l-0.2-0.5c-0.1-0.2-0.1-0.4,0-0.6s0.2-0.4,0.5-0.5l11.9-5.7c-0.1-0.2-0.1-0.3-0.2-0.3c-0.5-1-1.2-1.8-2.1-2.5
		s-1.8-1.1-2.9-1.3c-1.1-0.2-2.1,0-3.2,0.5c-1,0.5-1.7,1-2.2,1.6c-0.5,0.6-0.8,1.2-1.1,1.7s-0.3,0.9-0.4,1.1
		c-0.1,0.4-0.1,0.6-0.2,0.7c-0.1,0.1-0.2,0.2-0.5,0.3l-0.5,0.3c-0.2,0.1-0.4,0.1-0.6,0.1c-0.2-0.1-0.3-0.2-0.4-0.4
		c-0.1-0.3-0.1-0.8,0-1.4c0.1-0.6,0.3-1.3,0.7-2c0.4-0.7,0.9-1.4,1.6-2.1C199,256.6,199.8,256,200.9,255.5z M211,262.9l-10.6,5.1
		l0.1,0.1c0.5,1.1,1.2,2,2.1,2.7c0.9,0.7,1.8,1.1,2.9,1.2c1.1,0.1,2.1-0.1,3.2-0.6s1.9-1.3,2.5-2.2c0.5-0.9,0.8-1.9,0.8-3
		c0-1.1-0.3-2.2-0.8-3.3L211,262.9z"/>
	<path fill="#03CCA8" d="M175.6,265.3c0.2,0,0.4,0,0.6,0.2c0.2,0.1,0.3,0.3,0.3,0.6l2,17.5c0,0.2,0,0.4-0.2,0.6
		c-0.1,0.2-0.3,0.3-0.6,0.3l-0.6,0.1c-0.2,0-0.4,0-0.6-0.2c-0.2-0.1-0.3-0.3-0.3-0.6l-0.1-1.3c-0.5,0.9-1.2,1.5-2,2.1
		c-0.8,0.5-1.8,0.9-3,1c-2.7,0.3-4.8-0.6-6.3-2.8c-0.4,1.1-1.2,2-2.2,2.8c-1,0.7-2.2,1.2-3.7,1.4c-1.3,0.1-2.5,0-3.6-0.5
		c-1.1-0.5-2-1.3-2.8-2.4s-1.2-2.5-1.4-4.3L150,269c0-0.2,0-0.4,0.2-0.6c0.1-0.2,0.3-0.3,0.6-0.3l0.6-0.1c0.2,0,0.4,0,0.6,0.2
		s0.3,0.3,0.3,0.6l1.2,10.3c0.2,1.6,0.6,2.8,1.1,3.7c0.6,0.8,1.3,1.4,2.1,1.7c0.8,0.3,1.6,0.4,2.5,0.3c0.7-0.1,1.5-0.4,2.2-0.8
		c0.7-0.5,1.3-1.2,1.7-2.1c0.4-1,0.5-2.2,0.3-3.9l-1.2-10.3c0-0.2,0-0.4,0.2-0.6c0.1-0.2,0.3-0.3,0.6-0.3l0.6-0.1
		c0.2,0,0.4,0,0.6,0.2c0.2,0.1,0.3,0.3,0.3,0.6l1.2,10.3c0.2,1.6,0.6,2.8,1.2,3.7c0.6,0.8,1.3,1.4,2.1,1.7c0.8,0.3,1.6,0.4,2.5,0.3
		c0.7-0.1,1.5-0.3,2.2-0.8c0.7-0.5,1.3-1.2,1.7-2.1c0.4-1,0.5-2.2,0.3-3.8l-1.2-10.4c0-0.2,0-0.4,0.2-0.6c0.1-0.2,0.3-0.3,0.6-0.3
		L175.6,265.3z"/>
	<path fill="#03CCA8" d="M135.5,266.2c2.4,0.3,4.2,1.3,5.4,3c1.2,1.7,1.8,3.9,1.6,6.4c0,0.4-0.1,0.9-0.1,1.5
		c-0.1,0.6-0.1,1.1-0.2,1.5c-0.3,1.6-0.9,3.1-1.7,4.3c-0.8,1.2-1.9,2.1-3.1,2.6s-2.7,0.8-4.3,0.6c-1.7-0.2-3.1-0.8-4.2-1.7
		c-1.1-0.9-1.9-2.1-2.4-3.6c-0.5-1.5-0.6-3.2-0.3-5.2l0.1-0.6c0-0.2,0.1-0.4,0.3-0.6c0.2-0.1,0.4-0.2,0.6-0.1l13.1,1.6
		c0-0.2,0-0.3,0-0.4c0.1-1.1,0-2.2-0.4-3.2c-0.3-1-0.9-1.9-1.7-2.7s-1.8-1.2-2.9-1.3c-1.1-0.1-1.9-0.1-2.7,0.2
		c-0.7,0.2-1.3,0.5-1.8,0.8s-0.8,0.6-0.9,0.8c-0.3,0.3-0.5,0.5-0.6,0.5c-0.1,0-0.3,0.1-0.6,0l-0.6-0.1c-0.2,0-0.4-0.1-0.5-0.3
		c-0.1-0.2-0.2-0.3-0.1-0.6c0.1-0.3,0.3-0.7,0.7-1.2c0.4-0.5,1-0.9,1.7-1.3s1.5-0.7,2.5-0.9C133.3,266.1,134.4,266,135.5,266.2z
		 M140,277.9l-11.7-1.4l0,0.1c-0.2,1.2-0.1,2.4,0.3,3.4s0.9,1.9,1.7,2.6c0.8,0.7,1.8,1.1,3.1,1.3s2.3,0,3.2-0.5
		c0.9-0.5,1.7-1.2,2.3-2.1c0.6-0.9,0.9-2,1.1-3.2L140,277.9z"/>
	<path fill="#03CCA8" d="M114.3,286c0.2,0.1,0.4,0.2,0.5,0.4c0.1,0.2,0.1,0.4,0.1,0.6l-0.4,1.4c-0.1,0.2-0.2,0.4-0.4,0.5
		c-0.2,0.1-0.4,0.1-0.6,0.1l-1.4-0.4c-0.2-0.1-0.4-0.2-0.5-0.4s-0.1-0.4-0.1-0.7l0.4-1.4c0.1-0.2,0.2-0.4,0.4-0.5
		c0.2-0.1,0.4-0.1,0.6-0.1L114.3,286z M119.9,263.5c0.2,0.1,0.4,0.2,0.5,0.4c0.1,0.2,0.1,0.4,0.1,0.6l-4.5,17
		c-0.1,0.2-0.2,0.4-0.4,0.5s-0.4,0.1-0.6,0.1l-0.6-0.2c-0.2-0.1-0.4-0.2-0.5-0.4c-0.1-0.2-0.1-0.4-0.1-0.6l4.5-17
		c0.1-0.2,0.2-0.4,0.4-0.5c0.2-0.1,0.4-0.1,0.6-0.1L119.9,263.5z"/>
	<path fill="#03CCA8" d="M110,260.7c0.2,0.1,0.4,0.2,0.5,0.4c0.1,0.2,0.1,0.4,0,0.6l-7,16.2c-0.1,0.2-0.2,0.4-0.4,0.5
		c-0.2,0.1-0.4,0.1-0.6,0l-0.6-0.2c-0.2-0.1-0.4-0.2-0.5-0.4c-0.1-0.2-0.1-0.4,0-0.6l0.7-1.6c-1,0.5-2,0.9-3.1,1
		c-1.1,0.1-2.4-0.1-3.8-0.8c-1.5-0.7-2.7-1.6-3.4-2.7c-0.7-1.1-1.1-2.4-1.1-3.7s0.3-2.8,0.9-4.2l4.2-9.6c0.1-0.2,0.2-0.4,0.4-0.5
		c0.2-0.1,0.4-0.1,0.6,0l0.6,0.2c0.2,0.1,0.4,0.2,0.5,0.4c0.1,0.2,0.1,0.4,0,0.6l-4.1,9.5c-0.8,1.8-1,3.4-0.5,4.8s1.5,2.5,3.2,3.2
		c1.6,0.7,3.1,0.7,4.6,0.1c1.4-0.6,2.5-1.8,3.3-3.6l4.1-9.5c0.1-0.2,0.2-0.4,0.4-0.5c0.2-0.1,0.4-0.1,0.6,0L110,260.7z"/>
	<path fill="#03CCA8" d="M83.9,246.6c2,1.4,3.1,3.1,3.4,5.2s-0.2,4.2-1.5,6.4c-0.2,0.3-0.5,0.7-0.8,1.2c-0.3,0.5-0.6,0.9-0.9,1.2
		c-1,1.3-2.2,2.3-3.5,3c-1.3,0.7-2.6,1-4,0.9c-1.4-0.1-2.7-0.6-4-1.5c-1.4-1-2.4-2.1-3-3.4c-0.6-1.3-0.7-2.7-0.4-4.3
		c0.3-1.5,1-3.1,2.1-4.8l0.3-0.5c0.1-0.2,0.3-0.3,0.5-0.4c0.2,0,0.4,0,0.6,0.2l10.9,7.4c0.1-0.2,0.2-0.3,0.2-0.3c0.6-0.9,1-2,1.1-3
		c0.2-1.1,0.1-2.1-0.3-3.1c-0.4-1-1-1.8-2-2.5c-0.9-0.6-1.7-1-2.5-1.1c-0.8-0.1-1.4-0.2-2-0.1s-0.9,0.2-1.2,0.3
		c-0.4,0.1-0.6,0.2-0.8,0.2c-0.1,0-0.3-0.1-0.5-0.3l-0.5-0.3c-0.2-0.1-0.3-0.3-0.4-0.5c-0.1-0.2,0-0.4,0.1-0.6
		c0.2-0.3,0.6-0.5,1.2-0.7c0.6-0.2,1.3-0.3,2.1-0.4s1.7,0.1,2.7,0.3C82,245.5,82.9,245.9,83.9,246.6z M82.4,259.1l-9.7-6.7l-0.1,0.1
		c-0.7,1-1.1,2.1-1.3,3.1c-0.2,1.1-0.1,2.1,0.3,3.1c0.4,1,1.1,1.8,2.1,2.5c1,0.7,2.1,1.1,3.1,1.1c1,0,2-0.3,3-0.8s1.8-1.3,2.4-2.4
		L82.4,259.1z"/>
	<path fill="#03CCA8" d="M62.6,228.8c0.2,0.2,0.2,0.4,0.2,0.6c0,0.2-0.1,0.4-0.3,0.5l-19,15.1c-0.2,0.2-0.4,0.2-0.6,0.2
		c-0.2,0-0.4-0.1-0.5-0.3l-5.6-7c-1.1-1.4-1.8-2.7-2.1-4.1c-0.3-1.4-0.3-2.7,0.2-3.9c0.5-1.3,1.3-2.4,2.6-3.5c1.3-1,2.6-1.6,4-1.8
		c1.3-0.2,2.6,0.1,3.9,0.7c1.2,0.6,2.4,1.6,3.5,3l4.7,5.9l7.6-6.1c0.2-0.2,0.4-0.2,0.6-0.2s0.4,0.1,0.6,0.4L62.6,228.8z M51.6,235.5
		l-4.5-5.7c-1.3-1.7-2.7-2.6-4.1-2.9c-1.4-0.2-2.8,0.2-4.1,1.3s-2.1,2.3-2.2,3.7c-0.1,1.4,0.5,2.9,1.9,4.6l4.5,5.7L51.6,235.5z"/>
	<path fill="#03CCA8" d="M48.3,208.8c0.1,0.2,0.1,0.4,0.1,0.6c-0.1,0.2-0.2,0.4-0.4,0.5l-15.4,8.5c-0.2,0.1-0.4,0.2-0.6,0.1
		c-0.2-0.1-0.4-0.2-0.5-0.4l-0.3-0.5c-0.1-0.2-0.1-0.4-0.1-0.7s0.2-0.4,0.4-0.5l1.5-0.8c-1,0-1.8-0.2-2.6-0.8s-1.5-1.3-2-2.4
		l-0.7-1.2c-0.1-0.2-0.1-0.4-0.1-0.6s0.2-0.4,0.4-0.5l0.5-0.2c0.2-0.1,0.4-0.1,0.6-0.1c0.2,0.1,0.4,0.2,0.5,0.4l0.8,1.4
		c0.7,1.3,1.7,2.1,2.8,2.5c1.2,0.3,2.4,0.2,3.7-0.6l10.1-5.5c0.2-0.1,0.4-0.1,0.6-0.1c0.2,0.1,0.4,0.2,0.5,0.4L48.3,208.8z"/>
	<path fill="#03CCA8" d="M39.9,189.7c0.6,1.7,0.8,3.2,0.5,4.6s-0.9,2.6-1.9,3.6c-1,1-2.2,1.8-3.7,2.4c-0.3,0.1-0.8,0.3-1.4,0.6
		c-0.6,0.2-1.1,0.4-1.5,0.5c-1.5,0.5-3,0.7-4.4,0.5c-1.4-0.2-2.7-0.7-3.8-1.6c-1.1-0.9-2-2.1-2.6-3.8c-0.6-1.7-0.8-3.2-0.5-4.6
		s0.9-2.6,1.9-3.6c1-1,2.2-1.8,3.7-2.4c0.3-0.1,0.8-0.3,1.4-0.6c0.6-0.2,1.1-0.4,1.5-0.5c1.5-0.5,3-0.7,4.4-0.5
		c1.4,0.2,2.7,0.7,3.8,1.5C38.4,186.8,39.3,188.1,39.9,189.7z M37.8,190.5c-0.6-1.6-1.6-2.8-3-3.4c-1.4-0.6-3.1-0.6-5.1,0
		c-0.4,0.1-0.8,0.2-1.3,0.4c-0.5,0.2-0.9,0.4-1.3,0.5c-2,0.8-3.3,1.9-4,3.3c-0.7,1.4-0.7,2.9-0.1,4.5c0.6,1.6,1.6,2.8,3,3.4
		c1.4,0.6,3.1,0.6,5.1,0c0.4-0.1,0.8-0.2,1.3-0.4c0.5-0.2,0.9-0.4,1.3-0.5c1.9-0.8,3.3-1.9,3.9-3.3
		C38.4,193.6,38.4,192.1,37.8,190.5z"/>
	<path fill="#03CCA8" d="M12.4,179.1c0,0.2,0,0.4-0.1,0.6c-0.1,0.2-0.3,0.3-0.5,0.3l-1.4,0.3c-0.2,0-0.5,0-0.6-0.1
		c-0.2-0.1-0.3-0.3-0.4-0.5l-0.3-1.4c0-0.2,0-0.5,0.1-0.6c0.1-0.2,0.3-0.3,0.5-0.4l1.4-0.3c0.2,0,0.5,0,0.6,0.1s0.3,0.3,0.3,0.6
		L12.4,179.1z M42.8,176.8c0,0.2,0,0.5-0.1,0.6s-0.3,0.3-0.5,0.3l-0.5,0.1c-0.2,0-0.5,0-0.6-0.1s-0.3-0.3-0.3-0.5l0-0.1
		c-0.2-1-0.5-1.7-1-2.1c-0.5-0.4-1-0.6-1.6-0.6c-0.6,0-1.3,0.1-2,0.2l-18.8,3.9c-0.2,0-0.5,0-0.6-0.1c-0.2-0.1-0.3-0.3-0.3-0.5
		l-0.1-0.6c0-0.2,0-0.4,0.1-0.6c0.1-0.2,0.3-0.3,0.5-0.3l18.8-3.9c1.1-0.2,2.2-0.3,3.2-0.2s1.8,0.5,2.5,1.2c0.7,0.7,1.2,1.7,1.5,3.2
		L42.8,176.8z"/>
	<path fill="#03CCA8" d="M33.2,157.6c0.2,2.4-0.5,4.3-2,5.8c-1.5,1.5-3.5,2.4-6,2.8c-0.4,0-0.9,0.1-1.5,0.1s-1.1,0.1-1.5,0.1
		c-1.7,0-3.2-0.3-4.5-0.9c-1.3-0.6-2.4-1.4-3.2-2.6c-0.8-1.1-1.2-2.5-1.3-4.1c-0.1-1.7,0.2-3.2,0.9-4.5c0.7-1.3,1.7-2.3,3.1-3
		c1.4-0.7,3.1-1.2,5-1.3l0.6,0c0.2,0,0.4,0.1,0.6,0.2c0.2,0.2,0.2,0.3,0.3,0.6l0.8,13.1c0.2,0,0.3,0,0.4,0c1.1-0.1,2.1-0.4,3.1-1
		c1-0.5,1.7-1.2,2.3-2.1c0.6-0.9,0.8-1.9,0.7-3.1c-0.1-1.1-0.3-1.9-0.6-2.6c-0.4-0.7-0.8-1.2-1.2-1.6c-0.4-0.4-0.7-0.6-0.9-0.8
		c-0.3-0.2-0.5-0.4-0.6-0.5c-0.1-0.1-0.1-0.3-0.1-0.6l0-0.6c0-0.2,0-0.4,0.2-0.6c0.1-0.2,0.3-0.2,0.5-0.2c0.3,0,0.8,0.2,1.3,0.5
		c0.5,0.3,1.1,0.8,1.6,1.4c0.5,0.6,1,1.4,1.4,2.3C32.9,155.4,33.1,156.4,33.2,157.6z M22.4,164.1l-0.8-11.7l-0.1,0
		c-1.2,0.1-2.3,0.4-3.3,0.9c-1,0.5-1.7,1.3-2.2,2.2c-0.5,0.9-0.7,2-0.7,3.2c0.1,1.2,0.4,2.3,1.1,3.1s1.5,1.5,2.5,1.8
		c1,0.4,2.1,0.5,3.4,0.5L22.4,164.1z"/>
	<path fill="#03CCA8" d="M32.7,141.9c0,0.2-0.1,0.4-0.3,0.6c-0.2,0.1-0.4,0.2-0.6,0.2l-24.5-2.8c-0.2,0-0.4-0.1-0.6-0.3
		s-0.2-0.4-0.2-0.6l0.1-0.6c0-0.2,0.1-0.4,0.3-0.6c0.2-0.1,0.4-0.2,0.6-0.2l13,1.5l-5.3-8.9c-0.2-0.4-0.4-0.6-0.4-0.8
		c-0.1-0.2-0.1-0.4,0-0.8l0.1-0.7c0-0.2,0.1-0.4,0.3-0.5c0.2-0.1,0.3-0.2,0.6-0.1c0.1,0,0.2,0.1,0.3,0.1c0.1,0.1,0.2,0.2,0.3,0.4
		l6,10.1l10.3-9.2c0.3-0.3,0.6-0.4,0.8-0.4c0.2,0,0.4,0.1,0.5,0.3c0.1,0.1,0.2,0.3,0.1,0.6l-0.1,0.6c0,0.4-0.1,0.6-0.2,0.8
		c-0.1,0.2-0.3,0.4-0.6,0.7l-9.2,8.3l8,0.9c0.2,0,0.4,0.1,0.6,0.3c0.1,0.2,0.2,0.4,0.2,0.6L32.7,141.9z"/>
	<path fill="#03CCA8" d="M37.3,116.7c-0.3,1.2-0.9,2.1-1.6,2.7c-0.7,0.6-1.6,0.9-2.5,0.9s-2-0.1-3.2-0.4l-10.5-2.8l-0.8,2.8
		c-0.1,0.2-0.2,0.4-0.4,0.5s-0.4,0.1-0.6,0.1l-0.5-0.1c-0.2-0.1-0.4-0.2-0.5-0.4c-0.1-0.2-0.1-0.4-0.1-0.6l0.8-2.8l-6-1.6
		c-0.2-0.1-0.4-0.2-0.5-0.4c-0.1-0.2-0.1-0.4-0.1-0.6l0.2-0.6c0.1-0.2,0.2-0.4,0.4-0.5s0.4-0.1,0.6-0.1l6,1.6l1.2-4.4
		c0.1-0.2,0.2-0.4,0.4-0.5c0.2-0.1,0.4-0.1,0.6-0.1l0.5,0.1c0.2,0.1,0.4,0.2,0.5,0.4c0.1,0.2,0.1,0.4,0.1,0.6l-1.2,4.4l10.4,2.8
		c1.3,0.3,2.3,0.4,3.1,0.2c0.8-0.2,1.4-0.9,1.7-1.9l0.5-1.9c0.1-0.2,0.2-0.4,0.4-0.5s0.4-0.1,0.6-0.1l0.5,0.1
		c0.2,0.1,0.4,0.2,0.5,0.4c0.1,0.2,0.1,0.4,0.1,0.6L37.3,116.7z"/>
	<path fill="#03CCA8" d="M43.2,102c-1,2.2-2.5,3.6-4.5,4.2c-2,0.6-4.2,0.5-6.6-0.3c-0.3-0.1-0.8-0.3-1.4-0.6c-0.6-0.3-1-0.5-1.3-0.6
		c-1.5-0.8-2.7-1.8-3.6-2.9c-0.9-1.1-1.4-2.4-1.6-3.7c-0.2-1.4,0.1-2.8,0.7-4.2c0.7-1.6,1.7-2.8,2.9-3.5c1.2-0.8,2.6-1.2,4.1-1.2
		c1.6,0,3.3,0.4,5.1,1.2l0.5,0.2c0.2,0.1,0.4,0.3,0.4,0.5c0.1,0.2,0.1,0.4,0,0.6l-5.4,12c0.2,0.1,0.3,0.1,0.3,0.2
		c1,0.4,2.1,0.6,3.2,0.6c1.1,0,2.1-0.3,3-0.8s1.6-1.3,2.1-2.4c0.4-1,0.7-1.8,0.6-2.6c0-0.8-0.1-1.4-0.3-2c-0.2-0.5-0.3-0.9-0.5-1.1
		c-0.2-0.3-0.3-0.6-0.3-0.7c0-0.1,0-0.3,0.2-0.6l0.2-0.5c0.1-0.2,0.2-0.3,0.4-0.4c0.2-0.1,0.4-0.1,0.6,0c0.3,0.2,0.6,0.5,0.9,1
		c0.3,0.5,0.6,1.2,0.7,2c0.2,0.8,0.2,1.7,0.1,2.7C44,100,43.7,101,43.2,102z M30.6,102.8l4.8-10.7L35.3,92c-1.1-0.5-2.2-0.7-3.3-0.7
		c-1.1,0-2.1,0.3-3,0.9c-0.9,0.6-1.6,1.4-2.1,2.5c-0.5,1.1-0.7,2.2-0.5,3.2c0.2,1,0.6,2,1.3,2.8c0.7,0.8,1.6,1.5,2.8,2L30.6,102.8z"
		/>
	<path fill="#03CCA8" d="M48.9,73.8c-0.2,0.2-0.4,0.3-0.6,0.3c-0.2,0-0.4-0.1-0.6-0.2l-1.9-1.6c-0.2-0.2-0.3-0.4-0.3-0.6
		c0-0.2,0-0.5,0.2-0.7l9.5-11.2c0.2-0.2,0.4-0.3,0.6-0.3c0.2,0,0.5,0.1,0.6,0.2l1.9,1.6c0.2,0.2,0.3,0.4,0.3,0.6
		c0,0.2-0.1,0.5-0.2,0.6L48.9,73.8z"/>
</g>
</svg>
