<?xml version="1.0" encoding="utf-8"?>
<!-- Generator: Adobe Illustrator 18.0.0, SVG Export Plug-In . SVG Version: 6.00 Build 0)  -->
<!DOCTYPE svg PUBLIC "-//W3C//DTD SVG 1.1//EN" "http://www.w3.org/Graphics/SVG/1.1/DTD/svg11.dtd">
<svg version="1.1" id="Ebene_1" xmlns="http://www.w3.org/2000/svg" xmlns:xlink="http://www.w3.org/1999/xlink" x="0px" y="0px"
	 viewBox="0 0 175 175" enable-background="new 0 0 175 175" xml:space="preserve">
<g>
	<path fill="#03CCA8" d="M87.5,137.1c-21.6,0-39.2-17.6-39.2-39.2h11c0,15.5,12.6,28.2,28.2,28.2s28.2-12.6,28.2-28.2h11
		C126.7,119.5,109.1,137.1,87.5,137.1z"/>
	<g>
		<path fill="#03CCA8" d="M132.2,70.1h-11c0-4.1-3.4-7.5-7.5-7.5s-7.5,3.4-7.5,7.5h-11c0-10.2,8.3-18.5,18.5-18.5
			S132.2,59.9,132.2,70.1z"/>
		<path fill="#03CCA8" d="M79.7,70.1h-11c0-4.1-3.4-7.5-7.5-7.5c-4.1,0-7.5,3.4-7.5,7.5h-11c0-10.2,8.3-18.5,18.5-18.5
			C71.5,51.6,79.7,59.9,79.7,70.1z"/>
	</g>
	<path fill="#03CCA8" d="M87.5,173C40.4,173,2,134.6,2,87.5C2,40.4,40.4,2,87.5,2S173,40.4,173,87.5C173,134.6,134.6,173,87.5,173z
		 M87.5,13C46.4,13,13,46.4,13,87.5c0,41.1,33.4,74.5,74.5,74.5S162,128.6,162,87.5C162,46.4,128.6,13,87.5,13z"/>
</g>
</svg>
