<svg width="1027" height="375" viewBox="0 0 1027 375" fill="none" xmlns="http://www.w3.org/2000/svg" style="">
<path d="M149.834 236.641L196.898 300.817L146.489 337.42L99.4054 272.668L96.8737 269.186L94.4838 272.767L57.8043 327.721L4.44607 91.0793L214.381 213.985L151.428 231.982L147.286 233.166L149.834 236.641Z" stroke="#03CCA8" stroke-width="6" class="MGeUxJHQ_0"></path>
<path d="M481.319 103.811L481.34 103.795L481.361 103.779C494.351 93.6685 508.629 88 524.248 88C545.798 88 565.855 96.6171 580.176 112.38C594.627 128.286 603.145 148.332 600.293 171.159L600.27 171.344V171.531C600.27 194.535 591.688 216.258 572.637 239.729C554.927 260.397 531.262 281.129 501.43 306.502L501.421 306.51L501.414 306.515C490.98 315.464 480.534 324.423 468.596 334.876L468.521 334.942L468.45 335.013C467.136 336.327 465.941 337.194 464.694 337.749C463.459 338.298 462.021 338.609 460.135 338.609C457.896 338.609 454.203 337.397 451.82 335.013L451.75 334.942L451.674 334.876C439.737 324.424 429.291 315.465 418.858 306.517L418.849 306.51L418.84 306.501L418.829 306.493C390.505 282.626 365.345 260.399 347.633 239.729C328.582 216.258 320 194.535 320 171.531C320 148.33 327.222 128.249 342.978 112.483L343.028 112.433L343.076 112.38C357.397 96.6171 377.454 88 399.005 88C414.623 88 428.901 93.6685 441.892 103.779L441.912 103.795L441.934 103.811C447.648 108.099 453.435 113.873 459.283 121.187L461.979 124.559L464.199 120.857C468.337 113.956 475.343 108.295 481.319 103.811Z" stroke="#03CCA8" stroke-width="6" class="MGeUxJHQ_1"></path>
<path d="M894.348 121.125L896.775 119.361L895.012 116.934C889.182 108.91 890.961 97.6787 898.985 91.8489C907.009 86.0191 918.24 87.798 924.07 95.822L974.858 165.726C1001.28 202.088 993.186 253.171 956.825 279.589L897.416 322.752C861.054 349.171 809.971 341.08 783.552 304.718L738.212 242.312C732.382 234.288 734.161 223.057 742.185 217.227C750.209 211.397 761.44 213.176 767.27 221.2L797.016 262.141L798.779 264.568L801.206 262.805L807.856 257.974L810.283 256.211L808.519 253.784L717.308 128.242C711.479 120.218 713.257 108.987 721.281 103.157C729.306 97.3274 740.537 99.1063 746.367 107.13L802.384 184.232L804.148 186.659L806.575 184.896L813.224 180.064L815.651 178.301L813.888 175.874L788.492 140.92C782.662 132.896 784.441 121.664 792.465 115.834C800.489 110.005 811.72 111.783 817.55 119.808L842.946 154.762L844.71 157.189L847.137 155.426L853.786 150.594L856.213 148.831L854.45 146.404L841.177 128.135C835.347 120.111 837.126 108.88 845.15 103.05C853.174 97.2202 864.405 98.9991 870.235 107.023L883.508 125.292L885.271 127.719L887.698 125.956L894.348 121.125Z" stroke="#03CCA8" stroke-width="6" class="MGeUxJHQ_2"></path>
<style data-made-with="vivus-instant">.MGeUxJHQ_0{stroke-dasharray:857 859;stroke-dashoffset:858;animation:MGeUxJHQ_draw 1712ms ease-out 0ms forwards;}.MGeUxJHQ_1{stroke-dasharray:858 860;stroke-dashoffset:859;animation:MGeUxJHQ_draw 1714ms ease-out 1712ms forwards;}.MGeUxJHQ_2{stroke-dasharray:1289 1291;stroke-dashoffset:1290;animation:MGeUxJHQ_draw 2573ms ease-out 3426ms forwards;}@keyframes MGeUxJHQ_draw{100%{stroke-dashoffset:0;}}@keyframes MGeUxJHQ_fade{0%{stroke-opacity:1;}96.96969696969697%{stroke-opacity:1;}100%{stroke-opacity:0;}}</style></svg>
