<?xml version="1.0" encoding="utf-8"?>
<!-- Generator: Adobe Illustrator 18.0.0, SVG Export Plug-In . SVG Version: 6.00 Build 0)  -->
<!DOCTYPE svg PUBLIC "-//W3C//DTD SVG 1.1//EN" "http://www.w3.org/Graphics/SVG/1.1/DTD/svg11.dtd">
<svg version="1.1" id="Ebene_1" xmlns="http://www.w3.org/2000/svg" xmlns:xlink="http://www.w3.org/1999/xlink" x="0px" y="0px"
	 viewBox="0 0 1920 1080" enable-background="new 0 0 1920 1080" xml:space="preserve">
<text transform="matrix(1 0 0 1 1140.4587 221.6864)" opacity="0.5" fill="#03CCA8" font-family="'Rubik-Bold'" font-size="61.0967">00110011 </text>
<text transform="matrix(1 0 0 1 1415.3033 475.041)" opacity="0.5" fill="#03CCA8" font-family="'Rubik-Bold'" font-size="61.0967">01000110</text>
<text transform="matrix(1 0 0 1 1415.3033 555.9025)" opacity="0.5" fill="#03CCA8" font-family="'Rubik-Bold'" font-size="61.0967">01010101</text>
<text transform="matrix(1 0 0 1 1599.7666 747.7584)" opacity="0.5" fill="#03CCA8" font-family="'Rubik-Bold'" font-size="61.0967">01010011</text>
<g opacity="0.3">
	<circle fill="#03CCA8" cx="105.7" cy="205.1" r="22"/>
	<circle fill="#03CCA8" cx="205.3" cy="205.1" r="22"/>
	<circle fill="#03CCA8" cx="304.9" cy="205.1" r="22"/>
	<circle fill="#03CCA8" cx="404.5" cy="205.1" r="22"/>
	<circle fill="#03CCA8" cx="105.7" cy="304.8" r="22"/>
	<circle fill="#03CCA8" cx="404.5" cy="304.8" r="22"/>
	<circle fill="#03CCA8" cx="504.1" cy="304.8" r="22"/>
	<circle fill="#03CCA8" cx="304.9" cy="404.6" r="22"/>
	<circle fill="#03CCA8" cx="404.5" cy="404.6" r="22"/>
	<circle fill="#03CCA8" cx="504.1" cy="404.6" r="22"/>
	<circle fill="#03CCA8" cx="205.3" cy="603.4" r="22"/>
	<circle fill="#03CCA8" cx="304.9" cy="603.4" r="22"/>
	<circle fill="#03CCA8" cx="404.5" cy="603.4" r="22"/>
	<circle fill="#03CCA8" cx="504.1" cy="603.4" r="22"/>
	<circle fill="#03CCA8" cx="105.7" cy="703.3" r="22"/>
	<circle fill="#03CCA8" cx="105.7" cy="803.2" r="22"/>
	<circle fill="#03CCA8" cx="205.3" cy="803.2" r="22"/>
	<circle fill="#03CCA8" cx="304.9" cy="803.2" r="22"/>
	<circle fill="#03CCA8" cx="404.5" cy="803.2" r="22"/>
	<circle fill="#03CCA8" cx="504.1" cy="803.2" r="22"/>
	<circle fill="#03CCA8" cx="105.7" cy="502.9" r="10.5"/>
	<circle fill="#03CCA8" cx="205.3" cy="502.9" r="10.5"/>
	<circle fill="#03CCA8" cx="304.9" cy="502.9" r="10.5"/>
	<circle fill="#03CCA8" cx="404.5" cy="502.9" r="10.5"/>
	<circle fill="#03CCA8" cx="504.1" cy="502.9" r="10.5"/>
	<circle fill="#03CCA8" cx="105.7" cy="903" r="22"/>
	<circle fill="#03CCA8" cx="205.3" cy="903" r="22"/>
	<circle fill="#03CCA8" cx="304.9" cy="903" r="22"/>
	<circle fill="#03CCA8" cx="404.5" cy="903" r="22"/>
	<circle fill="#03CCA8" cx="504.1" cy="903" r="22"/>
</g>
<path fill="#FFFFFF" d="M242.6,453.4c-1.7,0-3.1-0.6-4.2-1.7c-1.1-1.2-1.6-2.5-1.6-4.1V297.1c0-1.7,0.5-3.1,1.6-4.2
	c1.1-1.1,2.5-1.6,4.2-1.6h60.2c15.1,0,28,2.4,38.7,7.3c10.7,4.9,18.8,12,24.5,21.3c5.7,9.3,8.8,20.9,9.3,34.6
	c0.2,6.8,0.2,12.7,0.2,17.8c0,5.1-0.1,11-0.2,17.6c-0.6,14.4-3.7,26.2-9.1,35.7c-5.5,9.4-13.4,16.4-23.9,21
	c-10.4,4.6-23.2,6.8-38.3,6.8H242.6z M278.5,420.1h24.3c6.6,0,12.2-1,16.6-3.1c4.4-2.1,7.7-5.4,10-9.8c2.2-4.5,3.4-10.3,3.6-17.6
	c0.3-4.5,0.5-8.5,0.6-12c0.1-3.5,0.1-7.1,0-10.7c-0.1-3.5-0.3-7.5-0.6-11.8c-0.3-10.5-3.1-18.2-8.2-23c-5.2-4.9-12.9-7.3-23-7.3
	h-23.2V420.1z"/>
<path fill="#FFFFFF" d="M405.7,315.6c-1.7,0-3.1-0.5-4.2-1.6c-1.1-1.1-1.6-2.5-1.6-4.2V289c0-1.5,0.5-2.9,1.6-4.1
	c1.1-1.2,2.5-1.7,4.2-1.7h27.8c1.5,0,2.9,0.6,4.1,1.7c1.2,1.2,1.7,2.5,1.7,4.1v20.8c0,1.7-0.6,3.1-1.7,4.2c-1.2,1.1-2.5,1.6-4.1,1.6
	H405.7z M405.9,453.4c-1.7,0-3.1-0.6-4.2-1.7c-1.1-1.2-1.6-2.5-1.6-4.1V338.8c0-1.7,0.5-3.1,1.6-4.2c1.1-1.1,2.5-1.6,4.2-1.6h27.3
	c1.7,0,3.1,0.5,4.2,1.6c1.1,1.1,1.6,2.5,1.6,4.2v108.8c0,1.5-0.5,2.9-1.6,4.1c-1.1,1.2-2.5,1.7-4.2,1.7H405.9z"/>
<path fill="#FFFFFF" d="M525.4,504.3c-11.9,0-21.7-1.5-29.5-4.6c-7.8-3.1-14-6.8-18.5-11.1c-4.6-4.3-7.8-8.6-9.8-12.9
	c-2-4.2-3.1-7.6-3.2-10.1c-0.2-1.7,0.4-3.1,1.6-4.3c1.2-1.2,2.7-1.7,4.4-1.7h29.4c1.5,0,2.8,0.4,3.7,1.2c0.9,0.8,1.7,2,2.3,3.7
	c0.9,1.7,2,3.4,3.2,5.2c1.2,1.8,3,3.3,5.4,4.5c2.4,1.2,5.7,1.9,9.8,1.9c4.6,0,8.5-0.7,11.6-2.2c3.1-1.5,5.4-3.9,6.9-7.2
	c1.5-3.3,2.3-7.8,2.3-13.3v-15.5c-3.6,3.9-8.1,7-13.7,9.4c-5.6,2.4-12.3,3.6-20.1,3.6s-14.8-1.2-20.8-3.5c-6-2.3-11-5.8-15.1-10.4
	c-4-4.6-7.1-10.3-9.4-16.9c-2.2-6.6-3.6-14.3-4.1-22.9c-0.2-4-0.2-8.1,0-12.3c0.5-8.2,1.8-15.6,3.9-22.3c2.2-6.7,5.3-12.4,9.4-17.1
	c4.1-4.7,9.1-8.3,15.2-10.9c6-2.5,13-3.8,20.8-3.8c8.3,0,15.5,1.6,21.4,4.7c5.9,3.2,10.8,7.1,14.7,11.9v-8.6c0-1.5,0.5-2.9,1.6-4.1
	c1.1-1.2,2.5-1.7,4.2-1.7h26.6c1.7,0,3.1,0.6,4.3,1.7c1.2,1.2,1.7,2.5,1.7,4.1v111.4c0,11.7-2.4,21.6-7.1,29.6
	c-4.7,8-11.6,14.1-20.6,18.3S538.2,504.3,525.4,504.3z M523.8,420.7c4.9,0,9-1.1,12-3.2c3.1-2.2,5.4-4.9,6.8-8.3
	c1.5-3.4,2.3-7,2.4-10.9c0.2-1.7,0.2-4.1,0.2-7.2c0-3.1-0.1-5.4-0.2-6.9c-0.2-4-1-7.7-2.4-11.1c-1.5-3.4-3.7-6.1-6.8-8.2
	c-3.1-2.1-7.1-3.1-12-3.1c-5.1,0-9.1,1.1-12.2,3.2c-3,2.2-5.2,5.1-6.5,8.8c-1.3,3.7-2.1,7.8-2.4,12.3c-0.2,3.4-0.2,6.9,0,10.4
	c0.3,4.5,1.1,8.6,2.4,12.3c1.3,3.7,3.5,6.6,6.5,8.8C514.6,419.7,518.7,420.7,523.8,420.7z"/>
<path fill="#FFFFFF" d="M618.7,315.6c-1.7,0-3.1-0.5-4.2-1.6c-1.1-1.1-1.6-2.5-1.6-4.2V289c0-1.5,0.5-2.9,1.6-4.1
	c1.1-1.2,2.5-1.7,4.2-1.7h27.8c1.5,0,2.9,0.6,4.1,1.7c1.2,1.2,1.7,2.5,1.7,4.1v20.8c0,1.7-0.6,3.1-1.7,4.2c-1.2,1.1-2.5,1.6-4.1,1.6
	H618.7z M618.9,453.4c-1.7,0-3.1-0.6-4.2-1.7c-1.1-1.2-1.6-2.5-1.6-4.1V338.8c0-1.7,0.5-3.1,1.6-4.2c1.1-1.1,2.5-1.6,4.2-1.6h27.3
	c1.7,0,3.1,0.5,4.2,1.6c1.1,1.1,1.6,2.5,1.6,4.2v108.8c0,1.5-0.5,2.9-1.6,4.1c-1.1,1.2-2.5,1.7-4.2,1.7H618.9z"/>
<path fill="#FFFFFF" d="M741,453.4c-9.9,0-18.4-1.6-25.6-4.7c-7.2-3.2-12.7-8.1-16.6-14.8c-3.9-6.7-5.8-15.4-5.8-26.1v-44.5H675
	c-1.7,0-3.1-0.5-4.3-1.6c-1.2-1.1-1.7-2.5-1.7-4.2v-18.8c0-1.7,0.6-3.1,1.7-4.2c1.2-1.1,2.6-1.6,4.3-1.6h18.1v-38.2
	c0-1.7,0.6-3.1,1.7-4.2c1.2-1.1,2.5-1.6,4.1-1.6h26.9c1.7,0,3.1,0.5,4.2,1.6c1.1,1.1,1.6,2.5,1.6,4.2V333h28.9
	c1.7,0,3.1,0.5,4.3,1.6c1.2,1.1,1.7,2.5,1.7,4.2v18.8c0,1.7-0.6,3.1-1.7,4.2c-1.2,1.1-2.6,1.6-4.3,1.6h-28.9v41.2
	c0,5.3,1,9.4,3,12.5c2,3.1,5.4,4.6,10.2,4.6h17.8c1.7,0,3.1,0.5,4.2,1.6c1.1,1.1,1.6,2.5,1.6,4.2v20.1c0,1.5-0.5,2.9-1.6,4.1
	c-1.1,1.2-2.5,1.7-4.2,1.7H741z"/>
<path fill="#FFFFFF" d="M823.7,455.7c-8.3,0-15.8-1.6-22.3-4.7c-6.6-3.2-11.8-7.4-15.6-12.9c-3.9-5.4-5.8-11.5-5.8-18.3
	c0-11,4.5-19.6,13.4-26.1c9-6.4,20.8-10.8,35.7-13.1l28.9-4.4V373c0-5.6-1.2-9.8-3.5-12.7c-2.3-2.9-6.6-4.4-12.7-4.4
	c-4.3,0-7.8,0.9-10.5,2.5c-2.7,1.7-4.8,4-6.4,6.9c-1.4,2-3.3,3-5.8,3h-25.9c-1.7,0-3-0.5-3.9-1.5c-0.9-1-1.3-2.2-1.2-3.6
	c0-2.8,1-6,3.1-9.6c2.1-3.6,5.3-7.2,9.6-10.8c4.3-3.5,9.9-6.5,16.7-8.8c6.8-2.3,15.1-3.5,24.8-3.5c9.9,0,18.4,1.2,25.5,3.5
	c7.1,2.3,12.9,5.6,17.4,9.7c4.5,4.2,7.8,9.1,9.8,14.7c2.1,5.6,3.1,11.9,3.1,18.6v70.4c0,1.5-0.6,2.9-1.7,4.1
	c-1.2,1.2-2.5,1.7-4.1,1.7h-26.9c-1.7,0-3.1-0.6-4.2-1.7c-1.1-1.2-1.6-2.5-1.6-4.1v-8.1c-2,2.9-4.7,5.6-8.1,8.1
	c-3.4,2.5-7.4,4.4-11.9,5.9C835,455,829.7,455.7,823.7,455.7z M834.5,429.3c4.5,0,8.5-1,12.2-2.9c3.6-1.9,6.5-4.9,8.6-9
	c2.1-4.1,3.1-9.2,3.1-15.4v-3.2l-19.7,3.5c-7.3,1.2-12.5,3.1-15.9,5.7c-3.3,2.5-5,5.5-5,8.9c0,2.6,0.8,4.9,2.3,6.7
	c1.5,1.9,3.6,3.3,6.1,4.3C828.9,428.8,831.6,429.3,834.5,429.3z"/>
<path fill="#FFFFFF" d="M930,453.4c-1.7,0-3.1-0.6-4.2-1.7c-1.1-1.2-1.6-2.5-1.6-4.1V294.8c0-1.7,0.5-3.1,1.6-4.2
	c1.1-1.1,2.5-1.6,4.2-1.6h27.3c1.7,0,3.1,0.5,4.2,1.6c1.1,1.1,1.6,2.5,1.6,4.2v152.8c0,1.5-0.5,2.9-1.6,4.1
	c-1.1,1.2-2.5,1.7-4.2,1.7H930z"/>
<path fill="#FFFFFF" d="M1075.9,455.7c-8.3,0-15.8-1.6-22.3-4.7c-6.6-3.2-11.8-7.4-15.6-12.9c-3.9-5.4-5.8-11.5-5.8-18.3
	c0-11,4.5-19.6,13.4-26.1c9-6.4,20.8-10.8,35.7-13.1l28.9-4.4V373c0-5.6-1.2-9.8-3.5-12.7c-2.3-2.9-6.6-4.4-12.7-4.4
	c-4.3,0-7.8,0.9-10.5,2.5c-2.7,1.7-4.8,4-6.4,6.9c-1.4,2-3.3,3-5.8,3h-25.9c-1.7,0-3-0.5-3.9-1.5c-0.9-1-1.3-2.2-1.2-3.6
	c0-2.8,1-6,3.1-9.6c2.1-3.6,5.3-7.2,9.6-10.8c4.3-3.5,9.9-6.5,16.7-8.8c6.8-2.3,15.1-3.5,24.8-3.5c9.9,0,18.4,1.2,25.5,3.5
	c7.1,2.3,12.9,5.6,17.4,9.7c4.5,4.2,7.8,9.1,9.8,14.7c2.1,5.6,3.1,11.9,3.1,18.6v70.4c0,1.5-0.6,2.9-1.7,4.1
	c-1.2,1.2-2.5,1.7-4.1,1.7h-26.9c-1.7,0-3.1-0.6-4.2-1.7c-1.1-1.2-1.6-2.5-1.6-4.1v-8.1c-2,2.9-4.7,5.6-8.1,8.1
	c-3.4,2.5-7.4,4.4-11.9,5.9C1087.2,455,1081.9,455.7,1075.9,455.7z M1086.7,429.3c4.5,0,8.5-1,12.2-2.9c3.6-1.9,6.5-4.9,8.6-9
	c2.1-4.1,3.1-9.2,3.1-15.4v-3.2l-19.7,3.5c-7.3,1.2-12.5,3.1-15.9,5.7c-3.3,2.5-5,5.5-5,8.9c0,2.6,0.8,4.9,2.3,6.7
	c1.5,1.9,3.6,3.3,6.1,4.3C1081.1,428.8,1083.8,429.3,1086.7,429.3z"/>
<path fill="#FFFFFF" d="M1220.6,455.7c-8.8,0-16.6-2-23.5-6c-6.9-4-12.2-9.9-16.1-17.7c-3.9-7.8-5.8-17.3-5.8-28.6v-64.6
	c0-1.7,0.5-3.1,1.6-4.2c1.1-1.1,2.5-1.6,4.2-1.6h28.9c1.7,0,3.1,0.5,4.3,1.6c1.2,1.1,1.7,2.5,1.7,4.2V402c0,15.1,6.7,22.7,20.1,22.7
	c6.3,0,11.4-2,15.2-5.9c3.8-3.9,5.7-9.5,5.7-16.8v-63.2c0-1.7,0.5-3.1,1.6-4.2c1.1-1.1,2.5-1.6,4.2-1.6h28.9c1.7,0,3.1,0.5,4.2,1.6
	c1.1,1.1,1.6,2.5,1.6,4.2v108.8c0,1.5-0.5,2.9-1.6,4.1c-1.1,1.2-2.5,1.7-4.2,1.7h-26.9c-1.5,0-2.9-0.6-4.1-1.7
	c-1.2-1.2-1.7-2.5-1.7-4.1v-8.8c-4,5.6-9.2,9.8-15.6,12.6C1237,454.3,1229.4,455.7,1220.6,455.7z"/>
<path fill="#FFFFFF" d="M1374.4,455.7c-10,0-18.6-1.1-25.6-3.4c-7-2.2-12.7-5-17.1-8.2c-4.4-3.2-7.7-6.6-9.8-10.1
	c-2.2-3.5-3.3-6.5-3.5-9.1c-0.2-1.7,0.4-3.1,1.6-4.2c1.2-1.1,2.5-1.6,3.9-1.6h26.4c0.5,0,0.9,0.1,1.3,0.2c0.4,0.2,0.8,0.5,1.3,0.9
	c2,1.1,4,2.4,6,4.1c2,1.6,4.3,3.1,6.9,4.3c2.6,1.2,5.8,1.9,9.5,1.9c4.3,0,8-0.9,10.9-2.7c2.9-1.8,4.4-4.3,4.4-7.5
	c0-2.5-0.7-4.5-2.1-6.1c-1.4-1.6-4.2-3.2-8.5-4.7c-4.2-1.5-10.6-3.1-19.1-4.6c-8-1.9-15.1-4.3-21.1-7.3c-6-3-10.7-6.9-13.9-11.8
	s-4.9-10.8-4.9-17.7c0-6.2,2-12.1,6-17.8c4-5.7,9.9-10.4,17.6-14c7.7-3.6,17.3-5.4,28.7-5.4c8.8,0,16.5,1,23.2,3.1
	c6.6,2.1,12.2,4.7,16.7,8c4.5,3.2,7.9,6.6,10.2,10c2.3,3.4,3.5,6.5,3.7,9.3c0.2,1.5-0.3,2.9-1.4,4.1c-1.1,1.2-2.3,1.7-3.7,1.7H1398
	c-0.6,0-1.2-0.1-1.9-0.3c-0.6-0.2-1.2-0.5-1.6-0.8c-1.9-0.9-3.7-2.2-5.6-3.7c-1.9-1.5-4-2.9-6.5-4.2c-2.5-1.2-5.6-1.9-9.3-1.9
	c-4.2,0-7.4,0.9-9.7,2.8c-2.3,1.9-3.5,4.2-3.5,7.2c0,2,0.7,3.9,2,5.6c1.3,1.7,4,3.2,8.1,4.6c4.1,1.4,10.5,2.9,19.1,4.6
	c10.7,1.7,19.1,4.4,25.5,8.2c6.3,3.8,10.8,8.2,13.5,13.2c2.7,5,4.1,10.3,4.1,15.9c0,7.4-2.2,14-6.7,19.7c-4.5,5.7-11,10.2-19.6,13.3
	C1397.4,454.1,1386.9,455.7,1374.4,455.7z"/>
<path fill="#FFFFFF" d="M242.6,731.3c-1.7,0-3.1-0.6-4.2-1.7c-1.1-1.2-1.6-2.5-1.6-4.1V575c0-1.7,0.5-3.1,1.6-4.2
	c1.1-1.1,2.5-1.6,4.2-1.6h30.6c1.7,0,3.1,0.5,4.2,1.6c1.1,1.1,1.6,2.5,1.6,4.2v121.4h70.2c1.7,0,3.1,0.6,4.2,1.7
	c1.1,1.2,1.6,2.6,1.6,4.3v23.2c0,1.5-0.5,2.9-1.6,4.1c-1.1,1.2-2.5,1.7-4.2,1.7H242.6z"/>
<path fill="#FFFFFF" d="M427,733.6c-18.2,0-32.7-4.9-43.5-14.8c-10.8-9.9-16.4-24.5-16.9-44c0-1.1,0-2.5,0-4.2c0-1.7,0-3,0-3.9
	c0.5-12.2,3.2-22.7,8.2-31.4c5-8.7,12-15.4,20.8-19.9c8.9-4.6,19.3-6.8,31.1-6.8c13.6,0,24.8,2.7,33.7,8.1c8.9,5.4,15.6,12.7,20,22
	c4.5,9.3,6.7,19.8,6.7,31.7v5.6c0,1.7-0.5,3.1-1.6,4.2c-1.1,1.1-2.5,1.6-4.2,1.6h-74.1c0,0.2,0,0.4,0,0.7c0,0.3,0,0.6,0,0.9
	c0.2,4.5,1,8.6,2.4,12.3c1.5,3.7,3.6,6.6,6.5,8.8c2.9,2.2,6.4,3.2,10.5,3.2c3.1,0,5.7-0.5,7.8-1.5c2.1-1,3.8-2.2,5.2-3.5
	c1.4-1.3,2.5-2.4,3.2-3.4c1.4-1.7,2.5-2.7,3.4-3.1c0.8-0.4,2.2-0.6,4.1-0.6h28.7c1.5,0,2.8,0.5,3.8,1.4c1,0.9,1.4,2.2,1.3,3.7
	c-0.2,2.6-1.5,5.8-3.9,9.5c-2.5,3.7-6.1,7.4-10.8,11c-4.7,3.6-10.6,6.6-17.7,8.9C444.6,732.5,436.4,733.6,427,733.6z M407.3,658.8
	h39.1v-0.5c0-5.1-0.7-9.5-2.2-13.1c-1.5-3.6-3.7-6.4-6.7-8.5c-3-2-6.6-3-10.8-3c-4,0-7.5,1-10.4,3c-2.9,2-5.2,4.8-6.7,8.5
	c-1.5,3.6-2.3,8-2.3,13.1V658.8z"/>
<path fill="#FFFFFF" d="M514.5,593.5c-1.7,0-3.1-0.5-4.2-1.6c-1.1-1.1-1.6-2.5-1.6-4.2v-20.8c0-1.5,0.5-2.9,1.6-4.1
	c1.1-1.2,2.5-1.7,4.2-1.7h27.8c1.5,0,2.9,0.6,4.1,1.7c1.2,1.2,1.7,2.5,1.7,4.1v20.8c0,1.7-0.6,3.1-1.7,4.2c-1.2,1.1-2.5,1.6-4.1,1.6
	H514.5z M514.7,731.3c-1.7,0-3.1-0.6-4.2-1.7c-1.1-1.2-1.6-2.5-1.6-4.1V616.7c0-1.7,0.5-3.1,1.6-4.2c1.1-1.1,2.5-1.6,4.2-1.6h27.3
	c1.7,0,3.1,0.5,4.2,1.6c1.1,1.1,1.6,2.5,1.6,4.2v108.8c0,1.5-0.5,2.9-1.6,4.1c-1.1,1.2-2.5,1.7-4.2,1.7H514.7z"/>
<path fill="#FFFFFF" d="M620.1,733.6c-7.4,0-14.1-1.2-20-3.6c-5.9-2.4-11-5.9-15.3-10.7c-4.2-4.7-7.5-10.4-9.8-17.1
	c-2.3-6.7-3.6-14.4-3.9-23c-0.2-3.1-0.2-5.8-0.2-8.2c0-2.4,0.1-5.1,0.2-8.2c0.3-8.2,1.6-15.6,3.9-22.3c2.3-6.7,5.6-12.4,9.7-17.1
	c4.2-4.7,9.3-8.3,15.3-10.9c6-2.5,12.7-3.8,20.1-3.8c7.7,0,14.4,1.3,19.9,3.8s10.3,5.8,14.1,9.8v-49.6c0-1.7,0.5-3.1,1.6-4.2
	c1.1-1.1,2.5-1.6,4.2-1.6h28.3c1.5,0,2.9,0.5,4.1,1.6c1.2,1.1,1.7,2.5,1.7,4.2v152.8c0,1.5-0.6,2.9-1.7,4.1
	c-1.2,1.2-2.5,1.7-4.1,1.7H662c-1.7,0-3.1-0.6-4.2-1.7c-1.1-1.2-1.6-2.5-1.6-4.1v-7.4c-3.7,4.5-8.5,8.2-14.4,11.1
	C636,732.1,628.7,733.6,620.1,733.6z M632.8,702.6c5.1,0,9.1-1.1,12.2-3.4c3-2.2,5.2-5.1,6.7-8.7c1.5-3.5,2.3-7.4,2.4-11.6
	c0.2-3.1,0.2-6,0.2-8.8c0-2.8-0.1-5.6-0.2-8.6c-0.2-3.9-1-7.4-2.5-10.8c-1.5-3.3-3.9-6-6.9-8.1c-3.1-2.1-7-3.1-11.8-3.1
	c-5.1,0-9.1,1.1-12.2,3.2c-3,2.2-5.2,5.1-6.5,8.8c-1.3,3.7-2.1,7.8-2.4,12.3c-0.5,4.8-0.5,9.6,0,14.4c0.3,4.5,1.1,8.6,2.4,12.3
	c1.3,3.7,3.5,6.6,6.5,8.8C623.7,701.5,627.7,702.6,632.8,702.6z"/>
<path fill="#FFFFFF" d="M776.9,733.6c-18.2,0-32.7-4.9-43.5-14.8c-10.8-9.9-16.4-24.5-16.9-44c0-1.1,0-2.5,0-4.2c0-1.7,0-3,0-3.9
	c0.5-12.2,3.2-22.7,8.2-31.4c5-8.7,12-15.4,20.8-19.9c8.9-4.6,19.3-6.8,31.1-6.8c13.6,0,24.8,2.7,33.7,8.1c8.9,5.4,15.6,12.7,20,22
	c4.5,9.3,6.7,19.8,6.7,31.7v5.6c0,1.7-0.5,3.1-1.6,4.2c-1.1,1.1-2.5,1.6-4.2,1.6h-74.1c0,0.2,0,0.4,0,0.7c0,0.3,0,0.6,0,0.9
	c0.2,4.5,1,8.6,2.4,12.3c1.5,3.7,3.6,6.6,6.5,8.8c2.9,2.2,6.4,3.2,10.5,3.2c3.1,0,5.7-0.5,7.8-1.5c2.1-1,3.8-2.2,5.2-3.5
	c1.4-1.3,2.5-2.4,3.2-3.4c1.4-1.7,2.5-2.7,3.4-3.1c0.8-0.4,2.2-0.6,4.1-0.6H829c1.5,0,2.8,0.5,3.8,1.4c1,0.9,1.4,2.2,1.3,3.7
	c-0.2,2.6-1.5,5.8-3.9,9.5c-2.5,3.7-6.1,7.4-10.8,11c-4.7,3.6-10.6,6.6-17.7,8.9C794.6,732.5,786.3,733.6,776.9,733.6z M757.2,658.8
	h39.1v-0.5c0-5.1-0.7-9.5-2.2-13.1c-1.5-3.6-3.7-6.4-6.7-8.5c-3-2-6.6-3-10.8-3c-4,0-7.5,1-10.4,3c-2.9,2-5.2,4.8-6.7,8.5
	c-1.5,3.6-2.3,8-2.3,13.1V658.8z"/>
<path fill="#FFFFFF" d="M864.7,731.3c-1.7,0-3.1-0.6-4.2-1.7c-1.1-1.2-1.6-2.5-1.6-4.1V616.7c0-1.7,0.5-3.1,1.6-4.2
	c1.1-1.1,2.5-1.6,4.2-1.6h26.6c1.7,0,3.1,0.5,4.3,1.6c1.2,1.1,1.7,2.5,1.7,4.2v8.8c3.9-4.8,9-8.8,15.5-12s14.1-4.9,22.9-4.9
	c9,0,16.9,2,23.7,6c6.9,4,12.3,9.9,16.2,17.6c3.9,7.7,5.9,17.3,5.9,28.7v64.6c0,1.5-0.5,2.9-1.6,4.1c-1.1,1.2-2.5,1.7-4.2,1.7h-29.2
	c-1.5,0-2.9-0.6-4.1-1.7c-1.2-1.2-1.7-2.5-1.7-4.1v-63.2c0-7.3-1.7-12.9-5.2-16.8c-3.5-3.9-8.6-5.9-15.4-5.9c-6.3,0-11.4,2-15.2,5.9
	c-3.8,3.9-5.7,9.5-5.7,16.8v63.2c0,1.5-0.6,2.9-1.7,4.1c-1.2,1.2-2.5,1.7-4.1,1.7H864.7z"/>
<path fill="#FFFFFF" d="M1057.3,733.6c-10,0-18.6-1.1-25.6-3.4c-7-2.2-12.7-5-17.1-8.2c-4.4-3.2-7.7-6.6-9.8-10.1
	c-2.2-3.5-3.3-6.5-3.5-9.1c-0.2-1.7,0.4-3.1,1.6-4.2c1.2-1.1,2.5-1.6,3.9-1.6h26.4c0.5,0,0.9,0.1,1.3,0.2c0.4,0.2,0.8,0.5,1.3,0.9
	c2,1.1,4,2.4,6,4.1c2,1.6,4.3,3.1,6.9,4.3c2.6,1.2,5.8,1.9,9.5,1.9c4.3,0,8-0.9,10.9-2.7c2.9-1.8,4.4-4.3,4.4-7.5
	c0-2.5-0.7-4.5-2.1-6.1c-1.4-1.6-4.2-3.2-8.5-4.7c-4.2-1.5-10.6-3.1-19.1-4.6c-8-1.9-15.1-4.3-21.1-7.3c-6-3-10.7-6.9-13.9-11.8
	s-4.9-10.8-4.9-17.7c0-6.2,2-12.1,6-17.8c4-5.7,9.9-10.4,17.6-14c7.7-3.6,17.3-5.4,28.7-5.4c8.8,0,16.5,1,23.2,3.1
	c6.6,2.1,12.2,4.7,16.7,8c4.5,3.2,7.9,6.6,10.2,10c2.3,3.4,3.5,6.5,3.7,9.3c0.2,1.5-0.3,2.9-1.4,4.1c-1.1,1.2-2.3,1.7-3.7,1.7H1081
	c-0.6,0-1.2-0.1-1.9-0.3c-0.6-0.2-1.2-0.5-1.6-0.8c-1.9-0.9-3.7-2.2-5.6-3.7c-1.9-1.5-4-2.9-6.5-4.2c-2.5-1.2-5.6-1.9-9.3-1.9
	c-4.2,0-7.4,0.9-9.7,2.8c-2.3,1.9-3.5,4.2-3.5,7.2c0,2,0.7,3.9,2,5.6c1.3,1.7,4,3.2,8.1,4.6c4.1,1.4,10.5,2.9,19.1,4.6
	c10.7,1.7,19.1,4.4,25.5,8.2c6.3,3.8,10.8,8.2,13.5,13.2c2.7,5,4.1,10.3,4.1,15.9c0,7.4-2.2,14-6.7,19.7c-4.5,5.7-11,10.2-19.6,13.3
	C1080.4,732,1069.8,733.6,1057.3,733.6z"/>
<path fill="#FFFFFF" d="M1191.2,733.6c-11.4,0-21.5-2.1-30.3-6.3c-8.8-4.2-15.8-10.2-21-18.2c-5.2-8-8-17.5-8.5-28.6
	c-0.2-2.5-0.2-5.6-0.2-9.4c0-3.8,0.1-6.9,0.2-9.4c0.5-11.3,3.2-20.9,8.3-28.8c5.1-8,12.1-14,21-18.2c8.9-4.2,19-6.3,30.5-6.3
	c10.7,0,19.8,1.5,27.4,4.5c7.6,3,13.8,6.8,18.5,11.2c4.7,4.5,8.3,9.1,10.7,13.8c2.4,4.7,3.7,8.8,3.8,12.4c0.2,1.5-0.4,2.9-1.6,4.1
	c-1.2,1.2-2.6,1.7-4.2,1.7h-29.4c-1.7,0-3-0.4-3.9-1.2c-0.9-0.8-1.8-1.9-2.5-3.5c-1.9-4.8-4.2-8.2-7.1-10.2c-2.9-2-6.5-3-11-3
	c-6.2,0-10.9,2-14.2,6c-3.3,4-5.1,10.2-5.4,18.5c-0.2,6.2-0.2,11.7,0,16.4c0.5,8.5,2.3,14.7,5.6,18.5c3.2,3.9,8,5.8,14.1,5.8
	c4.8,0,8.6-1,11.3-3.1c2.8-2.1,5-5.4,6.7-10.1c0.8-1.5,1.6-2.7,2.5-3.5c0.9-0.8,2.2-1.2,3.9-1.2h29.4c1.5,0,2.9,0.5,4.2,1.6
	c1.2,1.1,1.8,2.5,1.6,4.2c-0.2,2.5-0.9,5.5-2.3,9c-1.4,3.6-3.6,7.3-6.5,11.1c-2.9,3.9-6.8,7.4-11.5,10.7c-4.7,3.2-10.4,5.9-17,8
	C1207.7,732.6,1200,733.6,1191.2,733.6z"/>
<path fill="#FFFFFF" d="M1278.3,731.3c-1.7,0-3.1-0.6-4.2-1.7c-1.1-1.2-1.6-2.5-1.6-4.1V572.7c0-1.7,0.5-3.1,1.6-4.2
	c1.1-1.1,2.5-1.6,4.2-1.6h29.6c1.7,0,3.1,0.5,4.2,1.6c1.1,1.1,1.6,2.5,1.6,4.2v51.6c4.2-4.8,9.3-8.6,15.4-11.5
	c6.1-2.9,13.2-4.3,21.2-4.3c9,0,16.9,2,24,6c7,4,12.5,9.9,16.6,17.6c4,7.7,6,17.3,6,28.7v64.6c0,1.5-0.5,2.9-1.6,4.1
	c-1.1,1.2-2.5,1.7-4.2,1.7h-29.9c-1.5,0-2.9-0.6-4.1-1.7c-1.2-1.2-1.7-2.5-1.7-4.1v-63.2c0-7.3-1.7-12.9-5.2-16.8
	c-3.5-3.9-8.5-5.9-15.2-5.9c-6.5,0-11.7,2-15.5,5.9c-3.9,3.9-5.8,9.5-5.8,16.8v63.2c0,1.5-0.5,2.9-1.6,4.1c-1.1,1.2-2.5,1.7-4.2,1.7
	H1278.3z"/>
<path fill="#FFFFFF" d="M1459.1,733.6c-8.3,0-15.8-1.6-22.3-4.7c-6.6-3.2-11.8-7.4-15.6-12.9c-3.9-5.4-5.8-11.5-5.8-18.3
	c0-11,4.5-19.6,13.4-26.1c9-6.4,20.8-10.8,35.7-13.1l28.9-4.4v-3.2c0-5.6-1.2-9.8-3.5-12.7c-2.3-2.9-6.6-4.4-12.7-4.4
	c-4.3,0-7.8,0.9-10.5,2.5c-2.7,1.7-4.8,4-6.4,6.9c-1.4,2-3.3,3-5.8,3h-25.9c-1.7,0-3-0.5-3.9-1.5c-0.9-1-1.3-2.2-1.2-3.6
	c0-2.8,1-6,3.1-9.6c2.1-3.6,5.3-7.2,9.6-10.8c4.3-3.5,9.9-6.5,16.7-8.8c6.8-2.3,15.1-3.5,24.8-3.5c9.9,0,18.4,1.2,25.5,3.5
	c7.1,2.3,12.9,5.6,17.4,9.7c4.5,4.2,7.8,9.1,9.8,14.7c2.1,5.6,3.1,11.9,3.1,18.6v70.4c0,1.5-0.6,2.9-1.7,4.1
	c-1.2,1.2-2.5,1.7-4.1,1.7h-26.9c-1.7,0-3.1-0.6-4.2-1.7c-1.1-1.2-1.6-2.5-1.6-4.1v-8.1c-2,2.9-4.7,5.6-8.1,8.1
	c-3.4,2.5-7.4,4.4-11.9,5.9C1470.4,732.9,1465.2,733.6,1459.1,733.6z M1470,707.2c4.5,0,8.5-1,12.2-2.9c3.6-1.9,6.5-4.9,8.6-9
	c2.1-4.1,3.1-9.2,3.1-15.4v-3.2l-19.7,3.5c-7.3,1.2-12.5,3.1-15.9,5.7c-3.3,2.5-5,5.5-5,8.9c0,2.6,0.8,4.9,2.3,6.7
	c1.5,1.9,3.6,3.3,6.1,4.3C1464.3,706.7,1467.1,707.2,1470,707.2z"/>
<path fill="#FFFFFF" d="M1578.2,731.3c-1.5,0-2.9-0.6-4.1-1.7c-1.2-1.2-1.7-2.5-1.7-4.1v-84.3h-17.6c-1.7,0-3.1-0.5-4.2-1.6
	c-1.1-1.1-1.6-2.5-1.6-4.2v-18.8c0-1.7,0.5-3.1,1.6-4.2c1.1-1.1,2.5-1.6,4.2-1.6h17.6v-7.4c0-10.5,2-19,6.1-25.4
	c4.1-6.4,9.9-11,17.5-13.9c7.6-2.9,16.6-4.3,27.1-4.3h18.1c1.7,0,3.1,0.5,4.2,1.6c1.1,1.1,1.6,2.5,1.6,4.2v18.8
	c0,1.7-0.5,3.1-1.6,4.2c-1.1,1.1-2.5,1.6-4.2,1.6H1625c-5.3,0-8.9,1.2-11,3.7c-2.1,2.5-3.1,6-3.1,10.7v6.3h28c1.7,0,3.1,0.5,4.2,1.6
	c1.1,1.1,1.6,2.5,1.6,4.2v18.8c0,1.7-0.5,3.1-1.6,4.2c-1.1,1.1-2.5,1.6-4.2,1.6h-28v84.3c0,1.5-0.5,2.9-1.6,4.1
	c-1.1,1.2-2.5,1.7-4.2,1.7H1578.2z"/>
<path fill="#FFFFFF" d="M1722.9,731.3c-9.9,0-18.4-1.6-25.6-4.7c-7.2-3.2-12.7-8.1-16.6-14.8c-3.9-6.7-5.8-15.4-5.8-26.1v-44.5
	h-18.1c-1.7,0-3.1-0.5-4.3-1.6c-1.2-1.1-1.7-2.5-1.7-4.2v-18.8c0-1.7,0.6-3.1,1.7-4.2c1.2-1.1,2.6-1.6,4.3-1.6h18.1v-38.2
	c0-1.7,0.6-3.1,1.7-4.2c1.2-1.1,2.5-1.6,4.1-1.6h26.9c1.7,0,3.1,0.5,4.2,1.6c1.1,1.1,1.6,2.5,1.6,4.2v38.2h28.9
	c1.7,0,3.1,0.5,4.3,1.6c1.2,1.1,1.7,2.5,1.7,4.2v18.8c0,1.7-0.6,3.1-1.7,4.2c-1.2,1.1-2.6,1.6-4.3,1.6h-28.9v41.2
	c0,5.3,1,9.4,3,12.5c2,3.1,5.4,4.6,10.2,4.6h17.8c1.7,0,3.1,0.5,4.2,1.6c1.1,1.1,1.6,2.5,1.6,4.2v20.1c0,1.5-0.5,2.9-1.6,4.1
	c-1.1,1.2-2.5,1.7-4.2,1.7H1722.9z"/>
<text transform="matrix(1 0 0 1 670.8401 2472.3521)" opacity="0.5" fill="#03CCA8" font-family="'Rubik-Bold'" font-size="61.0967">00110011 </text>
<text transform="matrix(1 0 0 1 742.8362 2703.2078)" opacity="0.5" fill="#03CCA8" font-family="'Rubik-Bold'" font-size="61.0967">01000110</text>
<text transform="matrix(1 0 0 1 742.8362 2784.0693)" opacity="0.5" fill="#03CCA8" font-family="'Rubik-Bold'" font-size="61.0967">01010101</text>
<text transform="matrix(1 0 0 1 670.84 2900.9292)" opacity="0.5" fill="#03CCA8" font-family="'Rubik-Bold'" font-size="61.0967">01010011</text>
<g opacity="0.3">
	<circle fill="#03CCA8" cx="966.5" cy="1777" r="16.9"/>
	<circle fill="#03CCA8" cx="1042.8" cy="1777" r="16.9"/>
	<circle fill="#03CCA8" cx="1119.1" cy="1777" r="16.9"/>
	<circle fill="#03CCA8" cx="1195.4" cy="1777" r="16.9"/>
	<circle fill="#03CCA8" cx="966.5" cy="1853.5" r="16.9"/>
	<circle fill="#03CCA8" cx="1195.4" cy="1853.5" r="16.9"/>
	<circle fill="#03CCA8" cx="1271.8" cy="1853.5" r="16.9"/>
	<circle fill="#03CCA8" cx="1119.1" cy="1929.9" r="16.9"/>
	<circle fill="#03CCA8" cx="1195.4" cy="1929.9" r="16.9"/>
	<circle fill="#03CCA8" cx="1271.8" cy="1929.9" r="16.9"/>
	<circle fill="#03CCA8" cx="1042.8" cy="2082.3" r="16.9"/>
	<circle fill="#03CCA8" cx="1119.1" cy="2082.3" r="16.9"/>
	<circle fill="#03CCA8" cx="1195.4" cy="2082.3" r="16.9"/>
	<circle fill="#03CCA8" cx="1271.8" cy="2082.3" r="16.9"/>
	<circle fill="#03CCA8" cx="966.5" cy="2158.8" r="16.9"/>
	<circle fill="#03CCA8" cx="966.5" cy="2235.4" r="16.9"/>
	<circle fill="#03CCA8" cx="1042.8" cy="2235.4" r="16.9"/>
	<circle fill="#03CCA8" cx="1119.1" cy="2235.4" r="16.9"/>
	<circle fill="#03CCA8" cx="1195.4" cy="2235.4" r="16.9"/>
	<circle fill="#03CCA8" cx="1271.8" cy="2235.4" r="16.9"/>
	<circle fill="#03CCA8" cx="966.5" cy="2005.3" r="8.1"/>
	<circle fill="#03CCA8" cx="1042.8" cy="2005.3" r="8.1"/>
	<circle fill="#03CCA8" cx="1119.1" cy="2005.3" r="8.1"/>
	<circle fill="#03CCA8" cx="1195.4" cy="2005.3" r="8.1"/>
	<circle fill="#03CCA8" cx="1271.8" cy="2005.3" r="8.1"/>
	<circle fill="#03CCA8" cx="966.5" cy="2311.9" r="16.9"/>
	<circle fill="#03CCA8" cx="1042.8" cy="2311.9" r="16.9"/>
	<circle fill="#03CCA8" cx="1119.1" cy="2311.9" r="16.9"/>
	<circle fill="#03CCA8" cx="1195.4" cy="2311.9" r="16.9"/>
	<circle fill="#03CCA8" cx="1271.8" cy="2311.9" r="16.9"/>
</g>
<g>
	<g>
		<path fill="#FFFFFF" d="M669.3,2179.1c-1.2,0-2.2-0.4-3-1.2c-0.8-0.8-1.2-1.8-1.2-2.9v-106.9c0-1.2,0.4-2.2,1.2-3
			c0.8-0.8,1.8-1.2,3-1.2h42.8c10.7,0,19.9,1.7,27.5,5.2c7.6,3.5,13.4,8.5,17.4,15.1c4.1,6.6,6.3,14.8,6.6,24.6
			c0.1,4.8,0.2,9,0.2,12.7c0,3.6-0.1,7.8-0.2,12.5c-0.4,10.2-2.6,18.6-6.5,25.3c-3.9,6.7-9.5,11.7-16.9,14.9
			c-7.4,3.2-16.5,4.9-27.2,4.9H669.3z M694.8,2155.4h17.3c4.7,0,8.6-0.7,11.8-2.2c3.1-1.5,5.5-3.8,7.1-7c1.6-3.2,2.4-7.3,2.5-12.5
			c0.2-3.2,0.4-6,0.4-8.6c0.1-2.5,0.1-5,0-7.6c-0.1-2.5-0.2-5.3-0.4-8.4c-0.2-7.5-2.2-12.9-5.8-16.4c-3.7-3.5-9.1-5.2-16.4-5.2
			h-16.4V2155.4z"/>
		<path fill="#FFFFFF" d="M785.1,2081.2c-1.2,0-2.2-0.4-3-1.2c-0.8-0.8-1.2-1.8-1.2-3v-14.8c0-1.1,0.4-2.1,1.2-2.9
			c0.8-0.8,1.8-1.2,3-1.2h19.7c1.1,0,2.1,0.4,2.9,1.2c0.8,0.8,1.2,1.8,1.2,2.9v14.8c0,1.2-0.4,2.2-1.2,3c-0.8,0.8-1.8,1.2-2.9,1.2
			H785.1z M785.3,2179.1c-1.2,0-2.2-0.4-3-1.2c-0.8-0.8-1.2-1.8-1.2-2.9v-77.3c0-1.2,0.4-2.2,1.2-3c0.8-0.8,1.8-1.2,3-1.2h19.4
			c1.2,0,2.2,0.4,3,1.2c0.8,0.8,1.2,1.8,1.2,3v77.3c0,1.1-0.4,2.1-1.2,2.9c-0.8,0.8-1.8,1.2-3,1.2H785.3z"/>
		<path fill="#FFFFFF" d="M870.2,2215.3c-8.4,0-15.4-1.1-21-3.3c-5.5-2.2-9.9-4.8-13.2-7.9c-3.2-3.1-5.6-6.1-7-9.1
			c-1.4-3-2.2-5.4-2.3-7.2c-0.1-1.2,0.3-2.2,1.2-3c0.9-0.8,1.9-1.2,3.1-1.2h20.9c1.1,0,2,0.3,2.6,0.8c0.7,0.5,1.2,1.4,1.6,2.6
			c0.7,1.2,1.4,2.4,2.3,3.7c0.9,1.3,2.2,2.3,3.9,3.2c1.7,0.9,4,1.3,7,1.3c3.3,0,6-0.5,8.2-1.6c2.2-1,3.8-2.7,4.9-5.1
			c1.1-2.4,1.6-5.5,1.6-9.5v-11c-2.5,2.7-5.8,5-9.7,6.7c-3.9,1.7-8.7,2.5-14.3,2.5s-10.5-0.8-14.8-2.5c-4.3-1.6-7.8-4.1-10.7-7.4
			c-2.9-3.3-5.1-7.3-6.7-12c-1.6-4.7-2.5-10.1-2.9-16.3c-0.1-2.9-0.1-5.8,0-8.7c0.3-5.8,1.3-11.1,2.8-15.9c1.5-4.8,3.8-8.8,6.7-12.2
			c2.9-3.3,6.5-5.9,10.8-7.7c4.3-1.8,9.2-2.7,14.8-2.7c5.9,0,11,1.1,15.2,3.4c4.2,2.2,7.7,5.1,10.4,8.5v-6.1c0-1.1,0.4-2.1,1.2-2.9
			c0.8-0.8,1.8-1.2,3-1.2h18.9c1.2,0,2.2,0.4,3,1.2c0.8,0.8,1.2,1.8,1.2,2.9v79.1c0,8.3-1.7,15.4-5,21.1c-3.3,5.7-8.2,10-14.6,13
			C887,2213.8,879.3,2215.3,870.2,2215.3z M869,2155.9c3.5,0,6.4-0.8,8.6-2.3c2.2-1.5,3.8-3.5,4.9-5.9c1-2.4,1.6-5,1.7-7.7
			c0.1-1.2,0.2-2.9,0.2-5.1c0-2.2-0.1-3.8-0.2-4.9c-0.1-2.9-0.7-5.5-1.7-7.9c-1-2.4-2.7-4.4-4.9-5.8c-2.2-1.5-5-2.2-8.6-2.2
			c-3.6,0-6.5,0.8-8.6,2.3c-2.1,1.5-3.7,3.6-4.6,6.3c-0.9,2.6-1.5,5.5-1.7,8.7c-0.1,2.4-0.1,4.9,0,7.4c0.2,3.2,0.8,6.1,1.7,8.7
			c0.9,2.6,2.5,4.7,4.6,6.3C862.5,2155.1,865.4,2155.9,869,2155.9z"/>
		<path fill="#FFFFFF" d="M936.4,2081.2c-1.2,0-2.2-0.4-3-1.2c-0.8-0.8-1.2-1.8-1.2-3v-14.8c0-1.1,0.4-2.1,1.2-2.9
			c0.8-0.8,1.8-1.2,3-1.2h19.7c1.1,0,2.1,0.4,2.9,1.2c0.8,0.8,1.2,1.8,1.2,2.9v14.8c0,1.2-0.4,2.2-1.2,3c-0.8,0.8-1.8,1.2-2.9,1.2
			H936.4z M936.6,2179.1c-1.2,0-2.2-0.4-3-1.2c-0.8-0.8-1.2-1.8-1.2-2.9v-77.3c0-1.2,0.4-2.2,1.2-3c0.8-0.8,1.8-1.2,3-1.2H956
			c1.2,0,2.2,0.4,3,1.2c0.8,0.8,1.2,1.8,1.2,3v77.3c0,1.1-0.4,2.1-1.2,2.9c-0.8,0.8-1.8,1.2-3,1.2H936.6z"/>
		<path fill="#FFFFFF" d="M1023.3,2179.1c-7,0-13.1-1.1-18.2-3.4c-5.1-2.2-9-5.8-11.8-10.5c-2.7-4.8-4.1-10.9-4.1-18.5v-31.6h-12.8
			c-1.2,0-2.2-0.4-3-1.2c-0.8-0.8-1.2-1.8-1.2-3v-13.3c0-1.2,0.4-2.2,1.2-3c0.8-0.8,1.8-1.2,3-1.2h12.8v-27.1c0-1.2,0.4-2.2,1.2-3
			c0.8-0.8,1.8-1.2,2.9-1.2h19.1c1.2,0,2.2,0.4,3,1.2c0.8,0.8,1.2,1.8,1.2,3v27.1h20.6c1.2,0,2.2,0.4,3,1.2c0.8,0.8,1.2,1.8,1.2,3
			v13.3c0,1.2-0.4,2.2-1.2,3c-0.8,0.8-1.8,1.2-3,1.2h-20.6v29.3c0,3.7,0.7,6.7,2.1,8.9c1.4,2.2,3.8,3.3,7.2,3.3h12.7
			c1.2,0,2.2,0.4,3,1.2c0.8,0.8,1.2,1.8,1.2,3v14.3c0,1.1-0.4,2.1-1.2,2.9c-0.8,0.8-1.8,1.2-3,1.2H1023.3z"/>
		<path fill="#FFFFFF" d="M1082,2180.7c-5.9,0-11.2-1.1-15.9-3.4c-4.7-2.2-8.4-5.3-11.1-9.1c-2.7-3.8-4.1-8.2-4.1-13
			c0-7.8,3.2-14,9.5-18.5c6.4-4.5,14.8-7.6,25.3-9.3l20.6-3.1v-2.3c0-3.9-0.8-7-2.5-9c-1.6-2.1-4.7-3.1-9-3.1
			c-3.1,0-5.6,0.6-7.5,1.8c-1.9,1.2-3.4,2.9-4.5,4.9c-1,1.4-2.4,2.1-4.1,2.1h-18.4c-1.2,0-2.1-0.4-2.8-1.1c-0.7-0.7-0.9-1.6-0.8-2.5
			c0-2,0.7-4.2,2.2-6.8c1.5-2.6,3.8-5.1,6.8-7.6c3.1-2.5,7-4.6,11.8-6.3c4.8-1.6,10.7-2.5,17.6-2.5c7,0,13,0.8,18.1,2.5
			c5,1.6,9.2,3.9,12.3,6.9c3.2,3,5.5,6.4,7,10.4c1.5,4,2.2,8.4,2.2,13.2v50c0,1.1-0.4,2.1-1.2,2.9c-0.8,0.8-1.8,1.2-2.9,1.2h-19.1
			c-1.2,0-2.2-0.4-3-1.2c-0.8-0.8-1.2-1.8-1.2-2.9v-5.8c-1.4,2.1-3.3,4-5.8,5.8c-2.4,1.8-5.2,3.2-8.5,4.2
			C1090.1,2180.2,1086.3,2180.7,1082,2180.7z M1089.8,2162c3.2,0,6.1-0.7,8.6-2.1c2.6-1.4,4.6-3.5,6.1-6.4c1.5-2.9,2.2-6.6,2.2-10.9
			v-2.3l-14,2.5c-5.2,0.9-8.9,2.2-11.3,4c-2.4,1.8-3.5,3.9-3.5,6.3c0,1.9,0.5,3.5,1.6,4.8c1.1,1.3,2.5,2.3,4.4,3
			C1085.7,2161.6,1087.7,2162,1089.8,2162z"/>
		<path fill="#FFFFFF" d="M1157.5,2179.1c-1.2,0-2.2-0.4-3-1.2c-0.8-0.8-1.2-1.8-1.2-2.9v-108.6c0-1.2,0.4-2.2,1.2-3
			c0.8-0.8,1.8-1.2,3-1.2h19.4c1.2,0,2.2,0.4,3,1.2c0.8,0.8,1.2,1.8,1.2,3V2175c0,1.1-0.4,2.1-1.2,2.9c-0.8,0.8-1.8,1.2-3,1.2
			H1157.5z"/>
	</g>
	<g>
		<path fill="#FFFFFF" d="M1037.5,2263.4c-3.3,0-6.3-0.6-8.9-1.9c-2.6-1.3-4.7-2.9-6.2-5.1c-1.5-2.1-2.3-4.6-2.3-7.2
			c0-4.3,1.8-7.8,5.3-10.3c3.5-2.5,8.3-4.3,14.1-5.2l11.5-1.7v-1.3c0-2.2-0.5-3.9-1.4-5c-0.9-1.2-2.6-1.7-5-1.7
			c-1.7,0-3.1,0.3-4.2,1c-1.1,0.7-1.9,1.6-2.5,2.8c-0.6,0.8-1.3,1.2-2.3,1.2h-10.3c-0.7,0-1.2-0.2-1.6-0.6c-0.4-0.4-0.5-0.9-0.5-1.4
			c0-1.1,0.4-2.4,1.2-3.8c0.8-1.4,2.1-2.9,3.8-4.3c1.7-1.4,3.9-2.6,6.6-3.5c2.7-0.9,6-1.4,9.8-1.4c3.9,0,7.3,0.5,10.1,1.4
			c2.8,0.9,5.1,2.2,6.9,3.9c1.8,1.7,3.1,3.6,3.9,5.8c0.8,2.2,1.2,4.7,1.2,7.4v27.9c0,0.6-0.2,1.1-0.7,1.6c-0.5,0.5-1,0.7-1.6,0.7
			H1054c-0.7,0-1.2-0.2-1.7-0.7c-0.4-0.5-0.6-1-0.6-1.6v-3.2c-0.8,1.2-1.9,2.2-3.2,3.2c-1.3,1-2.9,1.8-4.7,2.3
			C1042,2263.1,1039.9,2263.4,1037.5,2263.4z M1041.8,2252.9c1.8,0,3.4-0.4,4.8-1.1c1.4-0.8,2.6-2,3.4-3.6c0.8-1.6,1.2-3.7,1.2-6.1
			v-1.3l-7.8,1.4c-2.9,0.5-5,1.2-6.3,2.2c-1.3,1-2,2.2-2,3.5c0,1,0.3,1.9,0.9,2.7c0.6,0.7,1.4,1.3,2.4,1.7
			C1039.5,2252.8,1040.6,2252.9,1041.8,2252.9z"/>
		<path fill="#FFFFFF" d="M1094.8,2263.4c-3.5,0-6.6-0.8-9.3-2.4c-2.7-1.6-4.8-3.9-6.4-7c-1.5-3.1-2.3-6.9-2.3-11.3v-25.6
			c0-0.7,0.2-1.2,0.6-1.7c0.4-0.4,1-0.6,1.7-0.6h11.5c0.7,0,1.2,0.2,1.7,0.6c0.5,0.4,0.7,1,0.7,1.7v25c0,6,2.7,9,8,9
			c2.5,0,4.5-0.8,6-2.3c1.5-1.6,2.2-3.8,2.2-6.7v-25c0-0.7,0.2-1.2,0.6-1.7c0.4-0.4,1-0.6,1.7-0.6h11.5c0.7,0,1.2,0.2,1.7,0.6
			c0.4,0.4,0.6,1,0.6,1.7v43.1c0,0.6-0.2,1.1-0.6,1.6c-0.4,0.5-1,0.7-1.7,0.7h-10.6c-0.6,0-1.1-0.2-1.6-0.7c-0.5-0.5-0.7-1-0.7-1.6
			v-3.5c-1.6,2.2-3.7,3.9-6.2,5C1101.3,2262.8,1098.3,2263.4,1094.8,2263.4z"/>
		<path fill="#FFFFFF" d="M1155.7,2263.4c-4,0-7.4-0.4-10.1-1.3c-2.8-0.9-5-2-6.8-3.3c-1.7-1.3-3-2.6-3.9-4
			c-0.9-1.4-1.3-2.6-1.4-3.6c-0.1-0.7,0.2-1.2,0.6-1.7c0.5-0.4,1-0.6,1.6-0.6h10.5c0.2,0,0.4,0,0.5,0.1c0.2,0.1,0.3,0.2,0.5,0.4
			c0.8,0.4,1.6,1,2.4,1.6c0.8,0.6,1.7,1.2,2.8,1.7c1,0.5,2.3,0.7,3.8,0.7c1.7,0,3.1-0.4,4.3-1.1c1.2-0.7,1.7-1.7,1.7-3
			c0-1-0.3-1.8-0.8-2.4c-0.6-0.6-1.7-1.3-3.3-1.9c-1.7-0.6-4.2-1.2-7.6-1.8c-3.2-0.7-6-1.7-8.3-2.9c-2.4-1.2-4.2-2.8-5.5-4.7
			c-1.3-1.9-1.9-4.3-1.9-7c0-2.4,0.8-4.8,2.4-7.1c1.6-2.3,3.9-4.1,7-5.6c3.1-1.4,6.8-2.2,11.4-2.2c3.5,0,6.5,0.4,9.2,1.2
			c2.6,0.8,4.8,1.9,6.6,3.2c1.8,1.3,3.1,2.6,4,3.9c0.9,1.3,1.4,2.6,1.5,3.7c0.1,0.6-0.1,1.1-0.6,1.6c-0.4,0.5-0.9,0.7-1.5,0.7h-9.5
			c-0.2,0-0.5,0-0.7-0.1c-0.2-0.1-0.5-0.2-0.6-0.3c-0.7-0.4-1.5-0.9-2.2-1.5c-0.7-0.6-1.6-1.2-2.6-1.7c-1-0.5-2.2-0.7-3.7-0.7
			c-1.7,0-2.9,0.4-3.9,1.1c-0.9,0.7-1.4,1.7-1.4,2.8c0,0.8,0.3,1.5,0.8,2.2c0.5,0.7,1.6,1.3,3.2,1.8c1.6,0.6,4.1,1.2,7.6,1.8
			c4.2,0.7,7.6,1.8,10.1,3.3c2.5,1.5,4.3,3.2,5.4,5.2c1.1,2,1.6,4.1,1.6,6.3c0,2.9-0.9,5.5-2.7,7.8c-1.8,2.3-4.4,4-7.8,5.3
			C1164.9,2262.8,1160.7,2263.4,1155.7,2263.4z"/>
	</g>
	<g>
		<path fill="#FFFFFF" d="M701.1,2567.1c-7.1,0-13.2-0.8-18.2-2.4c-5-1.6-9-3.5-12.2-5.8c-3.1-2.3-5.5-4.7-7-7.2
			c-1.5-2.5-2.4-4.6-2.5-6.5c-0.1-1.2,0.3-2.2,1.2-3c0.9-0.8,1.8-1.2,2.8-1.2H684c0.3,0,0.6,0.1,0.9,0.2c0.3,0.1,0.6,0.3,0.9,0.7
			c1.4,0.8,2.9,1.7,4.3,2.9c1.4,1.2,3.1,2.2,4.9,3c1.9,0.9,4.1,1.3,6.7,1.3c3.1,0,5.6-0.6,7.7-1.9c2.1-1.3,3.1-3,3.1-5.3
			c0-1.8-0.5-3.2-1.5-4.4c-1-1.2-3-2.3-6-3.4c-3-1.1-7.5-2.2-13.6-3.3c-5.7-1.3-10.7-3-15-5.2c-4.3-2.1-7.6-4.9-9.9-8.4
			c-2.3-3.5-3.5-7.6-3.5-12.6c0-4.4,1.4-8.6,4.3-12.7c2.9-4.1,7-7.4,12.5-10c5.5-2.6,12.3-3.9,20.4-3.9c6.3,0,11.7,0.7,16.4,2.2
			c4.7,1.5,8.7,3.4,11.8,5.7c3.2,2.3,5.6,4.7,7.2,7.1c1.6,2.4,2.5,4.6,2.6,6.6c0.1,1.1-0.2,2.1-1,2.9c-0.8,0.8-1.6,1.2-2.6,1.2
			h-17.1c-0.4,0-0.9-0.1-1.3-0.2c-0.4-0.2-0.8-0.4-1.2-0.6c-1.3-0.7-2.6-1.5-3.9-2.6c-1.3-1.1-2.9-2.1-4.6-3
			c-1.8-0.9-3.9-1.3-6.6-1.3c-3,0-5.3,0.7-6.9,2c-1.6,1.3-2.5,3-2.5,5.1c0,1.4,0.5,2.7,1.4,3.9c0.9,1.2,2.9,2.3,5.8,3.3
			c2.9,1,7.4,2.1,13.6,3.3c7.6,1.2,13.6,3.2,18.1,5.8c4.5,2.7,7.7,5.8,9.6,9.4c1.9,3.6,2.9,7.3,2.9,11.3c0,5.3-1.6,9.9-4.8,14
			c-3.2,4.1-7.8,7.2-13.9,9.5C717.5,2566,710,2567.1,701.1,2567.1z"/>
		<path fill="#FFFFFF" d="M796.2,2567.1c-8.1,0-15.3-1.5-21.5-4.4c-6.3-3-11.2-7.3-14.9-12.9c-3.7-5.6-5.7-12.4-6-20.3
			c-0.1-1.8-0.2-4-0.2-6.7c0-2.7,0.1-4.9,0.2-6.7c0.3-8,2.3-14.8,5.9-20.5c3.6-5.6,8.6-10,14.9-12.9c6.3-3,13.5-4.4,21.6-4.4
			c7.6,0,14.1,1.1,19.5,3.2c5.4,2.1,9.8,4.8,13.2,8c3.3,3.2,5.9,6.4,7.6,9.8c1.7,3.3,2.6,6.3,2.7,8.8c0.1,1.1-0.3,2.1-1.2,2.9
			c-0.9,0.8-1.9,1.2-3,1.2h-20.9c-1.2,0-2.1-0.3-2.8-0.8c-0.7-0.5-1.3-1.4-1.8-2.5c-1.3-3.4-3-5.8-5-7.2c-2-1.4-4.6-2.1-7.8-2.1
			c-4.4,0-7.8,1.4-10.1,4.3c-2.4,2.9-3.6,7.2-3.9,13.2c-0.1,4.4-0.1,8.3,0,11.7c0.3,6,1.6,10.4,3.9,13.2c2.3,2.7,5.6,4.1,10,4.1
			c3.4,0,6.1-0.7,8.1-2.2c2-1.5,3.6-3.9,4.8-7.2c0.5-1.1,1.2-1.9,1.8-2.5c0.7-0.5,1.6-0.8,2.8-0.8H835c1.1,0,2.1,0.4,3,1.2
			c0.9,0.8,1.3,1.8,1.2,3c-0.1,1.8-0.7,3.9-1.6,6.4c-1,2.5-2.5,5.2-4.6,7.9c-2.1,2.7-4.8,5.3-8.1,7.6c-3.3,2.3-7.4,4.2-12.1,5.7
			C807.9,2566.4,802.4,2567.1,796.2,2567.1z"/>
		<path fill="#FFFFFF" d="M858,2565.5c-1.2,0-2.2-0.4-3-1.2c-0.8-0.8-1.2-1.8-1.2-2.9v-108.6c0-1.2,0.4-2.2,1.2-3
			c0.8-0.8,1.8-1.2,3-1.2h21.1c1.2,0,2.2,0.4,3,1.2c0.8,0.8,1.2,1.8,1.2,3v36.7c3-3.4,6.6-6.1,10.9-8.1c4.3-2,9.3-3,15.1-3
			c6.4,0,12,1.4,17,4.3c5,2.9,8.9,7,11.8,12.5c2.9,5.5,4.3,12.3,4.3,20.4v45.9c0,1.1-0.4,2.1-1.2,2.9c-0.8,0.8-1.8,1.2-3,1.2h-21.2
			c-1.1,0-2.1-0.4-2.9-1.2c-0.8-0.8-1.2-1.8-1.2-2.9v-44.9c0-5.2-1.2-9.1-3.7-11.9c-2.5-2.8-6.1-4.2-10.8-4.2c-4.6,0-8.3,1.4-11,4.2
			c-2.7,2.8-4.1,6.8-4.1,11.9v44.9c0,1.1-0.4,2.1-1.2,2.9c-0.8,0.8-1.8,1.2-3,1.2H858z"/>
		<path fill="#FFFFFF" d="M986.5,2567.1c-5.9,0-11.2-1.1-15.9-3.4c-4.7-2.2-8.4-5.3-11.1-9.1c-2.7-3.8-4.1-8.2-4.1-13
			c0-7.8,3.2-14,9.5-18.5c6.4-4.5,14.8-7.6,25.3-9.3l20.6-3.1v-2.3c0-3.9-0.8-7-2.5-9c-1.6-2.1-4.7-3.1-9-3.1
			c-3.1,0-5.6,0.6-7.5,1.8c-1.9,1.2-3.4,2.9-4.5,4.9c-1,1.4-2.4,2.1-4.1,2.1h-18.4c-1.2,0-2.1-0.4-2.8-1.1c-0.7-0.7-0.9-1.6-0.8-2.5
			c0-2,0.7-4.2,2.2-6.8c1.5-2.6,3.8-5.1,6.8-7.6c3.1-2.5,7-4.6,11.8-6.3c4.8-1.6,10.7-2.5,17.6-2.5c7,0,13,0.8,18.1,2.5
			c5,1.6,9.2,3.9,12.3,6.9c3.2,3,5.5,6.4,7,10.4c1.5,4,2.2,8.4,2.2,13.2v50c0,1.1-0.4,2.1-1.2,2.9c-0.8,0.8-1.8,1.2-2.9,1.2h-19.1
			c-1.2,0-2.2-0.4-3-1.2c-0.8-0.8-1.2-1.8-1.2-2.9v-5.8c-1.4,2.1-3.3,4-5.8,5.8c-2.4,1.8-5.2,3.2-8.5,4.2
			C994.5,2566.6,990.8,2567.1,986.5,2567.1z M994.2,2548.3c3.2,0,6.1-0.7,8.6-2.1c2.6-1.4,4.6-3.5,6.1-6.4c1.5-2.9,2.2-6.6,2.2-10.9
			v-2.3l-14,2.5c-5.2,0.9-8.9,2.2-11.3,4c-2.4,1.8-3.5,3.9-3.5,6.3c0,1.9,0.5,3.5,1.6,4.8c1.1,1.3,2.5,2.3,4.4,3
			C990.2,2548,992.1,2548.3,994.2,2548.3z"/>
		<path fill="#FFFFFF" d="M1071,2565.5c-1.1,0-2.1-0.4-2.9-1.2c-0.8-0.8-1.2-1.8-1.2-2.9v-59.9h-12.5c-1.2,0-2.2-0.4-3-1.2
			c-0.8-0.8-1.2-1.8-1.2-3V2484c0-1.2,0.4-2.2,1.2-3c0.8-0.8,1.8-1.2,3-1.2h12.5v-5.3c0-7.5,1.5-13.5,4.4-18c2.9-4.5,7-7.8,12.4-9.9
			c5.4-2,11.8-3,19.2-3h12.8c1.2,0,2.2,0.4,3,1.2c0.8,0.8,1.2,1.8,1.2,3v13.3c0,1.2-0.4,2.2-1.2,3c-0.8,0.8-1.8,1.2-3,1.2h-11.5
			c-3.7,0-6.3,0.9-7.8,2.6c-1.5,1.8-2.2,4.3-2.2,7.6v4.4h19.9c1.2,0,2.2,0.4,3,1.2c0.8,0.8,1.2,1.8,1.2,3v13.3c0,1.2-0.4,2.2-1.2,3
			c-0.8,0.8-1.8,1.2-3,1.2h-19.9v59.9c0,1.1-0.4,2.1-1.2,2.9c-0.8,0.8-1.8,1.2-3,1.2H1071z"/>
		<path fill="#FFFFFF" d="M1173.8,2565.5c-7,0-13.1-1.1-18.2-3.4c-5.1-2.2-9-5.8-11.8-10.5c-2.7-4.8-4.1-10.9-4.1-18.5v-31.6H1127
			c-1.2,0-2.2-0.4-3-1.2c-0.8-0.8-1.2-1.8-1.2-3V2484c0-1.2,0.4-2.2,1.2-3c0.8-0.8,1.8-1.2,3-1.2h12.8v-27.1c0-1.2,0.4-2.2,1.2-3
			c0.8-0.8,1.8-1.2,2.9-1.2h19.1c1.2,0,2.2,0.4,3,1.2c0.8,0.8,1.2,1.8,1.2,3v27.1h20.6c1.2,0,2.2,0.4,3,1.2c0.8,0.8,1.2,1.8,1.2,3
			v13.3c0,1.2-0.4,2.2-1.2,3c-0.8,0.8-1.8,1.2-3,1.2h-20.6v29.3c0,3.7,0.7,6.7,2.1,8.9c1.4,2.2,3.8,3.3,7.2,3.3h12.7
			c1.2,0,2.2,0.4,3,1.2c0.8,0.8,1.2,1.8,1.2,3v14.3c0,1.1-0.4,2.1-1.2,2.9c-0.8,0.8-1.8,1.2-3,1.2H1173.8z"/>
	</g>
	<g>
		<path fill="#FFFFFF" d="M669.3,2383.6c-1.2,0-2.2-0.4-3-1.2c-0.8-0.8-1.2-1.8-1.2-2.9v-106.9c0-1.2,0.4-2.2,1.2-3
			c0.8-0.8,1.8-1.2,3-1.2H691c1.2,0,2.2,0.4,3,1.2c0.8,0.8,1.2,1.8,1.2,3v86.2H745c1.2,0,2.2,0.4,3,1.2c0.8,0.8,1.2,1.8,1.2,3v16.4
			c0,1.1-0.4,2.1-1.2,2.9c-0.8,0.8-1.8,1.2-3,1.2H669.3z"/>
		<path fill="#FFFFFF" d="M800.3,2385.2c-12.9,0-23.2-3.5-30.9-10.5c-7.7-7-11.7-17.4-12-31.3c0-0.8,0-1.8,0-3c0-1.2,0-2.1,0-2.8
			c0.3-8.7,2.3-16.1,5.8-22.3c3.6-6.2,8.5-10.9,14.8-14.1c6.3-3.2,13.7-4.9,22.1-4.9c9.6,0,17.6,1.9,23.9,5.8
			c6.3,3.8,11,9,14.2,15.6c3.2,6.6,4.8,14.1,4.8,22.5v3.9c0,1.2-0.4,2.2-1.2,3c-0.8,0.8-1.8,1.2-3,1.2h-52.6c0,0.1,0,0.3,0,0.5
			c0,0.2,0,0.4,0,0.7c0.1,3.2,0.7,6.1,1.7,8.7c1,2.6,2.6,4.7,4.6,6.3c2,1.5,4.5,2.3,7.5,2.3c2.2,0,4-0.4,5.5-1.1
			c1.5-0.7,2.7-1.5,3.7-2.5c1-0.9,1.8-1.7,2.3-2.4c1-1.2,1.8-1.9,2.4-2.2c0.6-0.3,1.6-0.4,2.9-0.4h20.4c1.1,0,2,0.3,2.7,1
			c0.7,0.7,1,1.5,0.9,2.6c-0.1,1.9-1,4.1-2.8,6.7c-1.8,2.6-4.3,5.2-7.6,7.8c-3.3,2.6-7.5,4.7-12.6,6.3
			C812.8,2384.4,806.9,2385.2,800.3,2385.2z M786.3,2332.1h27.8v-0.3c0-3.6-0.5-6.7-1.6-9.3c-1-2.6-2.6-4.6-4.8-6
			c-2.1-1.4-4.7-2.1-7.6-2.1c-2.9,0-5.3,0.7-7.4,2.1c-2.1,1.4-3.7,3.4-4.8,6c-1.1,2.6-1.6,5.7-1.6,9.3V2332.1z"/>
		<path fill="#FFFFFF" d="M862.6,2383.6c-1.2,0-2.2-0.4-3-1.2c-0.8-0.8-1.2-1.8-1.2-2.9v-77.3c0-1.2,0.4-2.2,1.2-3
			c0.8-0.8,1.8-1.2,3-1.2H882c1.2,0,2.2,0.4,3,1.2c0.8,0.8,1.2,1.8,1.2,3v77.3c0,1.1-0.4,2.1-1.2,2.9c-0.8,0.8-1.8,1.2-3,1.2H862.6z
			"/>
		<path fill="#FFFFFF" d="M937.4,2385.2c-5.3,0-10-0.9-14.2-2.5c-4.2-1.7-7.8-4.2-10.9-7.6c-3-3.3-5.3-7.4-7-12.2
			c-1.6-4.8-2.6-10.2-2.8-16.4c-0.1-2.2-0.2-4.1-0.2-5.8c0-1.7,0.1-3.6,0.2-5.8c0.2-5.8,1.2-11.1,2.8-15.9c1.6-4.8,3.9-8.8,6.9-12.2
			c3-3.3,6.6-5.9,10.9-7.7c4.3-1.8,9-2.7,14.3-2.7c5.5,0,10.2,0.9,14.1,2.7c3.9,1.8,7.3,4.1,10,7v-35.2c0-1.2,0.4-2.2,1.2-3
			c0.8-0.8,1.8-1.2,3-1.2h20.1c1.1,0,2.1,0.4,2.9,1.2c0.8,0.8,1.2,1.8,1.2,3v108.6c0,1.1-0.4,2.1-1.2,2.9c-0.8,0.8-1.8,1.2-2.9,1.2
			h-18.6c-1.2,0-2.2-0.4-3-1.2c-0.8-0.8-1.2-1.8-1.2-2.9v-5.3c-2.6,3.2-6,5.8-10.2,7.9C948.7,2384.2,943.6,2385.2,937.4,2385.2z
			 M946.5,2363.2c3.6,0,6.5-0.8,8.6-2.4c2.1-1.6,3.7-3.6,4.8-6.2c1-2.5,1.6-5.3,1.7-8.2c0.1-2.2,0.2-4.3,0.2-6.3c0-2-0.1-4-0.2-6.1
			c-0.1-2.7-0.7-5.3-1.8-7.6c-1.1-2.4-2.7-4.3-4.9-5.8c-2.2-1.5-5-2.2-8.4-2.2c-3.6,0-6.5,0.8-8.6,2.3c-2.1,1.5-3.7,3.6-4.6,6.3
			c-0.9,2.6-1.5,5.5-1.7,8.7c-0.3,3.4-0.3,6.8,0,10.2c0.2,3.2,0.8,6.1,1.7,8.7c0.9,2.6,2.5,4.7,4.6,6.3
			C940,2362.4,942.9,2363.2,946.5,2363.2z"/>
		<path fill="#FFFFFF" d="M1048.8,2385.2c-12.9,0-23.2-3.5-30.9-10.5c-7.7-7-11.7-17.4-12-31.3c0-0.8,0-1.8,0-3c0-1.2,0-2.1,0-2.8
			c0.3-8.7,2.3-16.1,5.8-22.3c3.6-6.2,8.5-10.9,14.8-14.1c6.3-3.2,13.7-4.9,22.1-4.9c9.6,0,17.6,1.9,23.9,5.8
			c6.3,3.8,11,9,14.2,15.6c3.2,6.6,4.8,14.1,4.8,22.5v3.9c0,1.2-0.4,2.2-1.2,3c-0.8,0.8-1.8,1.2-3,1.2h-52.6c0,0.1,0,0.3,0,0.5
			c0,0.2,0,0.4,0,0.7c0.1,3.2,0.7,6.1,1.7,8.7c1,2.6,2.6,4.7,4.6,6.3c2,1.5,4.5,2.3,7.5,2.3c2.2,0,4-0.4,5.5-1.1
			c1.5-0.7,2.7-1.5,3.7-2.5c1-0.9,1.8-1.7,2.3-2.4c1-1.2,1.8-1.9,2.4-2.2c0.6-0.3,1.6-0.4,2.9-0.4h20.4c1.1,0,2,0.3,2.7,1
			c0.7,0.7,1,1.5,0.9,2.6c-0.1,1.9-1,4.1-2.8,6.7c-1.8,2.6-4.3,5.2-7.6,7.8c-3.3,2.6-7.5,4.7-12.6,6.3
			C1061.4,2384.4,1055.5,2385.2,1048.8,2385.2z M1034.8,2332.1h27.8v-0.3c0-3.6-0.5-6.7-1.6-9.3c-1-2.6-2.6-4.6-4.8-6
			c-2.1-1.4-4.7-2.1-7.6-2.1c-2.9,0-5.3,0.7-7.4,2.1c-2.1,1.4-3.7,3.4-4.8,6c-1.1,2.6-1.6,5.7-1.6,9.3V2332.1z"/>
		<path fill="#FFFFFF" d="M1111.1,2383.6c-1.2,0-2.2-0.4-3-1.2c-0.8-0.8-1.2-1.8-1.2-2.9v-77.3c0-1.2,0.4-2.2,1.2-3
			c0.8-0.8,1.8-1.2,3-1.2h18.9c1.2,0,2.2,0.4,3,1.2c0.8,0.8,1.2,1.8,1.2,3v6.3c2.7-3.4,6.4-6.3,11-8.6c4.6-2.3,10-3.5,16.3-3.5
			c6.4,0,12,1.4,16.9,4.3c4.9,2.9,8.7,7,11.5,12.5c2.8,5.5,4.2,12.3,4.2,20.4v45.9c0,1.1-0.4,2.1-1.2,2.9c-0.8,0.8-1.8,1.2-3,1.2
			h-20.7c-1.1,0-2.1-0.4-2.9-1.2c-0.8-0.8-1.2-1.8-1.2-2.9v-44.9c0-5.2-1.2-9.1-3.7-11.9c-2.5-2.8-6.1-4.2-10.9-4.2
			c-4.5,0-8.1,1.4-10.8,4.2c-2.7,2.8-4,6.8-4,11.9v44.9c0,1.1-0.4,2.1-1.2,2.9c-0.8,0.8-1.8,1.2-2.9,1.2H1111.1z"/>
		<g>
			<path fill="#FFFFFF" d="M1229.1,2355.7c-1,0-1.8-0.3-2.4-0.9c-0.6-0.6-0.9-1.4-0.9-2.4v-12.7c0-1,0.3-1.8,0.9-2.4
				c0.6-0.6,1.4-0.9,2.4-0.9h42.2c1,0,1.8,0.3,2.5,0.9c0.7,0.6,1,1.4,1,2.4v12.7c0,1-0.3,1.8-1,2.4c-0.7,0.6-1.5,0.9-2.5,0.9H1229.1
				z"/>
		</g>
	</g>
	<path fill="#03CCA8" d="M874.9,2260.3L874.9,2260.3L874.9,2260.3c1.5-1.2,3.2-1.9,5.1-1.9c2.6,0,4.9,1,6.6,2.9
		c1.7,1.9,2.7,4.3,2.4,7l0,0v0c0,2.7-1,5.3-3.3,8.1c-2.1,2.5-4.9,4.9-8.4,7.9l0,0l0,0c-1.2,1.1-2.5,2.1-3.9,3.4l0,0l0,0
		c-0.2,0.2-0.3,0.3-0.4,0.3c-0.1,0.1-0.3,0.1-0.5,0.1c-0.3,0-0.7-0.1-1-0.4l0,0l0,0c-1.4-1.2-2.7-2.3-3.9-3.4l0,0l0,0l0,0
		c-3.4-2.8-6.3-5.5-8.4-7.9c-2.3-2.8-3.3-5.4-3.3-8.1c0-2.8,0.9-5.1,2.7-7l0,0l0,0c1.7-1.9,4.1-2.9,6.6-2.9c1.9,0,3.5,0.7,5.1,1.9
		l0,0l0,0c0.7,0.5,1.4,1.2,2.1,2.1l0.3,0.4l0.3-0.4C873.4,2261.5,874.2,2260.9,874.9,2260.3z"/>
</g>
</svg>
