<?xml version="1.0" encoding="utf-8"?>
<!-- Generator: Adobe Illustrator 18.0.0, SVG Export Plug-In . SVG Version: 6.00 Build 0)  -->
<!DOCTYPE svg PUBLIC "-//W3C//DTD SVG 1.1//EN" "http://www.w3.org/Graphics/SVG/1.1/DTD/svg11.dtd">
<svg version="1.1" id="Ebene_1" xmlns="http://www.w3.org/2000/svg" xmlns:xlink="http://www.w3.org/1999/xlink" x="0px" y="0px"
	 viewBox="686 0 548 1080" enable-background="new 686 0 548 1080" xml:space="preserve">
<text transform="matrix(1 0 0 1 719.9628 616.5449)" opacity="0.5" fill="#03CCA8" enable-background="new    " font-family="'Rubik-Bold'" font-size="50.1974">00110011 </text>
<text transform="matrix(1 0 0 1 779.1153 806.2167)" opacity="0.5" fill="#03CCA8" enable-background="new    " font-family="'Rubik-Bold'" font-size="50.1974">01000110</text>
<text transform="matrix(1 0 0 1 779.1153 872.6533)" opacity="0.5" fill="#03CCA8" enable-background="new    " font-family="'Rubik-Bold'" font-size="50.1974">01010101</text>
<text transform="matrix(1 0 0 1 719.9628 968.666)" opacity="0.5" fill="#03CCA8" enable-background="new    " font-family="'Rubik-Bold'" font-size="50.1974">01010011</text>
<g opacity="0.3">
	<circle fill="#03CCA8" cx="962.8" cy="45.3" r="13.9"/>
	<circle fill="#03CCA8" cx="1025.5" cy="45.3" r="13.9"/>
	<circle fill="#03CCA8" cx="1088.3" cy="45.3" r="13.9"/>
	<circle fill="#03CCA8" cx="1151" cy="45.3" r="13.9"/>
	<circle fill="#03CCA8" cx="962.8" cy="108" r="13.9"/>
	<circle fill="#03CCA8" cx="1151" cy="108" r="13.9"/>
	<circle fill="#03CCA8" cx="1213.7" cy="108" r="13.9"/>
	<circle fill="#03CCA8" cx="1088.3" cy="170.9" r="13.9"/>
	<circle fill="#03CCA8" cx="1151" cy="170.9" r="13.9"/>
	<circle fill="#03CCA8" cx="1213.7" cy="170.9" r="13.9"/>
	<circle fill="#03CCA8" cx="1025.5" cy="296.1" r="13.9"/>
	<circle fill="#03CCA8" cx="1088.3" cy="296.1" r="13.9"/>
	<circle fill="#03CCA8" cx="1151" cy="296.1" r="13.9"/>
	<circle fill="#03CCA8" cx="1213.7" cy="296.1" r="13.9"/>
	<circle fill="#03CCA8" cx="962.8" cy="359" r="13.9"/>
	<circle fill="#03CCA8" cx="962.8" cy="421.8" r="13.9"/>
	<circle fill="#03CCA8" cx="1025.5" cy="421.8" r="13.9"/>
	<circle fill="#03CCA8" cx="1088.3" cy="421.8" r="13.9"/>
	<circle fill="#03CCA8" cx="1151" cy="421.8" r="13.9"/>
	<circle fill="#03CCA8" cx="1213.7" cy="421.8" r="13.9"/>
	<circle fill="#03CCA8" cx="962.8" cy="232.8" r="6.7"/>
	<circle fill="#03CCA8" cx="1025.5" cy="232.8" r="6.7"/>
	<circle fill="#03CCA8" cx="1088.3" cy="232.8" r="6.7"/>
	<circle fill="#03CCA8" cx="1151" cy="232.8" r="6.7"/>
	<circle fill="#03CCA8" cx="1213.7" cy="232.8" r="6.7"/>
	<circle fill="#03CCA8" cx="962.8" cy="484.7" r="13.9"/>
	<circle fill="#03CCA8" cx="1025.5" cy="484.7" r="13.9"/>
	<circle fill="#03CCA8" cx="1088.3" cy="484.7" r="13.9"/>
	<circle fill="#03CCA8" cx="1151" cy="484.7" r="13.9"/>
	<circle fill="#03CCA8" cx="1213.7" cy="484.7" r="13.9"/>
</g>
<g>
	<g>
		<path fill="#FFFFFF" d="M718.7,375.6c-1,0-1.8-0.3-2.5-1s-1-1.5-1-2.4v-87.9c0-1,0.3-1.8,1-2.5s1.5-1,2.5-1h35.2
			c8.8,0,16.3,1.4,22.6,4.3c6.2,2.9,11,7,14.3,12.4c3.4,5.4,5.2,12.2,5.4,20.2c0.1,3.9,0.2,7.4,0.2,10.4c0,3-0.1,6.4-0.2,10.3
			c-0.3,8.4-2.1,15.3-5.3,20.8c-3.2,5.5-7.8,9.6-13.9,12.2c-6.1,2.6-13.6,4-22.3,4L718.7,375.6L718.7,375.6z M739.7,356.2h14.2
			c3.9,0,7.1-0.6,9.7-1.8c2.5-1.2,4.5-3.1,5.8-5.8c1.3-2.6,2-6,2.1-10.3c0.2-2.6,0.3-4.9,0.3-7.1c0.1-2.1,0.1-4.1,0-6.2
			c-0.1-2.1-0.2-4.4-0.3-6.9c-0.2-6.2-1.8-10.6-4.8-13.5c-3-2.9-7.5-4.3-13.5-4.3h-13.6V356.2z"/>
		<path fill="#FFFFFF" d="M813.9,295.2c-1,0-1.8-0.3-2.5-1s-1-1.5-1-2.5v-12.2c0-0.9,0.3-1.7,1-2.4c0.7-0.7,1.5-1,2.5-1h16.2
			c0.9,0,1.7,0.3,2.4,1s1,1.5,1,2.4v12.2c0,1-0.3,1.8-1,2.5c-0.7,0.7-1.5,1-2.4,1H813.9z M814,375.6c-1,0-1.8-0.3-2.5-1
			s-1-1.5-1-2.4v-63.5c0-1,0.3-1.8,1-2.5c0.7-0.7,1.5-1,2.5-1h15.9c1,0,1.8,0.3,2.5,1c0.7,0.7,1,1.5,1,2.5v63.4c0,0.9-0.3,1.7-1,2.4
			c-0.7,0.7-1.5,1-2.5,1L814,375.6L814,375.6z"/>
		<path fill="#FFFFFF" d="M883.7,405.3c-6.9,0-12.7-0.9-17.3-2.7c-4.5-1.8-8.1-3.9-10.8-6.5c-2.6-2.5-4.6-5-5.8-7.5
			s-1.8-4.4-1.9-5.9c-0.1-1,0.2-1.8,1-2.5c0.7-0.7,1.6-1,2.5-1h17.2c0.9,0,1.6,0.2,2.1,0.7c0.6,0.4,1,1.2,1.3,2.1c0.6,1,1.2,2,1.9,3
			s1.8,1.9,3.2,2.6s3.3,1.1,5.8,1.1c2.7,0,4.9-0.4,6.7-1.3c1.8-0.8,3.1-2.2,4-4.2c0.9-2,1.3-4.5,1.3-7.8v-9c-2.1,2.2-4.8,4.1-8,5.5
			c-3.2,1.4-7.1,2.1-11.7,2.1c-4.6,0-8.6-0.7-12.2-2.1c-3.5-1.3-6.4-3.4-8.8-6.1c-2.4-2.7-4.2-6-5.5-9.9c-1.3-3.9-2.1-8.3-2.4-13.4
			c-0.1-2.4-0.1-4.8,0-7.1c0.2-4.8,1.1-9.1,2.3-13.1s3.1-7.2,5.5-10c2.4-2.7,5.3-4.8,8.9-6.3c3.5-1.5,7.6-2.2,12.2-2.2
			c4.8,0,9,0.9,12.5,2.8c3.5,1.8,6.3,4.2,8.5,7v-5c0-0.9,0.3-1.7,1-2.4c0.7-0.7,1.5-1,2.5-1h15.5c1,0,1.8,0.3,2.5,1s1,1.5,1,2.4v65
			c0,6.8-1.4,12.7-4.1,17.3c-2.7,4.7-6.7,8.2-12,10.7C897.4,404.1,891.2,405.3,883.7,405.3z M882.8,356.6c2.9,0,5.3-0.7,7.1-1.9
			c1.8-1.2,3.1-2.9,4-4.8c0.8-2,1.3-4.1,1.4-6.3c0.1-1,0.2-2.4,0.2-4.2c0-1.8-0.1-3.1-0.2-4c-0.1-2.4-0.6-4.5-1.4-6.5
			c-0.8-2-2.2-3.6-4-4.8c-1.8-1.2-4.1-1.8-7.1-1.8s-5.3,0.7-7.1,1.9c-1.7,1.2-3,3-3.8,5.2c-0.7,2.1-1.2,4.5-1.4,7.1
			c-0.1,2-0.1,4,0,6.1c0.2,2.6,0.7,5,1.4,7.1c0.7,2.1,2.1,3.9,3.8,5.2C877.5,355.9,879.8,356.6,882.8,356.6z"/>
		<path fill="#FFFFFF" d="M938.2,295.2c-1,0-1.8-0.3-2.5-1s-1-1.5-1-2.5v-12.2c0-0.9,0.3-1.7,1-2.4c0.7-0.7,1.5-1,2.5-1h16.2
			c0.9,0,1.7,0.3,2.4,1s1,1.5,1,2.4v12.2c0,1-0.3,1.8-1,2.5c-0.7,0.7-1.5,1-2.4,1H938.2z M938.4,375.6c-1,0-1.8-0.3-2.5-1
			c-0.7-0.7-1-1.5-1-2.4v-63.5c0-1,0.3-1.8,1-2.5c0.7-0.7,1.5-1,2.5-1h15.9c1,0,1.8,0.3,2.5,1c0.7,0.7,1,1.5,1,2.5v63.4
			c0,0.9-0.3,1.7-1,2.4c-0.7,0.7-1.5,1-2.5,1L938.4,375.6L938.4,375.6z"/>
		<path fill="#FFFFFF" d="M1009.6,375.6c-5.8,0-10.8-0.9-15-2.8c-4.2-1.8-7.4-4.8-9.7-8.6c-2.2-3.9-3.4-9-3.4-15.2v-26h-10.5
			c-1,0-1.8-0.3-2.5-1c-0.7-0.7-1-1.5-1-2.5v-10.9c0-1,0.3-1.8,1-2.5c0.7-0.7,1.5-1,2.5-1h10.5V283c0-1,0.3-1.8,1-2.5
			c0.7-0.7,1.5-1,2.4-1h15.7c1,0,1.8,0.3,2.5,1c0.7,0.7,1,1.5,1,2.5v22.3h16.8c1,0,1.8,0.3,2.5,1c0.7,0.7,1,1.5,1,2.5v10.9
			c0,1-0.3,1.8-1,2.5c-0.7,0.7-1.5,1-2.5,1H1004v24.1c0,3,0.6,5.5,1.7,7.3c1.2,1.8,3.1,2.7,5.9,2.7h10.4c1,0,1.8,0.3,2.5,1
			c0.7,0.7,1,1.5,1,2.5v11.6c0,0.9-0.3,1.7-1,2.4c-0.7,0.7-1.5,1-2.5,1L1009.6,375.6L1009.6,375.6z"/>
		<path fill="#FFFFFF" d="M1057.8,377c-4.8,0-9.2-0.9-13.1-2.8c-3.9-1.8-6.9-4.4-9.1-7.5c-2.2-3.1-3.4-6.7-3.4-10.7
			c0-6.4,2.6-11.5,7.8-15.2c5.3-3.7,12.2-6.2,20.8-7.6l16.9-2.5v-1.9c0-3.2-0.7-5.8-2.1-7.4c-1.3-1.7-3.9-2.5-7.4-2.5
			c-2.5,0-4.6,0.5-6.2,1.5s-2.8,2.4-3.7,4c-0.8,1.2-2,1.7-3.4,1.7H1040c-1,0-1.7-0.3-2.3-0.9s-0.7-1.3-0.7-2.1
			c0-1.6,0.6-3.5,1.8-5.6c1.2-2.1,3.1-4.2,5.6-6.2c2.5-2.1,5.8-3.8,9.7-5.2c3.9-1.3,8.8-2.1,14.5-2.1c5.8,0,10.7,0.7,14.9,2.1
			c4.1,1.3,7.6,3.2,10.1,5.7c2.6,2.5,4.5,5.3,5.8,8.5c1.2,3.3,1.8,6.9,1.8,10.8v41.1c0,0.9-0.3,1.7-1,2.4c-0.7,0.7-1.5,1-2.4,1H1082
			c-1,0-1.8-0.3-2.5-1s-1-1.5-1-2.4v-4.8c-1.2,1.7-2.7,3.3-4.8,4.8c-2,1.5-4.3,2.6-7,3.5C1064.4,376.5,1061.3,377,1057.8,377z
			 M1064.1,361.6c2.6,0,5-0.6,7.1-1.7c2.1-1.2,3.8-2.9,5-5.3c1.2-2.4,1.8-5.4,1.8-9v-1.9l-11.5,2.1c-4.3,0.7-7.3,1.8-9.3,3.3
			c-2,1.5-2.9,3.2-2.9,5.2c0,1.6,0.4,2.9,1.3,3.9c0.9,1.1,2.1,1.9,3.6,2.5S1062.4,361.6,1064.1,361.6z"/>
		<path fill="#FFFFFF" d="M1119.8,375.6c-1,0-1.8-0.3-2.5-1c-0.7-0.7-1-1.5-1-2.4V283c0-1,0.3-1.8,1-2.5c0.7-0.7,1.5-1,2.5-1h15.9
			c1,0,1.8,0.3,2.5,1c0.7,0.7,1,1.5,1,2.5v89.1c0,0.9-0.3,1.7-1,2.4c-0.7,0.7-1.5,1-2.5,1L1119.8,375.6L1119.8,375.6z"/>
	</g>
	<g>
		<path fill="#FFFFFF" d="M1021.2,444.9c-2.7,0-5.2-0.5-7.3-1.6c-2.1-1.1-3.9-2.5-5.1-4.2c-1.2-1.7-1.9-3.8-1.9-5.9
			c0-3.5,1.5-6.4,4.4-8.5s6.8-3.5,11.6-4.3l9.4-1.4V418c0-1.8-0.4-3.2-1.2-4.1c-0.7-1-2.1-1.4-4.1-1.4c-1.4,0-2.5,0.2-3.5,0.8
			s-1.6,1.3-2.1,2.3c-0.5,0.7-1.1,1-1.9,1h-8.5c-0.6,0-1-0.2-1.3-0.5c-0.3-0.3-0.4-0.7-0.4-1.2c0-0.9,0.3-2,1-3.1
			c0.7-1.2,1.7-2.4,3.1-3.5s3.2-2.1,5.4-2.9c2.2-0.7,4.9-1.2,8.1-1.2c3.2,0,6,0.4,8.3,1.2c2.3,0.7,4.2,1.8,5.7,3.2
			c1.5,1.4,2.5,3,3.2,4.8c0.7,1.8,1,3.9,1,6.1v22.9c0,0.5-0.2,0.9-0.6,1.3c-0.4,0.4-0.8,0.6-1.3,0.6h-8.7c-0.6,0-1-0.2-1.4-0.6
			c-0.3-0.4-0.5-0.8-0.5-1.3v-2.9c-0.7,1-1.6,1.8-2.6,2.6c-1.1,0.8-2.4,1.5-3.9,1.9C1024.9,444.7,1023.1,444.9,1021.2,444.9z
			 M1024.7,436.3c1.5,0,2.8-0.3,3.9-0.9c1.2-0.7,2.1-1.6,2.8-3c0.7-1.3,1-3,1-5v-1.1l-6.4,1.2c-2.4,0.4-4.1,1-5.2,1.8
			c-1.1,0.8-1.6,1.8-1.6,2.9c0,0.8,0.2,1.6,0.7,2.2c0.5,0.6,1.2,1.1,2,1.4C1022.9,436.1,1023.8,436.3,1024.7,436.3z"/>
		<path fill="#FFFFFF" d="M1068.3,444.9c-2.9,0-5.4-0.7-7.6-2c-2.2-1.3-3.9-3.2-5.3-5.8c-1.2-2.5-1.9-5.7-1.9-9.3v-21
			c0-0.6,0.2-1,0.5-1.4c0.3-0.3,0.8-0.5,1.4-0.5h9.4c0.6,0,1,0.2,1.4,0.5c0.4,0.3,0.6,0.8,0.6,1.4v20.5c0,4.9,2.2,7.4,6.6,7.4
			c2.1,0,3.7-0.7,4.9-1.9c1.2-1.3,1.8-3.1,1.8-5.5v-20.5c0-0.6,0.2-1,0.5-1.4c0.3-0.3,0.8-0.5,1.4-0.5h9.4c0.6,0,1,0.2,1.4,0.5
			c0.3,0.3,0.5,0.8,0.5,1.4v35.4c0,0.5-0.2,0.9-0.5,1.3c-0.3,0.4-0.8,0.6-1.4,0.6h-8.7c-0.5,0-0.9-0.2-1.3-0.6
			c-0.4-0.4-0.6-0.8-0.6-1.3v-2.9c-1.3,1.8-3,3.2-5.1,4.1C1073.7,444.4,1071.2,444.9,1068.3,444.9z"/>
		<path fill="#FFFFFF" d="M1118.4,444.9c-3.3,0-6.1-0.3-8.3-1.1c-2.3-0.7-4.1-1.6-5.6-2.7c-1.4-1.1-2.5-2.1-3.2-3.3
			c-0.7-1.2-1.1-2.1-1.2-3c-0.1-0.6,0.2-1,0.5-1.4c0.4-0.3,0.8-0.5,1.3-0.5h8.5c0.2,0,0.3,0,0.4,0.1c0.2,0.1,0.2,0.2,0.4,0.3
			c0.7,0.3,1.3,0.8,2,1.3c0.7,0.5,1.4,1,2.3,1.4c0.8,0.4,1.9,0.6,3.1,0.6c1.4,0,2.5-0.3,3.5-0.9c1-0.6,1.4-1.4,1.4-2.5
			c0-0.8-0.2-1.5-0.7-2c-0.5-0.5-1.4-1.1-2.7-1.6c-1.4-0.5-3.5-1-6.2-1.5c-2.6-0.6-4.9-1.4-6.8-2.4c-2-1-3.5-2.3-4.5-3.9
			c-1.1-1.6-1.6-3.5-1.6-5.8c0-2,0.7-3.9,2-5.8c1.3-1.9,3.2-3.4,5.8-4.6c2.5-1.2,5.6-1.8,9.4-1.8c2.9,0,5.3,0.3,7.6,1
			c2.1,0.7,3.9,1.6,5.4,2.6s2.5,2.1,3.3,3.2s1.2,2.1,1.2,3c0.1,0.5-0.1,0.9-0.5,1.3c-0.3,0.4-0.7,0.6-1.2,0.6h-7.8
			c-0.2,0-0.4,0-0.6-0.1c-0.2-0.1-0.4-0.2-0.5-0.2c-0.6-0.3-1.2-0.7-1.8-1.2c-0.6-0.5-1.3-1-2.1-1.4c-0.8-0.4-1.8-0.6-3-0.6
			c-1.4,0-2.4,0.3-3.2,0.9c-0.7,0.6-1.2,1.4-1.2,2.3c0,0.7,0.2,1.2,0.7,1.8c0.4,0.6,1.3,1.1,2.6,1.5c1.3,0.5,3.4,1,6.2,1.5
			c3.5,0.6,6.2,1.5,8.3,2.7c2.1,1.2,3.5,2.6,4.4,4.3c0.9,1.6,1.3,3.4,1.3,5.2c0,2.4-0.7,4.5-2.2,6.4c-1.5,1.9-3.6,3.3-6.4,4.4
			C1125.8,444.3,1122.4,444.9,1118.4,444.9z"/>
	</g>
	<g>
		<path fill="#FFFFFF" d="M744.8,694.4c-5.8,0-10.8-0.7-15-2c-4.1-1.3-7.4-2.9-10-4.8c-2.5-1.9-4.5-3.9-5.8-5.9s-2-3.8-2.1-5.3
			c-0.1-1,0.2-1.8,1-2.5c0.7-0.7,1.5-1,2.3-1h15.4c0.2,0,0.5,0.1,0.7,0.2c0.2,0.1,0.5,0.2,0.7,0.6c1.2,0.7,2.4,1.4,3.5,2.4
			c1.2,1,2.5,1.8,4,2.5c1.6,0.7,3.4,1.1,5.5,1.1c2.5,0,4.6-0.5,6.3-1.6c1.7-1.1,2.5-2.5,2.5-4.4c0-1.5-0.4-2.6-1.2-3.6
			s-2.5-1.9-4.9-2.8c-2.5-0.9-6.2-1.8-11.2-2.7c-4.7-1.1-8.8-2.5-12.3-4.3c-3.5-1.7-6.2-4-8.1-6.9c-1.9-2.9-2.9-6.2-2.9-10.4
			c0-3.6,1.2-7.1,3.5-10.4c2.4-3.4,5.8-6.1,10.3-8.2s10.1-3.2,16.8-3.2c5.2,0,9.6,0.6,13.5,1.8c3.9,1.2,7.1,2.8,9.7,4.7
			c2.6,1.9,4.6,3.9,5.9,5.8s2.1,3.8,2.1,5.4c0.1,0.9-0.2,1.7-0.8,2.4c-0.7,0.7-1.3,1-2.1,1h-13.7c-0.3,0-0.7-0.1-1.1-0.2
			c-0.3-0.2-0.7-0.3-1-0.5c-1.1-0.6-2.1-1.2-3.2-2.1c-1.1-0.9-2.4-1.7-3.8-2.5c-1.5-0.7-3.2-1.1-5.4-1.1c-2.5,0-4.4,0.6-5.7,1.6
			c-1.3,1.1-2.1,2.5-2.1,4.2c0,1.2,0.4,2.2,1.2,3.2s2.4,1.9,4.8,2.7c2.4,0.8,6.1,1.7,11.2,2.7c6.2,1,11.2,2.6,14.9,4.8
			c3.7,2.2,6.3,4.8,7.9,7.7c1.6,3,2.4,6,2.4,9.3c0,4.4-1.3,8.1-3.9,11.5c-2.6,3.4-6.4,5.9-11.4,7.8
			C758.3,693.4,752.1,694.4,744.8,694.4z"/>
		<path fill="#FFFFFF" d="M822.9,694.4c-6.7,0-12.6-1.2-17.7-3.6c-5.2-2.5-9.2-6-12.2-10.6c-3-4.6-4.7-10.2-4.9-16.7
			c-0.1-1.5-0.2-3.3-0.2-5.5c0-2.2,0.1-4,0.2-5.5c0.2-6.6,1.9-12.2,4.8-16.8c3-4.6,7.1-8.2,12.2-10.6c5.2-2.5,11.1-3.6,17.7-3.6
			c6.2,0,11.6,0.9,16,2.6c4.4,1.7,8.1,3.9,10.8,6.6c2.7,2.6,4.8,5.3,6.2,8.1c1.4,2.7,2.1,5.2,2.2,7.2c0.1,0.9-0.2,1.7-1,2.4
			c-0.7,0.7-1.6,1-2.5,1h-17.1c-1,0-1.7-0.2-2.3-0.7c-0.6-0.4-1.1-1.2-1.5-2.1c-1.1-2.8-2.5-4.8-4.1-5.9s-3.8-1.7-6.4-1.7
			c-3.6,0-6.4,1.2-8.3,3.5c-2,2.4-3,5.9-3.2,10.8c-0.1,3.6-0.1,6.8,0,9.6c0.2,4.9,1.3,8.5,3.2,10.8c1.9,2.2,4.6,3.4,8.2,3.4
			c2.8,0,5-0.6,6.7-1.8c1.6-1.2,3-3.2,3.9-5.9c0.4-0.9,1-1.6,1.5-2.1c0.6-0.4,1.3-0.7,2.3-0.7h17.2c0.9,0,1.7,0.3,2.5,1
			c0.7,0.7,1.1,1.5,1,2.5c-0.1,1.5-0.6,3.2-1.3,5.3c-0.8,2.1-2.1,4.3-3.8,6.5c-1.7,2.2-3.9,4.4-6.7,6.2s-6.1,3.5-9.9,4.7
			C832.6,693.8,828.1,694.4,822.9,694.4z"/>
		<path fill="#FFFFFF" d="M873.8,693c-1,0-1.8-0.3-2.5-1c-0.7-0.7-1-1.5-1-2.4v-89.2c0-1,0.3-1.8,1-2.5c0.7-0.7,1.5-1,2.5-1h17.3
			c1,0,1.8,0.3,2.5,1c0.7,0.7,1,1.5,1,2.5v30.2c2.5-2.8,5.4-5,9-6.7c3.5-1.6,7.6-2.5,12.4-2.5c5.3,0,9.9,1.2,14,3.5
			c4.1,2.4,7.3,5.8,9.7,10.3c2.4,4.5,3.5,10.1,3.5,16.8v37.7c0,0.9-0.3,1.7-1,2.4c-0.7,0.7-1.5,1-2.5,1h-17.4c-0.9,0-1.7-0.3-2.4-1
			s-1-1.5-1-2.4v-36.9c0-4.3-1-7.5-3-9.8c-2.1-2.3-5-3.5-8.9-3.5c-3.8,0-6.8,1.2-9,3.5c-2.2,2.3-3.4,5.6-3.4,9.8v36.9
			c0,0.9-0.3,1.7-1,2.4c-0.7,0.7-1.5,1-2.5,1L873.8,693L873.8,693z"/>
		<path fill="#FFFFFF" d="M979.3,694.4c-4.8,0-9.2-0.9-13.1-2.8c-3.9-1.8-6.9-4.4-9.1-7.5c-2.2-3.1-3.4-6.7-3.4-10.7
			c0-6.4,2.6-11.5,7.8-15.2c5.3-3.7,12.2-6.2,20.8-7.6l16.9-2.5v-1.9c0-3.2-0.7-5.8-2.1-7.4c-1.3-1.7-3.9-2.5-7.4-2.5
			c-2.5,0-4.6,0.5-6.2,1.5c-1.6,1-2.8,2.4-3.7,4c-0.8,1.2-2,1.7-3.4,1.7h-15.1c-1,0-1.7-0.3-2.3-0.9c-0.6-0.6-0.7-1.3-0.7-2.1
			c0-1.6,0.6-3.5,1.8-5.6c1.2-2.1,3.1-4.2,5.6-6.2c2.5-2.1,5.8-3.8,9.7-5.2c3.9-1.3,8.8-2.1,14.5-2.1c5.8,0,10.7,0.7,14.9,2.1
			c4.1,1.3,7.6,3.2,10.1,5.7c2.6,2.5,4.5,5.3,5.8,8.5c1.2,3.3,1.8,6.9,1.8,10.8v41.1c0,0.9-0.3,1.7-1,2.4c-0.7,0.7-1.5,1-2.4,1
			h-15.7c-1,0-1.8-0.3-2.5-1c-0.7-0.7-1-1.5-1-2.4v-4.8c-1.2,1.7-2.7,3.3-4.8,4.8c-2,1.5-4.3,2.6-7,3.5
			C985.9,693.9,982.8,694.4,979.3,694.4z M985.7,679c2.6,0,5-0.6,7.1-1.7c2.1-1.2,3.8-2.9,5-5.3c1.2-2.4,1.8-5.4,1.8-9v-1.9
			l-11.5,2.1c-4.3,0.7-7.3,1.8-9.3,3.3c-2,1.5-2.9,3.2-2.9,5.2c0,1.6,0.4,2.9,1.3,3.9c0.9,1.1,2.1,1.9,3.6,2.5
			C982.3,678.7,983.9,679,985.7,679z"/>
		<path fill="#FFFFFF" d="M1048.8,693c-0.9,0-1.7-0.3-2.4-1c-0.7-0.7-1-1.5-1-2.4v-49.2h-10.3c-1,0-1.8-0.3-2.5-1
			c-0.7-0.7-1-1.5-1-2.5v-10.9c0-1,0.3-1.8,1-2.5c0.7-0.7,1.5-1,2.5-1h10.3v-4.4c0-6.2,1.2-11.1,3.6-14.8c2.4-3.7,5.8-6.4,10.2-8.1
			c4.4-1.6,9.7-2.5,15.8-2.5h10.5c1,0,1.8,0.3,2.5,1s1,1.5,1,2.5v10.9c0,1-0.3,1.8-1,2.5c-0.7,0.7-1.5,1-2.5,1h-9.4
			c-3,0-5.2,0.7-6.4,2.1c-1.2,1.5-1.8,3.5-1.8,6.2v3.6h16.3c1,0,1.8,0.3,2.5,1c0.7,0.7,1,1.5,1,2.5v10.9c0,1-0.3,1.8-1,2.5
			c-0.7,0.7-1.5,1-2.5,1h-16.3v49.2c0,0.9-0.3,1.7-1,2.4c-0.7,0.7-1.5,1-2.5,1L1048.8,693L1048.8,693z"/>
		<path fill="#FFFFFF" d="M1133.2,693c-5.8,0-10.8-0.9-15-2.8c-4.2-1.8-7.4-4.8-9.7-8.6c-2.2-3.9-3.4-9-3.4-15.2v-26h-10.5
			c-1,0-1.8-0.3-2.5-1c-0.7-0.7-1-1.5-1-2.5v-10.9c0-1,0.3-1.8,1-2.5c0.7-0.7,1.5-1,2.5-1h10.5v-22.3c0-1,0.3-1.8,1-2.5
			c0.7-0.7,1.5-1,2.4-1h15.7c1,0,1.8,0.3,2.5,1c0.7,0.7,1,1.5,1,2.5v22.4h16.9c1,0,1.8,0.3,2.5,1s1,1.5,1,2.5v10.9
			c0,1-0.3,1.8-1,2.5c-0.7,0.7-1.5,1-2.5,1h-16.9v24.1c0,3,0.6,5.5,1.7,7.3c1.2,1.8,3.1,2.7,5.9,2.7h10.4c1,0,1.8,0.3,2.5,1
			c0.7,0.7,1,1.5,1,2.5v11.7c0,0.9-0.3,1.7-1,2.4c-0.7,0.7-1.5,1-2.5,1h-12.6V693z"/>
	</g>
	<g>
		<path fill="#FFFFFF" d="M718.7,543.6c-1,0-1.8-0.3-2.5-1s-1-1.5-1-2.4v-87.8c0-1,0.3-1.8,1-2.5c0.7-0.7,1.5-1,2.5-1h17.8
			c1,0,1.8,0.3,2.5,1c0.7,0.7,1,1.5,1,2.5v70.8h40.9c1,0,1.8,0.3,2.5,1c0.7,0.7,1,1.5,1,2.5v13.5c0,0.9-0.3,1.7-1,2.4
			c-0.7,0.7-1.5,1-2.5,1L718.7,543.6L718.7,543.6z"/>
		<path fill="#FFFFFF" d="M826.3,545c-10.6,0-19.1-2.9-25.4-8.6c-6.3-5.8-9.6-14.3-9.9-25.7c0-0.7,0-1.5,0-2.5s0-1.7,0-2.3
			c0.2-7.1,1.9-13.2,4.8-18.3c3-5.1,7-9,12.2-11.6c5.2-2.6,11.3-4,18.2-4c7.9,0,14.5,1.6,19.6,4.8c5.2,3.1,9,7.4,11.7,12.8
			s3.9,11.6,3.9,18.5v3.2c0,1-0.3,1.8-1,2.5s-1.5,1-2.5,1h-43.2c0,0.1,0,0.2,0,0.4c0,0.2,0,0.3,0,0.6c0.1,2.6,0.6,5,1.4,7.1
			c0.8,2.1,2.1,3.9,3.8,5.2c1.6,1.2,3.7,1.9,6.2,1.9c1.8,0,3.3-0.3,4.5-0.9c1.2-0.6,2.2-1.2,3-2.1c0.8-0.7,1.5-1.4,1.9-2
			c0.8-1,1.5-1.6,2-1.8c0.5-0.2,1.3-0.3,2.4-0.3h16.8c0.9,0,1.6,0.2,2.2,0.8s0.8,1.2,0.7,2.1c-0.1,1.6-0.8,3.4-2.3,5.5
			c-1.5,2.1-3.5,4.3-6.2,6.4c-2.7,2.1-6.2,3.9-10.4,5.2C836.6,544.3,831.8,545,826.3,545z M814.8,501.3h22.8v-0.2
			c0-3-0.4-5.5-1.3-7.6c-0.8-2.1-2.1-3.8-3.9-4.9c-1.7-1.2-3.9-1.7-6.2-1.7c-2.4,0-4.4,0.6-6.1,1.7c-1.7,1.2-3,2.8-3.9,4.9
			c-0.9,2.1-1.3,4.7-1.3,7.6L814.8,501.3L814.8,501.3z"/>
		<path fill="#FFFFFF" d="M877.5,543.6c-1,0-1.8-0.3-2.5-1s-1-1.5-1-2.4v-63.5c0-1,0.3-1.8,1-2.5c0.7-0.7,1.5-1,2.5-1h15.9
			c1,0,1.8,0.3,2.5,1c0.7,0.7,1,1.5,1,2.5v63.5c0,0.9-0.3,1.7-1,2.4c-0.7,0.7-1.5,1-2.5,1H877.5z"/>
		<path fill="#FFFFFF" d="M939,545c-4.4,0-8.2-0.7-11.7-2.1c-3.5-1.4-6.4-3.5-9-6.2c-2.5-2.7-4.4-6.1-5.8-10
			c-1.3-3.9-2.1-8.4-2.3-13.5c-0.1-1.8-0.2-3.4-0.2-4.8c0-1.4,0.1-3,0.2-4.8c0.2-4.8,1-9.1,2.3-13.1c1.3-3.9,3.2-7.2,5.7-10
			c2.5-2.7,5.4-4.8,9-6.3c3.5-1.5,7.4-2.2,11.7-2.2c4.5,0,8.4,0.7,11.6,2.2c3.2,1.5,6,3.4,8.2,5.8v-28.9c0-1,0.3-1.8,1-2.5
			c0.7-0.7,1.5-1,2.5-1h16.5c0.9,0,1.7,0.3,2.4,1c0.7,0.7,1,1.5,1,2.5v89.2c0,0.9-0.3,1.7-1,2.4c-0.7,0.7-1.5,1-2.4,1h-15.3
			c-1,0-1.8-0.3-2.5-1c-0.7-0.7-1-1.5-1-2.4v-4.4c-2.1,2.6-4.9,4.8-8.4,6.5C948.3,544.1,944,545,939,545z M946.4,526.9
			c3,0,5.3-0.7,7.1-2c1.7-1.3,3-3,3.9-5.1c0.8-2.1,1.3-4.4,1.4-6.7c0.1-1.8,0.2-3.5,0.2-5.2s-0.1-3.3-0.2-5
			c-0.1-2.2-0.6-4.4-1.5-6.2c-0.9-2-2.2-3.5-4-4.8c-1.8-1.2-4.1-1.8-6.9-1.8c-3,0-5.3,0.7-7.1,1.9c-1.7,1.2-3,3-3.8,5.2
			c-0.7,2.1-1.2,4.5-1.4,7.1c-0.2,2.8-0.2,5.6,0,8.4c0.2,2.6,0.7,5,1.4,7.1c0.7,2.1,2.1,3.9,3.8,5.2
			C941.1,526.2,943.4,526.9,946.4,526.9z"/>
		<path fill="#FFFFFF" d="M1030.5,545c-10.6,0-19.1-2.9-25.4-8.6c-6.3-5.8-9.6-14.3-9.9-25.7c0-0.7,0-1.5,0-2.5s0-1.7,0-2.3
			c0.2-7.1,1.9-13.2,4.8-18.3c3-5.1,7-9,12.2-11.6c5.2-2.6,11.3-4,18.2-4c7.9,0,14.5,1.6,19.6,4.8c5.2,3.1,9,7.4,11.7,12.8
			s3.9,11.6,3.9,18.5v3.2c0,1-0.3,1.8-1,2.5c-0.7,0.7-1.5,1-2.5,1h-43.2c0,0.1,0,0.2,0,0.4c0,0.2,0,0.3,0,0.6c0.1,2.6,0.6,5,1.4,7.1
			c0.8,2.1,2.1,3.9,3.8,5.2c1.6,1.2,3.7,1.9,6.2,1.9c1.8,0,3.3-0.3,4.5-0.9c1.2-0.6,2.2-1.2,3-2.1c0.8-0.7,1.5-1.4,1.9-2
			c0.8-1,1.5-1.6,2-1.8c0.5-0.2,1.3-0.3,2.4-0.3h16.8c0.9,0,1.6,0.2,2.2,0.8c0.6,0.6,0.8,1.2,0.7,2.1c-0.1,1.6-0.8,3.4-2.3,5.5
			c-1.5,2.1-3.5,4.3-6.2,6.4s-6.2,3.9-10.4,5.2C1040.8,544.3,1036,545,1030.5,545z M1019,501.3h22.8v-0.2c0-3-0.4-5.5-1.3-7.6
			c-0.8-2.1-2.1-3.8-3.9-4.9c-1.7-1.2-3.9-1.7-6.2-1.7s-4.4,0.6-6.1,1.7c-1.7,1.2-3,2.8-3.9,4.9c-0.9,2.1-1.3,4.7-1.3,7.6V501.3z"/>
		<path fill="#FFFFFF" d="M1081.7,543.6c-1,0-1.8-0.3-2.5-1s-1-1.5-1-2.4v-63.5c0-1,0.3-1.8,1-2.5c0.7-0.7,1.5-1,2.5-1h15.5
			c1,0,1.8,0.3,2.5,1c0.7,0.7,1,1.5,1,2.5v5.2c2.2-2.8,5.3-5.2,9-7.1c3.8-1.9,8.2-2.9,13.4-2.9c5.3,0,9.9,1.2,13.9,3.5
			c4,2.4,7.1,5.8,9.4,10.3c2.3,4.5,3.5,10.1,3.5,16.8v37.7c0,0.9-0.3,1.7-1,2.4c-0.7,0.7-1.5,1-2.5,1h-17c-0.9,0-1.7-0.3-2.4-1
			c-0.7-0.7-1-1.5-1-2.4v-36.9c0-4.3-1-7.5-3-9.8c-2.1-2.3-5-3.5-9-3.5c-3.7,0-6.7,1.2-8.9,3.5s-3.3,5.6-3.3,9.8v36.9
			c0,0.9-0.3,1.7-1,2.4c-0.7,0.7-1.5,1-2.4,1H1081.7L1081.7,543.6z"/>
		<g>
			<path fill="#FFFFFF" d="M1178.7,520.7c-0.8,0-1.5-0.2-2-0.7s-0.7-1.2-0.7-2v-10.4c0-0.8,0.2-1.5,0.7-2c0.5-0.5,1.2-0.7,2-0.7
				h34.7c0.8,0,1.5,0.2,2.1,0.7c0.6,0.5,0.8,1.2,0.8,2v10.4c0,0.8-0.2,1.5-0.8,2c-0.6,0.5-1.2,0.7-2.1,0.7H1178.7z"/>
		</g>
	</g>
	<path fill="#03CCA8" d="M887.7,442.4L887.7,442.4L887.7,442.4c1.2-1,2.6-1.6,4.2-1.6c2.1,0,4,0.8,5.4,2.4s2.2,3.5,2,5.8l0,0l0,0
		c0,2.2-0.8,4.4-2.7,6.7c-1.7,2.1-4,4-6.9,6.5l0,0l0,0c-1,0.9-2.1,1.7-3.2,2.8l0,0l0,0c-0.2,0.2-0.2,0.2-0.3,0.2
		c-0.1,0.1-0.2,0.1-0.4,0.1c-0.2,0-0.6-0.1-0.8-0.3l0,0l0,0c-1.2-1-2.2-1.9-3.2-2.8l0,0l0,0l0,0c-2.8-2.3-5.2-4.5-6.9-6.5
		c-1.9-2.3-2.7-4.4-2.7-6.7c0-2.3,0.7-4.2,2.2-5.8l0,0l0,0c1.4-1.6,3.4-2.4,5.4-2.4c1.6,0,2.9,0.6,4.2,1.6l0,0l0,0
		c0.6,0.4,1.2,1,1.7,1.7l0.2,0.3l0.2-0.3C886.4,443.3,887.1,442.8,887.7,442.4z"/>
</g>
</svg>
