<?xml version="1.0" encoding="utf-8"?>
<!-- Generator: Adobe Illustrator 18.0.0, SVG Export Plug-In . SVG Version: 6.00 Build 0)  -->
<!DOCTYPE svg PUBLIC "-//W3C//DTD SVG 1.1//EN" "http://www.w3.org/Graphics/SVG/1.1/DTD/svg11.dtd">
<svg version="1.1" id="Ebene_1" xmlns="http://www.w3.org/2000/svg" xmlns:xlink="http://www.w3.org/1999/xlink" x="0px" y="0px"
	 viewBox="0 0 683.7 1314.5" enable-background="new 0 0 683.7 1314.5" xml:space="preserve">
<text transform="matrix(1 0 0 1 49.6931 750.4147)" opacity="0.5" fill="#03CCA8" font-family="'Rubik-Bold'" font-size="61.0967">00110011 </text>
<text transform="matrix(1 0 0 1 121.6892 981.2704)" opacity="0.5" fill="#03CCA8" font-family="'Rubik-Bold'" font-size="61.0967">01000110</text>
<text transform="matrix(1 0 0 1 121.6892 1062.1321)" opacity="0.5" fill="#03CCA8" font-family="'Rubik-Bold'" font-size="61.0967">01010101</text>
<text transform="matrix(1 0 0 1 49.693 1178.9919)" opacity="0.5" fill="#03CCA8" font-family="'Rubik-Bold'" font-size="61.0967">01010011</text>
<g opacity="0.3">
	<circle fill="#03CCA8" cx="345.3" cy="55.1" r="16.9"/>
	<circle fill="#03CCA8" cx="421.6" cy="55.1" r="16.9"/>
	<circle fill="#03CCA8" cx="498" cy="55.1" r="16.9"/>
	<circle fill="#03CCA8" cx="574.3" cy="55.1" r="16.9"/>
	<circle fill="#03CCA8" cx="345.3" cy="131.5" r="16.9"/>
	<circle fill="#03CCA8" cx="574.3" cy="131.5" r="16.9"/>
	<circle fill="#03CCA8" cx="650.6" cy="131.5" r="16.9"/>
	<circle fill="#03CCA8" cx="498" cy="208" r="16.9"/>
	<circle fill="#03CCA8" cx="574.3" cy="208" r="16.9"/>
	<circle fill="#03CCA8" cx="650.6" cy="208" r="16.9"/>
	<circle fill="#03CCA8" cx="421.6" cy="360.4" r="16.9"/>
	<circle fill="#03CCA8" cx="498" cy="360.4" r="16.9"/>
	<circle fill="#03CCA8" cx="574.3" cy="360.4" r="16.9"/>
	<circle fill="#03CCA8" cx="650.6" cy="360.4" r="16.9"/>
	<circle fill="#03CCA8" cx="345.3" cy="436.9" r="16.9"/>
	<circle fill="#03CCA8" cx="345.3" cy="513.4" r="16.9"/>
	<circle fill="#03CCA8" cx="421.6" cy="513.4" r="16.9"/>
	<circle fill="#03CCA8" cx="498" cy="513.4" r="16.9"/>
	<circle fill="#03CCA8" cx="574.3" cy="513.4" r="16.9"/>
	<circle fill="#03CCA8" cx="650.6" cy="513.4" r="16.9"/>
	<circle fill="#03CCA8" cx="345.3" cy="283.4" r="8.1"/>
	<circle fill="#03CCA8" cx="421.6" cy="283.4" r="8.1"/>
	<circle fill="#03CCA8" cx="498" cy="283.4" r="8.1"/>
	<circle fill="#03CCA8" cx="574.3" cy="283.4" r="8.1"/>
	<circle fill="#03CCA8" cx="650.6" cy="283.4" r="8.1"/>
	<circle fill="#03CCA8" cx="345.3" cy="590" r="16.9"/>
	<circle fill="#03CCA8" cx="421.6" cy="590" r="16.9"/>
	<circle fill="#03CCA8" cx="498" cy="590" r="16.9"/>
	<circle fill="#03CCA8" cx="574.3" cy="590" r="16.9"/>
	<circle fill="#03CCA8" cx="650.6" cy="590" r="16.9"/>
</g>
<g>
	<g>
		<path fill="#FFFFFF" d="M48.2,457.2c-1.2,0-2.2-0.4-3-1.2c-0.8-0.8-1.2-1.8-1.2-2.9V346.1c0-1.2,0.4-2.2,1.2-3
			c0.8-0.8,1.8-1.2,3-1.2h42.8c10.7,0,19.9,1.7,27.5,5.2c7.6,3.5,13.4,8.5,17.4,15.1c4.1,6.6,6.3,14.8,6.6,24.6
			c0.1,4.8,0.2,9,0.2,12.7c0,3.6-0.1,7.8-0.2,12.5c-0.4,10.2-2.6,18.6-6.5,25.3c-3.9,6.7-9.5,11.7-16.9,14.9
			c-7.4,3.2-16.5,4.9-27.2,4.9H48.2z M73.7,433.5h17.3c4.7,0,8.6-0.7,11.8-2.2c3.1-1.5,5.5-3.8,7.1-7c1.6-3.2,2.4-7.3,2.5-12.5
			c0.2-3.2,0.4-6,0.4-8.6c0.1-2.5,0.1-5,0-7.6c-0.1-2.5-0.2-5.3-0.4-8.4c-0.2-7.5-2.2-12.9-5.8-16.4c-3.7-3.5-9.1-5.2-16.4-5.2H73.7
			V433.5z"/>
		<path fill="#FFFFFF" d="M164,359.3c-1.2,0-2.2-0.4-3-1.2c-0.8-0.8-1.2-1.8-1.2-3v-14.8c0-1.1,0.4-2.1,1.2-2.9
			c0.8-0.8,1.8-1.2,3-1.2h19.7c1.1,0,2.1,0.4,2.9,1.2c0.8,0.8,1.2,1.8,1.2,2.9v14.8c0,1.2-0.4,2.2-1.2,3c-0.8,0.8-1.8,1.2-2.9,1.2
			H164z M164.1,457.2c-1.2,0-2.2-0.4-3-1.2c-0.8-0.8-1.2-1.8-1.2-2.9v-77.3c0-1.2,0.4-2.2,1.2-3c0.8-0.8,1.8-1.2,3-1.2h19.4
			c1.2,0,2.2,0.4,3,1.2c0.8,0.8,1.2,1.8,1.2,3V453c0,1.1-0.4,2.1-1.2,2.9c-0.8,0.8-1.8,1.2-3,1.2H164.1z"/>
		<path fill="#FFFFFF" d="M249,493.3c-8.4,0-15.4-1.1-21-3.3c-5.5-2.2-9.9-4.8-13.2-7.9c-3.2-3.1-5.6-6.1-7-9.1
			c-1.4-3-2.2-5.4-2.3-7.2c-0.1-1.2,0.3-2.2,1.2-3c0.9-0.8,1.9-1.2,3.1-1.2h20.9c1.1,0,2,0.3,2.6,0.8c0.7,0.5,1.2,1.4,1.6,2.6
			c0.7,1.2,1.4,2.4,2.3,3.7c0.9,1.3,2.2,2.3,3.9,3.2c1.7,0.9,4,1.3,7,1.3c3.3,0,6-0.5,8.2-1.6c2.2-1,3.8-2.7,4.9-5.1
			c1.1-2.4,1.6-5.5,1.6-9.5v-11c-2.5,2.7-5.8,5-9.7,6.7c-3.9,1.7-8.7,2.5-14.3,2.5s-10.5-0.8-14.8-2.5c-4.3-1.6-7.8-4.1-10.7-7.4
			c-2.9-3.3-5.1-7.3-6.7-12c-1.6-4.7-2.5-10.1-2.9-16.3c-0.1-2.9-0.1-5.8,0-8.7c0.3-5.8,1.3-11.1,2.8-15.9c1.5-4.8,3.8-8.8,6.7-12.2
			c2.9-3.3,6.5-5.9,10.8-7.7c4.3-1.8,9.2-2.7,14.8-2.7c5.9,0,11,1.1,15.2,3.4c4.2,2.2,7.7,5.1,10.4,8.5v-6.1c0-1.1,0.4-2.1,1.2-2.9
			c0.8-0.8,1.8-1.2,3-1.2h18.9c1.2,0,2.2,0.4,3,1.2c0.8,0.8,1.2,1.8,1.2,2.9v79.1c0,8.3-1.7,15.4-5,21.1c-3.3,5.7-8.2,10-14.6,13
			S258.1,493.3,249,493.3z M247.9,434c3.5,0,6.4-0.8,8.6-2.3c2.2-1.5,3.8-3.5,4.9-5.9c1-2.4,1.6-5,1.7-7.7c0.1-1.2,0.2-2.9,0.2-5.1
			c0-2.2-0.1-3.8-0.2-4.9c-0.1-2.9-0.7-5.5-1.7-7.9c-1-2.4-2.7-4.4-4.9-5.8c-2.2-1.5-5-2.2-8.6-2.2c-3.6,0-6.5,0.8-8.6,2.3
			c-2.1,1.5-3.7,3.6-4.6,6.3c-0.9,2.6-1.5,5.5-1.7,8.7c-0.1,2.4-0.1,4.9,0,7.4c0.2,3.2,0.8,6.1,1.7,8.7c0.9,2.6,2.5,4.7,4.6,6.3
			C241.4,433.2,244.2,434,247.9,434z"/>
		<path fill="#FFFFFF" d="M315.3,359.3c-1.2,0-2.2-0.4-3-1.2c-0.8-0.8-1.2-1.8-1.2-3v-14.8c0-1.1,0.4-2.1,1.2-2.9
			c0.8-0.8,1.8-1.2,3-1.2H335c1.1,0,2.1,0.4,2.9,1.2c0.8,0.8,1.2,1.8,1.2,2.9v14.8c0,1.2-0.4,2.2-1.2,3c-0.8,0.8-1.8,1.2-2.9,1.2
			H315.3z M315.5,457.2c-1.2,0-2.2-0.4-3-1.2c-0.8-0.8-1.2-1.8-1.2-2.9v-77.3c0-1.2,0.4-2.2,1.2-3c0.8-0.8,1.8-1.2,3-1.2h19.4
			c1.2,0,2.2,0.4,3,1.2c0.8,0.8,1.2,1.8,1.2,3V453c0,1.1-0.4,2.1-1.2,2.9c-0.8,0.8-1.8,1.2-3,1.2H315.5z"/>
		<path fill="#FFFFFF" d="M402.2,457.2c-7,0-13.1-1.1-18.2-3.4c-5.1-2.2-9-5.8-11.8-10.5c-2.7-4.8-4.1-10.9-4.1-18.5v-31.6h-12.8
			c-1.2,0-2.2-0.4-3-1.2c-0.8-0.8-1.2-1.8-1.2-3v-13.3c0-1.2,0.4-2.2,1.2-3c0.8-0.8,1.8-1.2,3-1.2h12.8v-27.1c0-1.2,0.4-2.2,1.2-3
			c0.8-0.8,1.8-1.2,2.9-1.2h19.1c1.2,0,2.2,0.4,3,1.2c0.8,0.8,1.2,1.8,1.2,3v27.1H416c1.2,0,2.2,0.4,3,1.2c0.8,0.8,1.2,1.8,1.2,3
			v13.3c0,1.2-0.4,2.2-1.2,3c-0.8,0.8-1.8,1.2-3,1.2h-20.6v29.3c0,3.7,0.7,6.7,2.1,8.9c1.4,2.2,3.8,3.3,7.2,3.3h12.7
			c1.2,0,2.2,0.4,3,1.2c0.8,0.8,1.2,1.8,1.2,3V453c0,1.1-0.4,2.1-1.2,2.9c-0.8,0.8-1.8,1.2-3,1.2H402.2z"/>
		<path fill="#FFFFFF" d="M460.9,458.8c-5.9,0-11.2-1.1-15.9-3.4c-4.7-2.2-8.4-5.3-11.1-9.1c-2.7-3.8-4.1-8.2-4.1-13
			c0-7.8,3.2-14,9.5-18.5c6.4-4.5,14.8-7.6,25.3-9.3l20.6-3.1v-2.3c0-3.9-0.8-7-2.5-9c-1.6-2.1-4.7-3.1-9-3.1
			c-3.1,0-5.6,0.6-7.5,1.8c-1.9,1.2-3.4,2.9-4.5,4.9c-1,1.4-2.4,2.1-4.1,2.1h-18.4c-1.2,0-2.1-0.4-2.8-1.1c-0.7-0.7-0.9-1.6-0.8-2.5
			c0-2,0.7-4.2,2.2-6.8c1.5-2.6,3.8-5.1,6.8-7.6c3.1-2.5,7-4.6,11.8-6.3c4.8-1.6,10.7-2.5,17.6-2.5c7,0,13,0.8,18.1,2.5
			c5,1.6,9.2,3.9,12.3,6.9c3.2,3,5.5,6.4,7,10.4c1.5,4,2.2,8.4,2.2,13.2v50c0,1.1-0.4,2.1-1.2,2.9c-0.8,0.8-1.8,1.2-2.9,1.2h-19.1
			c-1.2,0-2.2-0.4-3-1.2c-0.8-0.8-1.2-1.8-1.2-2.9v-5.8c-1.4,2.1-3.3,4-5.8,5.8c-2.4,1.8-5.2,3.2-8.5,4.2
			C468.9,458.3,465.2,458.8,460.9,458.8z M468.6,440.1c3.2,0,6.1-0.7,8.6-2.1c2.6-1.4,4.6-3.5,6.1-6.4c1.5-2.9,2.2-6.6,2.2-10.9
			v-2.3l-14,2.5c-5.2,0.9-8.9,2.2-11.3,4c-2.4,1.8-3.5,3.9-3.5,6.3c0,1.9,0.5,3.5,1.6,4.8c1.1,1.3,2.5,2.3,4.4,3
			C464.6,439.7,466.5,440.1,468.6,440.1z"/>
		<path fill="#FFFFFF" d="M536.4,457.2c-1.2,0-2.2-0.4-3-1.2c-0.8-0.8-1.2-1.8-1.2-2.9V344.5c0-1.2,0.4-2.2,1.2-3
			c0.8-0.8,1.8-1.2,3-1.2h19.4c1.2,0,2.2,0.4,3,1.2c0.8,0.8,1.2,1.8,1.2,3V453c0,1.1-0.4,2.1-1.2,2.9c-0.8,0.8-1.8,1.2-3,1.2H536.4z
			"/>
	</g>
	<g>
		<path fill="#FFFFFF" d="M416.3,541.5c-3.3,0-6.3-0.6-8.9-1.9c-2.6-1.3-4.7-3-6.2-5.1c-1.5-2.1-2.3-4.6-2.3-7.2
			c0-4.3,1.8-7.8,5.3-10.3c3.5-2.5,8.3-4.3,14.1-5.2l11.5-1.7v-1.3c0-2.2-0.5-3.9-1.4-5c-0.9-1.2-2.6-1.7-5-1.7
			c-1.7,0-3.1,0.3-4.2,1c-1.1,0.7-1.9,1.6-2.5,2.8c-0.6,0.8-1.3,1.2-2.3,1.2h-10.3c-0.7,0-1.2-0.2-1.6-0.6c-0.4-0.4-0.5-0.9-0.5-1.4
			c0-1.1,0.4-2.4,1.2-3.8c0.8-1.4,2.1-2.9,3.8-4.3c1.7-1.4,3.9-2.6,6.6-3.5c2.7-0.9,6-1.4,9.8-1.4c3.9,0,7.3,0.5,10.1,1.4
			c2.8,0.9,5.1,2.2,6.9,3.9c1.8,1.7,3.1,3.6,3.9,5.8c0.8,2.2,1.2,4.7,1.2,7.4v27.9c0,0.6-0.2,1.1-0.7,1.6c-0.5,0.5-1,0.7-1.6,0.7
			h-10.6c-0.7,0-1.2-0.2-1.7-0.7c-0.4-0.5-0.6-1-0.6-1.6V535c-0.8,1.2-1.9,2.2-3.2,3.2c-1.3,1-2.9,1.8-4.7,2.3
			C420.8,541.2,418.7,541.5,416.3,541.5z M420.6,531c1.8,0,3.4-0.4,4.8-1.1c1.4-0.8,2.6-2,3.4-3.6c0.8-1.6,1.2-3.7,1.2-6.1v-1.3
			l-7.8,1.4c-2.9,0.5-5,1.2-6.3,2.2c-1.3,1-2,2.2-2,3.5c0,1,0.3,1.9,0.9,2.7c0.6,0.7,1.4,1.3,2.4,1.7
			C418.4,530.8,419.5,531,420.6,531z"/>
		<path fill="#FFFFFF" d="M473.7,541.5c-3.5,0-6.6-0.8-9.3-2.4c-2.7-1.6-4.8-3.9-6.4-7c-1.5-3.1-2.3-6.9-2.3-11.3v-25.6
			c0-0.7,0.2-1.2,0.6-1.7c0.4-0.4,1-0.6,1.7-0.6h11.5c0.7,0,1.2,0.2,1.7,0.6c0.5,0.4,0.7,1,0.7,1.7v25c0,6,2.7,9,8,9
			c2.5,0,4.5-0.8,6-2.3c1.5-1.6,2.2-3.8,2.2-6.7v-25c0-0.7,0.2-1.2,0.6-1.7c0.4-0.4,1-0.6,1.7-0.6h11.5c0.7,0,1.2,0.2,1.7,0.6
			c0.4,0.4,0.6,1,0.6,1.7v43.1c0,0.6-0.2,1.1-0.6,1.6c-0.4,0.5-1,0.7-1.7,0.7h-10.6c-0.6,0-1.1-0.2-1.6-0.7c-0.5-0.5-0.7-1-0.7-1.6
			v-3.5c-1.6,2.2-3.7,3.9-6.2,5C480.2,540.9,477.2,541.5,473.7,541.5z"/>
		<path fill="#FFFFFF" d="M534.6,541.5c-4,0-7.4-0.4-10.1-1.3c-2.8-0.9-5-2-6.8-3.3c-1.7-1.3-3-2.6-3.9-4c-0.9-1.4-1.3-2.6-1.4-3.6
			c-0.1-0.7,0.2-1.2,0.6-1.7c0.5-0.4,1-0.6,1.6-0.6H525c0.2,0,0.4,0,0.5,0.1c0.2,0.1,0.3,0.2,0.5,0.4c0.8,0.4,1.6,1,2.4,1.6
			c0.8,0.6,1.7,1.2,2.8,1.7c1,0.5,2.3,0.7,3.8,0.7c1.7,0,3.1-0.4,4.3-1.1c1.2-0.7,1.7-1.7,1.7-3c0-1-0.3-1.8-0.8-2.4
			c-0.6-0.6-1.7-1.3-3.3-1.9c-1.7-0.6-4.2-1.2-7.6-1.8c-3.2-0.7-6-1.7-8.3-2.9c-2.4-1.2-4.2-2.8-5.5-4.7s-1.9-4.3-1.9-7
			c0-2.4,0.8-4.8,2.4-7.1c1.6-2.3,3.9-4.1,7-5.6c3.1-1.4,6.8-2.2,11.4-2.2c3.5,0,6.5,0.4,9.2,1.2c2.6,0.8,4.8,1.9,6.6,3.2
			c1.8,1.3,3.1,2.6,4,3.9c0.9,1.3,1.4,2.6,1.5,3.7c0.1,0.6-0.1,1.1-0.6,1.6c-0.4,0.5-0.9,0.7-1.5,0.7h-9.5c-0.2,0-0.5,0-0.7-0.1
			c-0.2-0.1-0.5-0.2-0.6-0.3c-0.7-0.4-1.5-0.9-2.2-1.5c-0.7-0.6-1.6-1.2-2.6-1.7c-1-0.5-2.2-0.7-3.7-0.7c-1.7,0-2.9,0.4-3.9,1.1
			c-0.9,0.7-1.4,1.7-1.4,2.8c0,0.8,0.3,1.5,0.8,2.2c0.5,0.7,1.6,1.3,3.2,1.8c1.6,0.6,4.1,1.2,7.6,1.8c4.2,0.7,7.6,1.8,10.1,3.3
			c2.5,1.5,4.3,3.2,5.4,5.2c1.1,2,1.6,4.1,1.6,6.3c0,2.9-0.9,5.5-2.7,7.8c-1.8,2.3-4.4,4-7.8,5.3
			C543.7,540.8,539.5,541.5,534.6,541.5z"/>
	</g>
	<g>
		<path fill="#FFFFFF" d="M79.9,845.2c-7.1,0-13.2-0.8-18.2-2.4c-5-1.6-9-3.5-12.2-5.8c-3.1-2.3-5.5-4.7-7-7.2
			c-1.5-2.5-2.4-4.6-2.5-6.5c-0.1-1.2,0.3-2.2,1.2-3c0.9-0.8,1.8-1.2,2.8-1.2h18.8c0.3,0,0.6,0.1,0.9,0.2c0.3,0.1,0.6,0.3,0.9,0.7
			c1.4,0.8,2.9,1.7,4.3,2.9c1.4,1.2,3.1,2.2,4.9,3c1.9,0.9,4.1,1.3,6.7,1.3c3.1,0,5.6-0.6,7.7-1.9c2.1-1.3,3.1-3,3.1-5.3
			c0-1.8-0.5-3.2-1.5-4.4c-1-1.2-3-2.3-6-3.4c-3-1.1-7.5-2.2-13.6-3.3c-5.7-1.3-10.7-3-15-5.2c-4.3-2.1-7.6-4.9-9.9-8.4
			c-2.3-3.5-3.5-7.6-3.5-12.6c0-4.4,1.4-8.6,4.3-12.7c2.9-4.1,7-7.4,12.5-10c5.5-2.6,12.3-3.9,20.4-3.9c6.3,0,11.7,0.7,16.4,2.2
			c4.7,1.5,8.7,3.4,11.8,5.7c3.2,2.3,5.6,4.7,7.2,7.1c1.6,2.4,2.5,4.6,2.6,6.6c0.1,1.1-0.2,2.1-1,2.9c-0.8,0.8-1.6,1.2-2.6,1.2H96.7
			c-0.4,0-0.9-0.1-1.3-0.2c-0.4-0.2-0.8-0.4-1.2-0.6c-1.3-0.7-2.6-1.5-3.9-2.6c-1.3-1.1-2.9-2.1-4.6-3c-1.8-0.9-3.9-1.3-6.6-1.3
			c-3,0-5.3,0.7-6.9,2c-1.6,1.3-2.5,3-2.5,5.1c0,1.4,0.5,2.7,1.4,3.9c0.9,1.2,2.9,2.3,5.8,3.3c2.9,1,7.4,2.1,13.6,3.3
			c7.6,1.2,13.6,3.2,18.1,5.8c4.5,2.7,7.7,5.8,9.6,9.4c1.9,3.6,2.9,7.3,2.9,11.3c0,5.3-1.6,9.9-4.8,14c-3.2,4.1-7.8,7.2-13.9,9.5
			C96.3,844,88.8,845.2,79.9,845.2z"/>
		<path fill="#FFFFFF" d="M175,845.2c-8.1,0-15.3-1.5-21.5-4.4c-6.3-3-11.2-7.3-14.9-12.9c-3.7-5.6-5.7-12.4-6-20.3
			c-0.1-1.8-0.2-4-0.2-6.7c0-2.7,0.1-4.9,0.2-6.7c0.3-8,2.3-14.8,5.9-20.5c3.6-5.6,8.6-10,14.9-12.9c6.3-3,13.5-4.4,21.6-4.4
			c7.6,0,14.1,1.1,19.5,3.2c5.4,2.1,9.8,4.8,13.2,8c3.3,3.2,5.9,6.4,7.6,9.8c1.7,3.3,2.6,6.3,2.7,8.8c0.1,1.1-0.3,2.1-1.2,2.9
			c-0.9,0.8-1.9,1.2-3,1.2H193c-1.2,0-2.1-0.3-2.8-0.8c-0.7-0.5-1.3-1.4-1.8-2.5c-1.3-3.4-3-5.8-5-7.2c-2-1.4-4.6-2.1-7.8-2.1
			c-4.4,0-7.8,1.4-10.1,4.3c-2.4,2.9-3.6,7.2-3.9,13.2c-0.1,4.4-0.1,8.3,0,11.7c0.3,6,1.6,10.4,3.9,13.2c2.3,2.7,5.6,4.1,10,4.1
			c3.4,0,6.1-0.7,8.1-2.2c2-1.5,3.6-3.9,4.8-7.2c0.5-1.1,1.2-1.9,1.8-2.5c0.7-0.5,1.6-0.8,2.8-0.8h20.9c1.1,0,2.1,0.4,3,1.2
			c0.9,0.8,1.3,1.8,1.2,3c-0.1,1.8-0.7,3.9-1.6,6.4c-1,2.5-2.5,5.2-4.6,7.9c-2.1,2.7-4.8,5.3-8.1,7.6c-3.3,2.3-7.4,4.2-12.1,5.7
			C186.8,844.4,181.3,845.2,175,845.2z"/>
		<path fill="#FFFFFF" d="M236.9,843.5c-1.2,0-2.2-0.4-3-1.2c-0.8-0.8-1.2-1.8-1.2-2.9V730.8c0-1.2,0.4-2.2,1.2-3
			c0.8-0.8,1.8-1.2,3-1.2h21.1c1.2,0,2.2,0.4,3,1.2c0.8,0.8,1.2,1.8,1.2,3v36.7c3-3.4,6.6-6.1,10.9-8.1c4.3-2,9.3-3,15.1-3
			c6.4,0,12,1.4,17,4.3c5,2.9,8.9,7,11.8,12.5c2.9,5.5,4.3,12.3,4.3,20.4v45.9c0,1.1-0.4,2.1-1.2,2.9c-0.8,0.8-1.8,1.2-3,1.2h-21.2
			c-1.1,0-2.1-0.4-2.9-1.2c-0.8-0.8-1.2-1.8-1.2-2.9v-44.9c0-5.2-1.2-9.1-3.7-11.9c-2.5-2.8-6.1-4.2-10.8-4.2c-4.6,0-8.3,1.4-11,4.2
			c-2.7,2.8-4.1,6.8-4.1,11.9v44.9c0,1.1-0.4,2.1-1.2,2.9c-0.8,0.8-1.8,1.2-3,1.2H236.9z"/>
		<path fill="#FFFFFF" d="M365.3,845.2c-5.9,0-11.2-1.1-15.9-3.4c-4.7-2.2-8.4-5.3-11.1-9.1c-2.7-3.8-4.1-8.2-4.1-13
			c0-7.8,3.2-14,9.5-18.5c6.4-4.5,14.8-7.6,25.3-9.3l20.6-3.1v-2.3c0-3.9-0.8-7-2.5-9c-1.6-2.1-4.7-3.1-9-3.1
			c-3.1,0-5.6,0.6-7.5,1.8c-1.9,1.2-3.4,2.9-4.5,4.9c-1,1.4-2.4,2.1-4.1,2.1h-18.4c-1.2,0-2.1-0.4-2.8-1.1c-0.7-0.7-0.9-1.6-0.8-2.5
			c0-2,0.7-4.2,2.2-6.8c1.5-2.6,3.8-5.1,6.8-7.6c3.1-2.5,7-4.6,11.8-6.3c4.8-1.6,10.7-2.5,17.6-2.5c7,0,13,0.8,18.1,2.5
			c5,1.6,9.2,3.9,12.3,6.9c3.2,3,5.5,6.4,7,10.4c1.5,4,2.2,8.4,2.2,13.2v50c0,1.1-0.4,2.1-1.2,2.9c-0.8,0.8-1.8,1.2-2.9,1.2h-19.1
			c-1.2,0-2.2-0.4-3-1.2c-0.8-0.8-1.2-1.8-1.2-2.9v-5.8c-1.4,2.1-3.3,4-5.8,5.8c-2.4,1.8-5.2,3.2-8.5,4.2
			C373.4,844.6,369.6,845.2,365.3,845.2z M373.1,826.4c3.2,0,6.1-0.7,8.6-2.1c2.6-1.4,4.6-3.5,6.1-6.4c1.5-2.9,2.2-6.6,2.2-10.9
			v-2.3l-14,2.5c-5.2,0.9-8.9,2.2-11.3,4c-2.4,1.8-3.5,3.9-3.5,6.3c0,1.9,0.5,3.5,1.6,4.8c1.1,1.3,2.5,2.3,4.4,3
			C369,826.1,371,826.4,373.1,826.4z"/>
		<path fill="#FFFFFF" d="M449.9,843.5c-1.1,0-2.1-0.4-2.9-1.2c-0.8-0.8-1.2-1.8-1.2-2.9v-59.9h-12.5c-1.2,0-2.2-0.4-3-1.2
			c-0.8-0.8-1.2-1.8-1.2-3v-13.3c0-1.2,0.4-2.2,1.2-3c0.8-0.8,1.8-1.2,3-1.2h12.5v-5.3c0-7.5,1.5-13.5,4.4-18
			c2.9-4.5,7-7.8,12.4-9.9c5.4-2,11.8-3,19.2-3h12.8c1.2,0,2.2,0.4,3,1.2c0.8,0.8,1.2,1.8,1.2,3v13.3c0,1.2-0.4,2.2-1.2,3
			c-0.8,0.8-1.8,1.2-3,1.2h-11.5c-3.7,0-6.3,0.9-7.8,2.6c-1.5,1.8-2.2,4.3-2.2,7.6v4.4H493c1.2,0,2.2,0.4,3,1.2
			c0.8,0.8,1.2,1.8,1.2,3v13.3c0,1.2-0.4,2.2-1.2,3c-0.8,0.8-1.8,1.2-3,1.2h-19.9v59.9c0,1.1-0.4,2.1-1.2,2.9
			c-0.8,0.8-1.8,1.2-3,1.2H449.9z"/>
		<path fill="#FFFFFF" d="M552.7,843.5c-7,0-13.1-1.1-18.2-3.4c-5.1-2.2-9-5.8-11.8-10.5c-2.7-4.8-4.1-10.9-4.1-18.5v-31.6h-12.8
			c-1.2,0-2.2-0.4-3-1.2c-0.8-0.8-1.2-1.8-1.2-3v-13.3c0-1.2,0.4-2.2,1.2-3c0.8-0.8,1.8-1.2,3-1.2h12.8v-27.1c0-1.2,0.4-2.2,1.2-3
			c0.8-0.8,1.8-1.2,2.9-1.2h19.1c1.2,0,2.2,0.4,3,1.2c0.8,0.8,1.2,1.8,1.2,3V758h20.6c1.2,0,2.2,0.4,3,1.2c0.8,0.8,1.2,1.8,1.2,3
			v13.3c0,1.2-0.4,2.2-1.2,3c-0.8,0.8-1.8,1.2-3,1.2h-20.6v29.3c0,3.7,0.7,6.7,2.1,8.9c1.4,2.2,3.8,3.3,7.2,3.3H568
			c1.2,0,2.2,0.4,3,1.2c0.8,0.8,1.2,1.8,1.2,3v14.3c0,1.1-0.4,2.1-1.2,2.9c-0.8,0.8-1.8,1.2-3,1.2H552.7z"/>
	</g>
	<g>
		<path fill="#FFFFFF" d="M48.2,661.6c-1.2,0-2.2-0.4-3-1.2c-0.8-0.8-1.2-1.8-1.2-2.9V550.6c0-1.2,0.4-2.2,1.2-3
			c0.8-0.8,1.8-1.2,3-1.2h21.7c1.2,0,2.2,0.4,3,1.2c0.8,0.8,1.2,1.8,1.2,3v86.2h49.8c1.2,0,2.2,0.4,3,1.2c0.8,0.8,1.2,1.8,1.2,3
			v16.4c0,1.1-0.4,2.1-1.2,2.9c-0.8,0.8-1.8,1.2-3,1.2H48.2z"/>
		<path fill="#FFFFFF" d="M179.1,663.3c-12.9,0-23.2-3.5-30.9-10.5c-7.7-7-11.7-17.4-12-31.3c0-0.8,0-1.8,0-3c0-1.2,0-2.1,0-2.8
			c0.3-8.7,2.3-16.1,5.8-22.3c3.6-6.2,8.5-10.9,14.8-14.1c6.3-3.2,13.7-4.9,22.1-4.9c9.6,0,17.6,1.9,23.9,5.8
			c6.3,3.8,11,9,14.2,15.6c3.2,6.6,4.8,14.1,4.8,22.5v3.9c0,1.2-0.4,2.2-1.2,3c-0.8,0.8-1.8,1.2-3,1.2h-52.6c0,0.1,0,0.3,0,0.5
			c0,0.2,0,0.4,0,0.7c0.1,3.2,0.7,6.1,1.7,8.7c1,2.6,2.6,4.7,4.6,6.3c2,1.5,4.5,2.3,7.5,2.3c2.2,0,4-0.4,5.5-1.1
			c1.5-0.7,2.7-1.5,3.7-2.5c1-0.9,1.8-1.7,2.3-2.4c1-1.2,1.8-1.9,2.4-2.2c0.6-0.3,1.6-0.4,2.9-0.4h20.4c1.1,0,2,0.3,2.7,1
			c0.7,0.7,1,1.5,0.9,2.6c-0.1,1.9-1,4.1-2.8,6.7c-1.8,2.6-4.3,5.2-7.6,7.8c-3.3,2.6-7.5,4.7-12.6,6.3
			C191.7,662.5,185.8,663.3,179.1,663.3z M165.1,610.2h27.8v-0.3c0-3.6-0.5-6.7-1.6-9.3c-1-2.6-2.6-4.6-4.8-6
			c-2.1-1.4-4.7-2.1-7.6-2.1c-2.9,0-5.3,0.7-7.4,2.1c-2.1,1.4-3.7,3.4-4.8,6c-1.1,2.6-1.6,5.7-1.6,9.3V610.2z"/>
		<path fill="#FFFFFF" d="M241.4,661.6c-1.2,0-2.2-0.4-3-1.2c-0.8-0.8-1.2-1.8-1.2-2.9v-77.3c0-1.2,0.4-2.2,1.2-3
			c0.8-0.8,1.8-1.2,3-1.2h19.4c1.2,0,2.2,0.4,3,1.2c0.8,0.8,1.2,1.8,1.2,3v77.3c0,1.1-0.4,2.1-1.2,2.9c-0.8,0.8-1.8,1.2-3,1.2H241.4
			z"/>
		<path fill="#FFFFFF" d="M316.3,663.3c-5.3,0-10-0.9-14.2-2.5c-4.2-1.7-7.8-4.2-10.9-7.6c-3-3.3-5.3-7.4-7-12.2
			c-1.6-4.8-2.6-10.2-2.8-16.4c-0.1-2.2-0.2-4.1-0.2-5.8c0-1.7,0.1-3.6,0.2-5.8c0.2-5.8,1.2-11.1,2.8-15.9c1.6-4.8,3.9-8.8,6.9-12.2
			c3-3.3,6.6-5.9,10.9-7.7c4.3-1.8,9-2.7,14.3-2.7c5.5,0,10.2,0.9,14.1,2.7c3.9,1.8,7.3,4.1,10,7V549c0-1.2,0.4-2.2,1.2-3
			c0.8-0.8,1.8-1.2,3-1.2h20.1c1.1,0,2.1,0.4,2.9,1.2c0.8,0.8,1.2,1.8,1.2,3v108.6c0,1.1-0.4,2.1-1.2,2.9c-0.8,0.8-1.8,1.2-2.9,1.2
			h-18.6c-1.2,0-2.2-0.4-3-1.2c-0.8-0.8-1.2-1.8-1.2-2.9v-5.3c-2.6,3.2-6,5.8-10.2,7.9C327.6,662.3,322.4,663.3,316.3,663.3z
			 M325.3,641.3c3.6,0,6.5-0.8,8.6-2.4c2.1-1.6,3.7-3.6,4.8-6.2c1-2.5,1.6-5.3,1.7-8.2c0.1-2.2,0.2-4.3,0.2-6.3c0-2-0.1-4-0.2-6.1
			c-0.1-2.7-0.7-5.3-1.8-7.6c-1.1-2.4-2.7-4.3-4.9-5.8c-2.2-1.5-5-2.2-8.4-2.2c-3.6,0-6.5,0.8-8.6,2.3c-2.1,1.5-3.7,3.6-4.6,6.3
			c-0.9,2.6-1.5,5.5-1.7,8.7c-0.3,3.4-0.3,6.8,0,10.2c0.2,3.2,0.8,6.1,1.7,8.7c0.9,2.6,2.5,4.7,4.6,6.3
			C318.8,640.5,321.7,641.3,325.3,641.3z"/>
		<path fill="#FFFFFF" d="M427.6,663.3c-12.9,0-23.2-3.5-30.9-10.5c-7.7-7-11.7-17.4-12-31.3c0-0.8,0-1.8,0-3c0-1.2,0-2.1,0-2.8
			c0.3-8.7,2.3-16.1,5.8-22.3c3.6-6.2,8.5-10.9,14.8-14.1c6.3-3.2,13.7-4.9,22.1-4.9c9.6,0,17.6,1.9,23.9,5.8
			c6.3,3.8,11,9,14.2,15.6c3.2,6.6,4.8,14.1,4.8,22.5v3.9c0,1.2-0.4,2.2-1.2,3c-0.8,0.8-1.8,1.2-3,1.2h-52.6c0,0.1,0,0.3,0,0.5
			c0,0.2,0,0.4,0,0.7c0.1,3.2,0.7,6.1,1.7,8.7c1,2.6,2.6,4.7,4.6,6.3c2,1.5,4.5,2.3,7.5,2.3c2.2,0,4-0.4,5.5-1.1
			c1.5-0.7,2.7-1.5,3.7-2.5c1-0.9,1.8-1.7,2.3-2.4c1-1.2,1.8-1.9,2.4-2.2c0.6-0.3,1.6-0.4,2.9-0.4h20.4c1.1,0,2,0.3,2.7,1
			c0.7,0.7,1,1.5,0.9,2.6c-0.1,1.9-1,4.1-2.8,6.7c-1.8,2.6-4.3,5.2-7.6,7.8c-3.3,2.6-7.5,4.7-12.6,6.3
			C440.2,662.5,434.3,663.3,427.6,663.3z M413.7,610.2h27.8v-0.3c0-3.6-0.5-6.7-1.6-9.3c-1-2.6-2.6-4.6-4.8-6
			c-2.1-1.4-4.7-2.1-7.6-2.1c-2.9,0-5.3,0.7-7.4,2.1c-2.1,1.4-3.7,3.4-4.8,6c-1.1,2.6-1.6,5.7-1.6,9.3V610.2z"/>
		<path fill="#FFFFFF" d="M490,661.6c-1.2,0-2.2-0.4-3-1.2c-0.8-0.8-1.2-1.8-1.2-2.9v-77.3c0-1.2,0.4-2.2,1.2-3
			c0.8-0.8,1.8-1.2,3-1.2h18.9c1.2,0,2.2,0.4,3,1.2c0.8,0.8,1.2,1.8,1.2,3v6.3c2.7-3.4,6.4-6.3,11-8.6c4.6-2.3,10-3.5,16.3-3.5
			c6.4,0,12,1.4,16.9,4.3c4.9,2.9,8.7,7,11.5,12.5c2.8,5.5,4.2,12.3,4.2,20.4v45.9c0,1.1-0.4,2.1-1.2,2.9c-0.8,0.8-1.8,1.2-3,1.2
			h-20.7c-1.1,0-2.1-0.4-2.9-1.2c-0.8-0.8-1.2-1.8-1.2-2.9v-44.9c0-5.2-1.2-9.1-3.7-11.9c-2.5-2.8-6.1-4.2-10.9-4.2
			c-4.5,0-8.1,1.4-10.8,4.2c-2.7,2.8-4,6.8-4,11.9v44.9c0,1.1-0.4,2.1-1.2,2.9c-0.8,0.8-1.8,1.2-2.9,1.2H490z"/>
		<g>
			<path fill="#FFFFFF" d="M608,633.7c-1,0-1.8-0.3-2.4-0.9c-0.6-0.6-0.9-1.4-0.9-2.4v-12.7c0-1,0.3-1.8,0.9-2.4
				c0.6-0.6,1.4-0.9,2.4-0.9h42.2c1,0,1.8,0.3,2.5,0.9c0.7,0.6,1,1.4,1,2.4v12.7c0,1-0.3,1.8-1,2.4c-0.7,0.6-1.5,0.9-2.5,0.9H608z"
				/>
		</g>
	</g>
	<path fill="#03CCA8" d="M253.8,538.4L253.8,538.4L253.8,538.4c1.5-1.2,3.2-1.9,5.1-1.9c2.6,0,4.9,1,6.6,2.9c1.7,1.9,2.7,4.3,2.4,7
		l0,0v0c0,2.7-1,5.3-3.3,8.1c-2.1,2.5-4.9,4.9-8.4,7.9l0,0l0,0c-1.2,1.1-2.5,2.1-3.9,3.4l0,0l0,0c-0.2,0.2-0.3,0.3-0.4,0.3
		c-0.1,0.1-0.3,0.1-0.5,0.1c-0.3,0-0.7-0.1-1-0.4l0,0l0,0c-1.4-1.2-2.7-2.3-3.9-3.4l0,0l0,0l0,0c-3.4-2.8-6.3-5.5-8.4-7.9
		c-2.3-2.8-3.3-5.4-3.3-8.1c0-2.8,0.9-5.1,2.7-7l0,0l0,0c1.7-1.9,4.1-2.9,6.6-2.9c1.9,0,3.5,0.7,5.1,1.9l0,0l0,0
		c0.7,0.5,1.4,1.2,2.1,2.1l0.3,0.4l0.3-0.4C252.3,539.6,253.1,538.9,253.8,538.4z"/>
</g>
</svg>
