<?xml version="1.0" encoding="utf-8"?>
<!-- Generator: Adobe Illustrator 18.0.0, SVG Export Plug-In . SVG Version: 6.00 Build 0)  -->
<!DOCTYPE svg PUBLIC "-//W3C//DTD SVG 1.1//EN" "http://www.w3.org/Graphics/SVG/1.1/DTD/svg11.dtd">
<svg version="1.1" id="Ebene_1" xmlns="http://www.w3.org/2000/svg" xmlns:xlink="http://www.w3.org/1999/xlink" x="0px" y="0px"
	 viewBox="0 136 300 54.7" enable-background="new 0 136 300 54.7" xml:space="preserve">
<title>Links</title>
<g>
	<path fill="#03CCA8" d="M1.8,160.2c-0.2,0-0.4-0.1-0.5-0.2c-0.1-0.1-0.2-0.3-0.2-0.5v-19.2c0-0.2,0.1-0.4,0.2-0.5
		c0.1-0.1,0.3-0.2,0.5-0.2h9c1.7,0,3.1,0.2,4.2,0.7c1.1,0.5,1.9,1.1,2.4,2c0.5,0.9,0.8,1.9,0.8,3.1c0,0.7-0.1,1.3-0.4,1.9
		c-0.3,0.5-0.6,1-1,1.3c-0.4,0.4-0.7,0.6-1.1,0.8c0.7,0.4,1.4,0.9,2,1.7c0.6,0.8,0.9,1.8,0.9,2.8c0,1.3-0.3,2.4-0.9,3.3
		c-0.6,0.9-1.4,1.7-2.5,2.2c-1.1,0.5-2.5,0.8-4.1,0.8H1.8z M6.4,147.8h3.8c0.8,0,1.4-0.2,1.8-0.6c0.4-0.4,0.6-0.9,0.6-1.6
		c0-0.6-0.2-1.1-0.6-1.5c-0.4-0.4-1-0.6-1.8-0.6H6.4V147.8z M6.4,156.4h4.1c0.8,0,1.5-0.2,1.9-0.7s0.6-1.1,0.6-1.7
		c0-0.7-0.2-1.3-0.7-1.7s-1.1-0.7-1.9-0.7H6.4V156.4z"/>
	<path fill="#03CCA8" d="M28.6,160.5c-2.3,0-4.2-0.6-5.5-1.9c-1.4-1.3-2.1-3.1-2.2-5.6c0-0.1,0-0.3,0-0.5c0-0.2,0-0.4,0-0.5
		c0.1-1.6,0.4-2.9,1-4c0.6-1.1,1.5-2,2.7-2.5c1.1-0.6,2.5-0.9,4-0.9c1.7,0,3.2,0.3,4.3,1c1.1,0.7,2,1.6,2.6,2.8s0.9,2.5,0.9,4v0.7
		c0,0.2-0.1,0.4-0.2,0.5c-0.1,0.1-0.3,0.2-0.5,0.2h-9.4c0,0,0,0,0,0.1c0,0,0,0.1,0,0.1c0,0.6,0.1,1.1,0.3,1.6
		c0.2,0.5,0.5,0.8,0.8,1.1c0.4,0.3,0.8,0.4,1.3,0.4c0.4,0,0.7-0.1,1-0.2s0.5-0.3,0.7-0.4s0.3-0.3,0.4-0.4c0.2-0.2,0.3-0.3,0.4-0.4
		c0.1,0,0.3-0.1,0.5-0.1h3.7c0.2,0,0.4,0.1,0.5,0.2s0.2,0.3,0.2,0.5c0,0.3-0.2,0.7-0.5,1.2c-0.3,0.5-0.8,0.9-1.4,1.4
		c-0.6,0.5-1.4,0.8-2.3,1.1C30.8,160.4,29.8,160.5,28.6,160.5z M26.1,151h5v-0.1c0-0.6-0.1-1.2-0.3-1.7c-0.2-0.5-0.5-0.8-0.9-1.1
		c-0.4-0.3-0.8-0.4-1.4-0.4c-0.5,0-1,0.1-1.3,0.4c-0.4,0.3-0.7,0.6-0.9,1.1S26.1,150.3,26.1,151L26.1,151z"/>
	<path fill="#03CCA8" d="M45.3,160.5c-1.3,0-2.4-0.1-3.3-0.4c-0.9-0.3-1.6-0.6-2.2-1c-0.6-0.4-1-0.8-1.3-1.3
		c-0.3-0.4-0.4-0.8-0.4-1.2c0-0.2,0-0.4,0.2-0.5s0.3-0.2,0.5-0.2h3.4c0.1,0,0.1,0,0.2,0c0,0,0.1,0.1,0.2,0.1
		c0.3,0.1,0.5,0.3,0.8,0.5c0.3,0.2,0.6,0.4,0.9,0.5c0.3,0.2,0.7,0.2,1.2,0.2c0.6,0,1-0.1,1.4-0.3c0.4-0.2,0.6-0.5,0.6-1
		c0-0.3-0.1-0.6-0.3-0.8c-0.2-0.2-0.5-0.4-1.1-0.6c-0.5-0.2-1.4-0.4-2.4-0.6c-1-0.2-1.9-0.5-2.7-0.9c-0.8-0.4-1.4-0.9-1.8-1.5
		s-0.6-1.4-0.6-2.3c0-0.8,0.3-1.5,0.8-2.3c0.5-0.7,1.3-1.3,2.2-1.8c1-0.5,2.2-0.7,3.7-0.7c1.1,0,2.1,0.1,2.9,0.4
		c0.8,0.3,1.6,0.6,2.1,1c0.6,0.4,1,0.8,1.3,1.3c0.3,0.4,0.5,0.8,0.5,1.2c0,0.2,0,0.4-0.2,0.5c-0.1,0.1-0.3,0.2-0.5,0.2h-3.1
		c-0.1,0-0.2,0-0.2,0s-0.1-0.1-0.2-0.1c-0.2-0.1-0.5-0.3-0.7-0.5c-0.2-0.2-0.5-0.4-0.8-0.5s-0.7-0.2-1.2-0.2c-0.5,0-0.9,0.1-1.2,0.4
		c-0.3,0.2-0.4,0.5-0.4,0.9c0,0.3,0.1,0.5,0.3,0.7c0.2,0.2,0.5,0.4,1,0.6c0.5,0.2,1.3,0.4,2.4,0.6c1.4,0.2,2.4,0.6,3.2,1
		c0.8,0.5,1.4,1,1.7,1.7c0.3,0.6,0.5,1.3,0.5,2c0,0.9-0.3,1.8-0.9,2.5c-0.6,0.7-1.4,1.3-2.5,1.7C48.3,160.3,46.9,160.5,45.3,160.5z"
		/>
	<path fill="#03CCA8" d="M61,160.5c-1.1,0-2.1-0.3-3-0.8c-0.9-0.5-1.6-1.3-2-2.3c-0.5-1-0.7-2.2-0.7-3.6v-8.2c0-0.2,0.1-0.4,0.2-0.5
		c0.1-0.1,0.3-0.2,0.5-0.2h3.7c0.2,0,0.4,0.1,0.5,0.2c0.1,0.1,0.2,0.3,0.2,0.5v8.1c0,1.9,0.9,2.9,2.6,2.9c0.8,0,1.4-0.3,1.9-0.8
		c0.5-0.5,0.7-1.2,0.7-2.1v-8.1c0-0.2,0.1-0.4,0.2-0.5c0.1-0.1,0.3-0.2,0.5-0.2H70c0.2,0,0.4,0.1,0.5,0.2c0.1,0.1,0.2,0.3,0.2,0.5
		v13.9c0,0.2-0.1,0.4-0.2,0.5s-0.3,0.2-0.5,0.2h-3.4c-0.2,0-0.4-0.1-0.5-0.2s-0.2-0.3-0.2-0.5v-1.1c-0.5,0.7-1.2,1.2-2,1.6
		C63.1,160.3,62.1,160.5,61,160.5z"/>
	<path fill="#03CCA8" d="M81.3,160.5c-1.5,0-2.7-0.3-3.9-0.8c-1.1-0.5-2-1.3-2.7-2.3c-0.7-1-1-2.2-1.1-3.6c0-0.3,0-0.7,0-1.2
		c0-0.5,0-0.9,0-1.2c0.1-1.4,0.4-2.7,1.1-3.7s1.5-1.8,2.7-2.3c1.1-0.5,2.4-0.8,3.9-0.8c1.4,0,2.5,0.2,3.5,0.6c1,0.4,1.8,0.9,2.4,1.4
		c0.6,0.6,1.1,1.2,1.4,1.8c0.3,0.6,0.5,1.1,0.5,1.6c0,0.2,0,0.4-0.2,0.5c-0.2,0.1-0.3,0.2-0.5,0.2h-3.7c-0.2,0-0.4,0-0.5-0.1
		c-0.1-0.1-0.2-0.2-0.3-0.4c-0.2-0.6-0.5-1-0.9-1.3c-0.4-0.3-0.8-0.4-1.4-0.4c-0.8,0-1.4,0.3-1.8,0.8c-0.4,0.5-0.7,1.3-0.7,2.4
		c0,0.8,0,1.5,0,2.1c0.1,1.1,0.3,1.9,0.7,2.4s1,0.7,1.8,0.7c0.6,0,1.1-0.1,1.4-0.4c0.4-0.3,0.6-0.7,0.9-1.3c0.1-0.2,0.2-0.3,0.3-0.4
		c0.1-0.1,0.3-0.1,0.5-0.1h3.7c0.2,0,0.4,0.1,0.5,0.2c0.2,0.1,0.2,0.3,0.2,0.5c0,0.3-0.1,0.7-0.3,1.2c-0.2,0.5-0.5,0.9-0.8,1.4
		c-0.4,0.5-0.9,0.9-1.5,1.4s-1.3,0.8-2.2,1C83.4,160.4,82.4,160.5,81.3,160.5z"/>
	<path fill="#03CCA8" d="M92.4,160.2c-0.2,0-0.4-0.1-0.5-0.2c-0.1-0.1-0.2-0.3-0.2-0.5V140c0-0.2,0.1-0.4,0.2-0.5
		c0.1-0.1,0.3-0.2,0.5-0.2h3.8c0.2,0,0.4,0.1,0.5,0.2c0.1,0.1,0.2,0.3,0.2,0.5v6.6c0.5-0.6,1.2-1.1,2-1.5c0.8-0.4,1.7-0.5,2.7-0.5
		c1.1,0,2.2,0.3,3.1,0.8c0.9,0.5,1.6,1.3,2.1,2.2s0.8,2.2,0.8,3.7v8.2c0,0.2-0.1,0.4-0.2,0.5c-0.1,0.1-0.3,0.2-0.5,0.2h-3.8
		c-0.2,0-0.4-0.1-0.5-0.2c-0.1-0.1-0.2-0.3-0.2-0.5v-8.1c0-0.9-0.2-1.6-0.7-2.1c-0.4-0.5-1.1-0.8-1.9-0.8c-0.8,0-1.5,0.3-2,0.8
		c-0.5,0.5-0.7,1.2-0.7,2.1v8.1c0,0.2-0.1,0.4-0.2,0.5c-0.1,0.1-0.3,0.2-0.5,0.2H92.4z"/>
	<path fill="#03CCA8" d="M117.9,160.5c-2.3,0-4.2-0.6-5.5-1.9c-1.4-1.3-2.1-3.1-2.2-5.6c0-0.1,0-0.3,0-0.5c0-0.2,0-0.4,0-0.5
		c0.1-1.6,0.4-2.9,1-4c0.6-1.1,1.5-2,2.7-2.5c1.1-0.6,2.5-0.9,4-0.9c1.7,0,3.2,0.3,4.3,1c1.1,0.7,2,1.6,2.6,2.8s0.9,2.5,0.9,4v0.7
		c0,0.2-0.1,0.4-0.2,0.5c-0.1,0.1-0.3,0.2-0.5,0.2h-9.4c0,0,0,0,0,0.1c0,0,0,0.1,0,0.1c0,0.6,0.1,1.1,0.3,1.6
		c0.2,0.5,0.5,0.8,0.8,1.1c0.4,0.3,0.8,0.4,1.3,0.4c0.4,0,0.7-0.1,1-0.2s0.5-0.3,0.7-0.4s0.3-0.3,0.4-0.4c0.2-0.2,0.3-0.3,0.4-0.4
		c0.1,0,0.3-0.1,0.5-0.1h3.7c0.2,0,0.4,0.1,0.5,0.2s0.2,0.3,0.2,0.5c0,0.3-0.2,0.7-0.5,1.2c-0.3,0.5-0.8,0.9-1.4,1.4
		c-0.6,0.5-1.4,0.8-2.3,1.1C120.1,160.4,119.1,160.5,117.9,160.5z M115.4,151h5v-0.1c0-0.6-0.1-1.2-0.3-1.7
		c-0.2-0.5-0.5-0.8-0.9-1.1c-0.4-0.3-0.8-0.4-1.4-0.4c-0.5,0-1,0.1-1.3,0.4c-0.4,0.3-0.7,0.6-0.9,1.1S115.4,150.3,115.4,151
		L115.4,151z"/>
	<path fill="#03CCA8" d="M140.3,160.5c-0.9,0-1.8-0.2-2.6-0.5s-1.4-0.8-1.9-1.4c-0.5-0.6-1-1.3-1.3-2.2s-0.5-1.8-0.5-2.9
		c0-0.4,0-0.7,0-1c0-0.3,0-0.7,0-1c0-1,0.2-2,0.5-2.8s0.7-1.6,1.2-2.2c0.5-0.6,1.2-1.1,1.9-1.4c0.8-0.3,1.6-0.5,2.6-0.5
		c1,0,1.8,0.2,2.5,0.5s1.3,0.7,1.8,1.3V140c0-0.2,0.1-0.4,0.2-0.5c0.1-0.1,0.3-0.2,0.5-0.2h3.6c0.2,0,0.4,0.1,0.5,0.2
		c0.1,0.1,0.2,0.3,0.2,0.5v19.5c0,0.2-0.1,0.4-0.2,0.5s-0.3,0.2-0.5,0.2h-3.3c-0.2,0-0.4-0.1-0.5-0.2c-0.1-0.1-0.2-0.3-0.2-0.5v-0.9
		c-0.5,0.6-1.1,1-1.8,1.4C142.4,160.3,141.4,160.5,140.3,160.5z M142,156.6c0.6,0,1.2-0.1,1.5-0.4c0.4-0.3,0.7-0.7,0.9-1.1
		c0.2-0.5,0.3-0.9,0.3-1.5c0-0.4,0-0.8,0-1.1c0-0.4,0-0.7,0-1.1c0-0.5-0.1-0.9-0.3-1.4c-0.2-0.4-0.5-0.8-0.9-1
		c-0.4-0.3-0.9-0.4-1.5-0.4c-0.6,0-1.2,0.1-1.5,0.4s-0.7,0.6-0.8,1.1c-0.2,0.5-0.3,1-0.3,1.6c-0.1,0.6-0.1,1.2,0,1.8
		c0,0.6,0.1,1.1,0.3,1.6c0.2,0.5,0.4,0.8,0.8,1.1S141.3,156.6,142,156.6z"/>
	<path fill="#03CCA8" d="M153.9,142.7c-0.2,0-0.4-0.1-0.5-0.2c-0.1-0.1-0.2-0.3-0.2-0.5v-2.7c0-0.2,0.1-0.4,0.2-0.5s0.3-0.2,0.5-0.2
		h3.5c0.2,0,0.4,0.1,0.5,0.2s0.2,0.3,0.2,0.5v2.7c0,0.2-0.1,0.4-0.2,0.5c-0.1,0.1-0.3,0.2-0.5,0.2H153.9z M154,160.2
		c-0.2,0-0.4-0.1-0.5-0.2s-0.2-0.3-0.2-0.5v-13.9c0-0.2,0.1-0.4,0.2-0.5c0.1-0.1,0.3-0.2,0.5-0.2h3.5c0.2,0,0.4,0.1,0.5,0.2
		c0.1,0.1,0.2,0.3,0.2,0.5v13.9c0,0.2-0.1,0.4-0.2,0.5s-0.3,0.2-0.5,0.2H154z"/>
	<path fill="#03CCA8" d="M168.7,160.5c-2.3,0-4.2-0.6-5.5-1.9c-1.4-1.3-2.1-3.1-2.2-5.6c0-0.1,0-0.3,0-0.5c0-0.2,0-0.4,0-0.5
		c0.1-1.6,0.4-2.9,1-4c0.6-1.1,1.5-2,2.7-2.5s2.5-0.9,4-0.9c1.7,0,3.2,0.3,4.3,1c1.1,0.7,2,1.6,2.6,2.8s0.9,2.5,0.9,4v0.7
		c0,0.2-0.1,0.4-0.2,0.5c-0.1,0.1-0.3,0.2-0.5,0.2h-9.4c0,0,0,0,0,0.1c0,0,0,0.1,0,0.1c0,0.6,0.1,1.1,0.3,1.6s0.5,0.8,0.8,1.1
		c0.4,0.3,0.8,0.4,1.3,0.4c0.4,0,0.7-0.1,1-0.2s0.5-0.3,0.7-0.4c0.2-0.2,0.3-0.3,0.4-0.4c0.2-0.2,0.3-0.3,0.4-0.4
		c0.1,0,0.3-0.1,0.5-0.1h3.7c0.2,0,0.4,0.1,0.5,0.2s0.2,0.3,0.2,0.5c0,0.3-0.2,0.7-0.5,1.2c-0.3,0.5-0.8,0.9-1.4,1.4
		c-0.6,0.5-1.4,0.8-2.3,1.1S169.9,160.5,168.7,160.5z M166.2,151h5v-0.1c0-0.6-0.1-1.2-0.3-1.7c-0.2-0.5-0.5-0.8-0.9-1.1
		c-0.4-0.3-0.8-0.4-1.4-0.4c-0.5,0-1,0.1-1.3,0.4c-0.4,0.3-0.7,0.6-0.9,1.1S166.2,150.3,166.2,151L166.2,151z"/>
	<path fill="#03CCA8" d="M188.9,160.2c-0.3,0-0.6-0.1-0.8-0.3s-0.3-0.4-0.4-0.7l-3.2-18.8c0-0.1,0-0.1,0-0.1c0,0,0-0.1,0-0.1
		c0-0.2,0.1-0.3,0.2-0.4s0.3-0.2,0.4-0.2h3.7c0.5,0,0.9,0.2,0.9,0.6l1.9,11.5l2.1-6.8c0.1-0.2,0.2-0.3,0.3-0.5s0.4-0.3,0.7-0.3h2.1
		c0.3,0,0.6,0.1,0.7,0.3s0.2,0.4,0.3,0.5l2.1,6.8l1.9-11.5c0.1-0.4,0.4-0.6,0.9-0.6h3.7c0.2,0,0.3,0.1,0.5,0.2s0.2,0.3,0.2,0.4
		c0,0,0,0,0,0.1c0,0,0,0.1,0,0.1l-3.2,18.8c0,0.3-0.2,0.5-0.4,0.7c-0.2,0.2-0.5,0.3-0.8,0.3h-2.8c-0.3,0-0.6-0.1-0.8-0.3
		c-0.2-0.2-0.3-0.3-0.4-0.5l-3-8.4l-3,8.4c-0.1,0.2-0.2,0.3-0.3,0.5s-0.4,0.3-0.8,0.3H188.9z"/>
	<path fill="#03CCA8" d="M216.3,160.5c-2.3,0-4.2-0.6-5.5-1.9c-1.4-1.3-2.1-3.1-2.2-5.6c0-0.1,0-0.3,0-0.5c0-0.2,0-0.4,0-0.5
		c0.1-1.6,0.4-2.9,1-4c0.6-1.1,1.5-2,2.7-2.5s2.5-0.9,4-0.9c1.7,0,3.2,0.3,4.3,1c1.1,0.7,2,1.6,2.6,2.8s0.9,2.5,0.9,4v0.7
		c0,0.2-0.1,0.4-0.2,0.5c-0.1,0.1-0.3,0.2-0.5,0.2h-9.4c0,0,0,0,0,0.1c0,0,0,0.1,0,0.1c0,0.6,0.1,1.1,0.3,1.6s0.5,0.8,0.8,1.1
		c0.4,0.3,0.8,0.4,1.3,0.4c0.4,0,0.7-0.1,1-0.2s0.5-0.3,0.7-0.4c0.2-0.2,0.3-0.3,0.4-0.4c0.2-0.2,0.3-0.3,0.4-0.4
		c0.1,0,0.3-0.1,0.5-0.1h3.7c0.2,0,0.4,0.1,0.5,0.2s0.2,0.3,0.2,0.5c0,0.3-0.2,0.7-0.5,1.2c-0.3,0.5-0.8,0.9-1.4,1.4
		c-0.6,0.5-1.4,0.8-2.3,1.1S217.5,160.5,216.3,160.5z M213.8,151h5v-0.1c0-0.6-0.1-1.2-0.3-1.7c-0.2-0.5-0.5-0.8-0.9-1.1
		c-0.4-0.3-0.8-0.4-1.4-0.4c-0.5,0-1,0.1-1.3,0.4c-0.4,0.3-0.7,0.6-0.9,1.1S213.8,150.3,213.8,151L213.8,151z"/>
	<path fill="#03CCA8" d="M236.1,160.5c-1.1,0-2-0.2-2.7-0.6s-1.4-0.8-1.8-1.4v0.9c0,0.2-0.1,0.4-0.2,0.5s-0.3,0.2-0.5,0.2h-3.3
		c-0.2,0-0.4-0.1-0.5-0.2s-0.2-0.3-0.2-0.5V140c0-0.2,0.1-0.4,0.2-0.5c0.1-0.1,0.3-0.2,0.5-0.2h3.6c0.2,0,0.4,0.1,0.5,0.2
		c0.1,0.1,0.2,0.3,0.2,0.5v6.3c0.5-0.5,1.1-0.9,1.8-1.3s1.5-0.5,2.5-0.5c1,0,1.9,0.2,2.6,0.5s1.4,0.8,1.9,1.4
		c0.5,0.6,0.9,1.3,1.2,2.2s0.5,1.8,0.5,2.8c0,0.4,0,0.7,0,1c0,0.3,0,0.7,0,1c0,1.1-0.2,2.1-0.5,2.9s-0.7,1.6-1.3,2.2
		s-1.2,1.1-1.9,1.4S237.1,160.5,236.1,160.5z M234.5,156.6c0.7,0,1.2-0.1,1.6-0.4c0.4-0.3,0.6-0.6,0.8-1.1c0.2-0.5,0.3-1,0.3-1.6
		c0-0.6,0-1.2,0-1.8c0-0.6-0.1-1.1-0.3-1.6c-0.2-0.5-0.4-0.8-0.8-1.1c-0.4-0.3-0.9-0.4-1.6-0.4c-0.6,0-1.1,0.1-1.5,0.4
		c-0.4,0.3-0.7,0.6-0.9,1c-0.2,0.4-0.3,0.9-0.3,1.4c0,0.4,0,0.7,0,1.1c0,0.4,0,0.7,0,1.1c0,0.5,0.1,1,0.3,1.5
		c0.2,0.5,0.5,0.8,0.9,1.1C233.4,156.4,233.9,156.6,234.5,156.6z"/>
	<path fill="#03CCA8" d="M251.7,160.5c-1.3,0-2.4-0.1-3.3-0.4c-0.9-0.3-1.6-0.6-2.2-1s-1-0.8-1.3-1.3s-0.4-0.8-0.4-1.2
		c0-0.2,0-0.4,0.2-0.5c0.2-0.1,0.3-0.2,0.5-0.2h3.4c0.1,0,0.1,0,0.2,0c0,0,0.1,0.1,0.2,0.1c0.3,0.1,0.5,0.3,0.8,0.5
		c0.3,0.2,0.5,0.4,0.9,0.5c0.3,0.2,0.7,0.2,1.2,0.2c0.5,0,1-0.1,1.4-0.3c0.4-0.2,0.6-0.5,0.6-1c0-0.3-0.1-0.6-0.3-0.8
		c-0.2-0.2-0.5-0.4-1.1-0.6s-1.4-0.4-2.4-0.6c-1-0.2-1.9-0.5-2.7-0.9c-0.8-0.4-1.4-0.9-1.8-1.5s-0.6-1.4-0.6-2.3
		c0-0.8,0.3-1.5,0.8-2.3c0.5-0.7,1.3-1.3,2.2-1.8s2.2-0.7,3.7-0.7c1.1,0,2.1,0.1,3,0.4c0.8,0.3,1.6,0.6,2.1,1c0.6,0.4,1,0.8,1.3,1.3
		c0.3,0.4,0.5,0.8,0.5,1.2c0,0.2,0,0.4-0.2,0.5s-0.3,0.2-0.5,0.2h-3.1c-0.1,0-0.2,0-0.2,0c-0.1,0-0.1-0.1-0.2-0.1
		c-0.2-0.1-0.5-0.3-0.7-0.5c-0.2-0.2-0.5-0.4-0.8-0.5s-0.7-0.2-1.2-0.2c-0.5,0-0.9,0.1-1.2,0.4c-0.3,0.2-0.4,0.5-0.4,0.9
		c0,0.3,0.1,0.5,0.2,0.7c0.2,0.2,0.5,0.4,1,0.6c0.5,0.2,1.3,0.4,2.4,0.6c1.4,0.2,2.4,0.6,3.2,1s1.4,1,1.7,1.7c0.3,0.6,0.5,1.3,0.5,2
		c0,0.9-0.3,1.8-0.9,2.5c-0.6,0.7-1.4,1.3-2.5,1.7C254.6,160.3,253.3,160.5,251.7,160.5z"/>
	<path fill="#03CCA8" d="M262.4,142.7c-0.2,0-0.4-0.1-0.5-0.2c-0.1-0.1-0.2-0.3-0.2-0.5v-2.7c0-0.2,0.1-0.4,0.2-0.5s0.3-0.2,0.5-0.2
		h3.5c0.2,0,0.4,0.1,0.5,0.2s0.2,0.3,0.2,0.5v2.7c0,0.2-0.1,0.4-0.2,0.5c-0.1,0.1-0.3,0.2-0.5,0.2H262.4z M262.4,160.2
		c-0.2,0-0.4-0.1-0.5-0.2s-0.2-0.3-0.2-0.5v-13.9c0-0.2,0.1-0.4,0.2-0.5c0.1-0.1,0.3-0.2,0.5-0.2h3.5c0.2,0,0.4,0.1,0.5,0.2
		c0.1,0.1,0.2,0.3,0.2,0.5v13.9c0,0.2-0.1,0.4-0.2,0.5s-0.3,0.2-0.5,0.2H262.4z"/>
	<path fill="#03CCA8" d="M278,160.2c-1.3,0-2.3-0.2-3.3-0.6c-0.9-0.4-1.6-1-2.1-1.9c-0.5-0.9-0.7-2-0.7-3.3v-5.7h-2.3
		c-0.2,0-0.4-0.1-0.5-0.2s-0.2-0.3-0.2-0.5v-2.4c0-0.2,0.1-0.4,0.2-0.5c0.1-0.1,0.3-0.2,0.5-0.2h2.3V140c0-0.2,0.1-0.4,0.2-0.5
		c0.1-0.1,0.3-0.2,0.5-0.2h3.4c0.2,0,0.4,0.1,0.5,0.2c0.1,0.1,0.2,0.3,0.2,0.5v4.9h3.7c0.2,0,0.4,0.1,0.5,0.2
		c0.1,0.1,0.2,0.3,0.2,0.5v2.4c0,0.2-0.1,0.4-0.2,0.5s-0.3,0.2-0.5,0.2h-3.7v5.2c0,0.7,0.1,1.2,0.4,1.6c0.3,0.4,0.7,0.6,1.3,0.6h2.3
		c0.2,0,0.4,0.1,0.5,0.2s0.2,0.3,0.2,0.5v2.6c0,0.2-0.1,0.4-0.2,0.5s-0.3,0.2-0.5,0.2H278z"/>
	<path fill="#03CCA8" d="M291,160.5c-2.3,0-4.2-0.6-5.5-1.9c-1.4-1.3-2.1-3.1-2.2-5.6c0-0.1,0-0.3,0-0.5c0-0.2,0-0.4,0-0.5
		c0.1-1.6,0.4-2.9,1-4c0.6-1.1,1.5-2,2.7-2.5s2.5-0.9,4-0.9c1.7,0,3.2,0.3,4.3,1c1.1,0.7,2,1.6,2.6,2.8s0.9,2.5,0.9,4v0.7
		c0,0.2-0.1,0.4-0.2,0.5c-0.1,0.1-0.3,0.2-0.5,0.2h-9.4c0,0,0,0,0,0.1c0,0,0,0.1,0,0.1c0,0.6,0.1,1.1,0.3,1.6s0.5,0.8,0.8,1.1
		c0.4,0.3,0.8,0.4,1.3,0.4c0.4,0,0.7-0.1,1-0.2s0.5-0.3,0.7-0.4c0.2-0.2,0.3-0.3,0.4-0.4c0.2-0.2,0.3-0.3,0.4-0.4
		c0.1,0,0.3-0.1,0.5-0.1h3.7c0.2,0,0.4,0.1,0.5,0.2s0.2,0.3,0.2,0.5c0,0.3-0.2,0.7-0.5,1.2c-0.3,0.5-0.8,0.9-1.4,1.4
		c-0.6,0.5-1.4,0.8-2.3,1.1S292.2,160.5,291,160.5z M288.5,151h5v-0.1c0-0.6-0.1-1.2-0.3-1.7c-0.2-0.5-0.5-0.8-0.9-1.1
		c-0.4-0.3-0.8-0.4-1.4-0.4c-0.5,0-1,0.1-1.3,0.4c-0.4,0.3-0.7,0.6-0.9,1.1S288.5,150.3,288.5,151L288.5,151z"/>
</g>
<g>
	<path d="M193.5,188.2l-8.9-31.4l29,15l-8.7,3l6.7,8.1l-6.7,5.5l-6.7-8.2L193.5,188.2z M197.9,175.6l7.4,9.1l2.6-2.1l-7.4-9l6.4-2.2
		l-18-9.3l5.5,19.4L197.9,175.6z"/>
	<rect x="177.3" y="151.4" transform="matrix(-0.4974 0.8675 -0.8675 -0.4974 401.162 75.6319)" width="2.7" height="5.2"/>
	<rect x="187.6" y="149.7" transform="matrix(-0.4989 0.8666 -0.8666 -0.4989 416.0553 61.5298)" width="5.2" height="2.7"/>
	<rect x="179.1" y="164.3" transform="matrix(-0.5105 0.8599 -0.8599 -0.5105 416.894 93.8892)" width="5.2" height="2.7"/>
	<rect x="182.5" y="147.5" transform="matrix(-0.9674 0.2533 -0.2533 -0.9674 399.691 248.8998)" width="2.7" height="5.3"/>
	<rect x="191.4" y="154.9" transform="matrix(-0.967 0.2546 -0.2546 -0.967 421.5301 257.8287)" width="5.3" height="2.7"/>
	<rect x="175.2" y="159.1" transform="matrix(-0.9665 0.2568 -0.2568 -0.9665 390.8813 269.8275)" width="5.3" height="2.7"/>
</g>
</svg>
