<?xml version="1.0" encoding="utf-8"?>
<!-- Generator: Adobe Illustrator 18.0.0, SVG Export Plug-In . SVG Version: 6.00 Build 0)  -->
<!DOCTYPE svg PUBLIC "-//W3C//DTD SVG 1.1//EN" "http://www.w3.org/Graphics/SVG/1.1/DTD/svg11.dtd">
<svg version="1.1" id="Ebene_1" xmlns="http://www.w3.org/2000/svg" xmlns:xlink="http://www.w3.org/1999/xlink" x="0px" y="0px"
	 viewBox="0 106 300 51.3" enable-background="new 0 106 300 51.3" xml:space="preserve">
<g>
	<path d="M12,152.6c-2,0-3.7-0.3-5.1-0.8c-1.4-0.5-2.6-1.2-3.5-1.9s-1.6-1.5-2-2.2c-0.4-0.7-0.7-1.3-0.7-1.7c0-0.4,0.1-0.7,0.4-0.9
		c0.3-0.2,0.6-0.3,0.9-0.3h0.9c0.2,0,0.4,0,0.6,0.1c0.2,0.1,0.4,0.3,0.7,0.6c0.5,0.6,1.1,1.3,1.7,1.9c0.6,0.6,1.5,1.1,2.5,1.4
		c1,0.3,2.3,0.5,3.8,0.5c2.3,0,4.2-0.4,5.6-1.3s2.2-2.2,2.2-3.9c0-1.1-0.3-1.9-0.9-2.6c-0.6-0.6-1.6-1.2-3-1.7
		c-1.4-0.5-3.3-1-5.7-1.5c-2.4-0.6-4.2-1.3-5.5-2.1c-1.3-0.8-2.1-1.7-2.6-2.8c-0.5-1-0.7-2.2-0.7-3.4c0-1.3,0.4-2.6,1.1-3.9
		c0.8-1.3,1.9-2.3,3.4-3.1c1.5-0.8,3.4-1.2,5.7-1.2c1.9,0,3.4,0.2,4.8,0.7s2.4,1.1,3.2,1.8c0.8,0.7,1.5,1.4,1.9,2.1
		c0.4,0.7,0.6,1.2,0.7,1.7c0,0.4-0.1,0.7-0.3,0.9c-0.3,0.2-0.6,0.3-0.9,0.3h-0.9c-0.3,0-0.6-0.1-0.7-0.2c-0.2-0.1-0.4-0.3-0.5-0.5
		c-0.4-0.6-0.8-1.2-1.4-1.7c-0.5-0.5-1.2-1-2.1-1.3c-0.9-0.3-2.1-0.5-3.6-0.5c-2.3,0-4,0.5-5.1,1.4c-1.1,0.9-1.7,2.1-1.7,3.6
		c0,0.8,0.2,1.6,0.7,2.2c0.5,0.6,1.3,1.2,2.6,1.7c1.3,0.5,3.1,1.1,5.5,1.6c2.4,0.5,4.4,1.2,5.8,2c1.4,0.8,2.4,1.7,3,2.8
		c0.6,1.1,0.9,2.3,0.9,3.8c0,1.5-0.4,2.9-1.3,4.2c-0.9,1.3-2.1,2.3-3.8,3.1C16.6,152.3,14.5,152.6,12,152.6z"/>
	<path d="M32.7,116.3c-0.4,0-0.7-0.1-0.9-0.3c-0.2-0.2-0.3-0.5-0.3-0.9v-2.2c0-0.4,0.1-0.7,0.3-0.9c0.2-0.2,0.5-0.4,0.9-0.4h2.2
		c0.4,0,0.7,0.1,0.9,0.4c0.2,0.2,0.4,0.6,0.4,0.9v2.2c0,0.4-0.1,0.7-0.4,0.9c-0.2,0.2-0.6,0.3-0.9,0.3H32.7z M33.3,152.1
		c-0.4,0-0.7-0.1-0.9-0.3c-0.2-0.2-0.3-0.5-0.3-0.9v-27.1c0-0.4,0.1-0.7,0.3-0.9c0.2-0.2,0.5-0.3,0.9-0.3h1c0.4,0,0.7,0.1,0.9,0.3
		c0.2,0.2,0.3,0.5,0.3,0.9v27.1c0,0.4-0.1,0.7-0.3,0.9c-0.2,0.2-0.5,0.3-0.9,0.3H33.3z"/>
	<path d="M47.1,152.1c-0.4,0-0.7-0.1-0.9-0.3c-0.2-0.2-0.3-0.5-0.3-0.9v-27.1c0-0.4,0.1-0.7,0.3-0.9c0.2-0.2,0.5-0.3,0.9-0.3h1
		c0.4,0,0.7,0.1,0.9,0.3c0.2,0.2,0.3,0.5,0.3,0.9v2c0.9-1.2,2.1-2.2,3.4-2.8c1.3-0.7,2.9-1,4.8-1c4.3,0,7.3,1.8,9.1,5.4
		c0.9-1.6,2.2-2.9,3.8-3.9c1.7-1,3.6-1.5,5.8-1.5c2,0,3.8,0.5,5.4,1.4c1.6,0.9,2.9,2.3,3.8,4.1c0.9,1.8,1.4,4.1,1.4,6.8v16.6
		c0,0.4-0.1,0.7-0.3,0.9c-0.2,0.2-0.5,0.3-0.9,0.3h-1c-0.4,0-0.7-0.1-0.9-0.3c-0.2-0.2-0.3-0.5-0.3-0.9v-16c0-2.5-0.4-4.5-1.1-5.8
		c-0.7-1.4-1.7-2.4-2.8-2.9c-1.2-0.6-2.5-0.9-3.8-0.9c-1.1,0-2.3,0.3-3.5,0.9c-1.2,0.6-2.2,1.5-2.9,2.9c-0.8,1.4-1.2,3.3-1.2,5.8v16
		c0,0.4-0.1,0.7-0.3,0.9c-0.2,0.2-0.5,0.3-0.9,0.3h-1c-0.4,0-0.7-0.1-0.9-0.3c-0.2-0.2-0.3-0.5-0.3-0.9v-16c0-2.5-0.4-4.5-1.1-5.8
		c-0.8-1.4-1.7-2.4-2.9-2.9c-1.2-0.6-2.4-0.9-3.7-0.9c-1.1,0-2.3,0.3-3.5,0.9c-1.2,0.6-2.2,1.5-2.9,2.9c-0.8,1.4-1.2,3.3-1.2,5.8
		v16.1c0,0.4-0.1,0.7-0.3,0.9c-0.2,0.2-0.5,0.3-0.9,0.3H47.1z"/>
	<path d="M108.4,152.6c-2.7,0-5-0.6-6.9-1.7c-1.8-1.1-3.2-2.7-4.2-4.7c-1-2-1.5-4.2-1.6-6.6c0-0.6-0.1-1.4-0.1-2.4
		c0-1,0-1.8,0.1-2.4c0.1-2.5,0.6-4.7,1.6-6.6c1-2,2.4-3.5,4.2-4.6c1.8-1.1,4.1-1.7,6.9-1.7c2.7,0,5,0.6,6.9,1.7
		c1.8,1.1,3.2,2.7,4.2,4.6c1,2,1.5,4.2,1.6,6.6c0,0.6,0.1,1.4,0.1,2.4c0,1,0,1.8-0.1,2.4c-0.1,2.4-0.6,4.6-1.6,6.6
		c-1,2-2.4,3.5-4.2,4.7C113.4,152.1,111.1,152.6,108.4,152.6z M108.4,149.3c2.7,0,4.8-0.9,6.5-2.6c1.7-1.7,2.6-4.2,2.7-7.4
		c0-0.6,0.1-1.3,0.1-2.1c0-0.8,0-1.5-0.1-2.1c-0.1-3.3-1-5.7-2.7-7.4c-1.7-1.7-3.8-2.5-6.5-2.5c-2.7,0-4.8,0.8-6.5,2.5
		c-1.7,1.7-2.6,4.2-2.7,7.4c0,0.6-0.1,1.3-0.1,2.1c0,0.8,0,1.5,0.1,2.1c0.1,3.2,1,5.7,2.7,7.4C103.5,148.5,105.7,149.3,108.4,149.3z
		"/>
	<path d="M131.3,152.1c-0.4,0-0.7-0.1-0.9-0.3c-0.2-0.2-0.3-0.5-0.3-0.9v-27.1c0-0.4,0.1-0.7,0.3-0.9c0.2-0.2,0.5-0.3,0.9-0.3h1
		c0.4,0,0.7,0.1,0.9,0.3c0.2,0.2,0.3,0.5,0.3,0.9v2.7c1-1.3,2.3-2.4,3.7-3.2c1.5-0.8,3.4-1.3,5.8-1.3c2.6,0,4.7,0.6,6.5,1.7
		c1.7,1.1,3,2.6,3.9,4.6c0.9,1.9,1.3,4.1,1.3,6.5v16.2c0,0.4-0.1,0.7-0.3,0.9c-0.2,0.2-0.5,0.3-0.9,0.3h-1c-0.4,0-0.7-0.1-0.9-0.3
		c-0.2-0.2-0.3-0.5-0.3-0.9v-15.9c0-3-0.7-5.4-2.2-7.2c-1.5-1.7-3.6-2.6-6.5-2.6c-2.7,0-4.9,0.9-6.5,2.6c-1.7,1.7-2.5,4.1-2.5,7.2
		v15.9c0,0.4-0.1,0.7-0.3,0.9c-0.2,0.2-0.5,0.3-0.9,0.3H131.3z"/>
	<path fill="#03CCA8" d="M181,152.6c-2.9,0-5.4-0.4-7.6-1.1c-2.1-0.7-3.8-1.6-5.2-2.7c-1.3-1.1-2.3-2.3-3-3.6c-0.6-1.3-1-2.5-1-3.7
		c0-0.3,0.1-0.6,0.4-0.9c0.2-0.2,0.5-0.3,0.9-0.3h7.5c0.4,0,0.8,0.1,1,0.3c0.3,0.2,0.5,0.4,0.7,0.8c0.3,0.7,0.8,1.3,1.3,1.8
		c0.6,0.5,1.3,0.8,2.1,0.9c0.8,0.2,1.7,0.3,2.7,0.3c1.9,0,3.4-0.4,4.5-1.3c1.1-0.9,1.6-2.1,1.6-3.7c0-1.6-0.5-2.8-1.5-3.5
		c-1-0.7-2.5-1.1-4.4-1.1h-6.3c-0.4,0-0.8-0.1-1-0.4c-0.3-0.3-0.4-0.6-0.4-1v-3.2c0-0.5,0.1-0.9,0.3-1.2c0.2-0.3,0.4-0.6,0.6-0.7
		l9.3-7.9h-15.8c-0.4,0-0.7-0.1-1-0.4c-0.3-0.3-0.4-0.6-0.4-1v-5.4c0-0.4,0.1-0.8,0.4-1c0.3-0.3,0.6-0.4,1-0.4h26.2
		c0.4,0,0.8,0.1,1.1,0.4c0.3,0.3,0.4,0.6,0.4,1v4.8c0,0.4-0.1,0.8-0.3,1.1c-0.2,0.3-0.4,0.6-0.6,0.8l-8.7,8l0.4,0.1
		c2.2,0.3,4.2,0.8,5.8,1.7c1.7,0.9,3,2.1,4,3.7s1.5,3.7,1.5,6.1c0,2.6-0.7,4.8-2.2,6.7c-1.5,1.9-3.4,3.3-6,4.4
		C187.1,152.1,184.2,152.6,181,152.6z"/>
	<path fill="#03CCA8" d="M210.4,152.1c-0.4,0-0.7-0.1-1-0.4s-0.4-0.6-0.4-1v-20.7h-4.3c-0.4,0-0.8-0.1-1-0.4c-0.3-0.3-0.4-0.6-0.4-1
		v-4.6c0-0.4,0.1-0.8,0.4-1c0.3-0.3,0.6-0.4,1-0.4h4.3v-1.8c0-2.6,0.5-4.7,1.5-6.2s2.4-2.7,4.3-3.4c1.9-0.7,4.1-1.1,6.7-1.1h4.4
		c0.4,0,0.8,0.1,1,0.4c0.3,0.3,0.4,0.6,0.4,1v4.6c0,0.4-0.1,0.8-0.4,1c-0.3,0.3-0.6,0.4-1,0.4h-4c-1.3,0-2.2,0.3-2.7,0.9
		c-0.5,0.6-0.8,1.5-0.8,2.6v1.5h6.9c0.4,0,0.8,0.1,1,0.4c0.3,0.3,0.4,0.6,0.4,1v4.6c0,0.4-0.1,0.8-0.4,1c-0.3,0.3-0.6,0.4-1,0.4
		h-6.9v20.7c0,0.4-0.1,0.7-0.4,1c-0.3,0.3-0.6,0.4-1,0.4H210.4z"/>
	<path fill="#03CCA8" d="M244.1,152.6c-2.2,0-4.1-0.5-5.8-1.5c-1.7-1-3-2.4-4-4.4c-1-1.9-1.4-4.3-1.4-7v-15.9c0-0.4,0.1-0.8,0.4-1
		c0.3-0.3,0.6-0.4,1-0.4h7.1c0.4,0,0.8,0.1,1.1,0.4c0.3,0.3,0.4,0.6,0.4,1v15.6c0,3.7,1.7,5.6,5,5.6c1.6,0,2.8-0.5,3.7-1.5
		c0.9-1,1.4-2.3,1.4-4.1v-15.6c0-0.4,0.1-0.8,0.4-1c0.3-0.3,0.6-0.4,1-0.4h7.1c0.4,0,0.8,0.1,1,0.4c0.3,0.3,0.4,0.6,0.4,1v26.8
		c0,0.4-0.1,0.7-0.4,1c-0.3,0.3-0.6,0.4-1,0.4H255c-0.4,0-0.7-0.1-1-0.4s-0.4-0.6-0.4-1v-2.2c-1,1.4-2.3,2.4-3.8,3.1
		C248.1,152.3,246.2,152.6,244.1,152.6z"/>
	<path fill="#03CCA8" d="M284.2,152.6c-2.5,0-4.6-0.3-6.3-0.8c-1.7-0.5-3.1-1.2-4.2-2s-1.9-1.6-2.4-2.5c-0.5-0.9-0.8-1.6-0.9-2.3
		c0-0.4,0.1-0.8,0.4-1c0.3-0.3,0.6-0.4,1-0.4h6.5c0.1,0,0.2,0,0.3,0.1c0.1,0,0.2,0.1,0.3,0.2c0.5,0.3,1,0.6,1.5,1
		c0.5,0.4,1.1,0.8,1.7,1.1c0.6,0.3,1.4,0.5,2.3,0.5c1.1,0,2-0.2,2.7-0.7c0.7-0.4,1.1-1.1,1.1-1.9c0-0.6-0.2-1.1-0.5-1.5
		c-0.3-0.4-1-0.8-2.1-1.2c-1-0.4-2.6-0.8-4.7-1.1c-2-0.5-3.7-1.1-5.2-1.8c-1.5-0.7-2.6-1.7-3.4-2.9c-0.8-1.2-1.2-2.7-1.2-4.4
		c0-1.5,0.5-3,1.5-4.4c1-1.4,2.4-2.6,4.3-3.4s4.3-1.3,7.1-1.3c2.2,0,4.1,0.3,5.7,0.8c1.6,0.5,3,1.2,4.1,2c1.1,0.8,1.9,1.6,2.5,2.5
		c0.6,0.8,0.9,1.6,0.9,2.3c0,0.4-0.1,0.7-0.3,1c-0.3,0.3-0.6,0.4-0.9,0.4H290c-0.2,0-0.3,0-0.5-0.1c-0.2-0.1-0.3-0.1-0.4-0.2
		c-0.5-0.2-0.9-0.5-1.4-0.9s-1-0.7-1.6-1c-0.6-0.3-1.4-0.5-2.3-0.5c-1,0-1.8,0.2-2.4,0.7c-0.6,0.5-0.9,1-0.9,1.8
		c0,0.5,0.2,1,0.5,1.4c0.3,0.4,1,0.8,2,1.1c1,0.3,2.6,0.7,4.7,1.1c2.6,0.4,4.7,1.1,6.3,2c1.6,0.9,2.7,2,3.3,3.2c0.7,1.2,1,2.5,1,3.9
		c0,1.8-0.6,3.4-1.7,4.8c-1.1,1.4-2.7,2.5-4.8,3.3C289.9,152.3,287.3,152.6,284.2,152.6z"/>
</g>
</svg>
