<svg xmlns="http://www.w3.org/2000/svg" viewBox="0 0 87.71 13.28"><defs><style>.cls-1{fill:#00cca8;}</style></defs><g id="Ebene_2" data-name="Ebene 2"><g id="Ebene_1-2" data-name="Ebene 1"><path d="M.9,10.53A1.6,1.6,0,0,0,1.7,12a4.13,4.13,0,0,0,2.19.5A3.23,3.23,0,0,0,5.81,12a1.54,1.54,0,0,0,.69-1.31,1.28,1.28,0,0,0-.39-1,2.7,2.7,0,0,0-1-.55,13.64,13.64,0,0,0-1.53-.36A13.76,13.76,0,0,1,1.87,8.3,2.72,2.72,0,0,1,.74,7.59,1.86,1.86,0,0,1,.27,6.24a2.18,2.18,0,0,1,.9-1.81,4.26,4.26,0,0,1,2.66-.71,4.27,4.27,0,0,1,1.91.38,2.7,2.7,0,0,1,1.11,1A2.21,2.21,0,0,1,7.2,6.21l0,.25h-.9V6.23A1.66,1.66,0,0,0,5.77,5.1a2.94,2.94,0,0,0-2.1-.55,2.82,2.82,0,0,0-2,.52,1.69,1.69,0,0,0-.47,1.14,1.06,1.06,0,0,0,.36.84,2.31,2.31,0,0,0,.9.5c.36.11.85.24,1.49.37a15.17,15.17,0,0,1,1.8.47,2.91,2.91,0,0,1,1.19.73,1.89,1.89,0,0,1,.48,1.35,2.37,2.37,0,0,1-1,2.14,4.93,4.93,0,0,1-2.75.67,4.84,4.84,0,0,1-2.13-.41,2.76,2.76,0,0,1-1.17-1A2.3,2.3,0,0,1,0,10.73a2.83,2.83,0,0,1,0-.33.84.84,0,0,1,0-.12h.9A1.47,1.47,0,0,0,.9,10.53Z"/><path d="M10.26.14h1.06v1H10.26Zm.07,13V3.91h.92V13.1Z"/><path d="M26.25,4.6a3.5,3.5,0,0,1,.87,2.58V13.1H26.2V7.45c0-1.93-.75-2.9-2.25-2.9a2.18,2.18,0,0,0-1.76.83,3.12,3.12,0,0,0-.69,2.07V13.1h-.91V7.45c0-1.93-.75-2.9-2.25-2.9a2.21,2.21,0,0,0-1.77.83,3.16,3.16,0,0,0-.68,2.07V13.1H15V3.91h.61l.22,1.36a3,3,0,0,1,2.61-1.55,3.47,3.47,0,0,1,1.65.4,2.64,2.64,0,0,1,1.12,1.17,3.31,3.31,0,0,1,1.14-1.12A3.34,3.34,0,0,1,24,3.72,3,3,0,0,1,26.25,4.6Z"/><path d="M31.89,12.73a3.66,3.66,0,0,1-1.38-1.59A5.81,5.81,0,0,1,30,8.64V8.37a5.78,5.78,0,0,1,.49-2.5,3.68,3.68,0,0,1,1.38-1.6,4,4,0,0,1,4,0,3.66,3.66,0,0,1,1.37,1.6,5.77,5.77,0,0,1,.5,2.5v.27a5.81,5.81,0,0,1-.5,2.5,3.64,3.64,0,0,1-1.37,1.59,4,4,0,0,1-4,0ZM36,11.5a4,4,0,0,0,.83-2.75V8.26A4,4,0,0,0,36,5.51a2.87,2.87,0,0,0-4.28,0,4.07,4.07,0,0,0-.83,2.75v.49a4.09,4.09,0,0,0,.83,2.75,2.89,2.89,0,0,0,4.28,0Z"/><path d="M47.24,7.45a3.09,3.09,0,0,0-.68-2.18,2.5,2.5,0,0,0-1.91-.72,2.82,2.82,0,0,0-1.44.38,2.68,2.68,0,0,0-1,1,3,3,0,0,0-.37,1.48V13.1H40.9V3.91h.61l.2,1.36A3.23,3.23,0,0,1,43,4.14a3.73,3.73,0,0,1,1.74-.42,3.49,3.49,0,0,1,2.45.88,3.34,3.34,0,0,1,1,2.58V13.1h-.9Z"/><path class="cls-1" d="M53.21,9.41c0,1.15.71,1.73,2.12,1.73A2.62,2.62,0,0,0,57,10.71a1.53,1.53,0,0,0,.57-1.3A1.32,1.32,0,0,0,56.9,8.1a3.65,3.65,0,0,0-1.69-.33h-1.3V5.85h1.48a2.06,2.06,0,0,0,1.33-.42,1.4,1.4,0,0,0,.52-1.18,1.31,1.31,0,0,0-.55-1.15,2.35,2.35,0,0,0-1.36-.38A2.08,2.08,0,0,0,54,3.14a1.4,1.4,0,0,0-.54,1.18H51.09V3.94a2.92,2.92,0,0,1,.55-1.73A3.61,3.61,0,0,1,53.16,1,5.31,5.31,0,0,1,55.37.58h.34A5.06,5.06,0,0,1,57.86,1,3.62,3.62,0,0,1,59.35,2.2a2.93,2.93,0,0,1,.54,1.72,2.77,2.77,0,0,1-.5,1.66,3.24,3.24,0,0,1-1.34,1.06v.09a3.29,3.29,0,0,1,1.59,1.11,3.11,3.11,0,0,1,.57,1.91,3.06,3.06,0,0,1-.56,1.82,3.61,3.61,0,0,1-1.57,1.26,5.83,5.83,0,0,1-2.37.45h-.48a5.74,5.74,0,0,1-2.42-.47,3.51,3.51,0,0,1-1.54-1.28,3.4,3.4,0,0,1-.52-1.87V9.41Z"/><path class="cls-1" d="M66.82,1.84a3.36,3.36,0,0,0-.54-.06,1.15,1.15,0,0,0-.73.22,1,1,0,0,0-.3.86V3.91h2.14V5.7H65.25v7.4H62.62V5.7H61.54V3.91h1.08V2.7c0-1.8.93-2.7,2.77-2.7a6.25,6.25,0,0,1,1,.11,4.06,4.06,0,0,1,1,.27V2C67.24,1.93,67,1.89,66.82,1.84Z"/><path class="cls-1" d="M77.34,11.35a.55.55,0,0,0,.36.13,1.25,1.25,0,0,0,.4-.07l.34-.13V12.9a3.16,3.16,0,0,1-1.58.38c-1.2,0-1.9-.44-2.09-1.31A3.55,3.55,0,0,1,72,13.28a3.44,3.44,0,0,1-2.31-.76,2.66,2.66,0,0,1-.91-2.19V3.91H71.4V9.75a1.68,1.68,0,0,0,.41,1.16,1.3,1.3,0,0,0,1,.46,1.59,1.59,0,0,0,1.21-.53,1.76,1.76,0,0,0,.5-1.28V3.91h2.63v7A.5.5,0,0,0,77.34,11.35Z"/><path class="cls-1" d="M81.48,10.29a1,1,0,0,0,.56.91,3,3,0,0,0,1.39.28,3.47,3.47,0,0,0,1.28-.22c.38-.14.57-.37.57-.68a.76.76,0,0,0-.52-.72,7.77,7.77,0,0,0-1.62-.38,13.58,13.58,0,0,1-1.89-.43A2.78,2.78,0,0,1,80,8.24a2.24,2.24,0,0,1-.53-1.6A2.39,2.39,0,0,1,80,5.05a3.3,3.3,0,0,1,1.45-1,5.81,5.81,0,0,1,2-.34h.36A5.18,5.18,0,0,1,85.61,4,3.46,3.46,0,0,1,87,4.92a1.85,1.85,0,0,1,.52,1.29,2.11,2.11,0,0,1,0,.26c0,.08,0,.12,0,.13h-2.3q0-1.08-1.65-1.08a3,3,0,0,0-1.22.22.63.63,0,0,0,0,1.22,8.75,8.75,0,0,0,1.55.35,15.67,15.67,0,0,1,2,.42,3,3,0,0,1,1.3.81,2.3,2.3,0,0,1,.56,1.65,2.59,2.59,0,0,1-1.15,2.36,5.39,5.39,0,0,1-2.94.73H83a5.48,5.48,0,0,1-2-.34,3.16,3.16,0,0,1-1.38-1,2.26,2.26,0,0,1-.49-1.44l0-.36h2.3Z"/></g></g></svg>