<?xml version="1.0" encoding="utf-8"?>
<!-- Generator: Adobe Illustrator 18.0.0, SVG Export Plug-In . SVG Version: 6.00 Build 0)  -->
<!DOCTYPE svg PUBLIC "-//W3C//DTD SVG 1.1//EN" "http://www.w3.org/Graphics/SVG/1.1/DTD/svg11.dtd">
<svg version="1.1" id="Ebene_1" xmlns="http://www.w3.org/2000/svg" xmlns:xlink="http://www.w3.org/1999/xlink" x="0px" y="0px"
	 viewBox="0 503 1920 279" enable-background="new 0 503 1920 279" xml:space="preserve">
<g>
	<path d="M76.8,780.1c-12.8,0-23.7-1.9-32.6-5.1s-16.6-7.7-22.4-12.2S11.5,753.2,9,748.7s-4.5-8.3-4.5-10.9s0.6-4.5,2.6-5.8
		s3.8-1.9,5.8-1.9h5.8c1.3,0,2.6,0,3.8,0.6c1.3,0.6,2.6,1.9,4.5,3.8c3.2,3.8,7,8.3,10.9,12.2c3.8,3.8,9.6,7,16,9
		c6.4,1.9,14.7,3.2,24.3,3.2c14.7,0,26.9-2.6,35.8-8.3s14.1-14.1,14.1-25c0-7-1.9-12.2-5.8-16.6c-3.8-3.8-10.2-7.7-19.2-10.9
		s-21.1-6.4-36.5-9.6c-15.4-3.8-26.9-8.3-35.2-13.4c-8.3-5.1-13.4-10.9-16.6-17.9c-3.2-6.4-4.5-14.1-4.5-21.8c0-8.3,2.6-16.6,7-25
		c5.1-8.3,12.2-14.7,21.8-19.8s21.8-7.7,36.5-7.7c12.2,0,21.8,1.3,30.7,4.5s15.4,7,20.5,11.5c5.1,4.5,9.6,9,12.2,13.4
		s3.8,7.7,4.5,10.9c0,2.6-0.6,4.5-1.9,5.8c-1.9,1.3-3.8,1.9-5.8,1.9H130c-1.9,0-3.8-0.6-4.5-1.3c-1.3-0.6-2.6-1.9-3.2-3.2
		c-2.6-3.8-5.1-7.7-9-10.9c-3.2-3.2-7.7-6.4-13.4-8.3c-5.8-1.9-13.4-3.2-23-3.2c-14.7,0-25.6,3.2-32.6,9s-10.9,13.4-10.9,23
		c0,5.1,1.3,10.2,4.5,14.1c3.2,3.8,8.3,7.7,16.6,10.9s19.8,7,35.2,10.2s28.2,7.7,37.1,12.8c9,5.1,15.4,10.9,19.2,17.9
		s5.8,14.7,5.8,24.3s-2.6,18.6-8.3,26.9c-5.8,8.3-13.4,14.7-24.3,19.8C106.2,778.2,92.8,780.1,76.8,780.1z"/>
	<path d="M209.3,547.8c-2.6,0-4.5-0.6-5.8-1.9c-1.3-1.3-1.9-3.2-1.9-5.8V526c0-2.6,0.6-4.5,1.9-5.8c1.3-1.3,3.2-2.6,5.8-2.6h14.1
		c2.6,0,4.5,0.6,5.8,2.6c1.3,1.3,2.6,3.8,2.6,5.8v14.1c0,2.6-0.6,4.5-2.6,5.8c-1.3,1.3-3.8,1.9-5.8,1.9H209.3z M213.1,776.9
		c-2.6,0-4.5-0.6-5.8-1.9c-1.3-1.3-1.9-3.2-1.9-5.8V595.8c0-2.6,0.6-4.5,1.9-5.8c1.3-1.3,3.2-1.9,5.8-1.9h6.4c2.6,0,4.5,0.6,5.8,1.9
		c1.3,1.3,1.9,3.2,1.9,5.8v173.4c0,2.6-0.6,4.5-1.9,5.8c-1.3,1.3-3.2,1.9-5.8,1.9L213.1,776.9L213.1,776.9z"/>
	<path d="M301.4,776.9c-2.6,0-4.5-0.6-5.8-1.9s-1.9-3.2-1.9-5.8V595.8c0-2.6,0.6-4.5,1.9-5.8s3.2-1.9,5.8-1.9h6.4
		c2.6,0,4.5,0.6,5.8,1.9c1.3,1.3,1.9,3.2,1.9,5.8v12.8c5.8-7.7,13.4-14.1,21.8-17.9c8.3-4.5,18.6-6.4,30.7-6.4
		c27.5,0,46.7,11.5,58.2,34.6c5.8-10.2,14.1-18.6,24.3-25c10.9-6.4,23-9.6,37.1-9.6c12.8,0,24.3,3.2,34.6,9s18.6,14.7,24.3,26.2
		c5.8,11.5,9,26.2,9,43.5v106.2c0,2.6-0.6,4.5-1.9,5.8c-1.3,1.3-3.2,1.9-5.8,1.9h-6.4c-2.6,0-4.5-0.6-5.8-1.9
		c-1.3-1.3-1.9-3.2-1.9-5.8V666.8c0-16-2.6-28.8-7-37.1c-4.5-9-10.9-15.4-17.9-18.6c-7.7-3.8-16-5.8-24.3-5.8
		c-7,0-14.7,1.9-22.4,5.8c-7.7,3.8-14.1,9.6-18.6,18.6c-5.1,9-7.7,21.1-7.7,37.1v102.4c0,2.6-0.6,4.5-1.9,5.8s-3.2,1.9-5.8,1.9h-6.4
		c-2.6,0-4.5-0.6-5.8-1.9c-1.3-1.3-1.9-3.2-1.9-5.8V666.8c0-16-2.6-28.8-7-37.1c-5.1-9-10.9-15.4-18.6-18.6
		c-7.7-3.8-15.4-5.8-23.7-5.8c-7,0-14.7,1.9-22.4,5.8c-7.7,3.8-14.1,9.6-18.6,18.6c-5.1,9-7.7,21.1-7.7,37.1v103
		c0,2.6-0.6,4.5-1.9,5.8s-3.2,1.9-5.8,1.9h-7v-0.6H301.4z"/>
	<path d="M693.8,780.1c-17.3,0-32-3.8-44.2-10.9c-11.5-7-20.5-17.3-26.9-30.1s-9.6-26.9-10.2-42.2c0-3.8-0.6-9-0.6-15.4
		s0-11.5,0.6-15.4c0.6-16,3.8-30.1,10.2-42.2c6.4-12.8,15.4-22.4,26.9-29.4s26.2-10.9,44.2-10.9c17.3,0,32,3.8,44.2,10.9
		c11.5,7,20.5,17.3,26.9,29.4c6.4,12.8,9.6,26.9,10.2,42.2c0,3.8,0.6,9,0.6,15.4s0,11.5-0.6,15.4c-0.6,15.4-3.8,29.4-10.2,42.2
		s-15.4,22.4-26.9,30.1C725.8,776.9,711,780.1,693.8,780.1z M693.8,759c17.3,0,30.7-5.8,41.6-16.6c10.9-10.9,16.6-26.9,17.3-47.4
		c0-3.8,0.6-8.3,0.6-13.4c0-5.1,0-9.6-0.6-13.4c-0.6-21.1-6.4-36.5-17.3-47.4c-10.9-10.9-24.3-16-41.6-16s-30.7,5.1-41.6,16
		c-10.9,10.9-16.6,26.9-17.3,47.4c0,3.8-0.6,8.3-0.6,13.4c0,5.1,0,9.6,0.6,13.4c0.6,20.5,6.4,36.5,17.3,47.4
		C662.4,753.8,676.5,759,693.8,759z"/>
	<path d="M840.3,776.9c-2.6,0-4.5-0.6-5.8-1.9s-1.9-3.2-1.9-5.8V595.8c0-2.6,0.6-4.5,1.9-5.8s3.2-1.9,5.8-1.9h6.4
		c2.6,0,4.5,0.6,5.8,1.9c1.3,1.3,1.9,3.2,1.9,5.8V613c6.4-8.3,14.7-15.4,23.7-20.5c9.6-5.1,21.8-8.3,37.1-8.3
		c16.6,0,30.1,3.8,41.6,10.9c10.9,7,19.2,16.6,25,29.4c5.8,12.2,8.3,26.2,8.3,41.6v103.7c0,2.6-0.6,4.5-1.9,5.8
		c-1.3,1.3-3.2,1.9-5.8,1.9H976c-2.6,0-4.5-0.6-5.8-1.9c-1.3-1.3-1.9-3.2-1.9-5.8V668.1c0-19.2-4.5-34.6-14.1-46.1
		c-9.6-10.9-23-16.6-41.6-16.6c-17.3,0-31.4,5.8-41.6,16.6c-10.9,10.9-16,26.2-16,46.1v101.8c0,2.6-0.6,4.5-1.9,5.8
		c-1.3,1.3-3.2,1.9-5.8,1.9h-7L840.3,776.9L840.3,776.9z"/>
	<path fill="#03CCA8" d="M1156.4,780.1c-18.6,0-34.6-2.6-48.6-7c-13.4-4.5-24.3-10.2-33.3-17.3c-8.3-7-14.7-14.7-19.2-23
		c-3.8-8.3-6.4-16-6.4-23.7c0-1.9,0.6-3.8,2.6-5.8c1.3-1.3,3.2-1.9,5.8-1.9h48c2.6,0,5.1,0.6,6.4,1.9c1.9,1.3,3.2,2.6,4.5,5.1
		c1.9,4.5,5.1,8.3,8.3,11.5c3.8,3.2,8.3,5.1,13.4,5.8c5.1,1.3,10.9,1.9,17.3,1.9c12.2,0,21.8-2.6,28.8-8.3
		c7-5.8,10.2-13.4,10.2-23.7c0-10.2-3.2-17.9-9.6-22.4s-16-7-28.2-7h-40.3c-2.6,0-5.1-0.6-6.4-2.6c-1.9-1.9-2.6-3.8-2.6-6.4v-20.5
		c0-3.2,0.6-5.8,1.9-7.7s2.6-3.8,3.8-4.5l59.5-50.6h-101.1c-2.6,0-4.5-0.6-6.4-2.6c-1.9-1.9-2.6-3.8-2.6-6.4v-34.6
		c0-2.6,0.6-5.1,2.6-6.4c1.9-1.9,3.8-2.6,6.4-2.6H1239c2.6,0,5.1,0.6,7,2.6c1.9,1.9,2.6,3.8,2.6,6.4V561c0,2.6-0.6,5.1-1.9,7
		s-2.6,3.8-3.8,5.1l-55.7,51.2l2.6,0.6c14.1,1.9,26.9,5.1,37.1,10.9c10.9,5.8,19.2,13.4,25.6,23.7c6.4,10.2,9.6,23.7,9.6,39
		c0,16.6-4.5,30.7-14.1,42.9s-21.8,21.1-38.4,28.2C1195.4,776.9,1176.9,780.1,1156.4,780.1z"/>
	<path fill="#03CCA8" d="M1326.6,776.9c-2.6,0-4.5-0.6-6.4-2.6c-1.9-1.9-2.6-3.8-2.6-6.4V635.4h-27.5c-2.6,0-5.1-0.6-6.4-2.6
		c-1.9-1.9-2.6-3.8-2.6-6.4V597c0-2.6,0.6-5.1,2.6-6.4c1.9-1.9,3.8-2.6,6.4-2.6h27.5v-11.5c0-16.6,3.2-30.1,9.6-39.7
		c6.4-9.6,15.4-17.3,27.5-21.8c12.2-4.5,26.2-7,42.9-7h28.2c2.6,0,5.1,0.6,6.4,2.6c1.9,1.9,2.6,3.8,2.6,6.4v29.4
		c0,2.6-0.6,5.1-2.6,6.4c-1.9,1.9-3.8,2.6-6.4,2.6h-25.6c-8.3,0-14.1,1.9-17.3,5.8s-5.1,9.6-5.1,16.6v9.6h44.2
		c2.6,0,5.1,0.6,6.4,2.6c1.9,1.9,2.6,3.8,2.6,6.4v29.4c0,2.6-0.6,5.1-2.6,6.4c-1.9,1.9-3.8,2.6-6.4,2.6h-44.2v132.5
		c0,2.6-0.6,4.5-2.6,6.4c-1.9,1.9-3.8,2.6-6.4,2.6h-42.2V776.9z"/>
	<path fill="#03CCA8" d="M1535.2,780.1c-14.1,0-26.2-3.2-37.1-9.6c-10.9-6.4-19.2-15.4-25.6-28.2c-6.4-12.2-9-27.5-9-44.8V595.8
		c0-2.6,0.6-5.1,2.6-6.4c1.9-1.9,3.8-2.6,6.4-2.6h45.4c2.6,0,5.1,0.6,7,2.6s2.6,3.8,2.6,6.4v99.8c0,23.7,10.9,35.8,32,35.8
		c10.2,0,17.9-3.2,23.7-9.6c5.8-6.4,9-14.7,9-26.2v-99.8c0-2.6,0.6-5.1,2.6-6.4c1.9-1.9,3.8-2.6,6.4-2.6h45.4c2.6,0,5.1,0.6,6.4,2.6
		c1.9,1.9,2.6,3.8,2.6,6.4v171.5c0,2.6-0.6,4.5-2.6,6.4c-1.9,1.9-3.8,2.6-6.4,2.6H1605c-2.6,0-4.5-0.6-6.4-2.6
		c-1.9-1.9-2.6-3.8-2.6-6.4v-14.1c-6.4,9-14.7,15.4-24.3,19.8C1560.8,778.2,1548.7,780.1,1535.2,780.1z"/>
	<path fill="#03CCA8" d="M1782.9,780.1c-16,0-29.4-1.9-40.3-5.1c-10.9-3.2-19.8-7.7-26.9-12.8c-7-5.1-12.2-10.2-15.4-16
		c-3.2-5.8-5.1-10.2-5.8-14.7c0-2.6,0.6-5.1,2.6-6.4c1.9-1.9,3.8-2.6,6.4-2.6h41.6c0.6,0,1.3,0,1.9,0.6c0.6,0,1.3,0.6,1.9,1.3
		c3.2,1.9,6.4,3.8,9.6,6.4c3.2,2.6,7,5.1,10.9,7s9,3.2,14.7,3.2c7,0,12.8-1.3,17.3-4.5c4.5-2.6,7-7,7-12.2c0-3.8-1.3-7-3.2-9.6
		c-1.9-2.6-6.4-5.1-13.4-7.7c-6.4-2.6-16.6-5.1-30.1-7c-12.8-3.2-23.7-7-33.3-11.5c-9.6-4.5-16.6-10.9-21.8-18.6
		c-5.1-7.7-7.7-17.3-7.7-28.2c0-9.6,3.2-19.2,9.6-28.2s15.4-16.6,27.5-21.8c12.2-5.1,27.5-8.3,45.4-8.3c14.1,0,26.2,1.9,36.5,5.1
		c10.2,3.2,19.2,7.7,26.2,12.8s12.2,10.2,16,16c3.8,5.1,5.8,10.2,5.8,14.7c0,2.6-0.6,4.5-1.9,6.4c-1.9,1.9-3.8,2.6-5.8,2.6H1820
		c-1.3,0-1.9,0-3.2-0.6c-1.3-0.6-1.9-0.6-2.6-1.3c-3.2-1.3-5.8-3.2-9-5.8s-6.4-4.5-10.2-6.4c-3.8-1.9-9-3.2-14.7-3.2
		c-6.4,0-11.5,1.3-15.4,4.5c-3.8,3.2-5.8,6.4-5.8,11.5c0,3.2,1.3,6.4,3.2,9s6.4,5.1,12.8,7s16.6,4.5,30.1,7
		c16.6,2.6,30.1,7,40.3,12.8c10.2,5.8,17.3,12.8,21.1,20.5c4.5,7.7,6.4,16,6.4,25c0,11.5-3.8,21.8-10.9,30.7c-7,9-17.3,16-30.7,21.1
		C1819.4,778.2,1802.7,780.1,1782.9,780.1z"/>
</g>
</svg>
