<?xml version="1.0" encoding="utf-8"?>
<!-- Generator: Adobe Illustrator 18.0.0, SVG Export Plug-In . SVG Version: 6.00 Build 0)  -->
<!DOCTYPE svg PUBLIC "-//W3C//DTD SVG 1.1//EN" "http://www.w3.org/Graphics/SVG/1.1/DTD/svg11.dtd">
<svg version="1.1" id="Ebene_1" xmlns="http://www.w3.org/2000/svg" xmlns:xlink="http://www.w3.org/1999/xlink" x="0px" y="0px"
	 viewBox="0 0 300 300" enable-background="new 0 0 300 300" xml:space="preserve">
<g>
	<path fill="#03CCA8" d="M88.7,49.7c-2.3,1.4-4.4,2.3-6.3,2.6c-1.9,0.3-3.5,0.2-4.9-0.4c-1.4-0.6-2.5-1.4-3.2-2.5
		c-0.1-0.2-0.1-0.4-0.1-0.6c0.1-0.2,0.2-0.4,0.4-0.5l6-3.7c0.3-0.2,0.6-0.3,0.9-0.3c0.2,0,0.5,0,0.8,0c0.3,0,0.6,0,0.9,0
		c0.3,0,0.6-0.1,0.9-0.2c0.3-0.1,0.6-0.3,1-0.5c0.7-0.4,1.2-0.9,1.6-1.3c0.3-0.4,0.4-0.8,0.2-1c-0.2-0.3-0.4-0.4-0.8-0.4
		s-0.9,0.1-1.5,0.3c-0.7,0.2-1.6,0.6-2.7,1.1c-1.8,0.8-3.5,1.3-5,1.5s-3,0-4.2-0.5s-2.3-1.5-3.2-2.9c-0.9-1.4-1.3-2.9-1.1-4.5
		s0.7-3.1,1.8-4.6c1.1-1.5,2.6-2.8,4.5-4c1.6-1,3.1-1.6,4.6-2c1.5-0.3,2.8-0.4,4.1-0.3c1.2,0.1,2.3,0.5,3.2,0.9
		c0.9,0.5,1.6,1.1,2,1.7c0.1,0.2,0.1,0.4,0.1,0.6c-0.1,0.2-0.2,0.4-0.3,0.5l-6.3,3.9c-0.3,0.2-0.6,0.3-0.8,0.3c-0.2,0-0.5,0-0.8,0
		c-0.2,0-0.4,0-0.8,0c-0.4,0-0.8,0.2-1.2,0.5c-0.5,0.3-0.9,0.6-1,0.9c-0.1,0.3-0.1,0.6,0,0.9c0.1,0.2,0.3,0.3,0.6,0.4
		c0.3,0.1,0.7,0,1.3-0.2c0.6-0.2,1.4-0.5,2.4-1c2.3-1,4.2-1.7,5.8-1.9c1.6-0.2,3-0.1,4.1,0.5c1.1,0.6,2.1,1.5,3,2.9
		c0.9,1.5,1.3,3.1,1.1,4.8s-0.9,3.3-2.2,4.9S90.7,48.5,88.7,49.7z"/>
	<path fill="#03CCA8" d="M111.1,39c-1.8,0.6-3.5,0.9-5.1,0.8s-3.1-0.6-4.4-1.5c-1.3-0.9-2.3-2.2-3-3.8c-0.2-0.4-0.3-0.8-0.5-1.4
		c-0.2-0.6-0.4-1-0.5-1.4c-0.5-1.8-0.5-3.4-0.1-4.9c0.5-1.5,1.3-2.8,2.5-4c1.2-1.1,2.7-2,4.5-2.6c1.8-0.6,3.5-0.9,5-0.9
		c1.5,0.1,2.7,0.3,3.8,0.8c1.1,0.5,1.9,1,2.6,1.6c0.6,0.6,1.1,1.1,1.2,1.6c0.1,0.2,0.1,0.5,0,0.8c-0.1,0.3-0.3,0.4-0.6,0.5l-6.8,2.4
		c-0.3,0.1-0.5,0.1-0.7,0c-0.2-0.1-0.4-0.2-0.6-0.4c-0.3-0.3-0.5-0.5-0.8-0.6s-0.5-0.1-0.9,0c-0.5,0.2-0.8,0.5-0.9,1
		c0,0.5,0,1,0.3,1.8c0.3,1,0.6,1.8,0.9,2.5c0.3,0.7,0.6,1.2,0.9,1.5c0.3,0.3,0.7,0.4,1.3,0.2c0.4-0.1,0.7-0.3,0.8-0.6
		c0.1-0.2,0.1-0.5,0.2-0.9c0-0.2,0.1-0.5,0.2-0.6c0.1-0.2,0.3-0.3,0.6-0.4l6.8-2.4c0.3-0.1,0.5-0.1,0.8,0c0.3,0.1,0.4,0.3,0.5,0.6
		c0.1,0.3,0.1,0.8,0.1,1.4c0,0.6-0.2,1.3-0.4,2.1s-0.7,1.6-1.3,2.5c-0.6,0.8-1.4,1.7-2.4,2.4C113.9,37.8,112.6,38.5,111.1,39z"/>
	<path fill="#03CCA8" d="M125.1,34.2c-0.3,0-0.5,0-0.7-0.2c-0.2-0.2-0.3-0.4-0.4-0.7l-3.1-24.1c0-0.3,0-0.5,0.2-0.7s0.4-0.3,0.7-0.4
		l7.2-0.9c0.3,0,0.5,0,0.7,0.2c0.2,0.2,0.3,0.4,0.4,0.7l1,7.9c0.5-0.8,1.3-1.5,2.2-2c0.9-0.5,2-0.9,3.1-1c1.2-0.2,2.5,0,3.7,0.4
		c1.2,0.4,2.2,1.2,3.1,2.4s1.4,2.7,1.7,4.6l1.3,10.1c0,0.3,0,0.5-0.2,0.7c-0.2,0.2-0.4,0.3-0.7,0.4l-7.2,0.9c-0.3,0-0.5,0-0.7-0.2
		s-0.3-0.4-0.4-0.7l-1.3-9.9c-0.1-0.7-0.3-1.1-0.7-1.4c-0.4-0.3-0.8-0.4-1.4-0.3c-0.6,0.1-1,0.3-1.3,0.7c-0.3,0.4-0.4,0.9-0.3,1.6
		l1.3,9.9c0,0.3,0,0.5-0.2,0.7c-0.2,0.2-0.4,0.3-0.7,0.4L125.1,34.2z"/>
	<path fill="#03CCA8" d="M151,31.8c-0.3,0-0.5-0.1-0.7-0.3c-0.2-0.2-0.3-0.5-0.2-0.7l1.1-17.2c0-0.3,0.1-0.5,0.3-0.7
		c0.2-0.2,0.5-0.3,0.7-0.2l6.5,0.4c0.3,0,0.5,0.1,0.7,0.3s0.3,0.5,0.2,0.7l-0.1,1.3c0.8-0.6,1.8-1.1,2.8-1.5s2.1-0.5,3.2-0.4
		l1.8,0.1c0.3,0,0.5,0.1,0.7,0.3c0.2,0.2,0.3,0.5,0.2,0.7l-0.4,5.8c0,0.3-0.1,0.5-0.3,0.7c-0.2,0.2-0.5,0.3-0.7,0.2l-4.8-0.3
		c-0.7,0-1.3,0.1-1.7,0.4c-0.4,0.3-0.6,0.9-0.7,1.6l-0.5,8.2c0,0.3-0.1,0.5-0.3,0.7c-0.2,0.2-0.4,0.3-0.7,0.2L151,31.8z"/>
	<path fill="#03CCA8" d="M179.4,36.1c-3.1-0.8-5.4-2.2-6.9-4.2c-1.5-2-1.8-4.7-0.9-8c0,0,0-0.1,0-0.1c0,0,0-0.1,0-0.1
		c0.6-2,1.5-3.7,2.7-4.8c1.2-1.2,2.7-1.9,4.4-2.3s3.6-0.2,5.6,0.3c2.3,0.6,4.1,1.5,5.4,2.8c1.3,1.3,2.1,2.8,2.4,4.4
		c0.3,1.7,0.3,3.4-0.2,5.1l-0.3,1.1c-0.1,0.3-0.2,0.5-0.5,0.6c-0.2,0.1-0.5,0.2-0.8,0.1l-10.7-2.7c0,0,0,0,0,0.1c0,0,0,0.1,0,0.1
		c-0.1,0.5-0.2,0.9-0.2,1.2c0,0.3,0.1,0.6,0.3,0.8s0.4,0.4,0.8,0.5c0.1,0,0.3,0,0.4,0s0.2-0.1,0.4-0.2c0.1-0.1,0.3-0.2,0.4-0.3
		c0.3-0.2,0.5-0.3,0.6-0.3c0.2,0,0.4,0,0.7,0.1l6.8,1.7c0.2,0.1,0.4,0.2,0.5,0.4c0.1,0.2,0.1,0.4,0,0.6c-0.1,0.4-0.5,0.9-1,1.5
		c-0.6,0.5-1.3,1-2.2,1.4c-0.9,0.4-2.1,0.6-3.4,0.7C182.5,36.7,181,36.5,179.4,36.1z M181,23.7l2.9,0.7l0,0c0.1-0.5,0.2-1,0.2-1.3
		c0-0.4-0.1-0.6-0.3-0.9c-0.2-0.2-0.4-0.4-0.7-0.4c-0.3-0.1-0.6-0.1-0.8,0c-0.3,0.1-0.5,0.3-0.7,0.6S181.1,23.1,181,23.7L181,23.7z"
		/>
	<path fill="#03CCA8" d="M193.7,40.4c-0.2-0.1-0.4-0.3-0.5-0.6c-0.1-0.3-0.1-0.5,0-0.8l6.9-15.8c0.1-0.2,0.3-0.4,0.6-0.5
		s0.5-0.1,0.8,0l6.1,2.6c0.2,0.1,0.4,0.3,0.5,0.6s0.1,0.5,0,0.8l-6.9,15.8c-0.1,0.2-0.3,0.4-0.6,0.5c-0.3,0.1-0.5,0.1-0.8,0
		L193.7,40.4z M202.3,20.9c-0.2-0.1-0.4-0.3-0.5-0.6s-0.1-0.5,0-0.8l1.8-4.1c0.1-0.2,0.3-0.4,0.6-0.5c0.3-0.1,0.5-0.1,0.8,0l5.7,2.5
		c0.2,0.1,0.4,0.3,0.5,0.6c0.1,0.3,0.1,0.5,0,0.8l-1.8,4.1c-0.1,0.2-0.3,0.4-0.6,0.5s-0.5,0.1-0.8,0L202.3,20.9z"/>
	<path fill="#03CCA8" d="M216,52.7c-1.1-0.7-1.9-1.5-2.4-2.3c-0.5-0.8-0.9-1.7-1-2.6l-0.5,0.7c-0.1,0.2-0.4,0.4-0.6,0.4
		c-0.3,0.1-0.5,0-0.8-0.1l-5.3-3.4c-0.2-0.1-0.4-0.4-0.4-0.6c-0.1-0.3,0-0.5,0.1-0.8l13.1-20.4c0.1-0.2,0.4-0.4,0.6-0.4
		c0.3-0.1,0.5,0,0.8,0.1l5.8,3.7c0.2,0.1,0.4,0.4,0.4,0.6c0.1,0.3,0,0.5-0.1,0.8l-4,6.2c0.8-0.1,1.6-0.1,2.5,0.1
		c0.9,0.2,1.7,0.6,2.6,1.1c0.9,0.6,1.7,1.3,2.3,2.1c0.6,0.8,1,1.7,1.2,2.6c0.2,1,0.2,2,0,3.1c-0.2,1.1-0.7,2.3-1.5,3.6
		c-0.3,0.5-0.5,0.9-0.8,1.2s-0.5,0.8-0.8,1.2c-0.9,1.3-1.8,2.2-2.8,2.9c-0.9,0.7-1.9,1.1-2.8,1.3c-1,0.2-1.9,0.2-2.8-0.1
		C217.8,53.7,216.9,53.3,216,52.7z M217,45.5c0.4,0.3,0.7,0.4,1,0.4s0.6-0.1,0.9-0.3c0.3-0.2,0.5-0.5,0.8-0.8
		c0.5-0.6,0.9-1.3,1.3-2.1c0.2-0.4,0.3-0.8,0.4-1.1c0.1-0.3,0.1-0.6,0-0.9c-0.1-0.3-0.4-0.5-0.8-0.8c-0.4-0.2-0.7-0.3-1-0.4
		c-0.3,0-0.6,0.1-0.8,0.2c-0.3,0.2-0.5,0.4-0.7,0.7c-0.3,0.4-0.6,0.8-0.8,1.1c-0.2,0.3-0.4,0.7-0.7,1.2c-0.2,0.4-0.4,0.7-0.5,1.1
		c-0.1,0.3-0.1,0.6,0.1,0.9C216.4,45,216.6,45.2,217,45.5z"/>
	<path fill="#03CCA8" d="M232.5,64.6c-0.2-0.2-0.2-0.5-0.2-0.7c0-0.3,0.2-0.5,0.4-0.7l13.5-10.8c0.2-0.2,0.5-0.2,0.7-0.2
		c0.3,0,0.5,0.2,0.7,0.4l3.8,4.8c0.2,0.2,0.2,0.5,0.2,0.7c0,0.3-0.2,0.5-0.4,0.7l-1,0.8c0.7,0,1.6,0.1,2.6,0.5c1,0.4,1.9,1,2.7,1.9
		c1.9,2.2,2.3,4.4,1.3,6.5c1-0.1,2.1,0.1,3.2,0.5c1.1,0.4,2,1.1,2.7,2c0.8,1,1.3,2,1.5,3.2c0.2,1.2,0,2.3-0.5,3.6
		c-0.6,1.2-1.6,2.5-3.1,3.7l-8.1,6.5c-0.2,0.2-0.5,0.2-0.7,0.2c-0.3,0-0.5-0.2-0.7-0.4l-4.1-5.1c-0.2-0.2-0.2-0.5-0.2-0.7
		c0-0.3,0.2-0.5,0.4-0.7l7.9-6.4c0.3-0.2,0.5-0.5,0.7-0.8c0.1-0.3,0.2-0.5,0.2-0.8c0-0.2-0.1-0.5-0.3-0.7c-0.2-0.2-0.4-0.4-0.6-0.5
		c-0.2-0.1-0.5-0.1-0.8,0s-0.6,0.2-0.9,0.5l-7.9,6.4c-0.2,0.2-0.5,0.2-0.7,0.2c-0.3,0-0.5-0.2-0.7-0.4l-4.1-5.1
		c-0.2-0.2-0.2-0.5-0.2-0.7c0-0.3,0.2-0.5,0.4-0.7l7.9-6.4c0.3-0.2,0.5-0.5,0.7-0.8c0.1-0.3,0.2-0.5,0.2-0.8c0-0.2-0.1-0.5-0.3-0.7
		c-0.2-0.2-0.4-0.4-0.7-0.5c-0.3-0.1-0.5-0.1-0.8,0c-0.3,0.1-0.6,0.2-0.9,0.5l-7.9,6.4c-0.2,0.2-0.5,0.2-0.7,0.2
		c-0.3,0-0.5-0.2-0.7-0.4L232.5,64.6z"/>
	<path fill="#03CCA8" d="M253.2,93.2c-0.1-0.2-0.1-0.5-0.1-0.8s0.2-0.5,0.5-0.6L269,84c0.2-0.1,0.5-0.1,0.8-0.1
		c0.3,0.1,0.5,0.2,0.6,0.5l3,5.9c0.1,0.2,0.1,0.5,0.1,0.8c-0.1,0.3-0.3,0.5-0.5,0.6l-15.4,7.8c-0.2,0.1-0.5,0.1-0.8,0.1
		s-0.5-0.2-0.6-0.5L253.2,93.2z M272.2,83.7c-0.1-0.2-0.1-0.5-0.1-0.8s0.2-0.5,0.5-0.6l4-2c0.2-0.1,0.5-0.1,0.8-0.1
		c0.3,0.1,0.5,0.2,0.6,0.5l2.8,5.6c0.1,0.2,0.1,0.5,0.1,0.8s-0.2,0.5-0.5,0.6l-4,2c-0.2,0.1-0.5,0.1-0.8,0.1
		c-0.3-0.1-0.5-0.3-0.6-0.5L272.2,83.7z"/>
	<path fill="#03CCA8" d="M258.9,104.8c-0.1-0.3-0.1-0.5,0.1-0.8c0.1-0.3,0.3-0.4,0.6-0.5l16.3-5.6c0.3-0.1,0.5-0.1,0.8,0.1
		c0.2,0.1,0.4,0.3,0.5,0.6l2.1,6.1c0.1,0.3,0.1,0.5-0.1,0.8s-0.3,0.4-0.6,0.5l-1.2,0.4c0.9,0.5,1.7,1.2,2.4,2s1.2,1.7,1.6,2.8
		l0.6,1.7c0.1,0.3,0.1,0.5-0.1,0.8c-0.1,0.2-0.3,0.4-0.6,0.5l-5.5,1.9c-0.3,0.1-0.5,0.1-0.8-0.1c-0.3-0.1-0.4-0.3-0.5-0.6l-1.5-4.5
		c-0.2-0.7-0.6-1.2-1.1-1.4c-0.5-0.2-1.1-0.2-1.8,0l-7.8,2.7c-0.3,0.1-0.5,0.1-0.8-0.1c-0.3-0.1-0.4-0.3-0.5-0.6L258.9,104.8z"/>
	<path fill="#03CCA8" d="M264.7,124.2c-0.1-0.3,0-0.5,0.2-0.7c0.2-0.2,0.4-0.4,0.6-0.4l6-1.1c0.3-0.1,0.5,0,0.7,0.2
		c0.2,0.2,0.4,0.4,0.4,0.6l1.2,6.3c0.1,0.3,0,0.5-0.2,0.7c-0.2,0.2-0.4,0.4-0.6,0.4l-6,1.1c-0.3,0.1-0.5,0-0.7-0.2
		c-0.2-0.2-0.4-0.4-0.4-0.6L264.7,124.2z M277.5,121.7c-0.1-0.3,0-0.5,0.2-0.7c0.2-0.2,0.4-0.4,0.6-0.4l6-1.1c0.3-0.1,0.5,0,0.7,0.2
		c0.2,0.2,0.4,0.4,0.4,0.6l1.2,6.3c0.1,0.3,0,0.5-0.2,0.7s-0.4,0.4-0.6,0.4l-6,1.1c-0.3,0.1-0.5,0-0.7-0.2c-0.2-0.2-0.4-0.4-0.4-0.6
		L277.5,121.7z"/>
	<path fill="#03CCA8" d="M267,151.5c0-1.3,0.2-2.4,0.6-3.3c0.4-0.9,0.8-1.7,1.3-2.3c0.5-0.6,1-1,1.4-1.3c0.5-0.3,0.8-0.4,1.1-0.4
		c0.3,0,0.5,0.1,0.6,0.3c0.1,0.2,0.2,0.4,0.2,0.6l0,0.6c0,0.1,0,0.3-0.1,0.4c-0.1,0.1-0.2,0.2-0.4,0.4c-0.4,0.3-0.8,0.7-1.2,1.1
		c-0.4,0.4-0.7,0.9-0.9,1.6s-0.4,1.5-0.4,2.5c0,1.5,0.2,2.7,0.8,3.7c0.5,1,1.4,1.5,2.5,1.5c0.7,0,1.2-0.2,1.7-0.5
		c0.4-0.4,0.8-1,1.1-1.9c0.3-0.9,0.7-2.1,1.1-3.7c0.4-1.5,0.9-2.7,1.4-3.5c0.5-0.8,1.1-1.4,1.8-1.7s1.4-0.4,2.2-0.4
		c0.9,0,1.7,0.3,2.5,0.8c0.8,0.5,1.5,1.3,2,2.2c0.5,1,0.8,2.2,0.7,3.7c0,1.2-0.2,2.2-0.5,3.1s-0.7,1.5-1.2,2.1
		c-0.5,0.5-0.9,0.9-1.4,1.2c-0.4,0.3-0.8,0.4-1.1,0.4c-0.2,0-0.4-0.1-0.6-0.2c-0.1-0.2-0.2-0.4-0.2-0.6l0-0.6c0-0.2,0-0.4,0.1-0.5
		c0.1-0.1,0.2-0.2,0.4-0.3c0.4-0.2,0.8-0.5,1.1-0.9c0.4-0.3,0.6-0.8,0.9-1.4c0.2-0.6,0.3-1.4,0.4-2.3c0-1.5-0.3-2.6-0.8-3.3
		s-1.4-1.1-2.3-1.1c-0.5,0-1,0.1-1.4,0.4s-0.8,0.8-1.1,1.6c-0.3,0.8-0.7,2-1.1,3.5c-0.4,1.6-0.8,2.8-1.3,3.7
		c-0.5,0.9-1.1,1.5-1.8,1.9c-0.7,0.4-1.5,0.5-2.5,0.5c-1,0-1.9-0.3-2.7-0.9c-0.8-0.6-1.5-1.4-2-2.5C267.2,154.5,267,153.1,267,151.5
		z"/>
	<path fill="#03CCA8" d="M266.3,165.5c0-0.2,0.1-0.4,0.3-0.6s0.4-0.2,0.6-0.1l17.4,2.4c0.2,0,0.4,0.1,0.6,0.3s0.2,0.4,0.1,0.6
		l-0.1,0.6c0,0.2-0.1,0.4-0.3,0.6s-0.4,0.2-0.6,0.1l-17.4-2.4c-0.2,0-0.4-0.1-0.6-0.3s-0.2-0.4-0.1-0.6L266.3,165.5z M289.4,168.3
		c0-0.2,0.1-0.4,0.3-0.6c0.2-0.1,0.4-0.2,0.6-0.1l1.4,0.2c0.2,0,0.4,0.1,0.6,0.3c0.1,0.2,0.2,0.4,0.2,0.6l-0.2,1.4
		c0,0.2-0.1,0.4-0.3,0.6s-0.4,0.2-0.6,0.2l-1.4-0.2c-0.2,0-0.4-0.1-0.6-0.3c-0.1-0.2-0.2-0.4-0.1-0.6L289.4,168.3z"/>
	<path fill="#03CCA8" d="M265.4,174.5c0.1-0.2,0.2-0.4,0.4-0.5s0.4-0.1,0.6,0l16.7,5.5c0.2,0.1,0.4,0.2,0.5,0.4
		c0.1,0.2,0.1,0.4,0,0.6l-0.2,0.6c-0.1,0.2-0.2,0.4-0.4,0.5c-0.2,0.1-0.4,0.1-0.6,0l-1.2-0.4c0.6,0.8,0.9,1.7,1,2.7
		c0.1,0.9,0,2-0.4,3.1c-0.9,2.6-2.6,4.1-5.2,4.5c0.8,0.9,1.4,1.9,1.6,3.2c0.3,1.2,0.2,2.5-0.3,3.9c-0.4,1.2-1.1,2.3-2,3.1
		c-0.9,0.8-2,1.3-3.3,1.5s-2.8,0-4.5-0.5l-10.2-3.4c-0.2-0.1-0.4-0.2-0.5-0.4c-0.1-0.2-0.1-0.4,0-0.6l0.2-0.6
		c0.1-0.2,0.2-0.4,0.4-0.5c0.2-0.1,0.4-0.1,0.6,0l9.9,3.3c1.5,0.5,2.8,0.7,3.8,0.5s1.8-0.5,2.4-1.2c0.6-0.6,1-1.3,1.3-2.2
		c0.2-0.7,0.3-1.5,0.2-2.3c-0.1-0.8-0.5-1.6-1.2-2.4c-0.7-0.8-1.8-1.4-3.4-1.9l-9.9-3.3c-0.2-0.1-0.4-0.2-0.5-0.4
		c-0.1-0.2-0.1-0.4,0-0.6l0.2-0.6c0.1-0.2,0.2-0.4,0.4-0.5c0.2-0.1,0.4-0.1,0.6,0l9.9,3.3c1.5,0.5,2.8,0.7,3.8,0.5
		c1-0.2,1.8-0.6,2.4-1.2c0.6-0.6,1-1.3,1.3-2.1c0.2-0.7,0.3-1.5,0.2-2.3c-0.1-0.8-0.5-1.6-1.2-2.4c-0.7-0.8-1.8-1.4-3.3-1.9
		l-9.9-3.3c-0.2-0.1-0.4-0.2-0.5-0.4c-0.1-0.2-0.1-0.4,0-0.6L265.4,174.5z"/>
	<path fill="#03CCA8" d="M249.9,210.6c0.9-1.5,2-2.6,3.3-3.2c1.3-0.6,2.6-0.9,4-0.7c1.4,0.1,2.8,0.6,4.2,1.4
		c0.3,0.2,0.8,0.4,1.3,0.8c0.6,0.3,1,0.6,1.3,0.8c1.3,0.9,2.4,1.9,3.1,3.1c0.8,1.2,1.1,2.5,1.1,3.9c0,1.4-0.5,2.9-1.4,4.4
		c-0.9,1.5-2,2.6-3.3,3.2c-1.3,0.6-2.6,0.9-4,0.8c-1.4-0.1-2.8-0.6-4.2-1.4c-0.3-0.2-0.8-0.4-1.3-0.8c-0.6-0.3-1-0.6-1.3-0.8
		c-1.3-0.9-2.4-1.9-3.1-3.1c-0.8-1.2-1.1-2.5-1.2-3.9C248.5,213.5,248.9,212.1,249.9,210.6z M251.7,211.7c-0.9,1.5-1.2,3-0.8,4.5
		s1.4,2.8,3.2,4c0.3,0.2,0.7,0.5,1.1,0.7c0.5,0.3,0.9,0.5,1.2,0.7c1.8,1,3.5,1.4,5,1c1.5-0.4,2.7-1.3,3.6-2.7c0.9-1.5,1.2-3,0.8-4.5
		s-1.4-2.8-3.2-4c-0.3-0.2-0.7-0.5-1.1-0.7c-0.5-0.3-0.9-0.5-1.2-0.7c-1.8-1-3.5-1.4-5-1C253.8,209.3,252.6,210.2,251.7,211.7z"/>
	<path fill="#03CCA8" d="M241.8,223c0.2-0.2,0.4-0.3,0.6-0.3c0.2,0,0.4,0.1,0.6,0.2l13,11.8c0.2,0.2,0.3,0.4,0.3,0.6
		c0,0.2-0.1,0.4-0.2,0.6l-0.4,0.5c-0.2,0.2-0.4,0.3-0.6,0.3c-0.2,0-0.4-0.1-0.6-0.2l-1.3-1.2c0.2,1.1,0.2,2.1-0.1,3.2
		s-0.9,2.2-1.9,3.4c-1.1,1.2-2.3,2-3.6,2.4c-1.3,0.3-2.6,0.3-3.9-0.1c-1.3-0.4-2.5-1.2-3.7-2.2l-7.8-7.1c-0.2-0.2-0.3-0.4-0.3-0.6
		c0-0.2,0.1-0.4,0.2-0.6l0.4-0.5c0.2-0.2,0.4-0.3,0.6-0.3c0.2,0,0.4,0.1,0.6,0.2l7.6,6.9c1.5,1.3,2.9,2,4.4,2c1.5,0,2.8-0.6,4.1-2
		c1.2-1.3,1.7-2.7,1.6-4.3s-0.9-3-2.4-4.3l-7.6-6.9c-0.2-0.2-0.3-0.4-0.3-0.6c0-0.2,0.1-0.4,0.2-0.6L241.8,223z"/>
	<path fill="#03CCA8" d="M221,242.5c1.1-0.9,2.3-1.4,3.4-1.6c1.1-0.2,2.2-0.1,3.2,0.2c1,0.3,2,0.8,2.8,1.5c0.9,0.7,1.6,1.4,2.3,2.3
		c0.2,0.3,0.5,0.5,0.7,0.8c0.2,0.3,0.4,0.5,0.6,0.8c0.6,0.9,1.1,1.9,1.5,2.9c0.4,1,0.6,2.1,0.7,3.1c0,1.1-0.2,2.1-0.7,3.1
		s-1.3,2-2.4,2.8c-1.2,0.9-2.4,1.5-3.5,1.6c-1.1,0.1-2.2,0.1-3.2-0.2l5.3,7c0.1,0.2,0.2,0.4,0.2,0.6s-0.1,0.4-0.3,0.5l-0.5,0.4
		c-0.2,0.1-0.4,0.2-0.6,0.2s-0.4-0.1-0.5-0.3l-14.8-19.7c-0.1-0.2-0.2-0.4-0.2-0.6s0.1-0.4,0.3-0.5l0.5-0.4c0.2-0.1,0.4-0.2,0.6-0.2
		c0.2,0,0.4,0.1,0.5,0.3l1,1.4c0-1,0.2-2.1,0.7-3.1C218.9,244.5,219.7,243.5,221,242.5z M222.1,244.4c-1.1,0.8-1.8,1.8-2.1,2.8
		c-0.3,1.1-0.3,2.1,0,3.2c0.3,1,0.7,2,1.3,2.8c0.2,0.3,0.5,0.7,0.8,1.2c0.4,0.5,0.7,0.8,0.9,1.1c0.6,0.8,1.4,1.4,2.3,1.9
		c0.9,0.5,1.9,0.8,3,0.8c1.1,0,2.2-0.4,3.3-1.3c1.1-0.9,1.9-1.8,2.2-2.8s0.3-2.1-0.1-3.1c-0.3-1.1-0.8-2.1-1.5-3
		c-0.4-0.6-0.8-1.1-1.2-1.7c-0.8-0.9-1.6-1.7-2.5-2.3c-0.9-0.6-1.9-0.9-3-0.9C224.3,243.1,223.2,243.5,222.1,244.4z"/>
	<path fill="#03CCA8" d="M207.7,251.8c0.2-0.1,0.4-0.1,0.6-0.1s0.4,0.2,0.5,0.4l8.3,15.5c0.1,0.2,0.1,0.4,0.1,0.6
		c-0.1,0.2-0.2,0.4-0.4,0.5l-0.5,0.3c-0.2,0.1-0.4,0.1-0.7,0.1c-0.2-0.1-0.4-0.2-0.5-0.4l-0.8-1.5c0,1-0.2,1.8-0.8,2.6
		c-0.5,0.8-1.4,1.4-2.4,2l-1.2,0.6c-0.2,0.1-0.4,0.1-0.6,0.1s-0.4-0.2-0.5-0.4l-0.2-0.5c-0.1-0.2-0.1-0.4-0.1-0.6
		c0.1-0.2,0.2-0.4,0.4-0.5l1.4-0.8c1.3-0.7,2.1-1.6,2.5-2.8c0.4-1.2,0.2-2.4-0.5-3.7l-5.4-10.1c-0.1-0.2-0.1-0.4-0.1-0.6
		c0.1-0.2,0.2-0.4,0.4-0.5L207.7,251.8z"/>
	<path fill="#03CCA8" d="M189.6,259.6c2.3-0.8,4.3-0.7,6.2,0.3c1.9,1,3.3,2.7,4.4,5c0.1,0.3,0.3,0.8,0.5,1.4s0.4,1,0.5,1.4
		c0.5,1.6,0.6,3.1,0.4,4.6c-0.2,1.4-0.7,2.7-1.6,3.8s-2,1.9-3.6,2.4c-1.6,0.6-3.1,0.7-4.5,0.4c-1.4-0.3-2.6-1-3.7-2.2
		c-1.1-1.1-2-2.6-2.7-4.5l-0.2-0.5c-0.1-0.2-0.1-0.4,0-0.6c0.1-0.2,0.3-0.3,0.5-0.4l12.4-4.5c-0.1-0.2-0.1-0.3-0.1-0.3
		c-0.4-1-1-1.9-1.8-2.7s-1.7-1.3-2.7-1.6c-1-0.3-2.1-0.2-3.2,0.2c-1,0.4-1.8,0.8-2.3,1.3s-1,1.1-1.2,1.6s-0.4,0.9-0.5,1.1
		c-0.1,0.4-0.2,0.6-0.3,0.7c-0.1,0.1-0.3,0.2-0.5,0.3l-0.6,0.2c-0.2,0.1-0.4,0.1-0.6,0c-0.2-0.1-0.3-0.2-0.4-0.4
		c-0.1-0.3-0.1-0.8,0.1-1.4c0.2-0.6,0.5-1.2,0.9-1.9c0.4-0.7,1.1-1.3,1.8-2S188.6,260,189.6,259.6z M198.9,268.1l-11.1,4l0,0.1
		c0.4,1.2,1,2.1,1.8,2.9c0.8,0.8,1.7,1.3,2.7,1.5c1,0.2,2.1,0.2,3.3-0.3c1.2-0.4,2.1-1,2.7-1.9c0.6-0.8,1-1.8,1.1-2.9
		c0.1-1.1-0.1-2.2-0.5-3.4L198.9,268.1z"/>
	<path fill="#03CCA8" d="M172.8,257.6c0.2,0,0.4,0,0.5,0.1c0.2,0.1,0.3,0.3,0.3,0.5c0,0.1,0,0.2,0,0.3c0,0.1,0,0.3-0.1,0.4l-1.7,7.1
		l9.8,15.2c0.2,0.3,0.3,0.6,0.3,0.7c0,0.2,0,0.4-0.1,0.5c-0.1,0.2-0.3,0.3-0.5,0.3l-0.8,0.1c-0.2,0-0.4,0-0.6-0.1s-0.3-0.2-0.4-0.3
		l-8.7-13.4l-3.7,15.5c0,0.2-0.1,0.3-0.2,0.4c-0.1,0.1-0.3,0.2-0.5,0.3l-0.7,0.1c-0.2,0-0.4,0-0.5-0.1c-0.2-0.1-0.3-0.3-0.3-0.5
		c0-0.1,0-0.4,0.1-0.8l6.2-25.7c0-0.2,0.1-0.3,0.2-0.4c0.1-0.1,0.3-0.2,0.5-0.3L172.8,257.6z"/>
	<path fill="#03CCA8" d="M154.1,266.8c0.2,0,0.4,0.1,0.6,0.2c0.2,0.1,0.2,0.3,0.2,0.6l0.4,16.3l3.3-0.1c0.2,0,0.4,0.1,0.6,0.2
		c0.2,0.1,0.2,0.3,0.2,0.6l0,0.5c0,0.2-0.1,0.4-0.2,0.6c-0.1,0.2-0.3,0.2-0.6,0.2l-3.3,0.1l0.1,2.1c0,1.1-0.1,2.1-0.4,3
		c-0.3,0.9-0.8,1.7-1.6,2.2c-0.8,0.6-1.9,0.9-3.4,0.9l-1.9,0c-0.2,0-0.4-0.1-0.6-0.2c-0.2-0.1-0.2-0.3-0.2-0.6l0-0.5
		c0-0.2,0.1-0.4,0.2-0.6c0.1-0.2,0.3-0.2,0.6-0.2l1.9,0c1.3,0,2.2-0.4,2.6-1.1c0.4-0.7,0.6-1.7,0.6-3l0-1.9l-4.9,0.1
		c-0.2,0-0.4-0.1-0.6-0.2c-0.2-0.1-0.2-0.3-0.2-0.6l0-0.5c0-0.2,0.1-0.4,0.2-0.6c0.1-0.2,0.3-0.2,0.6-0.2l4.9-0.1l-0.4-16.3
		c0-0.2,0.1-0.4,0.2-0.6c0.1-0.2,0.3-0.2,0.6-0.2L154.1,266.8z"/>
	<path fill="#03CCA8" d="M135.4,265.6c1.7,0.2,3,0.8,4,1.6c1,0.9,1.7,2,2,3.3s0.4,2.7,0.2,4.3l-1.3,10.4c0,0.2-0.1,0.4-0.3,0.6
		s-0.4,0.2-0.6,0.1l-0.6-0.1c-0.2,0-0.4-0.1-0.6-0.3c-0.1-0.2-0.2-0.4-0.1-0.6l1.3-10.2c0.5-4.2-1-6.5-4.7-7
		c-1.7-0.2-3.2,0.2-4.4,1.1c-1.2,1-1.9,2.4-2.2,4.4l-1.3,10.2c0,0.2-0.1,0.4-0.3,0.6c-0.2,0.1-0.4,0.2-0.6,0.1l-0.6-0.1
		c-0.2,0-0.4-0.1-0.6-0.3c-0.1-0.2-0.2-0.4-0.1-0.6l2.3-17.5c0-0.2,0.1-0.4,0.3-0.6c0.2-0.1,0.4-0.2,0.6-0.1l0.6,0.1
		c0.2,0,0.4,0.1,0.6,0.3c0.1,0.2,0.2,0.4,0.1,0.6l-0.2,1.7c0.8-0.8,1.7-1.4,2.6-1.8C132.5,265.5,133.8,265.4,135.4,265.6z"/>
	<path fill="#03CCA8" d="M114.7,261.1c1.2,0.4,2.2,0.9,3,1.5c0.8,0.6,1.4,1.2,1.8,1.9c0.4,0.6,0.7,1.2,0.8,1.8
		c0.1,0.5,0.2,0.9,0.1,1.2c-0.1,0.3-0.2,0.4-0.4,0.5c-0.2,0.1-0.4,0.1-0.6,0l-0.5-0.2c-0.1,0-0.3-0.1-0.3-0.2
		c-0.1-0.1-0.2-0.3-0.3-0.5c-0.2-0.5-0.4-1-0.7-1.5c-0.3-0.5-0.7-0.9-1.3-1.3c-0.6-0.4-1.3-0.8-2.2-1.1c-1.4-0.4-2.7-0.5-3.7-0.3
		c-1.1,0.3-1.8,0.9-2.1,2c-0.2,0.7-0.2,1.2,0,1.8c0.2,0.5,0.7,1.1,1.5,1.6c0.8,0.6,1.8,1.3,3.2,2.1c1.4,0.8,2.4,1.6,3,2.3
		c0.6,0.7,1,1.5,1.1,2.2c0.1,0.7,0,1.5-0.2,2.2c-0.3,0.8-0.7,1.6-1.5,2.2c-0.7,0.6-1.6,1.1-2.7,1.3c-1.1,0.2-2.3,0.1-3.8-0.3
		c-1.2-0.4-2.1-0.8-2.8-1.4c-0.7-0.6-1.3-1.1-1.6-1.7c-0.4-0.6-0.6-1.1-0.7-1.6s-0.1-0.9-0.1-1.2c0.1-0.2,0.2-0.4,0.4-0.5
		c0.2-0.1,0.4-0.1,0.6,0l0.5,0.2c0.2,0.1,0.3,0.1,0.4,0.3c0.1,0.1,0.2,0.3,0.2,0.4c0.1,0.5,0.3,0.9,0.5,1.3c0.2,0.4,0.6,0.8,1.1,1.2
		c0.5,0.4,1.2,0.7,2.1,1c1.4,0.4,2.5,0.5,3.4,0.1c0.9-0.4,1.4-1,1.7-1.9c0.2-0.5,0.2-1,0-1.5c-0.2-0.5-0.6-1-1.3-1.6
		s-1.7-1.3-3.1-2.1c-1.4-0.8-2.5-1.6-3.2-2.3c-0.7-0.8-1.2-1.5-1.3-2.3c-0.2-0.8-0.1-1.6,0.2-2.5c0.3-0.9,0.8-1.7,1.6-2.4
		c0.8-0.6,1.8-1,3-1.2C111.8,260.5,113.2,260.6,114.7,261.1z"/>
	<path fill="#03CCA8" d="M94.2,248c2.1,1.2,3.8,2.6,4.9,4.3s1.7,3.4,1.8,5.4s-0.4,4-1.3,6.2c-0.1,0.3-0.4,0.7-0.6,1.2
		c-0.3,0.5-0.6,1.1-0.9,1.6c-0.3,0.6-0.6,1.1-0.9,1.5c-0.3,0.5-0.5,0.8-0.7,1.1c-1,1.4-2.2,2.6-3.4,3.5c-1.2,0.9-2.6,1.5-4,1.8
		c-1.4,0.3-2.9,0.3-4.4,0c-1.5-0.3-3.1-0.9-4.7-1.8c-1.8-1.1-3.3-2.2-4.5-3.4s-1.9-2.5-2.4-3.9c-0.5-1.4-0.6-2.8-0.4-4.3
		c0.2-1.5,0.7-3,1.5-4.6c0.3-0.6,0.6-1.2,0.9-1.8c0.3-0.6,0.6-1.1,0.9-1.6c0.3-0.5,0.5-0.8,0.6-0.9c0.7-1,1.3-1.7,2.1-2.3
		c0.7-0.5,1.5-0.8,2.3-0.8c0.8,0,1.6,0.2,2.5,0.7c0.7,0.4,1.2,0.9,1.5,1.4c0.3,0.5,0.5,1,0.6,1.5c0.1,0.4,0.1,0.8,0.2,1
		c0.3-0.2,0.8-0.4,1.3-0.5c0.5-0.2,1.1-0.2,1.8-0.2c0.7,0.1,1.4,0.3,2.2,0.8c1.6,0.9,2.5,2.2,2.9,3.9c0.3,1.7-0.1,3.6-1.3,5.7
		c-1.2,2.1-2.6,3.5-4.3,4c-1.6,0.6-3.2,0.4-4.8-0.5c-0.9-0.5-1.5-1.1-1.8-1.7c-0.3-0.6-0.5-1.2-0.6-1.7l-0.3,0.6
		c-0.1,0.2-0.3,0.3-0.5,0.4c-0.2,0.1-0.4,0-0.6-0.1l-0.5-0.3c-0.2-0.1-0.3-0.3-0.4-0.5s0-0.4,0.1-0.6l4-7c0.6-1,0.8-1.9,0.7-2.6
		c-0.1-0.7-0.5-1.3-1.1-1.6c-0.6-0.4-1.2-0.5-1.8-0.3s-1,0.5-1.3,0.9s-0.6,0.8-0.8,1.1c-0.2,0.2-0.5,0.7-0.9,1.5
		c-0.4,0.7-0.9,1.6-1.3,2.4c-0.8,1.8-1.3,3.5-1.3,5.1c0,1.6,0.5,3.1,1.4,4.4c1,1.4,2.5,2.7,4.7,3.9c1.7,1,3.4,1.5,5,1.6
		c1.6,0.1,3.1-0.2,4.6-1s2.7-1.9,3.9-3.5c0.3-0.3,0.6-0.8,1-1.5c0.4-0.7,0.8-1.3,1.1-2c0.4-0.7,0.7-1.2,0.8-1.7
		c1.2-2.7,1.4-5.2,0.6-7.4c-0.7-2.3-2.4-4.1-5-5.6c-1.6-0.9-3-1.5-4.1-1.8s-2-0.3-2.7-0.2c-0.7,0.1-1.2,0.1-1.6,0.2
		c-0.1,0-0.3,0-0.4,0.1s-0.4,0-0.5-0.1l-0.8-0.5c-0.2-0.1-0.3-0.3-0.4-0.5c-0.1-0.2,0-0.4,0.1-0.6c0-0.1,0.1-0.2,0.2-0.2
		c0.1-0.1,0.2-0.1,0.2-0.1c0.9-0.3,1.9-0.4,3-0.5c1.1-0.1,2.3,0.1,3.7,0.4C91.1,246.4,92.6,247.1,94.2,248z M90,255.9
		c-1.3-0.7-2.4-0.8-3.4-0.2c-1,0.6-1.9,1.6-2.6,3c-0.8,1.4-1.2,2.6-1.2,3.8c0,1.2,0.6,2.1,1.8,2.8c1.2,0.7,2.3,0.7,3.3,0.1
		c1-0.6,1.9-1.6,2.7-3c0.5-0.8,0.8-1.6,1-2.4c0.2-0.8,0.2-1.6,0-2.3C91.4,256.9,90.8,256.3,90,255.9z"/>
	<path fill="#03CCA8" d="M75.6,240.6c0.2,0.2,0.3,0.4,0.3,0.6c0,0.2-0.1,0.4-0.2,0.6l-16.7,18.1c-0.2,0.2-0.4,0.3-0.6,0.3
		c-0.2,0-0.4-0.1-0.6-0.2l-0.5-0.4c-0.2-0.2-0.3-0.4-0.3-0.6c0-0.2,0.1-0.4,0.2-0.6l5.9-6.4c-1.1,0.2-2.1,0.2-3.2-0.1
		c-1.1-0.2-2.2-0.9-3.3-2c-1.2-1.1-2-2.4-2.3-3.7c-0.3-1.3-0.3-2.6,0.2-3.9c0.4-1.3,1.2-2.5,2.3-3.7l7.1-7.7
		c0.2-0.2,0.4-0.3,0.6-0.3c0.2,0,0.4,0.1,0.6,0.2l0.5,0.4c0.2,0.2,0.3,0.4,0.3,0.6c0,0.2-0.1,0.4-0.2,0.6l-7,7.6
		c-1.3,1.5-2,2.9-2.1,4.4c-0.1,1.5,0.6,2.8,2,4.1c1.3,1.2,2.7,1.7,4.3,1.6s3-0.9,4.3-2.3l7-7.6c0.2-0.2,0.4-0.3,0.6-0.3
		c0.2,0,0.4,0.1,0.6,0.2L75.6,240.6z"/>
	<path fill="#03CCA8" d="M56,219.2c1.1,1.4,1.7,2.8,1.8,4.2s-0.1,2.7-0.8,4c-0.7,1.3-1.6,2.4-2.8,3.4c-0.3,0.2-0.7,0.6-1.2,1
		s-1,0.7-1.3,0.9c-1.3,0.9-2.7,1.5-4.1,1.8c-1.4,0.3-2.7,0.1-4.1-0.4c-1.3-0.5-2.5-1.5-3.6-2.9c-1.1-1.4-1.7-2.8-1.8-4.2
		s0.1-2.7,0.8-4c0.6-1.3,1.6-2.4,2.9-3.4c0.3-0.2,0.7-0.6,1.2-1c0.5-0.4,1-0.7,1.3-0.9c1.3-0.9,2.6-1.5,4.1-1.7
		c1.4-0.3,2.8-0.1,4.1,0.4C53.8,216.8,55,217.8,56,219.2z M54.3,220.5c-1-1.4-2.3-2.2-3.9-2.4c-1.5-0.2-3.2,0.3-4.9,1.5
		c-0.3,0.2-0.7,0.5-1.1,0.8c-0.4,0.3-0.8,0.6-1.1,0.8c-1.7,1.3-2.6,2.8-2.8,4.3c-0.2,1.5,0.2,3,1.2,4.4c1,1.4,2.3,2.2,3.8,2.4
		c1.5,0.2,3.2-0.3,4.9-1.5c0.3-0.2,0.7-0.5,1.1-0.8s0.8-0.6,1.1-0.8c1.6-1.3,2.6-2.7,2.8-4.3C55.7,223.4,55.3,221.9,54.3,220.5z"/>
	<path fill="#03CCA8" d="M45,202.1c0.6,1.1,0.8,2.2,0.7,3.1c-0.1,0.9-0.5,1.7-1.2,2.4c-0.7,0.7-1.5,1.3-2.6,1.9l-9.6,5.1l1.4,2.5
		c0.1,0.2,0.1,0.4,0.1,0.6c-0.1,0.2-0.2,0.4-0.4,0.5l-0.5,0.2c-0.2,0.1-0.4,0.1-0.6,0.1c-0.2-0.1-0.4-0.2-0.5-0.4l-1.4-2.5l-5.5,2.9
		c-0.2,0.1-0.4,0.1-0.6,0.1c-0.2-0.1-0.4-0.2-0.5-0.4l-0.3-0.6c-0.1-0.2-0.1-0.4-0.1-0.6c0.1-0.2,0.2-0.4,0.4-0.5l5.5-2.9l-2.2-4
		c-0.1-0.2-0.1-0.4-0.1-0.6c0.1-0.2,0.2-0.4,0.4-0.5l0.5-0.2c0.2-0.1,0.4-0.1,0.6-0.1s0.4,0.2,0.5,0.4l2.2,4l9.5-5.1
		c1.2-0.6,2-1.3,2.4-2s0.4-1.6-0.1-2.6l-0.9-1.8c-0.1-0.2-0.1-0.4-0.1-0.6c0.1-0.2,0.2-0.4,0.4-0.5l0.5-0.2c0.2-0.1,0.4-0.1,0.6-0.1
		c0.2,0.1,0.4,0.2,0.5,0.4L45,202.1z"/>
	<path fill="#03CCA8" d="M40.9,194.8c0.1,0.2,0.1,0.4,0,0.6s-0.3,0.3-0.5,0.4l-16.9,5c-0.2,0.1-0.4,0.1-0.6,0
		c-0.2-0.1-0.3-0.3-0.4-0.5l-0.2-0.6c-0.1-0.2-0.1-0.4,0-0.6c0.1-0.2,0.3-0.3,0.5-0.4l1.2-0.4c-0.9-0.4-1.7-0.9-2.4-1.6
		s-1.2-1.6-1.5-2.8c-0.8-2.6-0.2-4.9,1.7-6.7c-1.2-0.2-2.2-0.8-3.1-1.7s-1.6-2-2-3.4c-0.4-1.3-0.4-2.5-0.1-3.6
		c0.3-1.2,0.9-2.2,1.9-3.1s2.3-1.6,4-2.1l10.3-3.1c0.2-0.1,0.4-0.1,0.6,0c0.2,0.1,0.3,0.3,0.4,0.5l0.2,0.6c0.1,0.2,0.1,0.4,0,0.6
		c-0.1,0.2-0.3,0.3-0.5,0.4l-10,3c-1.6,0.5-2.7,1-3.4,1.8c-0.7,0.7-1.2,1.5-1.3,2.3c-0.1,0.8-0.1,1.7,0.2,2.5c0.2,0.7,0.6,1.4,1.2,2
		c0.6,0.6,1.4,1.1,2.4,1.3c1,0.2,2.3,0.1,3.9-0.3l10-3c0.2-0.1,0.4-0.1,0.6,0c0.2,0.1,0.3,0.3,0.4,0.5l0.2,0.6
		c0.1,0.2,0.1,0.4,0,0.6s-0.3,0.3-0.5,0.4l-10,3c-1.6,0.5-2.7,1.1-3.4,1.8c-0.7,0.7-1.2,1.5-1.3,2.4c-0.1,0.8-0.1,1.7,0.2,2.5
		c0.2,0.7,0.6,1.4,1.2,2c0.6,0.6,1.4,1.1,2.4,1.3c1,0.2,2.3,0.1,3.8-0.3l10-3c0.2-0.1,0.4-0.1,0.6,0c0.2,0.1,0.3,0.3,0.4,0.5
		L40.9,194.8z"/>
	<path fill="#03CCA8" d="M33.3,158.4c0.1,1.2-0.1,2.3-0.5,3.3c-0.4,1-1,1.9-1.8,2.5c-0.8,0.7-1.7,1-2.7,1.1
		c-1.7,0.1-3.1-0.5-4.1-1.8c-1.1-1.3-1.9-3-2.3-5.2l-1.2-5.8l-1.3,0.1c-1.3,0.1-2.3,0.5-3,1.4c-0.7,0.8-1,2.1-0.9,3.9
		c0.1,1.3,0.4,2.3,0.9,3.1c0.6,0.8,1.2,1.3,2.1,1.5c0.4,0.1,0.6,0.3,0.6,0.7l0,0.6c0,0.3,0,0.5-0.2,0.6c-0.2,0.1-0.3,0.2-0.6,0.2
		c-0.3,0-0.8-0.1-1.3-0.3c-0.5-0.2-1.1-0.6-1.6-1.1c-0.5-0.5-1-1.2-1.4-2s-0.6-1.9-0.7-3.1c-0.1-1.5,0-2.7,0.4-3.6
		c0.3-1,0.8-1.7,1.4-2.3c0.6-0.6,1.3-1,2-1.3c0.8-0.3,1.5-0.4,2.2-0.5l12.3-0.8c0.2,0,0.4,0,0.6,0.2c0.2,0.1,0.2,0.3,0.3,0.6l0,0.6
		c0,0.2,0,0.4-0.2,0.6c-0.1,0.2-0.3,0.2-0.6,0.3l-1.7,0.1c0.5,0.3,0.9,0.7,1.4,1.2c0.5,0.5,0.9,1.2,1.3,2
		C33,156.1,33.2,157.1,33.3,158.4z M31.1,158.2c-0.1-1.1-0.4-2.2-0.9-3.1c-0.5-0.9-1.4-1.6-2.4-2.1c-1.1-0.5-2.4-0.7-3.9-0.6
		l-1.3,0.1l1,4.7c0.4,2,1,3.5,1.7,4.5c0.7,1,1.6,1.5,2.6,1.4c0.8,0,1.5-0.3,2-0.8s0.8-1.1,1.1-1.9C31.1,159.7,31.2,159,31.1,158.2z"
		/>
	<path fill="#03CCA8" d="M9.6,140.8c0,0.2-0.1,0.4-0.3,0.6s-0.4,0.2-0.6,0.2l-1.4-0.1c-0.2,0-0.4-0.1-0.6-0.3s-0.2-0.4-0.2-0.6
		l0.1-1.4c0-0.2,0.1-0.4,0.3-0.6s0.4-0.2,0.6-0.2l1.4,0.1c0.2,0,0.4,0.1,0.6,0.3s0.2,0.4,0.2,0.6L9.6,140.8z M32.8,141.9
		c0,0.2-0.1,0.4-0.3,0.6c-0.2,0.1-0.4,0.2-0.6,0.2l-17.6-1.2c-0.2,0-0.4-0.1-0.6-0.3c-0.1-0.2-0.2-0.4-0.2-0.6l0-0.6
		c0-0.2,0.1-0.4,0.3-0.6c0.2-0.1,0.4-0.2,0.6-0.2l17.6,1.2c0.2,0,0.4,0.1,0.6,0.3s0.2,0.4,0.2,0.6L32.8,141.9z"/>
	<path fill="#03CCA8" d="M33.8,132.3c0,0.2-0.1,0.4-0.3,0.6c-0.2,0.1-0.4,0.2-0.6,0.1l-24.4-3.6c-0.2,0-0.4-0.1-0.6-0.3
		c-0.1-0.2-0.2-0.4-0.1-0.6l0.1-0.6c0-0.2,0.1-0.4,0.3-0.6c0.2-0.1,0.4-0.2,0.6-0.1l24.4,3.6c0.2,0,0.4,0.1,0.6,0.3
		c0.1,0.2,0.2,0.4,0.1,0.6L33.8,132.3z"/>
	<path fill="#03CCA8" d="M35.5,123.2c-0.1,0.2-0.2,0.4-0.4,0.5c-0.2,0.1-0.4,0.1-0.6,0.1l-1.7-0.4c-0.2-0.1-0.4-0.2-0.5-0.4
		s-0.2-0.4-0.1-0.6l0.4-1.7c0.1-0.2,0.2-0.4,0.4-0.5s0.4-0.2,0.6-0.1l1.7,0.4c0.2,0.1,0.4,0.2,0.5,0.4c0.1,0.2,0.1,0.4,0.1,0.6
		L35.5,123.2z"/>
	<path fill="#03CCA8" d="M40.4,108.2c-0.5,1.3-1.2,2.4-2,3.1c-0.8,0.7-1.8,1.3-2.8,1.5c-1,0.3-2.1,0.3-3.2,0.2
		c-1.1-0.1-2.2-0.3-3.2-0.7c-0.4-0.1-0.7-0.2-1-0.3c-0.3-0.1-0.6-0.2-1-0.4c-1-0.4-1.9-1-2.8-1.6c-0.9-0.6-1.6-1.4-2.2-2.3
		c-0.6-0.9-0.9-1.9-1.1-3c-0.1-1.1,0.1-2.3,0.6-3.7c0.5-1.4,1.3-2.5,2.2-3.2c0.9-0.7,1.8-1.2,2.8-1.5l-8.2-3.1
		c-0.2-0.1-0.4-0.2-0.5-0.4c-0.1-0.2-0.1-0.4,0-0.6l0.2-0.6c0.1-0.2,0.2-0.4,0.4-0.5s0.4-0.1,0.6,0l23,8.8c0.2,0.1,0.4,0.2,0.5,0.4
		s0.1,0.4,0,0.6l-0.2,0.6c-0.1,0.2-0.2,0.4-0.4,0.5s-0.4,0.1-0.6,0l-1.6-0.6c0.6,0.9,0.9,1.9,1.1,3C41.2,105.5,41,106.8,40.4,108.2z
		 M38.5,107.2c0.5-1.3,0.6-2.5,0.3-3.5c-0.3-1-0.9-1.9-1.6-2.7s-1.6-1.3-2.6-1.7c-0.3-0.2-0.8-0.3-1.3-0.6c-0.6-0.2-1-0.4-1.4-0.5
		c-0.9-0.3-1.9-0.5-3-0.4s-2,0.4-2.9,1c-0.9,0.6-1.6,1.5-2.1,2.8c-0.5,1.3-0.6,2.5-0.3,3.5c0.3,1,0.9,1.9,1.7,2.6
		c0.8,0.7,1.8,1.3,2.9,1.8c0.6,0.3,1.3,0.5,1.9,0.7c1.1,0.4,2.2,0.6,3.3,0.6s2.1-0.2,3-0.8C37.3,109.5,38,108.6,38.5,107.2z"/>
	<path fill="#03CCA8" d="M50.2,88.2c-1.3,2-2.9,3.2-5,3.6c-2.1,0.4-4.2,0-6.5-1.2c-0.3-0.2-0.8-0.4-1.3-0.7
		c-0.5-0.3-0.9-0.6-1.2-0.8c-1.4-1-2.4-2.1-3.2-3.3s-1.1-2.5-1.1-3.9c0-1.4,0.4-2.7,1.3-4.1c0.9-1.5,2-2.5,3.3-3.2
		c1.3-0.6,2.7-0.8,4.3-0.7c1.6,0.2,3.2,0.8,4.9,1.8l0.5,0.3c0.2,0.1,0.3,0.3,0.4,0.5s0,0.4-0.1,0.6l-6.9,11.2
		c0.2,0.1,0.3,0.2,0.3,0.2c1,0.5,2,0.9,3.1,1s2.1,0,3.1-0.4c1-0.4,1.8-1.1,2.4-2.1c0.6-0.9,0.9-1.7,1-2.5c0.1-0.8,0.1-1.4,0-2
		c-0.1-0.6-0.2-0.9-0.3-1.1c-0.2-0.4-0.2-0.6-0.2-0.7c0-0.1,0.1-0.3,0.2-0.6l0.3-0.5c0.1-0.2,0.3-0.3,0.5-0.4c0.2-0.1,0.4,0,0.6,0.1
		c0.3,0.2,0.5,0.6,0.8,1.2s0.4,1.3,0.5,2.1c0.1,0.8,0,1.7-0.2,2.7C51.2,86.3,50.8,87.2,50.2,88.2z M37.7,87.4l6.2-10l-0.1-0.1
		c-1.1-0.6-2.1-1-3.2-1.1s-2.1,0-3.1,0.5c-1,0.5-1.8,1.2-2.4,2.3c-0.6,1.1-1,2.1-0.9,3.2c0,1,0.4,2,1,2.9s1.4,1.7,2.5,2.3L37.7,87.4
		z"/>
</g>
</svg>
