<svg xmlns="http://www.w3.org/2000/svg" viewBox="0 0 200 200"><defs><style>.a{fill:#4ddbaa;}</style></defs><title>Zeichenfläche 1 Kopie 6</title><path class="a" d="M76.69,7.66a4.45,4.45,0,0,1,3,3.17l.08.29-4.58,1.42,0-.1a1.53,1.53,0,0,0-.84-1,2.33,2.33,0,0,0-1.63,0,3.41,3.41,0,0,0-1.4.74.87.87,0,0,0-.27.88,1,1,0,0,0,.86.69,6.27,6.27,0,0,0,1.88,0l2.27-.18c3.17-.25,5.12.82,5.87,3.23a5.18,5.18,0,0,1-.59,4.92,9.5,9.5,0,0,1-4.92,3.05,10.47,10.47,0,0,1-3.65.5,5.94,5.94,0,0,1-3.1-1,4.67,4.67,0,0,1-1.87-2.62l-.09-.29a1.17,1.17,0,0,1-.07-.29l4.63-1.44a1,1,0,0,0,.07.29,1.64,1.64,0,0,0,.89,1.06A2.57,2.57,0,0,0,75.09,21a4.16,4.16,0,0,0,1.71-.83.88.88,0,0,0,.24-.9,1,1,0,0,0-.94-.67,12.27,12.27,0,0,0-2.29.05,21,21,0,0,1-3.28.09A5.35,5.35,0,0,1,68,17.9a4.64,4.64,0,0,1-1.79-2.65,4.66,4.66,0,0,1,0-3.13,5.84,5.84,0,0,1,2-2.54,10.56,10.56,0,0,1,3.35-1.7A8.84,8.84,0,0,1,76.69,7.66Z"/><path class="a" d="M93.67,8.81a5,5,0,0,1,2.27,1.71,5.52,5.52,0,0,1,1,2.69l-4.2.46L92.68,13A1.72,1.72,0,0,0,92,11.85a1.62,1.62,0,0,0-1.27-.38,1.64,1.64,0,0,0-1.16.64,1.67,1.67,0,0,0-.36,1.29l.4,3.7a1.74,1.74,0,0,0,.65,1.18,1.68,1.68,0,0,0,1.28.37l.3,0A1.57,1.57,0,0,0,93,18a1.76,1.76,0,0,0,.34-1.29l-.07-.65,3.92-.43a5.08,5.08,0,0,1-1.15,4.15,6.32,6.32,0,0,1-4.17,1.89l-.72.08a6.38,6.38,0,0,1-5.74-2.45,5.75,5.75,0,0,1-1.19-2.95l-.11-1a5.84,5.84,0,0,1,.51-3.14,6.31,6.31,0,0,1,5-3.63l.75-.08A6.84,6.84,0,0,1,93.67,8.81Z"/><path class="a" d="M108.6,8.35l.69.05a3.73,3.73,0,0,1,3.47,4l-.67,9.26-4.94-.36.58-8a1.53,1.53,0,0,0-.31-1.09,1.16,1.16,0,0,0-.9-.5,1.18,1.18,0,0,0-1,.37,1.52,1.52,0,0,0-.46,1l-.58,8-4.94-.36,1.31-18,4.93.36-.48,6.71A3.66,3.66,0,0,1,108.6,8.35Z"/><path class="a" d="M127.27,12.89a3.37,3.37,0,0,1,.28,2.66l-.11.41-.28.91-.2.6-3.93-1,.15-.59a1.29,1.29,0,0,0-.09-.93.93.93,0,0,0-.62-.53,1,1,0,0,0-.83.16,1.32,1.32,0,0,0-.52.79l-2,7.95-4.68-1.18,3.12-12.39,3.59.91.08,1.92A3.89,3.89,0,0,1,122,12a4,4,0,0,1,1.33-.59,3.38,3.38,0,0,1,1.7,0A3.45,3.45,0,0,1,127.27,12.89Z"/><path class="a" d="M141,18.3A5.19,5.19,0,0,1,142.07,21a5.92,5.92,0,0,1-.55,3l-.64,1.41-7.59-3.41-.49,1.1a1.57,1.57,0,0,0,0,1.4,2.05,2.05,0,0,0,1.08,1,1.67,1.67,0,0,0,1.44.06,2.2,2.2,0,0,0,1-1.17l4.17,1.88a4.61,4.61,0,0,1-1.73,2,5,5,0,0,1-2.7.78,7.9,7.9,0,0,1-3.32-.77l-.34-.15a8.6,8.6,0,0,1-3-2.14,5.91,5.91,0,0,1-1.4-3,6.07,6.07,0,0,1,.55-3.44l.32-.71a6.3,6.3,0,0,1,2.16-2.71,5.54,5.54,0,0,1,3.08-1,8,8,0,0,1,3.54.78l.57.26A6.88,6.88,0,0,1,141,18.3Zm-5.67.53a1.67,1.67,0,0,0-1,.92l-.15.32,3.15,1.41.14-.32a1.66,1.66,0,0,0,.05-1.33,1.7,1.7,0,0,0-2.23-1Z"/><path class="a" d="M144.38,34.59,140.23,32l6.83-10.76,4.16,2.64Zm7.74-12.18L148,19.77l1.92-3L154,19.4Z"/><path class="a" d="M159.53,30.46a3.89,3.89,0,0,1,1.81.91,4.3,4.3,0,0,1,1.4,2.16,4.84,4.84,0,0,1-.11,2.78,9,9,0,0,1-1.85,3.14l-.18.21a8.21,8.21,0,0,1-2.87,2.26,5.06,5.06,0,0,1-2.9.4,5.36,5.36,0,0,1-2.58-1.25,4.84,4.84,0,0,1-1.8-4.35l-2.51.32-1.33-1.14,11.7-13.67,3.76,3.22-4.26,5A4.79,4.79,0,0,1,159.53,30.46Zm-2.72,1.82a1.8,1.8,0,0,0-1.14.65l-2.36,2.75a1.77,1.77,0,0,0-.46,1.24,1.38,1.38,0,0,0,.5,1.1,1.44,1.44,0,0,0,1.17.33,1.8,1.8,0,0,0,1.14-.65L158,35a1.77,1.77,0,0,0,.46-1.24,1.38,1.38,0,0,0-.5-1.1A1.44,1.44,0,0,0,156.81,32.28Z"/><path class="a" d="M173.77,46.08a5.1,5.1,0,0,1-.26,2.93,5.94,5.94,0,0,1-1.86,2.44l-1.21,1-5.2-6.5-.94.74a1.63,1.63,0,0,0-.68,1.24,2.06,2.06,0,0,0,.52,1.36,1.65,1.65,0,0,0,1.25.71,2.17,2.17,0,0,0,1.45-.57L169.7,53a4.68,4.68,0,0,1-2.47,1,5,5,0,0,1-2.76-.55,7.82,7.82,0,0,1-2.6-2.19l-.24-.3A8.29,8.29,0,0,1,160,47.71a5.83,5.83,0,0,1,.11-3.29,6.16,6.16,0,0,1,2.06-2.82l.61-.48a6.34,6.34,0,0,1,3.16-1.43,5.56,5.56,0,0,1,3.19.54,8.06,8.06,0,0,1,2.79,2.32l.39.48A7,7,0,0,1,173.77,46.08ZM168.49,44a1.7,1.7,0,0,0-1.28.38l-.27.22,2.15,2.69.27-.22a1.71,1.71,0,0,0,.66-1.16,1.65,1.65,0,0,0-.37-1.28A1.6,1.6,0,0,0,168.49,44Z"/><path class="a" d="M188,73.41a3.79,3.79,0,0,1-.76,1.77,3.66,3.66,0,0,1-1.57,1.16L177,79.77l-1.8-4.5,7.52-3a1.48,1.48,0,0,0,.8-.68,1.12,1.12,0,0,0,0-1,1.09,1.09,0,0,0-.68-.65,1.45,1.45,0,0,0-1,.05l-7.53,3-1.79-4.5,7.52-3a1.49,1.49,0,0,0,.79-.68,1.09,1.09,0,0,0,0-1,1.11,1.11,0,0,0-.68-.66,1.45,1.45,0,0,0-1,.06l-7.52,3-1.8-4.51,11.87-4.73,1.37,3.44-1.53,1.17a4.47,4.47,0,0,1,3.23,2.43l.25.62a3.65,3.65,0,0,1,.23,2,3.61,3.61,0,0,1-.83,1.79,3.91,3.91,0,0,1,1.84.76,3.58,3.58,0,0,1,1.2,1.58l.25.63A3.69,3.69,0,0,1,188,73.41Z"/><path class="a" d="M178,87.07l-1-4.83,12.51-2.47,1,4.83Zm14.15-2.79-.95-4.83,3.51-.69,1,4.83Z"/><path class="a" d="M191.25,99a3.38,3.38,0,0,1-2.45,1.07l-.42,0H186.8l-.27-4,.6,0a1.38,1.38,0,0,0,.87-.37,1,1,0,0,0-.1-1.5,1.3,1.3,0,0,0-.91-.25l-8.18.54-.32-4.82,12.75-.84.24,3.69-1.81.67a4.49,4.49,0,0,1,.84.52,4.18,4.18,0,0,1,1,1.09,3.37,3.37,0,0,1,.51,1.62A3.47,3.47,0,0,1,191.25,99Z"/><path class="a" d="M183.08,109.47l-4.56-.39.4-4.76,4.56.39Zm8.17.68-4.56-.38.4-4.76,4.56.38Z"/><path class="a" d="M186.65,129.81a3.94,3.94,0,0,1-1.7,1.28,2.89,2.89,0,0,1-1.88.06l-.42-.16.69-2.22.21.07q1.75.54,2.58-2.16c.56-1.78.3-2.84-.77-3.17a1.19,1.19,0,0,0-1.32.43,11.93,11.93,0,0,0-1.38,2.13,22.76,22.76,0,0,1-1.41,2.28,4.48,4.48,0,0,1-1.56,1.32,2.87,2.87,0,0,1-2.15.08A3.52,3.52,0,0,1,175,127.5a6.7,6.7,0,0,1,.21-4.15l.11-.35a7.21,7.21,0,0,1,1.28-2.49,4.34,4.34,0,0,1,1.8-1.34,2.87,2.87,0,0,1,2,0l.53.16-.69,2.22-.24-.07q-2-.63-3.08,2.78a3.73,3.73,0,0,0-.11,2,1.45,1.45,0,0,0,1,1.18,1.37,1.37,0,0,0,1.18-.11,3,3,0,0,0,.91-.91,15.42,15.42,0,0,0,.94-1.68,23.41,23.41,0,0,1,1.32-2.2,3.69,3.69,0,0,1,1.5-1.24,3,3,0,0,1,2.16,0,3.26,3.26,0,0,1,2.25,2.16,6.42,6.42,0,0,1-.17,4l-.07.21A6.61,6.61,0,0,1,186.65,129.81Z"/><path class="a" d="M183,139.19l-11.61-5.31,1-2.14L184,137.05Zm4.74,2.22-2-.91,1-2.22,2,.9Z"/><path class="a" d="M170.27,158.15a4.58,4.58,0,0,1-3.32-1l-7.06-4.9,1.34-1.93,6.71,4.66c1.63,1.13,2.89,1.07,3.76-.19a2.61,2.61,0,0,0,.46-1.5,3.48,3.48,0,0,0-.43-1.63,3.83,3.83,0,0,0-1.24-1.36L164.25,146l1.34-1.94,6.71,4.66c1.63,1.13,2.89,1.07,3.76-.19a2.6,2.6,0,0,0,.46-1.49,3.38,3.38,0,0,0-.43-1.64,3.91,3.91,0,0,0-1.24-1.36l-6.24-4.33,1.34-1.93,10.49,7.28-1,1.4-1.73-.8a4.6,4.6,0,0,1-.55,4.51,3.52,3.52,0,0,1-3.74,1.67,5,5,0,0,1,.33,2.45,4.78,4.78,0,0,1-.82,2A4.05,4.05,0,0,1,170.27,158.15Z"/><path class="a" d="M157.81,169.6a6.26,6.26,0,0,1-4.23-2.26l-.63-.69a6.3,6.3,0,0,1-1.89-4.4,6.42,6.42,0,0,1,6.35-5.8,6.3,6.3,0,0,1,4.22,2.27l.62.69a6.2,6.2,0,0,1,1.87,4.42,5.64,5.64,0,0,1-2,4.1A5.7,5.7,0,0,1,157.81,169.6Zm4.15-5.66a5.22,5.22,0,0,0-1.6-3.11l-.32-.35a5.34,5.34,0,0,0-2.93-1.86,3.09,3.09,0,0,0-2.72.9,3.15,3.15,0,0,0-1.13,2.6,5.29,5.29,0,0,0,1.58,3.11l.32.35a5.39,5.39,0,0,0,2.94,1.86,3.1,3.1,0,0,0,2.72-.9A3.16,3.16,0,0,0,162,163.94Z"/><path class="a" d="M144.46,179.41a4.28,4.28,0,0,1-2.76-2.16L137.14,170l2-1.25,4.33,6.94q1.57,2.52,3.87,1.09a3.17,3.17,0,0,0,1.17-1.29,3.61,3.61,0,0,0,.38-1.75,3.44,3.44,0,0,0-.55-1.77l-4-6.45,2-1.24,6.77,10.83-1.44.9-1.27-1.42a5.1,5.1,0,0,1-2.5,4.07A4.61,4.61,0,0,1,144.46,179.41Z"/><path class="a" d="M123.89,175.51l1.63-.64c.3.45.61,1,.94,1.51a4.92,4.92,0,0,1,7.12-3,7.74,7.74,0,0,1,3.07,4l.1.26a7.23,7.23,0,0,1,.42,4.81,4.58,4.58,0,0,1-2.93,3,4.24,4.24,0,0,1-4.11-.4l2.5,6.38-2.19.85ZM135,181.87a6.55,6.55,0,0,0-.58-3.65,6.4,6.4,0,0,0-2-3.06,2.8,2.8,0,0,0-2.71-.18q-3,1.2-1.32,5.62a6.29,6.29,0,0,0,2.09,3.06,2.79,2.79,0,0,0,2.7.19A2.75,2.75,0,0,0,135,181.87Z"/><path class="a" d="M114,189.93a4.18,4.18,0,0,1-1.55-2.6l-.12-1,2-.41.11.54a2.39,2.39,0,0,0,.63,1.22,2.68,2.68,0,0,0,1.11.68,2.44,2.44,0,0,0,1.19.07,2.17,2.17,0,0,0,1.64-1.31,4.27,4.27,0,0,0,.15-2.65l-1.53-7.47,2.3-.47,2.56,12.51-1.64.34-.72-1.8a2.43,2.43,0,0,1-.46,1.12,4.26,4.26,0,0,1-1.12,1.07,4.54,4.54,0,0,1-1.64.67A3.5,3.5,0,0,1,114,189.93Z"/><path class="a" d="M100.41,191.41a4.68,4.68,0,0,1-2-1.82,5.81,5.81,0,0,1-.78-2.82L97.61,185l8.92-.33a5,5,0,0,0-1.07-3.09,3.25,3.25,0,0,0-2.71-1,2.84,2.84,0,0,0-2.29,1,3.43,3.43,0,0,0-.67,2.23l-2.22.08a4.92,4.92,0,0,1,.59-2.65,4.71,4.71,0,0,1,1.83-1.82,6,6,0,0,1,2.74-.73h.1a5.45,5.45,0,0,1,4.33,1.58,6.67,6.67,0,0,1,1.73,4.57l0,.5a7.62,7.62,0,0,1-.58,3.38,5.32,5.32,0,0,1-1.91,2.32,5.72,5.72,0,0,1-3,.91h-.17A5.77,5.77,0,0,1,100.41,191.41Zm5.15-2.28a4.19,4.19,0,0,0,1-2.64l-6.55.24V187a3.18,3.18,0,0,0,.95,2.26,3.06,3.06,0,0,0,2.32.79A3.19,3.19,0,0,0,105.56,189.13Z"/><path class="a" d="M88.31,178.66a19.26,19.26,0,0,1,2-3A4.42,4.42,0,0,1,92,174.35a3.63,3.63,0,0,1,1.79-.18,4.51,4.51,0,0,1,1.69.57l-.25,1.91a3.7,3.7,0,0,0-1.2-.51,2.37,2.37,0,0,0-1.78.46,5.16,5.16,0,0,0-1.41,2l3.3,13.19-2.48-.32-2.43-9.83h-.1l-4.81,8.88-2.28-.3Z"/><path class="a" d="M71,192.37l.45-1.67a3.34,3.34,0,0,0,1.15.65,1.88,1.88,0,0,0,1.4,0,1.69,1.69,0,0,0,.65-1.08l.52-1.91-2.87-.78.49-1.81,2.88.78,2.86-10.51,2.27.61-2.87,10.52,1.35.37-.49,1.81L77.43,189,77,190.65c-.65,2.39-1.93,3.31-3.85,2.79A5.24,5.24,0,0,1,71,192.37Z"/><path class="a" d="M62.29,172.45a1,1,0,0,0,.09-.69.67.67,0,0,0-.37-.4,2.23,2.23,0,0,0-1.17-.14l.7-1.57a2.8,2.8,0,0,1,1.64.18,2.62,2.62,0,0,1,1.5,1.27,2.3,2.3,0,0,1-.09,1.66,4.51,4.51,0,0,1,2.22-.71,5.12,5.12,0,0,1,2.45.49,4.45,4.45,0,0,1,2.42,2.32,4.24,4.24,0,0,1-.2,3.51L68,186.22l-2.15-.95,3.33-7.47q1.2-2.72-1.26-3.82a3.28,3.28,0,0,0-1.71-.24,3.71,3.71,0,0,0-1.68.66,3.49,3.49,0,0,0-1.16,1.44l-3.09,6.95-2.15-1Z"/><path class="a" d="M46,174a4,4,0,0,1-.71-2,2.87,2.87,0,0,1,.49-1.81l.28-.35L48,171.17l-.13.18c-.69,1-.25,2,1.3,3.11s2.63,1.12,3.26.19a1.2,1.2,0,0,0,0-1.39,12,12,0,0,0-1.63-1.95,20.37,20.37,0,0,1-1.76-2,4.3,4.3,0,0,1-.8-1.88,2.81,2.81,0,0,1,.56-2.07,3.56,3.56,0,0,1,2.89-1.75,6.74,6.74,0,0,1,3.9,1.43l.31.21a7.15,7.15,0,0,1,2,2,4.32,4.32,0,0,1,.75,2.11,3,3,0,0,1-.56,1.91l-.31.45-1.92-1.31.14-.21q1.2-1.75-1.75-3.77a3.69,3.69,0,0,0-1.83-.67,1.43,1.43,0,0,0-1.42.59,1.41,1.41,0,0,0-.24,1.17,2.86,2.86,0,0,0,.6,1.14A18.44,18.44,0,0,0,52.64,170a22.11,22.11,0,0,1,1.72,1.92,3.78,3.78,0,0,1,.74,1.79,3,3,0,0,1-.6,2.08,3.27,3.27,0,0,1-2.73,1.51A6.51,6.51,0,0,1,48,176l-.19-.13A6.73,6.73,0,0,1,46,174Z"/><path class="a" d="M25.94,158.5q-.06-3.52,3.23-6.59a12.53,12.53,0,0,1,3.73-2.55,5.13,5.13,0,0,1,3-.4A3.86,3.86,0,0,1,38,150.11a2.7,2.7,0,0,1,.87,1.72,2.33,2.33,0,0,1-.74,1.61h.11a4.62,4.62,0,0,1,4.36,1.61A4.37,4.37,0,0,1,44,157.78a3.4,3.4,0,0,1-1.31,2.56,3.3,3.3,0,0,1-2.21,1,4.57,4.57,0,0,1-2.58-1,23.59,23.59,0,0,1-3.53-3.24l-.81.75a1.93,1.93,0,0,0-.75,1.65,3.53,3.53,0,0,0,1,1.84,3.33,3.33,0,0,0,1.71,1.09A1.63,1.63,0,0,0,37,162l.2-.18,1.47,1.57a5.56,5.56,0,0,1-.54.56,2.3,2.3,0,0,1-1.52.59,4.36,4.36,0,0,1-2-.46,7,7,0,0,1-2.09-1.58l-.15-.16a5.55,5.55,0,0,1-1.71-3.23,3.32,3.32,0,0,1,1.19-2.72l4.48-4.18a.83.83,0,0,0,.07-1.32,2.2,2.2,0,0,0-2.45-.46A11.08,11.08,0,0,0,30.14,153a7.48,7.48,0,0,0-2.72,5.55,8.9,8.9,0,0,0,2.78,6,8.86,8.86,0,0,0,6.34,3.22q3.38.06,6.69-3t3.67-6.14c.19-2-.68-4-2.59-6a10.63,10.63,0,0,0-1.88-1.6,7.66,7.66,0,0,0-1.52-.88l1.1-1a8.92,8.92,0,0,1,1.88,1.24c.64.55,1.12,1,1.43,1.32,2.16,2.31,3.15,4.67,3,7s-1.54,4.78-4.11,7.18a12.19,12.19,0,0,1-5.25,3.1,8.42,8.42,0,0,1-5.14-.25,12.32,12.32,0,0,1-4.63-3.23Q26,162,25.94,158.5Zm12.34,0a3.14,3.14,0,0,0,1.69.73,2,2,0,0,0,1.28-.59q1.22-1.12-.48-2.94a3.19,3.19,0,0,0-2.37-1.06,3.54,3.54,0,0,0-2.49,1l-.33.31A20.15,20.15,0,0,0,38.28,158.49Z"/><path class="a" d="M23.21,147.4a5,5,0,0,1-3.57-2.51,4.66,4.66,0,0,1-.66-3.42,4.3,4.3,0,0,1,2.26-2.68l7.46-4.28,1.17,2-7.09,4.07q-2.58,1.48-1.24,3.82a3.12,3.12,0,0,0,1.25,1.22,3.57,3.57,0,0,0,1.74.44,3.48,3.48,0,0,0,1.79-.47l6.59-3.78,1.17,2-15.62,9-1.17-2Z"/><path class="a" d="M13.27,125.83a6.18,6.18,0,0,1,3.74-3l.87-.31a6.33,6.33,0,0,1,4.79,0,6.45,6.45,0,0,1,2.85,8.12,6.34,6.34,0,0,1-3.75,3l-.88.31a6.21,6.21,0,0,1-4.8,0,6.35,6.35,0,0,1-2.82-8.07Zm3.57,6a5.23,5.23,0,0,0,3.49-.25l.45-.15a5.38,5.38,0,0,0,2.86-2,3.08,3.08,0,0,0,.24-2.85,3.12,3.12,0,0,0-1.95-2.06,5.22,5.22,0,0,0-3.48.22L18,125a5.38,5.38,0,0,0-2.86,2,3.11,3.11,0,0,0-.25,2.85A3.15,3.15,0,0,0,16.84,131.87Z"/><path class="a" d="M9.77,116.87,9.21,114l1.84-.36.56,2.92,7.49-1.43a1.91,1.91,0,0,0,1.21-.59,1.32,1.32,0,0,0,.19-1.13,4,4,0,0,0-.66-1.45l1.72-.33a5.14,5.14,0,0,1,.88,2.2,2.78,2.78,0,0,1-.44,2.36,4.13,4.13,0,0,1-2.58,1.27l-7.36,1.41.26,1.38-1.84.35-.28-1.45-4.15,0-.28-1.45Z"/><path class="a" d="M9,92.47a4.51,4.51,0,0,1,3.26-1.15l8.6-.14,0,2.35-8.17.13c-2,0-3,.81-2.94,2.35a2.63,2.63,0,0,0,.5,1.48,3.5,3.5,0,0,0,1.31,1.08,3.94,3.94,0,0,0,1.79.38l7.6-.12,0,2.35-8.18.13c-2,0-3,.81-2.93,2.35a2.56,2.56,0,0,0,.5,1.48,3.35,3.35,0,0,0,1.3,1.07,3.85,3.85,0,0,0,1.79.39l7.6-.12,0,2.35L8.37,109l0-1.7,1.87-.35A4.63,4.63,0,0,1,8,103a3.52,3.52,0,0,1,2.07-3.54A4.47,4.47,0,0,1,7.9,95.56,4.08,4.08,0,0,1,9,92.47Z"/><path class="a" d="M12.07,76.13a3.53,3.53,0,0,1,3.1-.56l6.46,1.48a.92.92,0,0,0,.69,0,.69.69,0,0,0,.32-.44,2.27,2.27,0,0,0-.09-1.2l1.68.38a3.72,3.72,0,0,1,.06,2,2,2,0,0,1-.95,1.42,2.78,2.78,0,0,1-1.78.19,5.06,5.06,0,0,1,1.25,4.87,4.72,4.72,0,0,1-1.59,2.86,3.64,3.64,0,0,1-3,.36A3.51,3.51,0,0,1,16,86.12a4.83,4.83,0,0,1-.66-2.87,24.53,24.53,0,0,1,.75-5.06l-1.15-.27a2,2,0,0,0-1.91.34,3.86,3.86,0,0,0-1,2,3.65,3.65,0,0,0,0,2.17,1.7,1.7,0,0,0,1.27,1.06l.29.06-.51,2.25a6.13,6.13,0,0,1-.82-.14,2.45,2.45,0,0,1-1.45-1,4.83,4.83,0,0,1-.78-2.13,7.51,7.51,0,0,1,.14-2.69l.05-.21A5.91,5.91,0,0,1,12.07,76.13Zm5.14,6.39a3.1,3.1,0,0,0,.37,1.91,2.16,2.16,0,0,0,1.31.77c1.12.25,1.88-.47,2.27-2.18a3.71,3.71,0,0,0-.06-1.81,3.53,3.53,0,0,0-1-1.58,3.69,3.69,0,0,0-1.79-.92l-.48-.11A22.31,22.31,0,0,0,17.21,82.52Z"/><path class="a" d="M9.67,64.56l2,.77-.87,2.29-2-.76Zm4.87,1.9,12,4.51-.83,2.2L13.71,68.66Z"/><path class="a" d="M13.1,56.84l16.21,7.82-1,2.12L12.08,59Z"/><path class="a" d="M30.2,57.35l2.39,1.42L31.3,60.94l-2.38-1.41Z"/><path class="a" d="M41,47.17,40,48.55c-.49-.24-1-.51-1.58-.83A4.91,4.91,0,0,1,33.77,54,7.7,7.7,0,0,1,29.08,52l-.21-.17a7.21,7.21,0,0,1-2.81-3.93,4.62,4.62,0,0,1,1-4.06,4.23,4.23,0,0,1,3.75-1.73l-5.39-4.23,1.45-1.85Zm-12.83.18a6.54,6.54,0,0,0,2.35,2.85,6.38,6.38,0,0,0,3.33,1.59,2.74,2.74,0,0,0,2.41-1.22c1.35-1.71.78-3.55-1.71-5.5a6.36,6.36,0,0,0-3.35-1.59,2.83,2.83,0,0,0-2.43,1.21A2.76,2.76,0,0,0,28.2,47.35Z"/><path class="a" d="M41.55,29.71a4.73,4.73,0,0,1,2.66.16,5.79,5.79,0,0,1,2.4,1.68l1.18,1.33-6.66,5.93a5.05,5.05,0,0,0,2.78,1.7,3.24,3.24,0,0,0,2.73-1,2.77,2.77,0,0,0,1.12-2.23,3.31,3.31,0,0,0-.9-2.14l1.66-1.48a4.91,4.91,0,0,1,1.24,2.41,4.76,4.76,0,0,1-.26,2.58A6.08,6.08,0,0,1,47.85,41l-.07.06a5.45,5.45,0,0,1-4.34,1.54,6.65,6.65,0,0,1-4.25-2.42l-.34-.38a7.49,7.49,0,0,1-1.7-3,5.31,5.31,0,0,1,0-3,5.6,5.6,0,0,1,1.75-2.62l.13-.12A5.68,5.68,0,0,1,41.55,29.71Zm-2.52,5A4.2,4.2,0,0,0,40,37.41l4.89-4.35-.2-.23a3.1,3.1,0,0,0-2.17-1.14,3,3,0,0,0-2.29.87A3.17,3.17,0,0,0,39,34.75Z"/></svg>