<svg xmlns="http://www.w3.org/2000/svg" xmlns:xlink="http://www.w3.org/1999/xlink" version="1.1" id="cursor" x="0px" y="0px" viewBox="0 0 8.6 8.3" style="enable-background:new 0 0 8.6 8.3;" xml:space="preserve" width="20"><defs><style>.cls-1{fill:#03cca8;}</style></defs><g id="pfeil"><path class="cls-1" d="M-14.77-42.93l-2.87-6.28L-11-47l-1.7.9,1.7,1.5-1.33,1.4-1.7-1.5Z" transform="translate(19.64 51.22)"/><rect class="cls-1" x="-19.31" y="-50.24" width="0.6" height="1.1" transform="translate(53.82 1.86) rotate(-68.7)"/><rect class="cls-1" x="-17.27" y="-50.89" width="1.1" height="0.6" transform="translate(56.12 3.51) rotate(-68.6)"/><rect class="cls-1" x="-18.45" y="-47.59" width="1.1" height="0.6" transform="translate(52.29 5.19) rotate(-67.83)"/><rect class="cls-1" x="-18.35" y="-51.13" width="0.6" height="1.1" transform="translate(38.1 40.01) rotate(-23.2)"/><rect class="cls-1" x="-16.27" y="-49.93" width="1.1" height="0.6" transform="translate(37.97 40.96) rotate(-23.28)"/><rect class="cls-1" x="-19.56" y="-48.53" width="1.1" height="0.6" transform="translate(37.23 39.69) rotate(-23.41)"/></g></svg>